<svg width="24" height="24" viewBox="0 0 24 24" fill="none" xmlns="http://www.w3.org/2000/svg">
<path fill-rule="evenodd" clip-rule="evenodd" d="M3.25781 10.1472C3.25781 5.24818 7.16283 1.25391 12.0078 1.25391C16.8528 1.25391 20.7578 5.24818 20.7578 10.1472C20.7578 12.5123 20.0838 15.0518 18.8923 17.2458C17.7022 19.437 15.9634 21.3411 13.7883 22.3578C12.6584 22.8859 11.3572 22.8859 10.2273 22.3578C8.05218 21.3411 6.31343 19.437 5.12337 17.2458C3.93184 15.0518 3.25781 12.5123 3.25781 10.1472ZM12.0078 2.75391C8.01625 2.75391 4.75781 6.05139 4.75781 10.1472C4.75781 12.2443 5.36045 14.5393 6.44152 16.5299C7.52405 18.5232 9.05383 20.1535 10.8625 20.9989C11.5899 21.3389 12.4258 21.3389 13.1532 20.9989C14.9618 20.1535 16.4916 18.5232 17.5741 16.5299C18.6552 14.5393 19.2578 12.2443 19.2578 10.1472C19.2578 6.05139 15.9994 2.75391 12.0078 2.75391ZM12.0078 7.75391C10.7652 7.75391 9.75781 8.76127 9.75781 10.0039C9.75781 11.2465 10.7652 12.2539 12.0078 12.2539C13.2505 12.2539 14.2578 11.2465 14.2578 10.0039C14.2578 8.76127 13.2505 7.75391 12.0078 7.75391ZM8.25781 10.0039C8.25781 7.93284 9.93675 6.25391 12.0078 6.25391C14.0789 6.25391 15.7578 7.93284 15.7578 10.0039C15.7578 12.075 14.0789 13.7539 12.0078 13.7539C9.93675 13.7539 8.25781 12.075 8.25781 10.0039Z" fill="#FFB2C1"/>
</svg>
