<svg viewBox="0 0 56 58" fill="none" xmlns="http://www.w3.org/2000/svg">
<path fill-rule="evenodd" clip-rule="evenodd" d="M21.2918 41.4426C21.3006 41.4381 21.3071 41.4348 21.3115 41.4324C21.3049 41.4358 21.2983 41.4392 21.2918 41.4426Z" fill="#F24F7A"/>
<path fill-rule="evenodd" clip-rule="evenodd" d="M28.8293 39.4666C28.8327 39.4495 28.8362 39.4324 28.8397 39.4154C28.8396 39.4212 28.839 39.427 28.838 39.4329C28.8266 39.4978 28.8143 39.562 28.8011 39.6256C28.8093 39.5735 28.8187 39.5205 28.8293 39.4666ZM29.9563 36.748C30.169 36.7119 30.3837 36.7102 30.4816 36.712C30.3092 36.7149 30.1333 36.7265 29.9563 36.748ZM30.8324 36.7313C30.7144 36.7203 30.5971 36.714 30.4816 36.712C30.5327 36.7106 30.672 36.7131 30.8324 36.7313Z" fill="#F24F7A"/>
<path fill-rule="evenodd" clip-rule="evenodd" d="M24.9429 38.1823C24.9571 37.9725 24.5505 37.6879 24.0486 37.6879C23.3662 37.6879 22.9575 38.1038 22.7807 38.5864C22.7699 38.6159 22.76 38.6455 22.7509 38.6754C22.7415 38.7311 22.7322 38.7869 22.723 38.8428L22.7089 38.9282L22.7083 38.9315C22.6634 39.2037 22.6157 39.4912 22.5592 39.7609C22.5607 39.7539 22.5576 39.7679 22.5592 39.7609C22.471 40.1505 22.2883 40.5349 22.0392 40.8332C21.9264 40.9747 21.7997 41.1012 21.662 41.2099C21.5824 41.2705 21.5 41.3256 21.415 41.3748C21.3812 41.3947 21.3464 41.4142 21.3115 41.4324C21.3071 41.4348 21.3006 41.4381 21.2918 41.4426L21.2866 41.4452C21.2667 41.4554 21.2051 41.4758 21.1768 41.4848L20.8617 41.4932C20.8104 41.4935 20.759 41.4938 20.7077 41.4938H19.2164L19.5255 39.7271C19.6519 39.0041 19.6069 38.2873 19.201 37.7234C18.4284 36.6488 16.8474 36.528 15.673 36.8234C14.6122 37.0896 13.6282 37.7835 13.1789 38.9669C12.7983 39.9704 13.0425 41.0238 13.7449 41.6467C14.4658 42.2856 15.4554 42.2891 16.3626 42.2891H16.727C16.0657 43.114 14.9873 43.7486 14.9873 43.7486C14.9873 43.7486 14.3177 44.0759 14.1715 44.1308C14.1357 44.1443 14.1048 44.1559 14.0781 44.1681C14.004 44.2184 13.979 44.2833 13.9784 44.3556C13.9743 44.8979 14.5831 45.5875 15.5425 45.404C17.1499 45.0964 18.2999 43.3566 18.8047 42.285H20.6769C21.2545 42.285 21.8258 42.2822 22.4023 42.1179C22.7207 42.0272 23.0305 41.8893 23.3154 41.7048C23.8729 42.1445 24.6129 42.2874 25.3055 42.2822C26.0673 42.2768 26.8354 42.1068 27.5101 41.6601C27.489 41.6423 27.4683 41.6239 27.4479 41.6051C26.8422 41.0469 26.646 40.2067 26.8217 39.3694C26.8125 39.3888 26.8057 39.4099 26.8017 39.4329L26.8005 39.4357C26.6805 40.1227 26.3841 40.745 25.857 41.167L25.8079 41.2027C25.6744 41.2999 25.5315 41.383 25.3814 41.4507C25.3648 41.4406 25.2741 41.3863 25.2525 41.3736C24.8139 41.0583 24.6079 40.4294 24.6639 39.7989C24.6674 39.7597 24.6719 39.7205 24.6774 39.6813C24.712 39.436 24.7565 39.191 24.8017 38.9463C24.8285 38.8016 24.8554 38.6569 24.8807 38.5123C24.8807 38.5123 24.9376 38.2607 24.9429 38.1823ZM17.107 41.4866H16.2967C16.0815 41.4866 15.8699 41.4527 15.7179 41.3335C14.8689 40.6675 14.7862 38.8605 16.2185 37.8007C16.5011 37.5916 16.8823 37.4739 17.1044 37.6564C17.5024 37.9835 17.6356 38.9742 17.107 41.4866Z" fill="#F24F7A"/>
<path d="M29.171 42.2698C29.9812 42.3368 30.8173 42.2183 31.5866 41.8181C31.6965 41.7609 31.8047 41.6953 31.9099 41.6222C32.6164 41.1316 33.1916 40.3026 33.3086 39.3924C33.3264 39.2541 33.3336 39.1139 33.3291 38.9728C33.2796 37.4349 32.0244 36.8423 30.8324 36.7313C30.7144 36.7203 30.5971 36.714 30.4816 36.712C30.3092 36.7149 30.1333 36.7265 29.9563 36.748C28.847 36.8823 27.6949 37.4025 27.0993 38.5835C26.9702 38.8391 26.8773 39.1041 26.8217 39.3694C26.646 40.2067 26.8422 41.0469 27.4479 41.6051C27.4683 41.6239 27.489 41.6423 27.5101 41.6601C27.6289 41.5814 27.7449 41.4942 27.8574 41.3977C28.3876 40.9432 28.6549 40.326 28.8011 39.6256C28.8093 39.5735 28.8187 39.5205 28.8293 39.4666C28.8327 39.4495 28.8362 39.4324 28.8397 39.4154C29.0682 38.3258 29.6707 37.5511 30.4148 37.5511C31.2815 37.5511 31.463 38.4815 31.2592 39.5213C31.051 40.6269 30.4953 41.4478 29.6841 41.4478C28.9835 41.4478 28.625 40.7387 28.8011 39.6256C28.6549 40.326 28.3876 40.9432 27.8574 41.3977C27.7449 41.4942 27.6289 41.5814 27.5101 41.6601C27.9741 42.0539 28.5836 42.2211 29.171 42.2698Z" fill="#F24F7A"/>
<path d="M36.438 42.0167C37.2516 41.6909 37.9478 41.0572 38.2865 40.1372C38.4248 39.7622 38.4864 39.3473 38.5464 38.9422L38.5528 38.8988L38.5578 38.8656L38.5643 38.8218C38.5797 38.7197 38.5954 38.6186 38.6127 38.5193L38.6224 38.4701C38.6462 38.3592 38.6674 38.2607 38.6727 38.1823C38.6869 37.9725 38.2803 37.6879 37.7784 37.6879C36.9856 37.6879 36.5658 38.2492 36.4467 38.8243L36.4406 38.86L36.4266 38.9413C36.3858 39.1786 36.3447 39.416 36.3009 39.6528C36.2986 39.666 36.2963 39.6792 36.2938 39.6924C36.2301 40.034 36.0983 40.3604 35.9087 40.6457C35.7625 40.8656 35.5846 41.1257 35.3845 41.3147C35.2549 41.4371 35.0706 41.4813 34.8995 41.4813H34.1637C33.9669 41.4813 33.7665 41.4249 33.6515 41.275C33.3056 40.8243 33.3106 39.4839 33.3096 39.4382C33.3086 39.3924 33.3116 39.4071 33.3086 39.3924C33.1916 40.3026 32.6164 41.1316 31.9099 41.6222C32.5426 42.1846 33.4149 42.2852 34.2237 42.2852C34.2719 42.2852 34.3201 42.2853 34.3683 42.2854C35.0604 42.2867 35.759 42.288 36.438 42.0167Z" fill="#F24F7A"/>
<path d="M43.1928 34.0486C43.2182 33.9599 43.2121 33.9045 43.1581 33.838C42.984 33.6717 41.9735 33.4833 41.219 34.2814C40.974 34.5406 40.7903 34.8477 40.7566 35.147L39.9718 39.5192C39.7744 40.5593 39.4142 40.7145 39.0097 40.8853C38.9182 40.9319 38.8681 40.9784 38.8504 41.0716C38.8003 41.3355 39.1303 42.2825 40.1224 42.2825C40.9904 42.2825 41.6841 41.677 41.8934 40.5748L42.8797 35.1399C42.881 35.1316 42.8828 35.1216 42.885 35.1103C42.924 34.9124 43.093 34.2847 43.1928 34.0486Z" fill="#F24F7A"/>
<path d="M32.111 43.8855C33.0219 43.9698 35.1319 44.0359 36.285 43.6259C36.3356 44.1506 36.2344 45.2758 35.4251 45.5784C34.6159 45.8811 33.1155 45.8184 32.4664 45.7492C32.0043 45.634 31.9098 44.5595 32.111 43.8855Z" fill="#F24F7A"/>
<path d="M23.9873 43.8786C21.3637 44.22 20.2049 43.9802 19.1778 43.9899C18.8888 44.2491 18.941 45.0505 19.7236 45.5635C20.7018 46.2048 24.3026 45.8442 23.9873 43.8786Z" fill="#F24F7A"/>
<path d="M20.5178 46.5333C20.5178 46.5333 20.947 46.655 22.1393 46.3662C22.17 46.8116 22.099 48.0425 21.2067 47.999C20.202 47.95 20.3511 47.0246 20.5178 46.5333Z" fill="#F24F7A"/>
<g filter="url(#filter0_d_52211_1534)">
<ellipse cx="28.2007" cy="26.4193" rx="3.50543" ry="0.876359" fill="url(#paint0_radial_52211_1534)" fill-opacity="0.5" shape-rendering="crispEdges"/>
</g>
<path d="M27.4004 25.5406C27.4004 25.9796 27.7563 26.3355 28.1953 26.3355C28.6343 26.3355 28.9902 25.9796 28.9902 25.5406L27.4004 25.5406ZM28.1953 22.0352L27.4004 22.0352L27.4004 25.5406L28.1953 25.5406L28.9902 25.5406L28.9902 22.0352L28.1953 22.0352Z" fill="#F24F7A"/>
<rect x="18.305" y="0.633111" width="21.7664" height="21.7664" rx="10.8832" fill="#F24F7A"/>
<rect x="18.305" y="0.633111" width="21.7664" height="21.7664" rx="10.8832" stroke="white" stroke-width="0.733779"/>
<path d="M27.0511 5.86523C26.8109 5.78501 26.4678 5.90346 26.1906 6.10041C26.0622 6.19214 25.9486 6.30023 25.8655 6.41284C25.7088 6.19573 25.5064 6.02495 25.3456 5.96862C24.9069 5.815 24.6656 6.11283 24.5744 6.29079C24.2371 6.94894 25.1341 8.12435 25.5224 8.26033C25.8376 8.36567 26.9005 7.63955 27.2858 6.85997C27.4441 6.54039 27.5005 6.01471 27.0511 5.86523Z" fill="white"/>
<path d="M35.5338 13.7711C35.5968 13.8037 35.6162 13.8362 35.6008 13.9012C35.5662 14.0856 35.0417 14.747 34.2591 14.747C33.5743 14.747 33.2017 14.3241 33.3534 13.5543L33.8205 11.0712C33.9544 10.3989 33.7863 10.1604 33.4479 10.1821C32.9681 10.2038 32.3445 11.0387 32.1398 12.1013L31.6764 14.5301C31.6618 14.5844 31.6183 14.5844 31.6067 14.5952C31.3638 14.6494 31.0905 14.6711 30.8079 14.6711C30.5253 14.6711 30.2667 14.6386 30.0306 14.5952C30.0205 14.5844 29.9886 14.5735 29.9909 14.541L30.6575 11.0712C30.7914 10.3989 30.6124 10.1604 30.2848 10.1821C29.8051 10.2038 29.1837 11.0062 28.9775 12.0905L28.5025 14.5301C28.4879 14.5844 28.4444 14.5844 28.4328 14.5952C28.2007 14.6494 27.9275 14.6711 27.6449 14.6711C27.3623 14.6711 27.0819 14.6386 26.835 14.5952C26.8249 14.5844 26.793 14.5735 26.7953 14.541C26.907 14.0314 27.3529 11.8519 27.5275 10.9086C27.663 10.2146 27.454 10.0953 27.1797 9.97606C27.1276 9.94353 27.1082 9.911 27.1127 9.84595C27.1473 9.66161 27.6719 9.00019 28.4545 9.00019C29.074 9.00019 29.3511 9.39054 29.3334 9.95438C29.3243 10.0845 29.3051 10.2038 29.2843 10.3447H29.317C29.8698 9.43391 30.5624 9.01103 31.2262 9.00019C32.0095 8.98935 32.4994 9.44475 32.4481 10.3339H32.4807C33.0088 9.46644 33.7138 9.02188 34.4001 9.00019C35.2704 8.98935 35.7962 9.55318 35.5869 10.6809C35.4699 11.2664 35.322 11.982 35.1549 12.8169C35.0172 13.5434 35.2596 13.6519 35.5338 13.7711Z" fill="white"/>
<path d="M24.6933 14.7451C24.0085 14.7451 23.6359 14.3223 23.7767 13.5524L24.6242 9.20434C24.6258 9.18265 24.6381 9.16096 24.6715 9.15012C24.9028 9.10675 25.1986 9.07422 25.4594 9.07422C25.742 9.07422 26.034 9.0959 26.2585 9.15012C26.2686 9.16096 26.3004 9.17181 26.2873 9.20434L25.5891 12.8151C25.4514 13.5416 25.6938 13.65 25.9681 13.7693C26.031 13.8018 26.0505 13.8343 26.0351 13.8994C26.0004 14.0837 25.4759 14.7451 24.6933 14.7451Z" fill="white"/>
<defs>
<filter id="filter0_d_52211_1534" x="0.847504" y="8.05458" width="54.7034" height="49.4495" filterUnits="userSpaceOnUse" color-interpolation-filters="sRGB">
<feFlood flood-opacity="0" result="BackgroundImageFix"/>
<feColorMatrix in="SourceAlpha" type="matrix" values="0 0 0 0 0 0 0 0 0 0 0 0 0 0 0 0 0 0 127 0" result="hardAlpha"/>
<feOffset dy="6.35942"/>
<feGaussianBlur stdDeviation="11.9239"/>
<feComposite in2="hardAlpha" operator="out"/>
<feColorMatrix type="matrix" values="0 0 0 0 0.227451 0 0 0 0 0.439216 0 0 0 0 0.74902 0 0 0 0.1 0"/>
<feBlend mode="normal" in2="BackgroundImageFix" result="effect1_dropShadow_52211_1534"/>
<feBlend mode="normal" in="SourceGraphic" in2="effect1_dropShadow_52211_1534" result="shape"/>
</filter>
<radialGradient id="paint0_radial_52211_1534" cx="0" cy="0" r="1" gradientUnits="userSpaceOnUse" gradientTransform="translate(28.2007 26.4193) rotate(90) scale(0.876359 3.50543)">
<stop stop-color="#4E4E4E"/>
<stop offset="1" stop-color="#B4B4B4"/>
</radialGradient>
</defs>
</svg>
