<svg viewBox="0 0 18 22" fill="none" xmlns="http://www.w3.org/2000/svg">
<path fill-rule="evenodd" clip-rule="evenodd" d="M0.257812 9.1472C0.257812 4.24818 4.16283 0.253906 9.00781 0.253906C13.8528 0.253906 17.7578 4.24818 17.7578 9.1472C17.7578 11.5123 17.0838 14.0518 15.8923 16.2458C14.7022 18.437 12.9634 20.3411 10.7883 21.3578C9.65838 21.8859 8.35725 21.8859 7.2273 21.3578C5.05218 20.3411 3.31343 18.437 2.12337 16.2458C0.931841 14.0518 0.257812 11.5123 0.257812 9.1472ZM9.00781 1.75391C5.01625 1.75391 1.75781 5.05139 1.75781 9.1472C1.75781 11.2443 2.36045 13.5393 3.44152 15.5299C4.52405 17.5232 6.05383 19.1535 7.86246 19.9989C8.58987 20.3389 9.42576 20.3389 10.1532 19.9989C11.9618 19.1535 13.4916 17.5232 14.5741 15.5299C15.6552 13.5393 16.2578 11.2443 16.2578 9.1472C16.2578 5.05139 12.9994 1.75391 9.00781 1.75391ZM9.00781 6.75391C7.76517 6.75391 6.75781 7.76127 6.75781 9.00391C6.75781 10.2465 7.76517 11.2539 9.00781 11.2539C10.2505 11.2539 11.2578 10.2465 11.2578 9.00391C11.2578 7.76127 10.2505 6.75391 9.00781 6.75391ZM5.25781 9.00391C5.25781 6.93284 6.93675 5.25391 9.00781 5.25391C11.0789 5.25391 12.7578 6.93284 12.7578 9.00391C12.7578 11.075 11.0789 12.7539 9.00781 12.7539C6.93675 12.7539 5.25781 11.075 5.25781 9.00391Z" fill="#F24F7A"/>
</svg>
