<svg viewBox="0 0 64 64" fill="none" xmlns="http://www.w3.org/2000/svg">
<rect width="64" height="64" rx="32" fill="#F7F7F7"/>
<path d="M28.0417 16.168C26.73 16.168 25.6667 17.2313 25.6667 18.543V20.1263C25.6667 21.438 26.73 22.5013 28.0417 22.5013H35.9583C37.27 22.5013 38.3333 21.438 38.3333 20.1263V18.543C38.3333 17.2313 37.27 16.168 35.9583 16.168H28.0417Z" fill="url(#paint0_radial_52161_74884)"/>
<path fill-rule="evenodd" clip-rule="evenodd" d="M23.2917 19.3926C21.3 19.5044 20.0426 19.8217 19.1412 20.7231C17.75 22.1144 17.75 24.3535 17.75 28.8319V38.3319C17.75 42.8102 17.75 45.0494 19.1412 46.4406C20.5325 47.8319 22.7717 47.8319 27.25 47.8319H36.75C41.2283 47.8319 43.4675 47.8319 44.8588 46.4406C46.25 45.0494 46.25 42.8102 46.25 38.3319V28.8319C46.25 24.3535 46.25 22.1144 44.8588 20.7231C43.9574 19.8217 42.7 19.5044 40.7083 19.3926V20.1263C40.7083 22.7497 38.5817 24.8763 35.9583 24.8763H28.0417C25.4183 24.8763 23.2917 22.7497 23.2917 20.1263V19.3926ZM37.5603 32.8694C38.0397 32.4219 38.0656 31.6705 37.6181 31.1911C37.1706 30.7116 36.4192 30.6857 35.9398 31.1332L29.9643 36.7103L28.0603 34.9332C27.5808 34.4857 26.8294 34.5116 26.3819 34.9911C25.9344 35.4705 25.9603 36.2219 26.4398 36.6694L29.154 39.2028C29.6103 39.6286 30.3183 39.6286 30.7745 39.2028L37.5603 32.8694Z" fill="url(#paint1_radial_52161_74884)"/>
<defs>
<radialGradient id="paint0_radial_52161_74884" cx="0" cy="0" r="1" gradientUnits="userSpaceOnUse" gradientTransform="translate(22.8889 21.3047) rotate(48.6313) scale(35.3474 50.6736)">
<stop stop-color="#FF8BA4"/>
<stop offset="1" stop-color="#F24F7A"/>
</radialGradient>
<radialGradient id="paint1_radial_52161_74884" cx="0" cy="0" r="1" gradientUnits="userSpaceOnUse" gradientTransform="translate(22.8889 21.3047) rotate(48.6313) scale(35.3474 50.6736)">
<stop stop-color="#FF8BA4"/>
<stop offset="1" stop-color="#F24F7A"/>
</radialGradient>
</defs>
</svg>
