<svg viewBox="0 0 64 64" fill="none" xmlns="http://www.w3.org/2000/svg">
<circle cx="32" cy="32" r="32" fill="#F7F7F7"/>
<path d="M26.1328 45.4531H37.5216V46.9286C37.5216 48.7051 36.0814 50.1452 34.3049 50.1452H29.3495C27.573 50.1452 26.1328 48.7051 26.1328 46.9286V45.4531Z" fill="white"/>
<path d="M31.9339 45.4536H31.7484H26.147V42.4043C26.147 40.9934 25.7075 39.6224 24.8974 38.5062C22.0976 34.6486 20.3701 30.6232 22.356 26.2297C23.8931 22.8288 26.5369 19.9553 31.8412 19.9222C37.1455 19.9553 39.7892 22.8288 41.3264 26.2297C43.3122 30.6232 41.5847 34.6486 38.7849 38.5062C37.9748 39.6224 37.5353 40.9934 37.5353 42.4043V45.4536H31.9339Z" fill="url(#paint0_radial_52021_69806)"/>
<path d="M31.8359 11L31.8359 15.0386" stroke="#FFE3E6" stroke-width="3.2" stroke-linecap="round"/>
<path d="M45.0703 14.8984L42.2146 17.7542" stroke="#FFE3E6" stroke-width="3.2" stroke-linecap="round"/>
<path d="M18.6016 14.8984L21.4573 17.7542" stroke="#FFE3E6" stroke-width="3.2" stroke-linecap="round"/>
<path d="M51.6719 27.5156L47.6332 27.5156" stroke="#FFE3E6" stroke-width="3.2" stroke-linecap="round"/>
<path d="M12 26.5078L16.0386 26.5078" stroke="#FFE3E6" stroke-width="3.2" stroke-linecap="round"/>
<path d="M29.8125 50.1484H33.8717V51.5784C33.8717 52.6994 32.963 53.608 31.8421 53.608C30.7212 53.608 29.8125 52.6994 29.8125 51.5784V50.1484Z" fill="url(#paint1_radial_52021_69806)"/>
<defs>
<radialGradient id="paint0_radial_52021_69806" cx="0" cy="0" r="1" gradientUnits="userSpaceOnUse" gradientTransform="translate(25.2293 24.0638) rotate(51.6005) scale(27.2934 38.4017)">
<stop stop-color="#FF8BA4"/>
<stop offset="1" stop-color="#F24F7A"/>
</radialGradient>
<radialGradient id="paint1_radial_52021_69806" cx="0" cy="0" r="1" gradientUnits="userSpaceOnUse" gradientTransform="translate(30.5444 50.7097) rotate(41.0589) scale(4.41261 6.31679)">
<stop stop-color="#FF8BA4"/>
<stop offset="1" stop-color="#F24F7A"/>
</radialGradient>
</defs>
</svg>
