<svg width="40" height="40" viewBox="0 0 40 40" fill="none" xmlns="http://www.w3.org/2000/svg">
<path opacity="0.5" d="M14.6094 32.7266H24.7659V34.0424C24.7659 35.6266 23.4816 36.911 21.8973 36.911H17.478C15.8937 36.911 14.6094 35.6266 14.6094 34.0424V32.7266Z" fill=""/>
<path d="M19.7816 32.7263H19.6161H14.6208V30.007C14.6208 28.7487 14.2288 27.526 13.5064 26.5306C11.0095 23.0904 9.46894 19.5005 11.2399 15.5824C12.6107 12.5495 14.9685 9.98683 19.6989 9.95729C24.4292 9.98683 26.787 12.5495 28.1578 15.5824C29.9288 19.5005 28.3882 23.0904 25.8913 26.5306C25.1689 27.526 24.7769 28.7487 24.7769 30.007V32.7263H19.7816Z" fill=""/>
<path opacity="0.5" d="M19.6953 2L19.6953 5.60167" stroke="" stroke-width="2.85377" stroke-linecap="round"/>
<path opacity="0.5" d="M31.4922 5.47656L28.9454 8.02333" stroke="" stroke-width="2.85377" stroke-linecap="round"/>
<path opacity="0.5" d="M7.89844 5.47656L10.4452 8.02333" stroke="" stroke-width="2.85377" stroke-linecap="round"/>
<path opacity="0.5" d="M37.3906 16.7305L33.789 16.7305" stroke="" stroke-width="2.85377" stroke-linecap="round"/>
<path opacity="0.5" d="M2 15.832L5.60167 15.832" stroke="" stroke-width="2.85377" stroke-linecap="round"/>
<path d="M17.8906 36.9141H21.5106V38.1893C21.5106 39.189 20.7003 39.9993 19.7006 39.9993C18.701 39.9993 17.8906 39.189 17.8906 38.1893V36.9141Z" fill=""/>
</svg>
