<svg viewBox="0 0 40 40" fill="none" xmlns="http://www.w3.org/2000/svg">
<g clip-path="url(#clip0_62345_92692)">
<path fill-rule="evenodd" clip-rule="evenodd" d="M30.0026 23.3333C30.0026 30.6971 24.0331 36.6667 16.6693 36.6667C14.6101 36.6667 12.6599 36.1999 10.9189 35.3663C10.3205 35.0798 9.64249 34.9793 9.00158 35.1507L6.95818 35.6975C5.34763 36.1284 3.87419 34.655 4.30512 33.0444L4.85186 31.001C5.02335 30.3601 4.92276 29.6822 4.63627 29.0837C3.80273 27.3427 3.33594 25.3925 3.33594 23.3333C3.33594 15.9695 9.30547 10 16.6693 10C24.0331 10 30.0026 15.9695 30.0026 23.3333ZM10.8359 25C11.7564 25 12.5026 24.2538 12.5026 23.3333C12.5026 22.4129 11.7564 21.6667 10.8359 21.6667C9.91546 21.6667 9.16927 22.4129 9.16927 23.3333C9.16927 24.2538 9.91546 25 10.8359 25ZM16.6693 25C17.5897 25 18.3359 24.2538 18.3359 23.3333C18.3359 22.4129 17.5897 21.6667 16.6693 21.6667C15.7488 21.6667 15.0026 22.4129 15.0026 23.3333C15.0026 24.2538 15.7488 25 16.6693 25ZM22.5026 25C23.4231 25 24.1693 24.2538 24.1693 23.3333C24.1693 22.4129 23.4231 21.6667 22.5026 21.6667C21.5821 21.6667 20.8359 22.4129 20.8359 23.3333C20.8359 24.2538 21.5821 25 22.5026 25Z" fill=""/>
<path opacity="0.6" d="M29.9746 24.1794C30.1544 24.105 30.3318 24.0259 30.5066 23.9422C30.9928 23.7094 31.5436 23.6277 32.0644 23.767L33.7246 24.2112C35.0332 24.5614 36.2304 23.3642 35.8803 22.0556L35.436 20.3954C35.2967 19.8746 35.3784 19.3238 35.6112 18.8376C36.2884 17.4229 36.6677 15.8384 36.6677 14.1654C36.6677 8.18228 31.8175 3.33203 25.8344 3.33203C21.3176 3.33203 17.4465 6.0962 15.8203 10.0252C16.1005 10.0076 16.3831 9.9987 16.6677 9.9987C24.0315 9.9987 30.001 15.9682 30.001 23.332C30.001 23.6167 29.9921 23.8992 29.9746 24.1794Z" fill=""/>
</g>
<defs>
<clipPath id="clip0_62345_92692">
<rect width="40" height="40" fill="white"/>
</clipPath>
</defs>
</svg>
