<svg viewBox="0 0 64 64" fill="none" xmlns="http://www.w3.org/2000/svg">
<circle cx="32" cy="32" r="32" fill="#F7F7F7"/>
<path d="M47.8307 26.4596C47.8307 20.7757 43.223 16.168 37.5391 16.168C34.2412 16.168 31.3056 17.7233 29.4221 20.1377C37.4553 20.4483 43.8724 27.0587 43.8724 35.168C43.8724 35.3426 43.8694 35.5166 43.8635 35.6898L44.3896 35.8306C45.9196 36.24 47.3194 34.8402 46.91 33.3102L46.7083 32.5564C46.5454 31.9476 46.6434 31.3043 46.9052 30.731C47.4995 29.4299 47.8307 27.9835 47.8307 26.4596Z" fill="url(#paint0_radial_52161_75001)"/>
<path fill-rule="evenodd" clip-rule="evenodd" d="M41.4974 35.168C41.4974 42.1636 35.8263 47.8346 28.8307 47.8346C26.8745 47.8346 25.0219 47.3912 23.3678 46.5993C22.7994 46.3272 22.1553 46.2316 21.5464 46.3945L19.6052 46.9139C18.0752 47.3233 16.6754 45.9235 17.0848 44.3935L17.6042 42.4523C17.7671 41.8434 17.6715 41.1993 17.3994 40.6309C16.6075 38.9768 16.1641 37.1242 16.1641 35.168C16.1641 28.1724 21.8351 22.5013 28.8307 22.5013C35.8263 22.5013 41.4974 28.1724 41.4974 35.168ZM23.2891 36.7513C24.1635 36.7513 24.8724 36.0424 24.8724 35.168C24.8724 34.2935 24.1635 33.5846 23.2891 33.5846C22.4146 33.5846 21.7057 34.2935 21.7057 35.168C21.7057 36.0424 22.4146 36.7513 23.2891 36.7513ZM28.8307 36.7513C29.7052 36.7513 30.4141 36.0424 30.4141 35.168C30.4141 34.2935 29.7052 33.5846 28.8307 33.5846C27.9563 33.5846 27.2474 34.2935 27.2474 35.168C27.2474 36.0424 27.9563 36.7513 28.8307 36.7513ZM34.3724 36.7513C35.2468 36.7513 35.9557 36.0424 35.9557 35.168C35.9557 34.2935 35.2468 33.5846 34.3724 33.5846C33.4979 33.5846 32.7891 34.2935 32.7891 35.168C32.7891 36.0424 33.4979 36.7513 34.3724 36.7513Z" fill="url(#paint1_radial_52161_75001)"/>
<defs>
<radialGradient id="paint0_radial_52161_75001" cx="0" cy="0" r="1" gradientUnits="userSpaceOnUse" gradientTransform="translate(21.8739 21.3051) rotate(45.6252) scale(37.1156 53.6262)">
<stop stop-color="#FF8BA4"/>
<stop offset="1" stop-color="#F24F7A"/>
</radialGradient>
<radialGradient id="paint1_radial_52161_75001" cx="0" cy="0" r="1" gradientUnits="userSpaceOnUse" gradientTransform="translate(21.8739 21.3051) rotate(45.6252) scale(37.1156 53.6262)">
<stop stop-color="#FF8BA4"/>
<stop offset="1" stop-color="#F24F7A"/>
</radialGradient>
</defs>
</svg>
