<svg viewBox="0 0 40 40" fill="none" xmlns="http://www.w3.org/2000/svg">
<g clip-path="url(#clip0_62345_92702)">
<path opacity="0.5" d="M0.979224 18.9174C3.46333 16.6147 5.69097 15.2188 9.25571 15.2188C12.8204 15.2188 15.0481 16.6147 17.5321 18.9174C18.6356 19.9402 18.8066 21.6046 18.0448 22.8261C17.7702 23.2661 17.2442 49.2388 16.7256 49.2388H1.78589C1.26733 49.2388 0.74112 23.2661 0.466714 22.8261C-0.295109 21.6046 -0.124289 19.9402 0.979224 18.9174Z" fill=""/>
<path opacity="0.5" d="M22.4636 18.9174C24.9477 16.6147 27.1753 15.2188 30.7401 15.2188C34.3048 15.2188 36.5325 16.6147 39.0165 18.9174C40.12 19.9402 40.291 21.6046 39.5292 22.8261C39.2546 23.2661 38.7285 49.2388 38.21 49.2388H23.2703C22.7517 49.2388 22.2255 23.2661 21.9511 22.8261C21.1893 21.6046 21.3601 19.9402 22.4636 18.9174Z" fill=""/>
<path opacity="0.5" d="M9.26848 13.1659C11.8244 13.1659 13.8963 11.0939 13.8963 8.53802C13.8963 5.98213 11.8244 3.91016 9.26848 3.91016C6.71259 3.91016 4.64062 5.98213 4.64062 8.53802C4.64062 11.0939 6.71259 13.1659 9.26848 13.1659Z" fill=""/>
<path opacity="0.5" d="M30.7529 13.1659C33.3087 13.1659 35.3807 11.0939 35.3807 8.53802C35.3807 5.98213 33.3087 3.91016 30.7529 3.91016C28.197 3.91016 26.125 5.98213 26.125 8.53802C26.125 11.0939 28.197 13.1659 30.7529 13.1659Z" fill=""/>
<path d="M10.8995 17.2612C13.7563 14.6132 16.3181 13.0078 20.4175 13.0078C24.5169 13.0078 27.0787 14.6132 29.9354 17.2612C31.2044 18.4375 31.401 20.3515 30.5249 21.7562C30.2092 22.2622 29.6042 48.0665 29.0079 48.0665H11.8272C11.2309 48.0665 10.6257 22.2622 10.3102 21.7562C9.43406 20.3515 9.6305 18.4375 10.8995 17.2612Z" fill=""/>
<path d="M20.408 10.6441C23.3472 10.6441 25.73 8.2613 25.73 5.32203C25.73 2.38276 23.3472 0 20.408 0C17.4687 0 15.0859 2.38276 15.0859 5.32203C15.0859 8.2613 17.4687 10.6441 20.408 10.6441Z" fill=""/>
</g>
<defs>
<clipPath id="clip0_62345_92702">
<rect width="40" height="40" fill="white"/>
</clipPath>
</defs>
</svg>
