<svg viewBox="0 0 64 64" fill="none" xmlns="http://www.w3.org/2000/svg">
<g clip-path="url(#clip0_52161_74911)">
<rect width="64" height="64" rx="32" fill="url(#paint0_radial_52161_74911)"/>
<path opacity="0.5" d="M9.18974 35.7555C12.2079 32.9578 14.9144 31.2617 19.2455 31.2617C23.5766 31.2617 26.2832 32.9578 29.3012 35.7555C30.6419 36.9983 30.8497 39.0204 29.9241 40.5045C29.5905 41.0391 28.9514 72.5955 28.3213 72.5955H10.1698C9.53979 72.5955 8.90045 41.0391 8.56705 40.5045C7.64145 39.0204 7.84899 36.9983 9.18974 35.7555Z" fill="#FEF3F5"/>
<path opacity="0.5" d="M35.2991 35.7555C38.3173 32.9578 41.0238 31.2617 45.3549 31.2617C49.686 31.2617 52.3926 32.9578 55.4106 35.7555C56.7513 36.9983 56.9591 39.0204 56.0335 40.5045C55.6999 41.0391 55.0607 72.5955 54.4307 72.5955H36.2792C35.6492 72.5955 35.0098 41.0391 34.6764 40.5045C33.7508 39.0204 33.9584 36.9983 35.2991 35.7555Z" fill="#FEF3F5"/>
<path opacity="0.5" d="M19.2556 28.7651C22.3609 28.7651 24.8784 26.2477 24.8784 23.1423C24.8784 20.0369 22.3609 17.5195 19.2556 17.5195C16.1502 17.5195 13.6328 20.0369 13.6328 23.1423C13.6328 26.2477 16.1502 28.7651 19.2556 28.7651Z" fill="#FEF3F5"/>
<path opacity="0.5" d="M45.365 28.7651C48.4703 28.7651 50.9877 26.2477 50.9877 23.1423C50.9877 20.0369 48.4703 17.5195 45.365 17.5195C42.2596 17.5195 39.7422 20.0369 39.7422 23.1423C39.7422 26.2477 42.2596 28.7651 45.365 28.7651Z" fill="#FEF3F5"/>
<path d="M21.2432 33.742C24.7141 30.5247 27.8266 28.5742 32.8074 28.5742C37.7881 28.5742 40.9006 30.5247 44.3714 33.742C45.9132 35.1712 46.1521 37.4967 45.0877 39.2034C44.704 39.8181 43.9691 71.17 43.2445 71.17H22.3703C21.6458 71.17 20.9105 39.8181 20.5271 39.2034C19.4627 37.4967 19.7013 35.1712 21.2432 33.742Z" fill="#FEF3F5"/>
<path d="M32.8021 25.7019C36.3733 25.7019 39.2683 22.8069 39.2683 19.2357C39.2683 15.6645 36.3733 12.7695 32.8021 12.7695C29.231 12.7695 26.3359 15.6645 26.3359 19.2357C26.3359 22.8069 29.231 25.7019 32.8021 25.7019Z" fill="#FEF3F5"/>
</g>
<defs>
<radialGradient id="paint0_radial_52161_74911" cx="0" cy="0" r="1" gradientUnits="userSpaceOnUse" gradientTransform="translate(11.5399 10.3824) rotate(45.6252) scale(75.0127 108.381)">
<stop stop-color="#FF8BA4"/>
<stop offset="1" stop-color="#F24F7A"/>
</radialGradient>
<clipPath id="clip0_52161_74911">
<rect width="64" height="64" rx="32" fill="white"/>
</clipPath>
</defs>
</svg>
