<svg viewBox="0 0 64 64" fill="none" xmlns="http://www.w3.org/2000/svg">
<circle cx="32" cy="32" r="32" fill="url(#paint0_radial_52161_74998)"/>
<path fill-rule="evenodd" clip-rule="evenodd" d="M41.4974 35.1667C41.4974 42.1623 35.8263 47.8333 28.8307 47.8333C26.8745 47.8333 25.0219 47.3899 23.3678 46.598C22.7994 46.3259 22.1553 46.2303 21.5464 46.3932L19.6052 46.9126C18.0752 47.322 16.6754 45.9222 17.0848 44.3922L17.6042 42.451C17.7671 41.8421 17.6715 41.198 17.3994 40.6296C16.6075 38.9755 16.1641 37.1229 16.1641 35.1667C16.1641 28.1711 21.8351 22.5 28.8307 22.5C35.8263 22.5 41.4974 28.1711 41.4974 35.1667ZM23.2891 36.75C24.1635 36.75 24.8724 36.0411 24.8724 35.1667C24.8724 34.2922 24.1635 33.5833 23.2891 33.5833C22.4146 33.5833 21.7057 34.2922 21.7057 35.1667C21.7057 36.0411 22.4146 36.75 23.2891 36.75ZM28.8307 36.75C29.7052 36.75 30.4141 36.0411 30.4141 35.1667C30.4141 34.2922 29.7052 33.5833 28.8307 33.5833C27.9563 33.5833 27.2474 34.2922 27.2474 35.1667C27.2474 36.0411 27.9563 36.75 28.8307 36.75ZM34.3724 36.75C35.2468 36.75 35.9557 36.0411 35.9557 35.1667C35.9557 34.2922 35.2468 33.5833 34.3724 33.5833C33.4979 33.5833 32.7891 34.2922 32.7891 35.1667C32.7891 36.0411 33.4979 36.75 34.3724 36.75Z" fill="#FEF3F5"/>
<path opacity="0.6" d="M41.4778 35.973C41.6486 35.9023 41.8171 35.8271 41.9832 35.7476C42.4451 35.5265 42.9684 35.4488 43.4631 35.5812L45.0404 36.0032C46.2835 36.3358 47.4208 35.1985 47.0882 33.9554L46.6662 32.3781C46.5338 31.8834 46.6115 31.3601 46.8326 30.8982C47.476 29.5543 47.8363 28.0491 47.8363 26.4596C47.8363 20.7757 43.2285 16.168 37.5446 16.168C33.2537 16.168 29.5761 18.7939 28.0312 22.5265C28.2974 22.5098 28.5659 22.5013 28.8363 22.5013C35.8319 22.5013 41.5029 28.1724 41.5029 35.168C41.5029 35.4384 41.4945 35.7068 41.4778 35.973Z" fill="#FEF3F5"/>
<defs>
<radialGradient id="paint0_radial_52161_74998" cx="0" cy="0" r="1" gradientUnits="userSpaceOnUse" gradientTransform="translate(11.5399 10.3824) rotate(45.6252) scale(75.0127 108.381)">
<stop stop-color="#FF8BA4"/>
<stop offset="1" stop-color="#F24F7A"/>
</radialGradient>
</defs>
</svg>
