<svg viewBox="0 0 64 64" fill="none" xmlns="http://www.w3.org/2000/svg">
<rect width="64" height="64" rx="32" fill="url(#paint0_radial_52021_69793)"/>
<path opacity="0.5" d="M46.25 38.3293V28.8293V28.8293C46.25 24.3509 46.25 22.1118 44.8588 20.7205C43.6422 19.5039 41.7771 19.3512 38.3333 19.332H25.6667C22.2229 19.3512 20.3579 19.5039 19.1412 20.7205C17.75 22.1118 17.75 24.3509 17.75 28.8293V38.3293C17.75 42.8076 17.75 45.0468 19.1412 46.438C20.5325 47.8293 22.7717 47.8293 27.25 47.8293H36.75C41.2283 47.8293 43.4675 47.8293 44.8588 46.438C46.25 45.0468 46.25 42.8076 46.25 38.3293V38.3293Z" fill="#FEF3F5"/>
<path d="M25.6641 18.543C25.6641 17.2313 26.7274 16.168 28.0391 16.168H35.9557C37.2674 16.168 38.3307 17.2313 38.3307 18.543V20.1263C38.3307 21.438 37.2674 22.5013 35.9557 22.5013H28.0391C26.7274 22.5013 25.6641 21.438 25.6641 20.1263V18.543Z" fill="#FEF3F5"/>
<path fill-rule="evenodd" clip-rule="evenodd" d="M37.6181 29.6077C38.0656 30.0872 38.0397 30.8386 37.5603 31.2861L30.7745 37.6194C30.3183 38.0453 29.6103 38.0453 29.154 37.6194L26.4398 35.0861C25.9603 34.6386 25.9344 33.8872 26.3819 33.4077C26.8294 32.9283 27.5808 32.9024 28.0603 33.3498L29.9643 35.1269L35.9398 29.5498C36.4192 29.1024 37.1706 29.1283 37.6181 29.6077Z" fill="#FEF3F5"/>
<defs>
<radialGradient id="paint0_radial_52021_69793" cx="0" cy="0" r="1" gradientUnits="userSpaceOnUse" gradientTransform="translate(11.5399 10.3824) rotate(45.6252) scale(75.0127 108.381)">
<stop stop-color="#FF8BA4"/>
<stop offset="1" stop-color="#F24F7A"/>
</radialGradient>
</defs>
</svg>
