<svg viewBox="0 0 40 40" fill="none" xmlns="http://www.w3.org/2000/svg">
<g clip-path="url(#clip0_62358_92818)">
<path d="M15.8333 3.33594C14.4526 3.33594 13.3333 4.45523 13.3333 5.83594V7.5026C13.3333 8.88332 14.4526 10.0026 15.8333 10.0026H24.1667C25.5474 10.0026 26.6667 8.88332 26.6667 7.5026V5.83594C26.6667 4.45523 25.5474 3.33594 24.1667 3.33594H15.8333Z" fill=""/>
<path fill-rule="evenodd" clip-rule="evenodd" d="M10.8333 6.7303C8.73682 6.84792 7.4133 7.182 6.46447 8.13084C5 9.59531 5 11.9523 5 16.6664V26.6664C5 31.3804 5 33.7374 6.46447 35.2019C7.92893 36.6664 10.286 36.6664 15 36.6664H25C29.714 36.6664 32.0711 36.6664 33.5355 35.2019C35 33.7374 35 31.3804 35 26.6664V16.6664C35 11.9523 35 9.59531 33.5355 8.13084C32.5867 7.182 31.2632 6.84792 29.1667 6.7303V7.5026C29.1667 10.264 26.9281 12.5026 24.1667 12.5026H15.8333C13.0719 12.5026 10.8333 10.264 10.8333 7.5026V6.7303ZM25.8529 20.9164C26.3576 20.4454 26.3849 19.6544 25.9138 19.1497C25.4428 18.645 24.6518 18.6177 24.1471 19.0888L17.8571 24.9594L15.8529 23.0888C15.3482 22.6177 14.5572 22.645 14.0862 23.1497C13.6151 23.6544 13.6424 24.4454 14.1471 24.9164L17.0042 27.5831C17.4845 28.0313 18.2298 28.0313 18.71 27.5831L25.8529 20.9164Z" fill=""/>
</g>
<defs>
<clipPath id="clip0_62358_92818">
<rect width="40" height="40" fill="white"/>
</clipPath>
</defs>
</svg>
