<svg viewBox="0 0 32 32" fill="none" xmlns="http://www.w3.org/2000/svg">
<path d="M13.6455 4.59646C17.7326 7.3934 20.798 11.1783 26.1208 8.02816C26.9323 7.54792 27.8032 6.82879 28.5054 6.1976C29.1463 5.62154 29.9501 4.33531 30.7329 4.19667C31.4321 4.07283 31.8359 4.56878 31.9148 5.21606C32.177 7.37003 31.7383 10.1001 31.8681 12.3164C30.0959 14.6393 26.1818 17.791 23.2354 18.1125C14.7194 19.0416 11.4459 5.95523 2.56182 13.4888C1.89116 14.0575 1.6692 14.9986 0.571272 14.6769C0.222259 14.5746 0.166463 14.2992 0.124503 13.9846C-0.0401145 12.7501 -0.0484208 7.89073 0.141254 6.69095C0.352653 5.35374 3.80235 3.14655 5.07038 2.70344C8.83417 1.38819 10.7445 2.61125 13.6455 4.59646Z" fill=""/>
<path opacity="0.5" d="M7.06451 14.4296C14.2725 13.6685 17.623 24.355 25.4248 20.7924C26.3117 20.3874 27.5098 19.5561 28.2528 18.9189C28.7207 18.5177 30.2506 16.6615 30.4493 16.5773C31.2917 16.2205 31.8083 16.5131 31.9083 17.3808C32.0221 18.3685 32.0482 22.6282 31.8291 23.468C31.5785 24.4287 28.5066 27.0123 27.5793 27.6483C24.4872 29.7693 21.7364 30.2822 18.177 28.8424C12.7252 26.637 9.84979 20.0235 3.15891 24.7901C2.50419 25.2565 0.820275 27.2419 0.249101 26.0189C0.0334022 25.557 0.0427056 20.1701 0.12183 19.3212C0.195196 18.534 0.564591 18.0928 1.09866 17.5419C2.51124 16.0849 5.03364 14.644 7.06451 14.4296Z" fill=""/>
</svg>
