<svg viewBox="0 0 32 32" fill="none" xmlns="http://www.w3.org/2000/svg">
<g clip-path="url(#clip0_62345_92714)">
<path opacity="0.5" d="M25.8006 1C29.2244 1 32 3.94039 32 7.56736C32 14.1347 24.6735 20.105 20.7284 21.4937C16.7834 20.105 9.45687 14.1347 9.45687 7.56736C9.45687 3.94039 12.2325 1 15.6562 1C17.7527 1 19.6069 2.10272 20.7284 3.79053C21.3001 2.92794 22.0595 2.22397 22.9424 1.73822C23.8254 1.25248 24.8058 0.999256 25.8006 1Z" fill=""/>
<path fill-rule="evenodd" clip-rule="evenodd" d="M18.0981 8.26563C16.8606 8.26479 15.6428 8.57126 14.5483 9.15687C13.9397 9.48253 13.3796 9.8889 12.8813 10.3631C11.518 9.06642 9.68713 8.26563 7.6668 8.26563C3.39581 8.26563 -0.00126669 11.8219 -0.00126669 16.1267C-0.00126669 19.893 2.14009 23.3342 4.63341 25.9284C7.13557 28.5317 10.2018 30.5029 12.4632 31.2771C12.7348 31.37 13.0296 31.37 13.3012 31.2771C15.5626 30.5029 18.6288 28.5317 21.1309 25.9284C23.6243 23.3342 25.7656 19.893 25.7656 16.1267C25.7656 11.8222 22.3686 8.26615 18.0981 8.26563ZM15.769 11.4382C16.4901 11.0524 17.2884 10.8525 18.0966 10.853C20.8664 10.853 23.1782 13.1776 23.1782 16.1267C23.1782 18.9278 21.5529 21.7554 19.2655 24.1354C17.1577 26.3284 14.6649 27.9546 12.8822 28.6726C11.0994 27.9546 8.60663 26.3284 6.4989 24.1354C4.21145 21.7554 2.58615 18.9278 2.58615 16.1267C2.58615 13.1776 4.89701 10.853 7.6668 10.853C9.36712 10.853 10.8856 11.7209 11.814 13.0797C12.0552 13.4328 12.883 13.6436 12.883 13.6436C12.883 13.6436 13.7105 13.4317 13.9513 13.0784C14.4233 12.3857 15.0477 11.8242 15.769 11.4382Z" fill=""/>
<path d="M18.0966 10.853C17.2884 10.8525 16.4901 11.0524 15.769 11.4382C15.0477 11.8242 14.4233 12.3857 13.9513 13.0784C13.7105 13.4317 12.883 13.6436 12.883 13.6436C12.883 13.6436 12.0552 13.4328 11.814 13.0797C10.8856 11.7209 9.36712 10.853 7.6668 10.853C4.89701 10.853 2.58615 13.1776 2.58615 16.1267C2.58615 18.9278 4.21145 21.7554 6.4989 24.1354C8.60663 26.3284 11.0994 27.9546 12.8822 28.6726C14.6649 27.9546 17.1577 26.3284 19.2655 24.1354C21.5529 21.7554 23.1782 18.9278 23.1782 16.1267C23.1782 13.1776 20.8664 10.853 18.0966 10.853Z" fill=""/>
</g>
<defs>
<clipPath id="clip0_62345_92714">
<rect width="32" height="32" fill="white"/>
</clipPath>
</defs>
</svg>
