<svg viewBox="0 0 56 56" fill="none" xmlns="http://www.w3.org/2000/svg">
<rect width="56" height="56" rx="28" fill="white"/>
<path d="M23.0078 39.5039H32.973V40.7949C32.973 42.3493 31.7129 43.6095 30.1584 43.6095H25.8224C24.2679 43.6095 23.0078 42.3493 23.0078 40.7949V39.5039Z" fill="white"/>
<path d="M28.0828 39.5043H27.9205H23.0192V36.8362C23.0192 35.6016 22.6347 34.402 21.9259 33.4254C19.4761 30.05 17.9645 26.5278 19.7021 22.6834C21.0471 19.7076 23.3604 17.1933 28.0016 17.1643C32.6429 17.1933 34.9562 19.7076 36.3012 22.6834C38.0388 26.5278 36.5272 30.05 34.0774 33.4254C33.3686 34.402 32.984 35.6016 32.984 36.8362V39.5043H28.0828Z" fill="url(#paint0_radial_51958_72516)"/>
<path d="M28 9.35938L28 12.8932" stroke="#FACCD4" stroke-width="2.8" stroke-linecap="round"/>
<path d="M39.5781 12.7695L37.0793 15.2683" stroke="#FACCD4" stroke-width="2.8" stroke-linecap="round"/>
<path d="M16.4219 12.7695L18.9207 15.2683" stroke="#FACCD4" stroke-width="2.8" stroke-linecap="round"/>
<path d="M45.3594 23.8086L41.8256 23.8086" stroke="#FACCD4" stroke-width="2.8" stroke-linecap="round"/>
<path d="M10.6406 22.9297L14.1744 22.9297" stroke="#FACCD4" stroke-width="2.8" stroke-linecap="round"/>
<path d="M26.2266 43.6133H29.7783V44.8645C29.7783 45.8453 28.9833 46.6404 28.0025 46.6404C27.0217 46.6404 26.2266 45.8453 26.2266 44.8645V43.6133Z" fill="url(#paint1_radial_51958_72516)"/>
<defs>
<radialGradient id="paint0_radial_51958_72516" cx="0" cy="0" r="1" gradientUnits="userSpaceOnUse" gradientTransform="translate(22.2162 20.7882) rotate(51.6005) scale(23.8818 33.6015)">
<stop stop-color="#FF8BA4"/>
<stop offset="1" stop-color="#F24F7A"/>
</radialGradient>
<radialGradient id="paint1_radial_51958_72516" cx="0" cy="0" r="1" gradientUnits="userSpaceOnUse" gradientTransform="translate(26.867 44.1044) rotate(41.0589) scale(3.86104 5.52719)">
<stop stop-color="#FF8BA4"/>
<stop offset="1" stop-color="#F24F7A"/>
</radialGradient>
</defs>
</svg>
