<svg viewBox="0 0 56 56" fill="none" xmlns="http://www.w3.org/2000/svg">
<g clip-path="url(#clip0_51946_72464)">
<rect width="56" height="56" rx="28" fill="white"/>
<path opacity="0.5" d="M8.01896 31.6846C10.6039 29.2886 12.9219 27.8359 16.6313 27.8359C20.3407 27.8359 22.6587 29.2886 25.2436 31.6846C26.3918 32.749 26.5697 34.4809 25.777 35.752C25.4913 36.2098 24.9439 63.2365 24.4043 63.2365H8.85836C8.31876 63.2365 7.77119 36.2098 7.48565 35.752C6.69292 34.4809 6.87067 32.749 8.01896 31.6846Z" fill="url(#paint0_radial_51946_72464)"/>
<path opacity="0.5" d="M30.3861 31.6846C32.9711 29.2886 35.2891 27.8359 38.9985 27.8359C42.7079 27.8359 45.0259 29.2886 47.6108 31.6846C48.759 32.749 48.9369 34.4809 48.1442 35.752C47.8585 36.2098 47.3111 63.2365 46.7715 63.2365H31.2255C30.6859 63.2365 30.1384 36.2098 29.8528 35.752C29.0601 34.4809 29.2379 32.749 30.3861 31.6846Z" fill="url(#paint1_radial_51946_72464)"/>
<path opacity="0.5" d="M16.6438 25.7055C19.3034 25.7055 21.4594 23.5495 21.4594 20.8899C21.4594 18.2303 19.3034 16.0742 16.6438 16.0742C13.9842 16.0742 11.8281 18.2303 11.8281 20.8899C11.8281 23.5495 13.9842 25.7055 16.6438 25.7055Z" fill="url(#paint2_radial_51946_72464)"/>
<path opacity="0.5" d="M39.0032 25.7055C41.6628 25.7055 43.8188 23.5495 43.8188 20.8899C43.8188 18.2303 41.6628 16.0742 39.0032 16.0742C36.3435 16.0742 34.1875 18.2303 34.1875 20.8899C34.1875 23.5495 36.3435 25.7055 39.0032 25.7055Z" fill="url(#paint3_radial_51946_72464)"/>
<path d="M18.3437 29.9651C21.3163 27.2096 23.9821 25.5391 28.2479 25.5391C32.5137 25.5391 35.1794 27.2096 38.152 29.9651C39.4725 31.1891 39.6771 33.1808 38.7655 34.6425C38.4369 35.169 37.8074 62.0205 37.1868 62.0205H19.309C18.6884 62.0205 18.0587 35.169 17.7304 34.6425C16.8187 33.1808 17.0231 31.1891 18.3437 29.9651Z" fill="url(#paint4_radial_51946_72464)"/>
<path d="M28.2333 23.076C31.2919 23.076 33.7713 20.5965 33.7713 17.538C33.7713 14.4795 31.2919 12 28.2333 12C25.1748 12 22.6953 14.4795 22.6953 17.538C22.6953 20.5965 25.1748 23.076 28.2333 23.076Z" fill="url(#paint5_radial_51946_72464)"/>
</g>
<defs>
<radialGradient id="paint0_radial_51946_72464" cx="0" cy="0" r="1" gradientUnits="userSpaceOnUse" gradientTransform="translate(10.4733 33.5788) rotate(61.9698) scale(33.5988 40.2838)">
<stop stop-color="#FF8BA4"/>
<stop offset="1" stop-color="#F24F7A"/>
</radialGradient>
<radialGradient id="paint1_radial_51946_72464" cx="0" cy="0" r="1" gradientUnits="userSpaceOnUse" gradientTransform="translate(32.8405 33.5788) rotate(61.9698) scale(33.5988 40.2838)">
<stop stop-color="#FF8BA4"/>
<stop offset="1" stop-color="#F24F7A"/>
</radialGradient>
<radialGradient id="paint2_radial_51946_72464" cx="0" cy="0" r="1" gradientUnits="userSpaceOnUse" gradientTransform="translate(13.5648 17.6367) rotate(45.6252) scale(11.2886 16.3102)">
<stop stop-color="#FF8BA4"/>
<stop offset="1" stop-color="#F24F7A"/>
</radialGradient>
<radialGradient id="paint3_radial_51946_72464" cx="0" cy="0" r="1" gradientUnits="userSpaceOnUse" gradientTransform="translate(35.9241 17.6367) rotate(45.6252) scale(11.2886 16.3102)">
<stop stop-color="#FF8BA4"/>
<stop offset="1" stop-color="#F24F7A"/>
</radialGradient>
<radialGradient id="paint4_radial_51946_72464" cx="0" cy="0" r="1" gradientUnits="userSpaceOnUse" gradientTransform="translate(21.1661 31.4573) rotate(59.2853) scale(35.5501 45.1203)">
<stop stop-color="#FF8BA4"/>
<stop offset="1" stop-color="#F24F7A"/>
</radialGradient>
<radialGradient id="paint5_radial_51946_72464" cx="0" cy="0" r="1" gradientUnits="userSpaceOnUse" gradientTransform="translate(24.6924 13.7968) rotate(45.6252) scale(12.9819 18.7567)">
<stop stop-color="#FF8BA4"/>
<stop offset="1" stop-color="#F24F7A"/>
</radialGradient>
<clipPath id="clip0_51946_72464">
<rect width="56" height="56" rx="28" fill="white"/>
</clipPath>
</defs>
</svg>
