<svg viewBox="0 0 32 32" fill="none" xmlns="http://www.w3.org/2000/svg">
<g clip-path="url(#clip0_62345_92754)">
<path opacity="0.5" d="M0.783243 15.517C2.77018 13.6752 4.55199 12.5586 7.40329 12.5586C10.2546 12.5586 12.0364 13.6752 14.0233 15.517C14.9059 16.3351 15.0427 17.6664 14.4333 18.6434C14.2137 18.9953 13.7929 39.7699 13.3782 39.7699H1.42846C1.01369 39.7699 0.592794 18.9953 0.373307 18.6434C-0.236046 17.6664 -0.0994142 16.3351 0.783243 15.517Z" fill=""/>
<path opacity="0.5" d="M17.9786 15.517C19.9655 13.6752 21.7473 12.5586 24.5986 12.5586C27.4499 12.5586 29.2317 13.6752 31.2186 15.517C32.1012 16.3351 32.238 17.6664 31.6286 18.6434C31.409 18.9953 30.9883 39.7699 30.5735 39.7699H18.6238C18.209 39.7699 17.7881 18.9953 17.5686 18.6434C16.9593 17.6664 17.0959 16.3351 17.9786 15.517Z" fill=""/>
<path opacity="0.5" d="M7.41258 10.915C9.45694 10.915 11.1142 9.25772 11.1142 7.21337C11.1142 5.16901 9.45694 3.51172 7.41258 3.51172C5.36823 3.51172 3.71094 5.16901 3.71094 7.21337C3.71094 9.25772 5.36823 10.915 7.41258 10.915Z" fill=""/>
<path opacity="0.5" d="M24.6001 10.915C26.6444 10.915 28.3017 9.25772 28.3017 7.21337C28.3017 5.16901 26.6444 3.51172 24.6001 3.51172C22.5557 3.51172 20.8984 5.16901 20.8984 7.21337C20.8984 9.25772 22.5557 10.915 24.6001 10.915Z" fill=""/>
<path d="M8.72104 14.1912C11.006 12.0731 13.0551 10.7891 16.3341 10.7891C19.6131 10.7891 21.6622 12.0731 23.9471 14.1912C24.9621 15.1321 25.1194 16.663 24.4186 17.7866C24.1661 18.1913 23.6822 38.8312 23.2052 38.8312H9.46304C8.98606 38.8312 8.50202 18.1913 8.24961 17.7866C7.54886 16.663 7.70599 15.1321 8.72104 14.1912Z" fill=""/>
<path d="M16.3194 8.89659C18.6704 8.89659 20.5763 6.99071 20.5763 4.6397C20.5763 2.28869 18.6704 0.382812 16.3194 0.382812C13.9684 0.382812 12.0625 2.28869 12.0625 4.6397C12.0625 6.99071 13.9684 8.89659 16.3194 8.89659Z" fill=""/>
</g>
<defs>
<clipPath id="clip0_62345_92754">
<rect width="32" height="32" fill="white"/>
</clipPath>
</defs>
</svg>
