<svg viewBox="0 0 56 56" fill="none" xmlns="http://www.w3.org/2000/svg">
<rect width="56" height="56" rx="28" fill="white"/>
<path d="M37.7994 13C41.2238 13 44 15.941 44 19.5687C44 26.1374 36.672 32.1089 32.7261 33.4979C28.7803 32.1089 21.4523 26.1374 21.4523 19.5687C21.4523 15.941 24.2285 13 27.6529 13C29.7498 13 31.6044 14.1029 32.7261 15.7911C33.2979 14.9283 34.0575 14.2242 34.9406 13.7384C35.8237 13.2525 36.8043 12.9993 37.7994 13Z" fill="#FFE6E9"/>
<path fill-rule="evenodd" clip-rule="evenodd" d="M30.0965 20.2695C28.8587 20.2687 27.6408 20.5752 26.5461 21.161C25.9373 21.4867 25.3771 21.8931 24.8787 22.3674C23.515 21.0705 21.6839 20.2695 19.6631 20.2695C15.3913 20.2695 11.9935 23.8265 11.9935 28.1322C11.9935 31.8992 14.1353 35.3411 16.6291 37.9359C19.1318 40.5398 22.1986 42.5113 24.4604 43.2856C24.7321 43.3786 25.027 43.3786 25.2987 43.2856C27.5605 42.5113 30.6273 40.5398 33.13 37.9359C35.6238 35.3411 37.7656 31.8992 37.7656 28.1322C37.7656 23.8268 34.3679 20.2701 30.0965 20.2695ZM27.767 23.4428C28.4882 23.0569 29.2866 22.8569 30.0951 22.8575C32.8654 22.8575 35.1777 25.1825 35.1777 28.1322C35.1777 30.9339 33.552 33.7621 31.2641 36.1426C29.156 38.336 26.6627 39.9625 24.8796 40.6806C23.0964 39.9625 20.6031 38.336 18.495 36.1426C16.2071 33.7621 14.5814 30.9339 14.5814 28.1322C14.5814 25.1825 16.8928 22.8575 19.6631 22.8575C21.3638 22.8575 22.8826 23.7255 23.8111 25.0846C24.0524 25.4377 24.8804 25.6486 24.8804 25.6486C24.8804 25.6486 25.708 25.4367 25.9489 25.0833C26.421 24.3904 27.0455 23.8288 27.767 23.4428Z" fill="url(#paint0_radial_51946_72490)"/>
<path d="M30.0951 22.8575C29.2866 22.8569 28.4882 23.0569 27.767 23.4428C27.0455 23.8288 26.421 24.3904 25.9489 25.0833C25.708 25.4367 24.8804 25.6486 24.8804 25.6486C24.8804 25.6486 24.0524 25.4377 23.8111 25.0846C22.8826 23.7255 21.3638 22.8575 19.6631 22.8575C16.8928 22.8575 14.5814 25.1825 14.5814 28.1322C14.5814 30.9339 16.2071 33.7621 18.495 36.1426C20.6031 38.336 23.0964 39.9625 24.8796 40.6806C26.6627 39.9625 29.156 38.336 31.2641 36.1426C33.552 33.7621 35.1777 30.9339 35.1777 28.1322C35.1777 25.1825 32.8654 22.8575 30.0951 22.8575Z" fill="url(#paint1_radial_51946_72490)"/>
<defs>
<radialGradient id="paint0_radial_51946_72490" cx="0" cy="0" r="1" gradientUnits="userSpaceOnUse" gradientTransform="translate(33.1186 24.0147) rotate(137.525) scale(28.6415 41.2316)">
<stop stop-color="#FF8BA4"/>
<stop offset="1" stop-color="#F24F7A"/>
</radialGradient>
<radialGradient id="paint1_radial_51946_72490" cx="0" cy="0" r="1" gradientUnits="userSpaceOnUse" gradientTransform="translate(33.1186 24.0147) rotate(137.525) scale(28.6415 41.2316)">
<stop stop-color="#FF8BA4"/>
<stop offset="1" stop-color="#F24F7A"/>
</radialGradient>
</defs>
</svg>
