<svg viewBox="0 0 56 56" fill="none" xmlns="http://www.w3.org/2000/svg">
<rect width="56" height="56" rx="28" fill="white"/>
<g clip-path="url(#clip0_51946_72503)">
<path d="M16.0026 26.668C14.5359 26.668 13.3359 27.868 13.3359 29.3346V38.668C13.3359 40.1346 14.5359 41.3346 16.0026 41.3346C17.4693 41.3346 18.6693 40.1346 18.6693 38.668V29.3346C18.6693 27.868 17.4693 26.668 16.0026 26.668Z" fill="url(#paint0_radial_51946_72503)"/>
<path d="M25.3359 19.068C25.3359 16.6013 27.2693 14.668 29.7359 14.668C31.1226 14.668 32.4693 15.3213 33.3359 16.3346C34.2026 15.3213 35.5493 14.668 36.9359 14.668C39.4026 14.668 41.3359 16.6013 41.3359 19.068C41.3359 21.868 38.0026 25.0813 34.2293 28.5213C33.7226 28.988 32.9359 28.988 32.4293 28.5213C28.6693 25.0813 25.3359 21.868 25.3359 19.068Z" fill="url(#paint1_radial_51946_72503)"/>
<path d="M38.6559 34.668H29.5493C29.4026 34.668 29.2559 34.6413 29.1093 34.588L27.1493 33.908C26.8026 33.788 26.6293 33.4146 26.7493 33.068C26.8693 32.7213 27.2559 32.5346 27.6026 32.668L29.0959 33.2413C29.2426 33.2946 29.4159 33.3346 29.5759 33.3346H33.0826C33.9493 33.3346 34.6559 32.628 34.6559 31.7613C34.6559 31.108 34.2426 30.5213 33.6293 30.2813L24.4026 26.8413C24.1093 26.7213 23.7893 26.668 23.4693 26.668H21.3359V38.6946L29.8293 41.108C30.3759 41.268 30.9626 41.2413 31.4959 41.0413L41.3359 37.3346C41.3359 35.8546 40.1359 34.668 38.6559 34.668Z" fill="url(#paint2_radial_51946_72503)"/>
</g>
<defs>
<radialGradient id="paint0_radial_51946_72503" cx="0" cy="0" r="1" gradientUnits="userSpaceOnUse" gradientTransform="translate(14.2976 29.0473) rotate(70.4151) scale(13.0419 11.9047)">
<stop stop-color="#FF8BA4"/>
<stop offset="1" stop-color="#F24F7A"/>
</radialGradient>
<radialGradient id="paint1_radial_51946_72503" cx="0" cy="0" r="1" gradientUnits="userSpaceOnUse" gradientTransform="translate(28.2209 16.9721) rotate(42.2173) scale(17.7086 25.4715)">
<stop stop-color="#FF8BA4"/>
<stop offset="1" stop-color="#F24F7A"/>
</radialGradient>
<radialGradient id="paint2_radial_51946_72503" cx="0" cy="0" r="1" gradientUnits="userSpaceOnUse" gradientTransform="translate(24.9422 29.0274) rotate(36.6213) scale(20.4259 28.2657)">
<stop stop-color="#FF8BA4"/>
<stop offset="1" stop-color="#F24F7A"/>
</radialGradient>
<clipPath id="clip0_51946_72503">
<rect width="32" height="32" fill="white" transform="translate(12 12)"/>
</clipPath>
</defs>
</svg>
