<svg viewBox="0 0 32 32" fill="none" xmlns="http://www.w3.org/2000/svg">
<path opacity="0.5" d="M12.3438 25.8984H20.3627V26.9373C20.3627 28.1882 19.3487 29.2022 18.0978 29.2022H14.6086C13.3578 29.2022 12.3438 28.1882 12.3438 26.9373V25.8984Z" fill=""/>
<path d="M16.4248 25.8991H16.2941H12.3501V23.752C12.3501 22.7586 12.0407 21.7932 11.4703 21.0073C9.49893 18.2911 8.28257 15.4568 9.68081 12.3633C10.7631 9.96869 12.6246 7.9454 16.3595 7.92208C20.0943 7.9454 21.9558 9.96869 23.0381 12.3633C24.4363 15.4568 23.22 18.2911 21.2486 21.0073C20.6782 21.7932 20.3688 22.7586 20.3688 23.752V25.8991H16.4248Z" fill=""/>
<path opacity="0.5" d="M16.3594 1.64062L16.3594 4.48427" stroke="" stroke-width="2.25316" stroke-linecap="round"/>
<path opacity="0.5" d="M25.6797 4.38281L23.6689 6.39357" stroke="" stroke-width="2.25316" stroke-linecap="round"/>
<path opacity="0.5" d="M7.03906 4.38281L9.04982 6.39357" stroke="" stroke-width="2.25316" stroke-linecap="round"/>
<path opacity="0.5" d="M30.3281 13.2695L27.4845 13.2695" stroke="" stroke-width="2.25316" stroke-linecap="round"/>
<path opacity="0.5" d="M2.39062 12.5586L5.23427 12.5586" stroke="" stroke-width="2.25316" stroke-linecap="round"/>
<path d="M14.9297 29.2031H17.7878V30.21C17.7878 30.9993 17.148 31.6391 16.3587 31.6391C15.5695 31.6391 14.9297 30.9993 14.9297 30.21V29.2031Z" fill=""/>
</svg>
