<svg viewBox="0 0 32 32" fill="none" xmlns="http://www.w3.org/2000/svg">
<g clip-path="url(#clip0_62345_92735)">
<g clip-path="url(#clip1_62345_92735)">
<path d="M4.0026 14.668C2.53594 14.668 1.33594 15.868 1.33594 17.3346V26.668C1.33594 28.1346 2.53594 29.3346 4.0026 29.3346C5.46927 29.3346 6.66927 28.1346 6.66927 26.668V17.3346C6.66927 15.868 5.46927 14.668 4.0026 14.668Z" fill=""/>
<path opacity="0.5" d="M13.3359 7.06797C13.3359 4.6013 15.2693 2.66797 17.7359 2.66797C19.1226 2.66797 20.4693 3.3213 21.3359 4.33464C22.2026 3.3213 23.5493 2.66797 24.9359 2.66797C27.4026 2.66797 29.3359 4.6013 29.3359 7.06797C29.3359 9.86797 26.0026 13.0813 22.2293 16.5213C21.7226 16.988 20.9359 16.988 20.4293 16.5213C16.6693 13.0813 13.3359 9.86797 13.3359 7.06797Z" fill=""/>
<path d="M26.6559 22.668H17.5493C17.4026 22.668 17.2559 22.6413 17.1093 22.588L15.1493 21.908C14.8026 21.788 14.6293 21.4146 14.7493 21.068C14.8693 20.7213 15.2559 20.5346 15.6026 20.668L17.0959 21.2413C17.2426 21.2946 17.4159 21.3346 17.5759 21.3346H21.0826C21.9493 21.3346 22.6559 20.628 22.6559 19.7613C22.6559 19.108 22.2426 18.5213 21.6293 18.2813L12.4026 14.8413C12.1093 14.7213 11.7893 14.668 11.4693 14.668H9.33594V26.6946L17.8293 29.108C18.3759 29.268 18.9626 29.2413 19.4959 29.0413L29.3359 25.3346C29.3359 23.8546 28.1359 22.668 26.6559 22.668Z" fill=""/>
</g>
</g>
<defs>
<clipPath id="clip0_62345_92735">
<rect width="32" height="32" fill="white"/>
</clipPath>
<clipPath id="clip1_62345_92735">
<rect width="32" height="32" fill="white"/>
</clipPath>
</defs>
</svg>
