<svg viewBox="0 0 32 32" fill="none" xmlns="http://www.w3.org/2000/svg">
<g clip-path="url(#clip0_62345_92771)">
<path opacity="0.5" d="M24.2304 17.7314C23.2021 18.9483 18.807 22.398 17.8451 19.6653C17.2188 17.8861 19.611 17.2907 20.706 16.399C22.7531 14.732 22.8527 13.6833 24.0731 11.6568C25.9098 8.607 30.3319 9.26181 31.2387 12.785C32.5561 17.9041 31.9706 23.7958 30.9743 28.9273C30.9051 29.2832 30.8288 29.996 30.4802 30.1615C30.2197 30.2852 26.4651 30.2808 26.2251 30.1621C26.1388 30.1194 26.0738 30.0445 26.0269 29.9614L24.2304 17.7314Z" fill=""/>
<path d="M7.74667 9.6177C7.24288 9.82351 6.53127 9.88957 6.01932 9.75109C6.71537 11.1295 6.52638 13.3649 7.21491 14.6694C6.87266 14.7812 7.00753 14.9371 7.02983 15.1738C7.08064 15.7129 7.23033 16.4374 7.38536 16.9584C7.52575 17.4301 8.39321 18.9815 8.38684 19.0995C8.37538 19.3115 7.94627 19.8875 7.79824 20.1051C7.45076 20.6159 6.26556 21.7943 6.1185 22.1477C5.9158 22.6348 5.94746 23.6757 5.8855 24.2412C5.45464 24.0823 5.54517 25.1683 5.75256 25.4376C5.62396 26.7422 5.54214 27.9351 5.36543 29.2421C5.33846 29.4416 5.37549 30.0908 5.32051 30.2261C5.30706 30.2591 5.18756 30.3158 4.92168 30.3158C4.52286 30.3158 4.0108 30.214 3.62551 30.2235C3.6667 29.1417 3.57126 28.0436 3.62088 26.9617C3.82449 22.5219 3.83142 18.5997 3.75352 14.0772C3.73999 13.292 4.36879 10.8638 3.09375 11.3459C4.27026 9.80783 5.74021 9.17744 7.74667 9.6177Z" fill=""/>
<path d="M3.62846 30.2255C3.17354 30.2367 1.92586 30.3169 1.59556 30.2275C1.49545 30.2004 1.26848 29.7531 1.2302 29.6332C0.727898 28.0604 0.149765 23.349 0.0390625 21.5844C0.260406 21.0454 0.263607 20.024 0.0390625 19.4573C0.180219 17.6024 1.99542 12.7877 3.0967 11.3479C4.37174 10.8658 3.74294 13.2941 3.75647 14.0792C3.83437 18.6017 3.82744 22.5239 3.62382 26.9637C3.57421 28.0456 3.66965 29.1437 3.62846 30.2255Z" fill=""/>
<path opacity="0.5" d="M22.9952 2.07911C27.7901 1.42635 29.3629 8.23709 24.8852 9.68426C19.3731 11.4657 17.7237 2.79678 22.9952 2.07911Z" fill=""/>
<path d="M7.74363 4.70055C7.80728 4.42784 8.15424 4.47789 8.23238 4.39816C9.23648 3.37374 9.10927 3.20205 10.7255 2.83101C10.937 2.78245 11.0924 2.59208 11.2631 2.58236C11.5679 2.56502 13.1541 3.2351 13.4534 3.44427C13.6627 3.59044 13.7046 3.81619 13.8653 3.96487C14.0084 4.09728 14.3363 4.13337 14.3708 4.18815C14.4569 4.3247 14.3483 4.84403 14.4227 5.13442C14.4848 5.37657 14.8869 5.7247 14.8976 5.98663C14.9042 6.14521 14.7104 6.30126 14.6642 6.50321C14.3357 7.94009 14.0563 8.18625 13.159 9.31764L11.8648 9.88523C11.7357 9.89945 11.597 9.88218 11.466 9.88523C11.1882 9.73257 10.4837 9.54086 10.2695 9.75229C10.1564 9.71309 10.0931 9.66278 10.0036 9.61935C9.85193 9.54575 9.61538 9.28721 9.40366 9.22367L9.33892 9.35347C7.83641 8.51264 7.30096 6.88275 7.47775 5.23231C7.89048 5.29858 7.69711 5.11185 7.74363 4.83349C7.75083 4.79042 7.73419 4.74239 7.74363 4.70055Z" fill=""/>
<path d="M11.4731 16.0022C11.2881 16.0626 10.9541 15.8126 10.9362 16.2018C10.9101 16.7671 11.1993 17.4004 11.2064 17.9305C11.2094 18.1512 11.0868 18.3714 11.0749 18.5962C11.0575 18.9227 11.1474 19.5498 11.0831 19.7757C11.0404 19.9256 10.5764 19.8389 10.5425 20.1234C9.16554 19.3209 8.40943 18.3352 7.9511 16.799C7.64935 15.7876 7.68579 15.5572 7.21903 14.6728C6.5305 13.3683 6.71949 11.1328 6.02344 9.75449C6.53539 9.89297 7.24699 9.8269 7.75079 9.62109C11.372 10.4157 10.7315 13.45 11.4731 16.0022Z" fill=""/>
<path d="M11.4696 16.0008C11.4854 16.0552 11.5647 16.1651 11.6026 16.2667L11.4728 16.3319L11.7355 16.6655C12.6017 18.2912 15.0649 17.8843 15.7067 19.1421C16.026 19.7678 15.9559 20.7152 15.3926 21.1866C14.3506 22.0587 13.1689 21.3681 12.1343 20.9196C11.6972 20.7301 11.2212 20.4891 10.8049 20.2549C10.7272 20.2111 10.6366 20.1788 10.5391 20.1219C10.5729 19.8374 11.0369 19.9241 11.0796 19.7742C11.1439 19.5483 11.054 18.9212 11.0714 18.5948C11.0834 18.3699 11.2059 18.1498 11.2029 17.9291C11.1958 17.3989 10.9066 16.7656 10.9327 16.2003C10.9506 15.8111 11.2847 16.0612 11.4696 16.0008Z" fill=""/>
<path d="M11.8712 9.88384L13.1654 9.31625C14.0626 8.18486 14.3421 7.9387 14.6706 6.50182C14.7168 6.29987 14.9105 6.14382 14.904 5.98524C14.8932 5.72332 14.4912 5.37518 14.4291 5.13303C14.3546 4.84264 14.4633 4.32331 14.3772 4.18676C14.3426 4.13198 14.0148 4.09589 13.8717 3.96348C13.711 3.8148 13.669 3.58905 13.4598 3.44288C13.1604 3.23371 11.5743 2.56363 11.2695 2.58097C11.0987 2.59069 10.9434 2.78106 10.7318 2.82962C9.11563 3.20066 9.24285 3.37234 8.23874 4.39677C8.1606 4.4765 7.81365 4.42645 7.75 4.69916C8.00117 3.58575 9.08524 2.55366 10.1741 2.25745C10.4576 2.18033 10.3754 2.14592 10.5085 2.13294C10.6019 2.12383 10.7951 2.06875 10.8975 2.04262C11.8362 1.80305 13.6065 2.62113 14.2627 3.30468C16.4419 5.57471 14.9718 9.54226 11.8712 9.88384Z" fill=""/>
<path d="M0.0327943 21.5841C-0.00679545 20.953 -0.0148809 20.0835 0.0327943 19.457C0.257339 20.0237 0.254138 21.0451 0.0327943 21.5841Z" fill=""/>
<path d="M5.88421 24.2463C5.84066 24.6437 5.79023 25.0474 5.75127 25.4427C5.54387 25.1734 5.45334 24.0874 5.88421 24.2463Z" fill=""/>
<path d="M11.4621 9.88672C10.9919 9.89767 10.7256 9.91317 10.2656 9.75378C10.4798 9.54235 11.1843 9.73406 11.4621 9.88672Z" fill=""/>
<path d="M7.84996 4.52734C7.80344 4.80571 8.64761 5.98969 7.48438 5.23255C7.50594 5.03122 7.63918 4.59127 7.84996 4.52734Z" fill=""/>
<path d="M10.0085 9.62224C9.7103 9.66242 9.55944 9.47706 9.34375 9.35636L9.40849 9.22656C9.62021 9.2901 9.85676 9.54865 10.0085 9.62224Z" fill=""/>
<path d="M11.7315 16.6644L11.4688 16.3309L11.5986 16.2656C11.6435 16.3862 11.6921 16.5904 11.7315 16.6644Z" fill=""/>
</g>
<defs>
<clipPath id="clip0_62345_92771">
<rect width="32" height="32" fill="white"/>
</clipPath>
</defs>
</svg>
