<svg viewBox="0 0 15 15" fill="none" xmlns="http://www.w3.org/2000/svg">
<path d="M7.5 0.59375C6.13408 0.59375 4.79882 0.998795 3.6631 1.75766C2.52737 2.51653 1.64218 3.59514 1.11946 4.85709C0.596742 6.11904 0.459976 7.50766 0.726455 8.84734C0.992934 10.187 1.65069 11.4176 2.61655 12.3835C3.5824 13.3493 4.81298 14.0071 6.15266 14.2735C7.49234 14.54 8.88096 14.4033 10.1429 13.8805C11.4049 13.3578 12.4835 12.4726 13.2423 11.3369C14.0012 10.2012 14.4063 8.86593 14.4063 7.5C14.4043 5.66894 13.6761 3.91343 12.3813 2.61868C11.0866 1.32393 9.33106 0.595684 7.5 0.59375ZM7.5 13.3438C6.34422 13.3438 5.21439 13.001 4.25339 12.3589C3.29239 11.7168 2.54338 10.8041 2.10108 9.73631C1.65878 8.6685 1.54306 7.49352 1.76854 6.35994C1.99402 5.22636 2.55058 4.18511 3.36785 3.36784C4.18511 2.55058 5.22637 1.99402 6.35994 1.76854C7.49352 1.54305 8.6685 1.65878 9.73631 2.10108C10.8041 2.54338 11.7168 3.29239 12.3589 4.25339C13.001 5.21439 13.3438 6.34422 13.3438 7.5C13.342 9.04932 12.7258 10.5347 11.6302 11.6302C10.5347 12.7257 9.04932 13.342 7.5 13.3438ZM8.5625 10.6875C8.5625 10.8284 8.50653 10.9635 8.4069 11.0632C8.30728 11.1628 8.17215 11.2188 8.03125 11.2188C7.74946 11.2188 7.47921 11.1068 7.27995 10.9076C7.08069 10.7083 6.96875 10.438 6.96875 10.1562V7.5C6.82786 7.5 6.69273 7.44403 6.5931 7.3444C6.49347 7.24477 6.4375 7.10965 6.4375 6.96875C6.4375 6.82785 6.49347 6.69273 6.5931 6.5931C6.69273 6.49347 6.82786 6.4375 6.96875 6.4375C7.25055 6.4375 7.5208 6.54944 7.72005 6.7487C7.91931 6.94796 8.03125 7.21821 8.03125 7.5V10.1562C8.17215 10.1562 8.30728 10.2122 8.4069 10.3118C8.50653 10.4115 8.5625 10.5466 8.5625 10.6875ZM6.4375 4.57812C6.4375 4.42052 6.48424 4.26645 6.5718 4.13541C6.65936 4.00436 6.78382 3.90222 6.92943 3.84191C7.07504 3.78159 7.23526 3.76581 7.38984 3.79656C7.54442 3.82731 7.68641 3.9032 7.79785 4.01465C7.9093 4.12609 7.98519 4.26808 8.01594 4.42266C8.04669 4.57724 8.03091 4.73747 7.97059 4.88308C7.91028 5.02869 7.80814 5.15314 7.6771 5.2407C7.54605 5.32826 7.39198 5.375 7.23438 5.375C7.02303 5.375 6.82035 5.29104 6.6709 5.1416C6.52146 4.99216 6.4375 4.78947 6.4375 4.57812Z" fill=""/>
</svg>
