<svg viewBox="0 0 56 33" fill="none" xmlns="http://www.w3.org/2000/svg">
<path fill-rule="evenodd" clip-rule="evenodd" d="M55.8436 31.2845L55.8288 31.1914C55.8156 31.1087 55.8026 31.0265 55.7887 30.9443C55.673 30.2435 55.5291 29.5508 55.3619 28.8676C55.0682 27.6741 54.6988 26.5093 54.2579 25.3811C53.8852 24.4258 53.4609 23.4963 52.99 22.5954C52.3843 21.4387 51.7013 20.3283 50.9467 19.2722C50.0215 17.978 48.9882 16.7656 47.8601 15.6483C47.3867 15.1787 46.8967 14.7256 46.3909 14.2915C45.2952 13.3484 44.1246 12.4897 42.8916 11.7222C42.897 11.7133 42.9021 11.7042 42.907 11.695C42.912 11.6858 42.917 11.6766 42.9224 11.6677C43.2049 11.1812 43.4878 10.695 43.7707 10.2088C44.0534 9.72294 44.3365 9.23627 44.6188 8.75009L46.276 5.90046C46.6737 5.21867 47.0706 4.53548 47.4658 3.85369C47.5598 3.69172 47.6338 3.52437 47.6896 3.35295C47.8443 2.87526 47.851 2.3731 47.727 1.90628C47.6954 1.79067 47.6571 1.67772 47.6105 1.5675C47.5639 1.4572 47.5099 1.34972 47.4483 1.2463C47.237 0.892514 46.935 0.584918 46.5556 0.360338C46.2203 0.161715 45.8451 0.0432883 45.4607 0.00928611C45.2993 -0.00431477 45.1371 -0.00298786 44.9757 0.0133498C44.8426 0.0269507 44.7103 0.0514986 44.5789 0.0855008C44.1113 0.209319 43.677 0.465164 43.3392 0.835291C43.2178 0.968646 43.1079 1.11568 43.0139 1.27757C42.6171 1.95935 42.2203 2.64255 41.8243 3.32433L40.167 6.17397C39.8843 6.66093 39.6012 7.14753 39.318 7.63414C39.0354 8.11987 38.7528 8.6056 38.4706 9.09169L38.411 9.19409C38.3693 9.26565 38.3265 9.33904 38.2851 9.41147L38.2517 9.39818C38.1774 9.3686 38.1033 9.33911 38.0288 9.31071C34.914 8.12677 31.5346 7.47907 28.0021 7.47907C27.9056 7.47907 27.8099 7.47907 27.7126 7.4804C24.5719 7.51166 21.5544 8.05603 18.739 9.03314C18.4137 9.14609 18.0918 9.26584 17.7723 9.39107L17.7029 9.27179C17.6681 9.21227 17.6331 9.15253 17.5993 9.09301C17.3168 8.60646 17.0339 8.12026 16.751 7.63406L16.7495 7.63145C16.4672 7.14618 16.1848 6.66091 15.9029 6.17529L14.2456 3.32566C13.848 2.64388 13.4511 1.96076 13.0559 1.27898C12.9611 1.11701 12.8521 0.970055 12.7306 0.8367C12.3929 0.466491 11.9586 0.210645 11.491 0.0868277C11.3596 0.0528255 11.2273 0.0283605 11.0933 0.0147596C10.9328 -0.00157801 10.7705 -0.00298786 10.6091 0.010613C10.2248 0.0432883 9.84956 0.161715 9.51345 0.361748C9.13408 0.586245 8.83457 0.893841 8.62159 1.24763C8.56003 1.35105 8.50511 1.45861 8.45935 1.56883C8.41276 1.67904 8.37284 1.792 8.34289 1.90769C8.21893 2.37443 8.22558 2.87658 8.37949 3.35427C8.43606 3.52578 8.50928 3.69313 8.60329 3.8551C9.00097 4.53689 9.39781 5.22 9.79299 5.90178C10.3177 6.80269 10.8417 7.70359 11.3656 8.60443L11.4511 8.75142C11.7335 9.23784 12.0161 9.72392 12.2987 10.21C12.5814 10.6963 12.8641 11.1825 13.1466 11.6691L13.1608 11.6936C12.021 12.3999 10.9369 13.1824 9.91363 14.0383C9.30047 14.5514 8.70978 15.0889 8.14405 15.651C7.01674 16.7682 5.98427 17.9808 5.05747 19.2749C4.30205 20.331 3.61819 21.44 3.01419 22.5982C2.5433 23.4991 2.119 24.4285 1.74628 25.3839C1.30534 26.512 0.935952 27.6769 0.64227 28.8703C0.475046 29.5535 0.332781 30.2449 0.215475 30.9471C0.198215 31.0489 0.182308 31.1519 0.166534 31.254L0.161395 31.2872C0.0981663 31.6942 0.0449258 32.1038 0 32.5161H56C55.9551 32.1038 55.9018 31.6942 55.8394 31.2872L55.8436 31.2845ZM42.5705 24.7939C43.6912 24.0504 43.8542 22.33 42.9341 20.9516C42.0148 19.5731 40.3609 19.0585 39.241 19.8021C38.1204 20.5457 37.9573 22.266 38.8775 23.6444C39.7968 25.0229 41.4507 25.5376 42.5705 24.7939ZM16.8129 19.8067C17.9336 20.5502 18.0967 22.2705 17.1765 23.649C16.2572 25.0274 14.6033 25.5421 13.4826 24.7984C12.3628 24.0549 12.1997 22.3346 13.119 20.9561C14.0392 19.5777 15.6923 19.063 16.8129 19.8067Z" fill=""/>
</svg>
