<svg viewBox="0 0 56 64" fill="none" xmlns="http://www.w3.org/2000/svg">
<path d="M46.7726 33.9715C46.8066 31.5229 47.5074 29.122 48.8098 26.9922C50.1121 24.8625 51.9738 23.0731 54.2214 21.7905C52.7935 19.8978 50.9098 18.3401 48.7199 17.2413C46.5299 16.1425 44.0941 15.5327 41.6058 15.4604C36.2979 14.9433 31.1522 18.4084 28.4474 18.4084C25.6902 18.4084 21.5258 15.5118 17.0413 15.5974C14.1407 15.6844 11.3137 16.4673 8.83599 17.8698C6.35824 19.2723 4.31417 21.2466 2.90293 23.6003C-3.21022 33.4236 1.34964 47.8607 7.20553 55.8012C10.1354 59.6894 13.5595 64.0326 18.0399 63.8786C22.4242 63.7098 24.0617 61.2838 29.354 61.2838C34.5971 61.2838 36.1334 63.8786 40.7047 63.7807C45.4093 63.7098 48.3734 59.8752 51.2005 55.9501C53.3055 53.1796 54.9254 50.1176 56 46.8775C53.2668 45.8046 50.9343 44.0086 49.2934 41.7136C47.6525 39.4185 46.7758 36.7259 46.7726 33.9715Z" fill=""/>
<path d="M38.142 10.2406C40.7071 7.38248 41.9709 3.70892 41.6649 0C37.7459 0.382032 34.1259 2.12044 31.5261 4.86885C30.2549 6.21152 29.2814 7.77355 28.6611 9.46564C28.0408 11.1577 27.7859 12.9467 27.9109 14.7303C29.8711 14.749 31.8103 14.3547 33.5825 13.577C35.3547 12.7993 36.9137 11.6585 38.142 10.2406Z" fill=""/>
</svg>
