<svg viewBox="0 0 26 28" fill="none" xmlns="http://www.w3.org/2000/svg">
<path d="M24.8066 11.4215C24.8481 10.8829 25.0537 10.3611 25.2782 9.86373C25.5715 9.21405 25.736 8.50117 25.8317 7.80463C26.1325 5.61343 25.5063 3.19603 23.4304 1.85249C21.7528 0.766684 19.4959 0.506378 17.5188 0.950497C15.4657 1.41147 13.8361 2.93442 13.3228 4.78624C13.0845 5.64667 13.0681 6.56836 13.3398 7.42393C13.6483 8.39571 14.2544 9.25792 14.8021 10.1293C14.9072 10.2966 15.0148 10.4706 15.0325 10.6623C15.0605 10.9635 14.8709 11.2301 14.8068 11.5167C14.7297 11.8618 14.8229 12.2418 14.9757 12.559C15.3917 13.4214 16.3753 14.4569 17.5373 14.25C18.1639 14.1384 18.7749 13.8775 19.3487 13.6312C19.5758 13.5336 19.7602 13.8207 19.5543 13.9514L17.0856 15.5197C16.7352 15.7423 15.8086 15.857 15.6288 15.5053C14.989 14.2537 13.5309 11.7093 12.2022 11.5969C12.1842 11.5953 12.1663 11.594 12.1488 11.5928C10.9586 11.5148 10.3945 12.897 11.347 13.5479C12.2488 14.1641 13.8318 15.187 13.3398 16.662C12.6076 18.8575 13.131 20.0388 14.6458 20.2291C13.9747 20.8468 13.2138 20.9806 12.9172 20.9703C12.0151 20.9638 11.3694 20.2673 11.4826 19.4569C11.7681 17.4123 11.9481 13.4427 9.09955 13.208C5.94256 12.9476 4.5151 15.6847 4.10454 16.6751C4.06296 16.7753 3.90397 16.766 3.87576 16.662C3.69973 16.0107 3.34225 15.207 2.42002 15.4115C1.40971 15.6354 0.928751 16.7545 0.938626 17.6023C0.947762 18.3871 1.12834 19.2118 1.54503 19.9053C1.93702 20.5575 2.80641 21.3186 3.68906 20.901C3.70843 20.8918 3.72759 20.8821 3.74626 20.8719C4.03213 20.7158 4.00496 20.8386 4.01465 21.0863C4.0408 21.7535 4.28376 22.3906 4.60448 22.9865C5.34234 24.3575 7.56879 26.6829 9.11806 27.3383C10.4766 27.9131 12.7188 28.1381 14.1802 27.9173C14.285 27.9014 14.3965 27.8823 14.5136 27.8602C17.8803 27.2266 20.7694 25.1433 22.8313 22.4648C23.435 21.6806 23.9886 20.9191 24.3519 20.3279C24.9114 19.4172 25.2881 18.415 25.4632 17.3852C25.6437 16.3235 25.5502 15.2841 25.395 14.2281C25.3445 13.885 25.2881 13.5417 25.1793 13.209C25.0239 12.7336 24.8336 12.2591 24.8034 11.7595C24.7966 11.6461 24.7981 11.5334 24.8066 11.4215Z" />
</svg>
