<svg width="" height="" viewBox="0 0 40 40" fill="none" xmlns="http://www.w3.org/2000/svg">
<circle cx="19.9738" cy="20.921" r="3.55188" stroke="" stroke-width="1.40625"/>
<path d="M17.8952 28.5246H22.1048C25.061 28.5246 26.539 28.5246 27.6008 27.8281C28.0604 27.5265 28.4551 27.139 28.7622 26.6877C29.4717 25.6453 29.4717 24.1941 29.4717 21.2917C29.4717 18.3893 29.4717 16.9381 28.7622 15.8956C28.4551 15.4443 28.0604 15.0569 27.6008 14.7553C26.9185 14.3077 26.0644 14.1478 24.7567 14.0906C24.1326 14.0906 23.5953 13.6263 23.4729 13.0255C23.2894 12.1243 22.4834 11.4756 21.5474 11.4756H18.4526C17.5166 11.4756 16.7106 12.1243 16.5271 13.0255C16.4047 13.6263 15.8674 14.0906 15.2433 14.0906C13.9356 14.1478 13.0815 14.3077 12.3992 14.7553C11.9396 15.0569 11.5449 15.4443 11.2378 15.8956C10.5283 16.9381 10.5283 18.3893 10.5283 21.2917C10.5283 24.1941 10.5283 25.6453 11.2378 26.6877C11.5449 27.139 11.9396 27.5265 12.3992 27.8281C13.461 28.5246 14.939 28.5246 17.8952 28.5246Z" stroke="" stroke-width="1.5"/>
</svg>
