<svg width="" height="" viewBox="0 0 25 24" fill="none" xmlns="http://www.w3.org/2000/svg">
<g clip-path="url(#clip0_42313_53076)">
<path d="M12.334 0.75C10.1089 0.75 7.93388 1.4098 6.08382 2.64597C4.23377 3.88213 2.79183 5.63914 1.94034 7.69481C1.08886 9.75048 0.866071 12.0125 1.30015 14.1948C1.73424 16.377 2.8057 18.3816 4.37904 19.9549C5.95238 21.5283 7.95694 22.5997 10.1392 23.0338C12.3215 23.4679 14.5835 23.2451 16.6392 22.3936C18.6948 21.5422 20.4519 20.1002 21.688 18.2502C22.9242 16.4001 23.584 14.225 23.584 12C23.5808 9.01728 22.3946 6.15763 20.2855 4.04853C18.1764 1.93943 15.3167 0.75315 12.334 0.75ZM17.2732 10.0161L11.2155 16.0738C11.1351 16.1543 11.0397 16.2181 10.9346 16.2616C10.8296 16.3052 10.7169 16.3276 10.6032 16.3276C10.4895 16.3276 10.3769 16.3052 10.2718 16.2616C10.1668 16.2181 10.0713 16.1543 9.99096 16.0738L7.3948 13.4776C7.23242 13.3153 7.1412 13.095 7.1412 12.8654C7.1412 12.6357 7.23242 12.4155 7.3948 12.2531C7.55719 12.0907 7.77742 11.9995 8.00706 11.9995C8.23671 11.9995 8.45694 12.0907 8.61932 12.2531L10.6032 14.2381L16.0486 8.79158C16.1291 8.71118 16.2245 8.6474 16.3296 8.60389C16.4346 8.56037 16.5472 8.53798 16.6609 8.53798C16.7746 8.53798 16.8872 8.56037 16.9923 8.60389C17.0973 8.6474 17.1928 8.71118 17.2732 8.79158C17.3536 8.87199 17.4173 8.96744 17.4609 9.07249C17.5044 9.17754 17.5268 9.29014 17.5268 9.40384C17.5268 9.51755 17.5044 9.63015 17.4609 9.7352C17.4173 9.84025 17.3536 9.9357 17.2732 10.0161Z" fill="black"/>
<path d="M17.2726 10.0152L11.2149 16.0729C11.1345 16.1534 11.0391 16.2172 10.934 16.2608C10.829 16.3043 10.7164 16.3267 10.6026 16.3267C10.4889 16.3267 10.3763 16.3043 10.2713 16.2608C10.1662 16.2172 10.0708 16.1534 9.99038 16.0729L7.39423 13.4768C7.23185 13.3144 7.14062 13.0942 7.14062 12.8645C7.14063 12.6349 7.23185 12.4146 7.39423 12.2523C7.55661 12.0899 7.77685 11.9986 8.00649 11.9986C8.23613 11.9986 8.45637 12.0899 8.61875 12.2523L10.6026 14.2372L16.0481 8.79072C16.1285 8.71031 16.2239 8.64653 16.329 8.60302C16.434 8.55951 16.5466 8.53711 16.6603 8.53711C16.774 8.53711 16.8866 8.55951 16.9917 8.60302C17.0967 8.64653 17.1922 8.71031 17.2726 8.79072C17.353 8.87112 17.4168 8.96657 17.4603 9.07162C17.5038 9.17667 17.5262 9.28927 17.5262 9.40297C17.5262 9.51668 17.5038 9.62928 17.4603 9.73433C17.4168 9.83938 17.353 9.93483 17.2726 10.0152Z" fill="white"/>
</g>
<defs>
<clipPath id="clip0_42313_53076">
<rect width="24" height="24" fill="white" transform="translate(0.333984)"/>
</clipPath>
</defs>
</svg>
