<svg width="" height="" viewBox="0 0 21 20" fill="none" xmlns="http://www.w3.org/2000/svg">
<g clip-path="url(#clip0_40177_74829)">
<path d="M10.5 6.25V10L13.625 11.875" stroke="" stroke-width="1.56" stroke-linecap="round" stroke-linejoin="round"/>
<path d="M6.125 8.125H3V5" stroke="" stroke-width="1.56" stroke-linecap="round" stroke-linejoin="round"/>
<path d="M5.78125 15.0003C6.76404 15.9277 7.99832 16.5449 9.32987 16.7748C10.6614 17.0047 12.0312 16.8371 13.268 16.293C14.5049 15.7488 15.554 14.8523 16.2842 13.7153C17.0144 12.5784 17.3934 11.2515 17.3739 9.90034C17.3543 8.54923 16.937 7.23385 16.1741 6.11855C15.4112 5.00325 14.3366 4.13749 13.0845 3.62944C11.8324 3.1214 10.4583 2.99359 9.13397 3.262C7.80964 3.5304 6.59377 4.18311 5.63828 5.13858C4.71875 6.06983 3.95937 6.94796 3 8.1253" stroke="" stroke-width="1.56" stroke-linecap="round" stroke-linejoin="round"/>
</g>
<defs>
<clipPath id="clip0_40177_74829">
<rect width="20" height="20" fill="white" transform="translate(0.5)"/>
</clipPath>
</defs>
</svg>
