<svg viewBox="0 0 40 40" fill="none" xmlns="http://www.w3.org/2000/svg">
<path d="M12.4126 27.1431C12.2465 26.9771 12.1359 26.7809 12.0805 26.5545C12.0302 26.3332 12.0327 26.1093 12.0881 25.8829C12.1434 25.6615 12.2491 25.4729 12.405 25.3169L18.1552 19.5592L12.405 13.809C12.2491 13.6581 12.1434 13.472 12.0881 13.2506C12.0327 13.0242 12.0327 12.7979 12.0881 12.5715C12.1434 12.3451 12.2516 12.1489 12.4126 11.9829C12.5786 11.8168 12.7748 11.7062 13.0012 11.6508C13.2326 11.5955 13.459 11.5955 13.6803 11.6508C13.9017 11.7062 14.0903 11.8118 14.2463 11.9678L19.9964 17.718L25.7466 11.9753C25.9076 11.8093 26.0988 11.7011 26.3201 11.6508C26.5415 11.5955 26.7628 11.598 26.9842 11.6584C27.2106 11.7137 27.4068 11.8244 27.5728 11.9904C27.7388 12.1564 27.8495 12.3501 27.9048 12.5715C27.9652 12.7928 27.9677 13.0167 27.9124 13.2431C27.857 13.4644 27.7489 13.6556 27.5879 13.8166L21.8453 19.5592L27.5879 25.3094C27.7489 25.4704 27.8545 25.6615 27.9048 25.8829C27.9602 26.1043 27.9602 26.3256 27.9048 26.547C27.8495 26.7733 27.7388 26.9721 27.5728 27.1431C27.4068 27.3091 27.2106 27.4198 26.9842 27.4751C26.7628 27.5305 26.5415 27.5305 26.3201 27.4751C26.0988 27.4248 25.9076 27.3192 25.7466 27.1582L19.9964 21.408L14.2463 27.1582C14.0903 27.3142 13.9017 27.4198 13.6803 27.4751C13.459 27.5305 13.2351 27.5305 13.0087 27.4751C12.7823 27.4198 12.5836 27.3091 12.4126 27.1431Z" fill=""/>
</svg>
