<svg width="" height="" viewBox="0 0 40 40" fill="none" xmlns="http://www.w3.org/2000/svg">
<rect x="0.972222" y="0.972222" width="38.0556" height="38.0556" rx="19.0278" fill="#FEE8E6" stroke="#FFF4F3" stroke-width="1.94444"/>
<path fill-rule="evenodd" clip-rule="evenodd" d="M20.0088 13.9423C19.8982 13.9423 19.7929 13.8901 19.7199 13.7991L19.2415 13.202C18.6816 12.5014 18.0044 11.9522 17.2287 11.5697C16.4624 11.1917 15.6476 11 14.8068 11L14.7774 11.0001L14.7593 11.0001C13.7904 11.0001 12.826 11.2623 11.9701 11.7582C10.138 12.819 9 14.8389 9 17.0296C8.99958 17.6577 9.09399 18.2773 9.2807 18.8712L9.2833 18.8812C9.48577 19.8353 9.91063 20.8859 10.5469 22.0061C10.5812 22.0666 10.6456 22.1038 10.7153 22.1038H13.445C13.5163 22.1038 13.5818 22.0648 13.616 22.0023L14.5214 20.3436C14.6029 20.196 14.7177 20.0725 14.8535 19.9858C14.9885 19.8998 15.1422 19.8514 15.2983 19.8458C15.3212 19.8435 15.3447 19.8424 15.3679 19.8424C15.6672 19.8424 15.9611 20.0252 16.1351 20.3195L17.2213 22.1452C17.3063 22.2882 17.5198 22.2656 17.5731 22.1081L19.1176 17.5452C19.185 17.3449 19.3054 17.1744 19.4657 17.0522C19.626 16.93 19.8139 16.8654 20.0093 16.8654C20.2047 16.8654 20.3927 16.93 20.553 17.0522C20.7133 17.1744 20.8336 17.3449 20.901 17.5454L22.4114 21.9744C22.4383 22.0533 22.5124 22.1063 22.5957 22.1063H25.0936C25.2117 22.1063 25.3228 22.1566 25.4064 22.2478C25.4899 22.3393 25.5359 22.4607 25.5359 22.5898C25.5359 22.7189 25.4899 22.8403 25.4065 22.9317C25.3228 23.023 25.2117 23.0733 25.0936 23.0733H22.149C22.0582 23.0732 21.971 23.0432 21.8966 22.9866C21.8222 22.93 21.7662 22.851 21.7346 22.7582L20.0717 17.8813C20.0667 17.8663 20.0584 17.8544 20.0473 17.8458C20.0252 17.8289 19.9942 17.8288 19.9717 17.846C19.9609 17.8544 19.9525 17.8663 19.9479 17.8803L17.9646 23.751C17.9358 23.8357 17.8862 23.9096 17.821 23.9649C17.7559 24.0202 17.678 24.0543 17.596 24.0638L17.5925 24.0641C17.5765 24.0653 17.5605 24.0654 17.5445 24.0643C17.4724 24.0634 17.4009 24.043 17.3375 24.0052C17.2735 23.9669 17.2185 23.9113 17.1787 23.8443L15.3962 20.8437C15.3867 20.8277 15.3733 20.8155 15.3575 20.8082L15.3468 20.8082C15.3429 20.8081 15.3389 20.8079 15.3349 20.8076C15.325 20.8082 15.3155 20.8113 15.307 20.8166C15.2977 20.8225 15.2899 20.8309 15.2844 20.8409L14.1915 22.8386C14.1523 22.9103 14.0965 22.9699 14.03 23.011C13.9637 23.0521 13.8882 23.0739 13.8119 23.0739H11.5643C11.409 23.0739 11.3165 23.2463 11.4045 23.3743C12.5897 25.097 14.1714 26.8444 15.8088 28.2317C17.5262 29.6868 19.0935 30.5556 20.0014 30.5556C20.5518 30.5556 21.4282 30.1789 22.4693 29.4949C23.5179 28.806 24.6955 27.829 25.7851 26.7437C28.4076 24.1315 30.193 21.3008 30.6834 18.9775L30.6862 18.9668C30.8867 18.3422 30.9923 17.69 31 17.0283C31 14.8398 29.8619 12.82 28.0299 11.7582C27.1899 11.2756 26.2427 11.0232 25.293 11.03C23.5317 11.03 21.8405 11.8418 20.7683 13.2014L20.2999 13.7963C20.2269 13.8891 20.1208 13.9423 20.0088 13.9423Z" fill="#FA643F"/>
</svg>
