<svg width="" height="" viewBox="0 0 20 20" fill="none" xmlns="http://www.w3.org/2000/svg">
<path fill-rule="evenodd" clip-rule="evenodd" d="M5.65403 0.75H14.306C17.318 0.75 19.207 2.884 19.207 5.904V14.05C19.207 17.07 17.326 19.204 14.306 19.204H5.65903C2.63403 19.204 0.754032 17.07 0.754032 14.05V5.904C0.750032 2.884 2.63103 0.75 5.65403 0.75Z" stroke="" stroke-width="1.5" stroke-linecap="round" stroke-linejoin="round"/>
<path fill-rule="evenodd" clip-rule="evenodd" d="M11.2538 6.78496C11.2538 7.80496 12.0798 8.63096 13.0998 8.63096C14.1188 8.63096 14.9458 7.80496 14.9458 6.78496C14.9458 5.76496 14.1188 4.93896 13.0998 4.93896C12.0808 4.93996 11.2548 5.76596 11.2538 6.78496Z" stroke="" stroke-width="1.5" stroke-linecap="round" stroke-linejoin="round"/>
<path d="M0.749542 12.951C1.67254 12.001 3.44754 10.082 5.37754 10.082C7.30854 10.082 8.42154 14.315 10.2785 14.315C12.1355 14.315 13.8225 12.401 15.3105 13.628C16.7985 14.854 18.2065 17.361 18.2065 17.361" stroke="" stroke-width="1.5" stroke-linecap="round" stroke-linejoin="round"/>
</svg>
