<svg width="" height="" viewBox="0 0 24 24" fill="none" xmlns="http://www.w3.org/2000/svg">
<path d="M16.5589 15.3663C19.0659 13.7587 22 10.6446 22 7.28323C22 4.9224 20.1901 3 17.9529 3C17.3121 3 16.6713 3.16863 16.098 3.48341C15.5134 3.79819 15.0187 4.25911 14.6477 4.82122C13.917 3.71949 12.7141 3 11.3426 3C9.11662 3 7.30664 4.9224 7.30664 7.28323C7.30664 7.80037 7.37409 8.31751 7.509 8.8234" stroke="" stroke-width="2" stroke-linecap="round" stroke-linejoin="round"/>
<path d="M12.9498 8.58691C15.2432 8.58691 17.1094 10.4981 17.1094 12.8701C17.1094 17.1534 12.1966 21.0431 9.55468 21.9425C6.91279 21.0319 2 17.1421 2 12.8701C2 10.5093 3.85494 8.58691 6.15957 8.58691C7.56483 8.58691 8.80146 9.30641 9.55468 10.4081C9.93691 9.84603 10.4428 9.3851 11.0386 9.07032C11.6345 8.75555 12.2865 8.58691 12.9498 8.58691Z" stroke="" stroke-width="2" stroke-linecap="round" stroke-linejoin="round"/>
</svg>
