<svg viewBox="0 0 80 80" fill="none" xmlns="http://www.w3.org/2000/svg">
<g clip-path="url(#clip0_4038_13355)">
<g filter="url(#filter0_d_4038_13355)">
<g clip-path="url(#clip1_4038_13355)">
<path d="M0 40C0 17.9086 17.9086 0 40 0C62.0914 0 80 17.9086 80 40C80 62.0914 62.0914 80 40 80C17.9086 80 0 62.0914 0 40Z" fill="#F24F7A"/>
<g filter="url(#filter1_f_4038_13355)">
<path d="M79.3676 16.1283C80.2022 8.29235 77.8089 1.54221 76.5079 -0.853371L82.391 -0.507651L77.5781 81.3936L62.5498 80.5104C62.5498 80.5104 66.2971 78.4115 67.7591 73.4243C69.2212 68.4372 73.8774 64.7973 75.2921 57.6331C76.7068 50.469 77.5596 46.8955 78.2876 43.4596C78.87 40.7108 79.5702 30.5865 79.8475 25.8679C79.6785 28.0804 78.7397 33.9777 76.3362 39.8662C73.9327 45.7547 72.7423 53.2799 72.4475 56.3064C72.2913 54.6545 72.3669 49.7211 73.9189 43.2028C75.859 35.055 78.3245 25.9233 79.3676 16.1283Z" fill="white" fill-opacity="0.2"/>
</g>
<mask id="mask0_4038_13355" style="mask-type:alpha" maskUnits="userSpaceOnUse" x="4" y="1" width="72" height="73">
<path fill-rule="evenodd" clip-rule="evenodd" d="M74.354 46.4612C79.8107 26.0966 69.4898 8.22039 49.3863 2.83367C29.6744 -2.44811 11.1711 8.12446 5.78436 28.228C-0.0570754 50.0285 11.2919 67.2008 30.7427 72.4127C51.4989 77.9743 68.9323 66.6953 74.354 46.4612ZM43.3125 23.7389C41.2711 18.762 37.5091 14.4396 33.2687 13.8067C25.3386 12.6128 20.9672 20.7465 20.0908 26.6255C17.9425 40.9614 26.0541 59.6175 31.6202 60.4472C38.5388 61.3787 63.0122 50.9003 64.6538 38.7072C65.0977 35.4103 64.5667 29.2247 56.7507 28.1724C53.8845 27.7865 49.2938 28.7664 44.9029 30.7697C44.8192 28.4923 44.2525 26.0512 43.3125 23.7389Z" fill="black"/>
</mask>
<g mask="url(#mask0_4038_13355)">
<g filter="url(#filter2_f_4038_13355)">
<circle cx="39.3887" cy="25.8653" r="14.9542" fill="white" fill-opacity="0.19"/>
</g>
<g filter="url(#filter3_f_4038_13355)">
<ellipse cx="49.6882" cy="43.2214" rx="18.3103" ry="18.3103" fill="white" fill-opacity="0.19"/>
</g>
</g>
<g filter="url(#filter4_di_4038_13355)">
<path d="M29.0792 20.4386C28.1264 20.1203 26.7647 20.5904 25.6646 21.3719C25.1552 21.7359 24.7043 22.1648 24.3746 22.6116C23.7528 21.7501 22.9498 21.0724 22.3115 20.8489C20.5707 20.2393 19.6132 21.4211 19.2512 22.1273C17.9127 24.739 21.4725 29.4033 23.0133 29.9428C24.264 30.3609 28.4816 27.4795 30.0109 24.3859C30.6389 23.1178 30.8627 21.0318 29.0792 20.4386Z" fill="url(#paint0_radial_4038_13355)"/>
</g>
<g filter="url(#filter5_di_4038_13355)">
<path d="M62.7201 51.8004C62.9698 51.9295 63.0471 52.0586 62.9859 52.3168C62.8485 53.0482 60.7671 55.6729 57.6616 55.6729C54.9443 55.6729 53.4657 53.9948 54.0675 50.9399L55.9211 41.0866C56.4527 38.4189 55.7856 37.4723 54.4425 37.5584C52.5387 37.6445 50.0641 40.9576 49.2517 45.1742L47.4131 54.8123C47.355 55.0275 47.1824 55.0275 47.1363 55.0705C46.1723 55.2856 45.088 55.3717 43.9666 55.3717C42.8451 55.3717 41.819 55.2426 40.8821 55.0705C40.842 55.0275 40.7156 54.9845 40.7246 54.8554L43.3696 41.0866C43.9012 38.4189 43.191 37.4723 41.891 37.5584C39.9872 37.6445 37.5216 40.8285 36.7032 45.1312L34.8185 54.8123C34.7603 55.0275 34.5878 55.0275 34.5416 55.0705C33.6208 55.2856 32.5365 55.3717 31.415 55.3717C30.2936 55.3717 29.1812 55.2426 28.2012 55.0705C28.1611 55.0275 28.0347 54.9845 28.0437 54.8554C28.487 52.8331 30.2564 44.1846 30.9494 40.4412C31.4871 37.6875 30.6575 37.2142 29.5692 36.7409C29.3625 36.6118 29.2853 36.4827 29.3033 36.2246C29.4408 35.4931 31.5221 32.8684 34.6277 32.8684C37.0862 32.8684 38.1856 34.4174 38.1154 36.6548C38.0793 37.1712 38.0031 37.6445 37.9208 38.2038H38.0502C40.2439 34.5895 42.9923 32.9115 45.6264 32.8684C48.7349 32.8254 50.6789 34.6325 50.4753 38.1608H50.6047C52.7001 34.7186 55.4977 32.9545 58.2211 32.8684C61.6747 32.8254 63.7611 35.0628 62.9306 39.5377C62.4662 41.8611 61.8794 44.7009 61.2164 48.014C60.6698 50.8969 61.6317 51.3271 62.7201 51.8004Z" fill="url(#paint1_radial_4038_13355)"/>
</g>
<g filter="url(#filter6_di_4038_13355)">
<path d="M19.6551 55.6742C16.9377 55.6742 15.4592 53.9961 16.0178 50.9412L19.381 33.6872C19.387 33.6012 19.4361 33.5151 19.5686 33.4721C20.4864 33.3 21.66 33.1709 22.6951 33.1709C23.8166 33.1709 24.9751 33.257 25.8659 33.4721C25.906 33.5151 26.0324 33.5581 25.9802 33.6872L23.2099 48.0153C22.6632 50.8981 23.6252 51.3284 24.7135 51.8017C24.9633 51.9308 25.0405 52.0599 24.9794 52.318C24.842 53.0495 22.7606 55.6742 19.6551 55.6742Z" fill="url(#paint2_radial_4038_13355)"/>
</g>
</g>
</g>
</g>
<defs>
<filter id="filter0_d_4038_13355" x="-20" y="-16.8295" width="120" height="120" filterUnits="userSpaceOnUse" color-interpolation-filters="sRGB">
<feFlood flood-opacity="0" result="BackgroundImageFix"/>
<feColorMatrix in="SourceAlpha" type="matrix" values="0 0 0 0 0 0 0 0 0 0 0 0 0 0 0 0 0 0 127 0" result="hardAlpha"/>
<feOffset dy="3.17046"/>
<feGaussianBlur stdDeviation="10"/>
<feComposite in2="hardAlpha" operator="out"/>
<feColorMatrix type="matrix" values="0 0 0 0 0.92549 0 0 0 0 0.25098 0 0 0 0 0.478431 0 0 0 0.22 0"/>
<feBlend mode="normal" in2="BackgroundImageFix" result="effect1_dropShadow_4038_13355"/>
<feBlend mode="normal" in="SourceGraphic" in2="effect1_dropShadow_4038_13355" result="shape"/>
</filter>
<filter id="filter1_f_4038_13355" x="58.43" y="-4.97328" width="28.0803" height="90.4866" filterUnits="userSpaceOnUse" color-interpolation-filters="sRGB">
<feFlood flood-opacity="0" result="BackgroundImageFix"/>
<feBlend mode="normal" in="SourceGraphic" in2="BackgroundImageFix" result="shape"/>
<feGaussianBlur stdDeviation="2.05988" result="effect1_foregroundBlur_4038_13355"/>
</filter>
<filter id="filter2_f_4038_13355" x="7.69205" y="-5.83139" width="63.3932" height="63.3932" filterUnits="userSpaceOnUse" color-interpolation-filters="sRGB">
<feFlood flood-opacity="0" result="BackgroundImageFix"/>
<feBlend mode="normal" in="SourceGraphic" in2="BackgroundImageFix" result="shape"/>
<feGaussianBlur stdDeviation="8.37126" result="effect1_foregroundBlur_4038_13355"/>
</filter>
<filter id="filter3_f_4038_13355" x="14.6354" y="8.16861" width="70.1052" height="70.1056" filterUnits="userSpaceOnUse" color-interpolation-filters="sRGB">
<feFlood flood-opacity="0" result="BackgroundImageFix"/>
<feBlend mode="normal" in="SourceGraphic" in2="BackgroundImageFix" result="shape"/>
<feGaussianBlur stdDeviation="8.37126" result="effect1_foregroundBlur_4038_13355"/>
</filter>
<filter id="filter4_di_4038_13355" x="17.5414" y="19.5007" width="15.4977" height="13.6295" filterUnits="userSpaceOnUse" color-interpolation-filters="sRGB">
<feFlood flood-opacity="0" result="BackgroundImageFix"/>
<feColorMatrix in="SourceAlpha" type="matrix" values="0 0 0 0 0 0 0 0 0 0 0 0 0 0 0 0 0 0 127 0" result="hardAlpha"/>
<feOffset dx="0.577396" dy="1.15479"/>
<feGaussianBlur stdDeviation="0.996008"/>
<feComposite in2="hardAlpha" operator="out"/>
<feColorMatrix type="matrix" values="0 0 0 0 0.937489 0 0 0 0 0.362932 0 0 0 0 0.53654 0 0 0 0.6 0"/>
<feBlend mode="normal" in2="BackgroundImageFix" result="effect1_dropShadow_4038_13355"/>
<feBlend mode="normal" in="SourceGraphic" in2="effect1_dropShadow_4038_13355" result="shape"/>
<feColorMatrix in="SourceAlpha" type="matrix" values="0 0 0 0 0 0 0 0 0 0 0 0 0 0 0 0 0 0 127 0" result="hardAlpha"/>
<feOffset dx="0.288698" dy="-0.288698"/>
<feGaussianBlur stdDeviation="1.87654"/>
<feComposite in2="hardAlpha" operator="arithmetic" k2="-1" k3="1"/>
<feColorMatrix type="matrix" values="0 0 0 0 1 0 0 0 0 1 0 0 0 0 1 0 0 0 0.5 0"/>
<feBlend mode="normal" in2="shape" result="effect2_innerShadow_4038_13355"/>
</filter>
<filter id="filter5_di_4038_13355" x="26.6283" y="32.0305" width="39.0534" height="26.7892" filterUnits="userSpaceOnUse" color-interpolation-filters="sRGB">
<feFlood flood-opacity="0" result="BackgroundImageFix"/>
<feColorMatrix in="SourceAlpha" type="matrix" values="0 0 0 0 0 0 0 0 0 0 0 0 0 0 0 0 0 0 127 0" result="hardAlpha"/>
<feOffset dx="0.577396" dy="1.15479"/>
<feGaussianBlur stdDeviation="0.996008"/>
<feComposite in2="hardAlpha" operator="out"/>
<feColorMatrix type="matrix" values="0 0 0 0 0.937489 0 0 0 0 0.362932 0 0 0 0 0.53654 0 0 0 0.6 0"/>
<feBlend mode="normal" in2="BackgroundImageFix" result="effect1_dropShadow_4038_13355"/>
<feBlend mode="normal" in="SourceGraphic" in2="effect1_dropShadow_4038_13355" result="shape"/>
<feColorMatrix in="SourceAlpha" type="matrix" values="0 0 0 0 0 0 0 0 0 0 0 0 0 0 0 0 0 0 127 0" result="hardAlpha"/>
<feOffset dx="0.288698" dy="-0.288698"/>
<feGaussianBlur stdDeviation="1.87654"/>
<feComposite in2="hardAlpha" operator="arithmetic" k2="-1" k3="1"/>
<feColorMatrix type="matrix" values="0 0 0 0 1 0 0 0 0 1 0 0 0 0 1 0 0 0 0.5 0"/>
<feBlend mode="normal" in2="shape" result="effect2_innerShadow_4038_13355"/>
</filter>
<filter id="filter6_di_4038_13355" x="14.4858" y="32.3337" width="14.0758" height="26.4875" filterUnits="userSpaceOnUse" color-interpolation-filters="sRGB">
<feFlood flood-opacity="0" result="BackgroundImageFix"/>
<feColorMatrix in="SourceAlpha" type="matrix" values="0 0 0 0 0 0 0 0 0 0 0 0 0 0 0 0 0 0 127 0" result="hardAlpha"/>
<feOffset dx="0.577396" dy="1.15479"/>
<feGaussianBlur stdDeviation="0.996008"/>
<feComposite in2="hardAlpha" operator="out"/>
<feColorMatrix type="matrix" values="0 0 0 0 0.937489 0 0 0 0 0.362932 0 0 0 0 0.53654 0 0 0 0.6 0"/>
<feBlend mode="normal" in2="BackgroundImageFix" result="effect1_dropShadow_4038_13355"/>
<feBlend mode="normal" in="SourceGraphic" in2="effect1_dropShadow_4038_13355" result="shape"/>
<feColorMatrix in="SourceAlpha" type="matrix" values="0 0 0 0 0 0 0 0 0 0 0 0 0 0 0 0 0 0 127 0" result="hardAlpha"/>
<feOffset dx="0.288698" dy="-0.288698"/>
<feGaussianBlur stdDeviation="1.87654"/>
<feComposite in2="hardAlpha" operator="arithmetic" k2="-1" k3="1"/>
<feColorMatrix type="matrix" values="0 0 0 0 1 0 0 0 0 1 0 0 0 0 1 0 0 0 0.5 0"/>
<feBlend mode="normal" in2="shape" result="effect2_innerShadow_4038_13355"/>
</filter>
<radialGradient id="paint0_radial_4038_13355" cx="0" cy="0" r="1" gradientUnits="userSpaceOnUse" gradientTransform="translate(24.2284 19.2926) rotate(90) scale(12.7841 19.8057)">
<stop stop-color="#FEFFFF"/>
<stop offset="0.385" stop-color="#FEFFFF"/>
<stop offset="0.585" stop-color="#F9D5DC"/>
<stop offset="0.685" stop-color="#F7C9D4"/>
<stop offset="0.745909" stop-color="#F5B8C4"/>
<stop offset="0.84" stop-color="#F7C4D0"/>
<stop offset="0.918488" stop-color="#F9D2DB"/>
</radialGradient>
<radialGradient id="paint1_radial_4038_13355" cx="0" cy="0" r="1" gradientUnits="userSpaceOnUse" gradientTransform="translate(46.5657 38.3241) rotate(94) scale(20.7963 55.1135)">
<stop stop-color="#FEFFFF"/>
<stop offset="0.385" stop-color="#FEFFFF"/>
<stop offset="0.585" stop-color="#F9D5DC"/>
<stop offset="0.685" stop-color="#F7C9D4"/>
<stop offset="0.745909" stop-color="#F5B8C4"/>
<stop offset="0.84" stop-color="#F7C4D0"/>
<stop offset="0.918488" stop-color="#F9D2DB"/>
</radialGradient>
<radialGradient id="paint2_radial_4038_13355" cx="0" cy="0" r="1" gradientUnits="userSpaceOnUse" gradientTransform="translate(21.5584 30.7321) rotate(94) scale(29.8986 15.6415)">
<stop stop-color="#FEFFFF"/>
<stop offset="0.385" stop-color="#FEFFFF"/>
<stop offset="0.585" stop-color="#F9D5DC"/>
<stop offset="0.685" stop-color="#F7C9D4"/>
<stop offset="0.745909" stop-color="#F5B8C4"/>
<stop offset="0.84" stop-color="#F7C4D0"/>
<stop offset="0.918488" stop-color="#F9D2DB"/>
</radialGradient>
<clipPath id="clip0_4038_13355">
<rect width="80" height="80" rx="40" fill="white"/>
</clipPath>
<clipPath id="clip1_4038_13355">
<path d="M0 40C0 17.9086 17.9086 0 40 0C62.0914 0 80 17.9086 80 40C80 62.0914 62.0914 80 40 80C17.9086 80 0 62.0914 0 40Z" fill="white"/>
</clipPath>
</defs>
</svg>
