<?xml version="1.0" encoding="UTF-8"?>
<svg viewBox="0 0 16 12" version="1.1" xmlns="http://www.w3.org/2000/svg" xmlns:xlink="http://www.w3.org/1999/xlink">
    <g id="Page-1" stroke="none" stroke-width="1" fill="none" fill-rule="evenodd" stroke-linecap="round">
        <g id="Group-Copy" transform="translate(0.6667, 0.6667)" stroke="">
            <path d="M7.86113367,7.866065 L8.814867,6.91173167 C10.395067,5.33059833 10.395067,2.767025 8.814867,1.185865 C7.23473367,-0.395288333 4.67273367,-0.395288333 3.092567,1.185865 L1.185127,3.09449167 C-0.395042333,4.675665 -0.395042333,7.23919833 1.185127,8.82039833 C1.91792033,9.55359833 2.86186033,9.94679833 3.82110033,10" id="Path"></path>
            <path d="M6.80553367,2.80061167 L5.85179367,3.754925 C4.271627,5.336065 4.271627,7.899665 5.85179367,9.48079833 C7.43193367,11.0619317 9.99393367,11.0619317 11.5741337,9.48079833 L13.4815337,7.57219833 C15.0617337,5.99099833 15.0617337,3.42745167 13.4815337,1.84629833 C12.7487337,1.113045 11.8048003,0.719838333 10.8455337,0.666665" id="Path"></path>
        </g>
    </g>
</svg>