<svg viewBox="0 0 18 18" fill="none" xmlns="http://www.w3.org/2000/svg">
<path fill-rule="evenodd" clip-rule="evenodd" d="M9.90294 16.8244L10.3547 16.0612C10.7051 15.4692 10.8803 15.1732 11.1617 15.0095C11.4431 14.8458 11.7974 14.8397 12.506 14.8275C13.5522 14.8095 14.2083 14.7454 14.7586 14.5175C15.7795 14.0946 16.5907 13.2834 17.0136 12.2625C17.3307 11.4968 17.3307 10.5261 17.3307 8.58464V7.7513C17.3307 5.02344 17.3307 3.65951 16.7167 2.65756C16.3732 2.09691 15.9018 1.62553 15.3411 1.28197C14.3392 0.667969 12.9753 0.667969 10.2474 0.667969H7.7474C5.01954 0.667969 3.65561 0.667969 2.65365 1.28197C2.093 1.62553 1.62163 2.09691 1.27806 2.65756C0.664062 3.65951 0.664062 5.02344 0.664062 7.7513V8.58464C0.664062 10.5261 0.664062 11.4968 0.981231 12.2625C1.40412 13.2834 2.21526 14.0946 3.23621 14.5175C3.78647 14.7454 4.44258 14.8095 5.48871 14.8275C6.19733 14.8397 6.55164 14.8458 6.83306 15.0095C7.11447 15.1732 7.28967 15.4692 7.64007 16.0612L8.09182 16.8244C8.49446 17.5046 9.5003 17.5046 9.90294 16.8244ZM12.3307 9.0013C12.791 9.0013 13.1641 8.62821 13.1641 8.16797C13.1641 7.70773 12.791 7.33464 12.3307 7.33464C11.8705 7.33464 11.4974 7.70773 11.4974 8.16797C11.4974 8.62821 11.8705 9.0013 12.3307 9.0013ZM9.83073 8.16797C9.83073 8.62821 9.45763 9.0013 8.9974 9.0013C8.53716 9.0013 8.16406 8.62821 8.16406 8.16797C8.16406 7.70773 8.53716 7.33464 8.9974 7.33464C9.45763 7.33464 9.83073 7.70773 9.83073 8.16797ZM5.66406 9.0013C6.1243 9.0013 6.4974 8.62821 6.4974 8.16797C6.4974 7.70773 6.1243 7.33464 5.66406 7.33464C5.20382 7.33464 4.83073 7.70773 4.83073 8.16797C4.83073 8.62821 5.20382 9.0013 5.66406 9.0013Z" fill="#D0D0D0"/>
</svg>
