<svg viewBox="0 0 16 17" fill="none" xmlns="http://www.w3.org/2000/svg">
<mask id="mask0_20116_32205" style="mask-type:alpha" maskUnits="userSpaceOnUse" x="0" y="0" width="16" height="17">
<rect y="0.5" width="16" height="16" fill="#D9D9D9"/>
</mask>
<g mask="url(#mask0_20116_32205)">
<path d="M1.81522 14.5C1.693 14.5 1.58189 14.4694 1.48189 14.4083C1.38189 14.3472 1.30411 14.2667 1.24856 14.1667C1.193 14.0667 1.16245 13.9583 1.15689 13.8417C1.15134 13.725 1.18189 13.6111 1.24856 13.5L7.41522 2.83333C7.48189 2.72222 7.568 2.63889 7.67356 2.58333C7.77911 2.52778 7.88745 2.5 7.99856 2.5C8.10967 2.5 8.218 2.52778 8.32356 2.58333C8.42911 2.63889 8.51522 2.72222 8.58189 2.83333L14.7486 13.5C14.8152 13.6111 14.8458 13.725 14.8402 13.8417C14.8347 13.9583 14.8041 14.0667 14.7486 14.1667C14.693 14.2667 14.6152 14.3472 14.5152 14.4083C14.4152 14.4694 14.3041 14.5 14.1819 14.5H1.81522ZM7.99856 12.5C8.18745 12.5 8.34578 12.4361 8.47356 12.3083C8.60134 12.1806 8.66522 12.0222 8.66522 11.8333C8.66522 11.6444 8.60134 11.4861 8.47356 11.3583C8.34578 11.2306 8.18745 11.1667 7.99856 11.1667C7.80967 11.1667 7.65134 11.2306 7.52356 11.3583C7.39578 11.4861 7.33189 11.6444 7.33189 11.8333C7.33189 12.0222 7.39578 12.1806 7.52356 12.3083C7.65134 12.4361 7.80967 12.5 7.99856 12.5ZM7.99856 10.5C8.18745 10.5 8.34578 10.4361 8.47356 10.3083C8.60134 10.1806 8.66522 10.0222 8.66522 9.83333V7.83333C8.66522 7.64444 8.60134 7.48611 8.47356 7.35833C8.34578 7.23056 8.18745 7.16667 7.99856 7.16667C7.80967 7.16667 7.65134 7.23056 7.52356 7.35833C7.39578 7.48611 7.33189 7.64444 7.33189 7.83333V9.83333C7.33189 10.0222 7.39578 10.1806 7.52356 10.3083C7.65134 10.4361 7.80967 10.5 7.99856 10.5Z" fill="#FC9144"/>
</g>
</svg>
