<?xml version="1.0" encoding="UTF-8"?>
<svg viewBox="0 0 12 12" version="1.1" xmlns="http://www.w3.org/2000/svg" xmlns:xlink="http://www.w3.org/1999/xlink">
    <g id="Frame-Copy-2" stroke="none" fill="none" fill-rule="evenodd" stroke-width="1">
        <g id="Frame" transform="translate(1.6332, 1.1475)" fill="">
            <path d="M3.15357892,0 C2.75154801,0 2.42563774,0.325910404 2.42563774,0.727941208 L2.42563774,1.21323535 C2.42563774,1.61526615 2.75154801,1.94117647 3.15357892,1.94117647 L5.58004951,1.94117647 C5.98208042,1.94117647 6.30799068,1.61526615 6.30799068,1.21323535 L6.30799068,0.727941208 C6.30799068,0.325910404 5.98208042,0 5.58004951,0 L3.15357892,0 Z" id="Path"></path>
            <path d="M7.03593186,0.988357504 C7.64638622,1.0226076 8.03176375,1.11988351 8.30804339,1.39616305 C8.73446127,1.82258118 8.73446127,2.50889044 8.73446127,3.88150962 L8.73435716,7.04270213 C8.73279558,8.25066703 8.70781015,8.87885485 8.30804339,9.27862161 C7.88162551,9.70503953 7.19531572,9.70503953 5.82269656,9.70503953 L2.66150416,9.70493542 C1.45353924,9.70337383 0.825352138,9.67838841 0.425585211,9.27862161 C0.0524694096,8.90550596 0.0058299344,8.3334109 4.86972225e-13,7.27666912 L4.86972225e-13,3.39811522 C0.0058299344,2.34137392 0.0524694096,1.76927892 0.425585211,1.39616305 C0.70186474,1.11988351 1.08724255,1.0226076 1.69769656,0.988357504 L1.69769656,1.21323546 C1.69769656,2.01729719 2.34951734,2.66911776 3.15357892,2.66911776 L5.58004951,2.66911776 C6.38411131,2.66911776 7.03593186,2.01729719 7.03593186,1.21323546 Z M2.18299068,3.76102959 L1.94034362,3.76102959 C1.73932817,3.76102959 1.57637303,3.92398496 1.57637303,4.12500018 C1.57637303,4.32601542 1.73932817,4.4889708 1.94034362,4.4889708 L2.18299068,4.4889708 C2.38400613,4.4889708 2.54696127,4.32601542 2.54696127,4.12500018 C2.54696127,3.92398496 2.38400613,3.76102959 2.18299068,3.76102959 Z M6.7932848,3.76102959 L3.63887303,3.76102959 C3.43785758,3.76102959 3.27490245,3.92398496 3.27490245,4.12500018 C3.27490245,4.32601542 3.43785758,4.4889708 3.63887303,4.4889708 L6.7932848,4.4889708 C6.99430001,4.4889708 7.15725539,4.32601542 7.15725539,4.12500018 C7.15725539,3.92398496 6.99430001,3.76102959 6.7932848,3.76102959 Z M1.94034362,5.45955907 C1.73932817,5.45955907 1.57637303,5.62251445 1.57637303,5.82352941 C1.57637303,6.02454491 1.73932817,6.18750028 1.94034362,6.18750028 L2.18299068,6.18750028 C2.38400613,6.18750028 2.54696127,6.02454491 2.54696127,5.82352941 C2.54696127,5.62251445 2.38400613,5.45955907 2.18299068,5.45955907 L1.94034362,5.45955907 Z M3.63887303,5.45955907 C3.43785758,5.45955907 3.27490245,5.62251445 3.27490245,5.82352941 C3.27490245,6.02454491 3.43785758,6.18750028 3.63887303,6.18750028 L6.7932848,6.18750028 C6.99430001,6.18750028 7.15725539,6.02454491 7.15725539,5.82352941 C7.15725539,5.62251445 6.99430001,5.45955907 6.7932848,5.45955907 L3.63887303,5.45955907 Z M1.94034362,7.15808855 C1.73932817,7.15808855 1.57637303,7.32104393 1.57637303,7.52205914 C1.57637303,7.72307439 1.73932817,7.88602976 1.94034362,7.88602976 L2.18299068,7.88602976 C2.38400613,7.88602976 2.54696127,7.72307439 2.54696127,7.52205914 C2.54696127,7.32104393 2.38400613,7.15808855 2.18299068,7.15808855 L1.94034362,7.15808855 Z M3.63887303,7.15808855 C3.43785758,7.15808855 3.27490245,7.32104393 3.27490245,7.52205914 C3.27490245,7.72307439 3.43785758,7.88602976 3.63887303,7.88602976 L6.7932848,7.88602976 C6.99430001,7.88602976 7.15725539,7.72307439 7.15725539,7.52205914 C7.15725539,7.32104393 6.99430001,7.15808855 6.7932848,7.15808855 L3.63887303,7.15808855 Z" id="Shape" fill-rule="nonzero"></path>
        </g>
    </g>
</svg>