<svg width="" height="" viewBox="0 0 24 24" fill="none" xmlns="http://www.w3.org/2000/svg">
<path fill-rule="evenodd" clip-rule="evenodd" d="M9.90075 2.39109C8.3793 0.869636 5.91253 0.869636 4.39107 2.39109C2.86961 3.91255 2.86961 6.37932 4.39107 7.90077L11.9851 15.4948C12.4131 15.9228 12.6745 16.1842 12.9658 16.4115C13.309 16.6792 13.6804 16.9087 14.0733 17.096C14.4069 17.2549 14.7576 17.3718 15.3318 17.5632L18.0045 18.4541L18.6461 18.668C19.2205 18.8594 19.8537 18.7099 20.2818 18.2818C20.7099 17.8537 20.8594 17.2205 20.6679 16.6462L19.5632 13.3318C19.3718 12.7576 19.2549 12.4069 19.0959 12.0734C18.9087 11.6804 18.6792 11.309 18.4114 10.9658C18.1842 10.6745 17.9228 10.4131 17.4948 9.98509L9.90075 2.39109ZM18.0391 16.8845L18.8844 16.0391L18.156 13.8538C17.9439 13.2176 17.8563 12.9589 17.7419 12.7187C17.6015 12.4241 17.4294 12.1457 17.2287 11.8883C17.065 11.6785 16.8728 11.4845 16.3986 11.0102L10.5076 5.11927C10.2645 5.72927 9.85303 6.46549 9.15925 7.15927C8.46546 7.85306 7.72924 8.26447 7.11925 8.50764L13.0102 14.3986C13.4845 14.8728 13.6785 15.065 13.8883 15.2287C14.1456 15.4294 14.4241 15.6015 14.7187 15.7419C14.9589 15.8564 15.2176 15.944 15.8538 16.156L18.0391 16.8845ZM5.92402 7.31241C6.04785 7.28522 6.20268 7.24432 6.37871 7.18325C6.86274 7.01532 7.49942 6.69778 8.09859 6.09861C8.69776 5.49944 9.0153 4.86276 9.18323 4.37873C9.2443 4.2027 9.2852 4.04787 9.31239 3.92404L8.84009 3.45175C7.90442 2.51608 6.3874 2.51608 5.45173 3.45175C4.51606 4.38742 4.51606 5.90444 5.45173 6.84011L5.92402 7.31241ZM20.75 22C20.75 21.5858 20.4142 21.25 20 21.25H3.99998V22.75H20C20.4142 22.75 20.75 22.4142 20.75 22Z" fill=""/>
</svg>
