<svg width="" height="" viewBox="0 0 22 22" fill="none" xmlns="http://www.w3.org/2000/svg">
<path opacity="0.5" d="M20.2297 7.55645C20.9777 6.78507 21.3922 5.7505 21.3839 4.67609C21.3756 3.60168 20.9452 2.57363 20.1854 1.81388C19.4257 1.05414 18.3976 0.623648 17.3232 0.615356C16.2488 0.607065 15.2142 1.02164 14.4428 1.76956L13.5195 2.69287L13.5598 2.8086C13.898 3.78392 14.5365 5.06224 15.7381 6.26253C16.7387 7.2699 17.9612 8.0292 19.3077 8.47976L20.2297 7.55645Z" fill="#F2AC50"/>
<path d="M13.5596 2.65332L13.5206 2.69233L13.5596 2.80937C13.8978 3.78469 14.535 5.06171 15.7366 6.2633C16.7374 7.27019 17.9598 8.02904 19.3062 8.47922L10.3983 17.3871C9.79752 17.9879 9.49712 18.2883 9.16551 18.5458C8.77365 18.851 8.35361 19.1111 7.9054 19.3261C7.52698 19.5055 7.12385 19.6395 6.31888 19.9087L2.0691 21.3261C1.87464 21.3907 1.66605 21.3998 1.46668 21.3526C1.2673 21.3054 1.08501 21.2036 0.940196 21.0586C0.795381 20.9137 0.693759 20.7313 0.646701 20.5319C0.599643 20.3324 0.609005 20.1239 0.673741 19.9295L2.0899 15.6797C2.35779 14.8734 2.49304 14.4703 2.67249 14.0932C2.88663 13.6441 3.14672 13.2236 3.45275 12.8317C3.71023 12.5014 4.01063 12.201 4.61013 11.6002L13.5596 2.65332Z" fill="#F2AC50"/>
</svg>
