<svg viewBox="0 0 17 16" fill="none" xmlns="http://www.w3.org/2000/svg">
<g clip-path="url(#clip0_14396_23362)">
<path d="M12.334 7.5C12.9162 7.49956 13.4906 7.63492 14.0113 7.8953C14.5321 8.15569 14.985 8.53394 15.334 9" stroke="" stroke-width="1.33333" stroke-linecap="round" stroke-linejoin="round"/>
<path d="M1.33398 9C1.68298 8.53394 2.13586 8.15569 2.65664 7.8953C3.17741 7.63492 3.75174 7.49956 4.33398 7.5" stroke="" stroke-width="1.33333" stroke-linecap="round" stroke-linejoin="round"/>
<path d="M8.33398 11.5C9.7147 11.5 10.834 10.3807 10.834 9C10.834 7.61929 9.7147 6.5 8.33398 6.5C6.95327 6.5 5.83398 7.61929 5.83398 9C5.83398 10.3807 6.95327 11.5 8.33398 11.5Z" stroke="" stroke-width="1.33333" stroke-linecap="round" stroke-linejoin="round"/>
<path d="M4.83398 13.5C5.19291 12.8909 5.70459 12.386 6.31842 12.0353C6.93225 11.6845 7.627 11.5 8.33398 11.5C9.04097 11.5 9.73571 11.6845 10.3495 12.0353C10.9634 12.386 11.4751 12.8909 11.834 13.5" stroke="" stroke-width="1.33333" stroke-linecap="round" stroke-linejoin="round"/>
<path d="M10.3965 5C10.49 4.63785 10.6832 4.30918 10.9541 4.05131C11.225 3.79345 11.5628 3.61672 11.9291 3.5412C12.2955 3.46567 12.6756 3.49439 13.0264 3.62407C13.3773 3.75376 13.6847 3.97922 13.9138 4.27486C14.1429 4.57049 14.2845 4.92445 14.3226 5.29653C14.3607 5.66862 14.2936 6.04392 14.1291 6.37981C13.9645 6.7157 13.7091 6.99872 13.3918 7.19673C13.0745 7.39475 12.708 7.49981 12.334 7.5" stroke="" stroke-width="1.33333" stroke-linecap="round" stroke-linejoin="round"/>
<path d="M4.33493 7.5C3.96091 7.49981 3.59443 7.39475 3.27712 7.19673C2.95981 6.99872 2.70438 6.7157 2.53985 6.37981C2.37531 6.04392 2.30826 5.66862 2.34632 5.29653C2.38437 4.92445 2.52599 4.57049 2.75511 4.27486C2.98423 3.97922 3.29165 3.75376 3.64247 3.62407C3.99329 3.49439 4.37345 3.46567 4.73977 3.5412C5.10609 3.61672 5.4439 3.79345 5.71482 4.05131C5.98574 4.30918 6.17892 4.63785 6.27243 5" stroke="" stroke-width="1.33333" stroke-linecap="round" stroke-linejoin="round"/>
</g>
<defs>
<clipPath id="clip0_14396_23362">
<rect width="16" height="16" fill="white" transform="translate(0.333984)"/>
</clipPath>
</defs>
</svg>
