<svg viewBox="0 0 14 14" fill="none" xmlns="http://www.w3.org/2000/svg">
<path d="M11.7887 4.20409L9.81221 2.22569C8.46109 0.87325 7.78554 0.197031 7.05996 0.357107C6.33438 0.517183 6.00541 1.41502 5.34747 3.21069L4.90216 4.42605C4.72676 4.90476 4.63906 5.14412 4.48127 5.32927C4.41047 5.41234 4.32991 5.48656 4.24135 5.55032C4.04397 5.69242 3.79841 5.76012 3.30731 5.89551C2.20039 6.20067 1.64693 6.35325 1.43837 6.71537C1.34821 6.87192 1.30129 7.04966 1.30243 7.23036C1.30507 7.64833 1.711 8.05466 2.52285 8.86731L3.46591 9.81149L0.481974 12.7983C0.283352 12.9971 0.283352 13.3194 0.481974 13.5182C0.680596 13.7171 1.00263 13.7171 1.20125 13.5182L4.18528 10.5314L5.16262 11.5097C5.97963 12.3275 6.38814 12.7364 6.80858 12.737C6.98578 12.7373 7.15996 12.6912 7.3139 12.6034C7.67916 12.3949 7.83256 11.8374 8.13937 10.7223C8.27426 10.2321 8.34171 9.98697 8.48328 9.78967C8.54526 9.70329 8.61716 9.6245 8.69752 9.55492C8.88105 9.39599 9.11886 9.30664 9.59448 9.12795L10.8238 8.66608C12.5997 7.99887 13.4876 7.66526 13.6441 6.94162C13.8006 6.21798 13.13 5.54669 11.7887 4.20409Z" fill=""/>
</svg>
