<svg viewBox="0 0 22 22" fill="none" xmlns="http://www.w3.org/2000/svg">
<path d="M9.49967 20.7341L0.699675 11.9341C0.566341 11.8008 0.471674 11.6563 0.415674 11.5008C0.360563 11.3452 0.333008 11.1785 0.333008 11.0008C0.333008 10.823 0.360563 10.6563 0.415674 10.5008C0.471674 10.3452 0.566341 10.2008 0.699675 10.0674L9.49967 1.26743C9.74412 1.02298 10.0495 0.894983 10.4157 0.883428C10.7828 0.872761 11.0997 1.00076 11.3663 1.26743C11.633 1.51187 11.7721 1.81721 11.7837 2.18343C11.7943 2.55054 11.6663 2.86743 11.3997 3.13409L4.86634 9.66743H19.7663C20.1441 9.66743 20.461 9.79498 20.717 10.0501C20.9721 10.3061 21.0997 10.623 21.0997 11.0008C21.0997 11.3785 20.9721 11.695 20.717 11.9501C20.461 12.2061 20.1441 12.3341 19.7663 12.3341H4.86634L11.3997 18.8674C11.6441 19.1119 11.7721 19.423 11.7837 19.8008C11.7943 20.1785 11.6663 20.4896 11.3997 20.7341C11.1552 21.0008 10.8441 21.1341 10.4663 21.1341C10.0886 21.1341 9.76634 21.0008 9.49967 20.7341Z" fill=""/>
</svg>
