<svg viewBox="0 0 40 24" fill="none" xmlns="http://www.w3.org/2000/svg">
<path d="M16.6395 15.2056C16.0459 15.2056 15.4765 14.9745 15.0558 14.5629C14.6351 14.1512 14.3973 13.5925 14.3945 13.009V2.0572C14.4337 1.49945 14.6866 0.977084 15.1023 0.595602C15.518 0.21412 16.0655 0.00195312 16.6341 0.00195312C17.2028 0.00195312 17.7502 0.21412 18.166 0.595602C18.5817 0.977084 18.8346 1.49945 18.8737 2.0572V13.009C18.8737 13.5916 18.6383 14.1503 18.2193 14.5623C17.8003 14.9742 17.232 15.2056 16.6395 15.2056Z" fill="black"/>
<path d="M8.81108 17.4012H3.21475C2.62218 17.4012 2.05388 17.1698 1.63487 16.7578C1.21586 16.3459 0.980469 15.7872 0.980469 15.2046C0.980469 14.622 1.21586 14.0633 1.63487 13.6513C2.05388 13.2394 2.62218 13.0079 3.21475 13.0079H7.69394V6.40757C7.69394 5.82499 7.92934 5.26627 8.34835 4.85432C8.76736 4.44237 9.33566 4.21094 9.92822 4.21094C10.5208 4.21094 11.0891 4.44237 11.5081 4.85432C11.9271 5.26627 12.1625 5.82499 12.1625 6.40757V14.1063C12.1625 14.539 12.0758 14.9674 11.9074 15.3672C11.739 15.7669 11.4921 16.1302 11.1809 16.4361C10.8697 16.7421 10.5002 16.9848 10.0936 17.1504C9.687 17.316 9.2512 17.4012 8.81108 17.4012Z" fill="black"/>
<path d="M22.2234 21.8054H16.6377C16.3306 21.8263 16.0224 21.7848 15.7323 21.6835C15.4422 21.5823 15.1764 21.4235 14.9514 21.217C14.7264 21.0105 14.5469 20.7607 14.4243 20.4832C14.3016 20.2056 14.2383 19.9062 14.2383 19.6036C14.2383 19.3009 14.3016 19.0015 14.4243 18.724C14.5469 18.4464 14.7264 18.1966 14.9514 17.9901C15.1764 17.7836 15.4422 17.6248 15.7323 17.5236C16.0224 17.4224 16.3306 17.3809 16.6377 17.4017H21.1062V10.8013C21.1453 10.2436 21.3983 9.72122 21.814 9.33974C22.2297 8.95826 22.7772 8.74609 23.3458 8.74609C23.9145 8.74609 24.4619 8.95826 24.8776 9.33974C25.2933 9.72122 25.5463 10.2436 25.5854 10.8013V18.4896C25.5854 19.3672 25.2315 20.209 24.6013 20.8306C23.9711 21.4521 23.116 21.8027 22.2234 21.8054Z" fill="black"/>
<path d="M36.7826 17.4025H31.2182C30.3199 17.4025 29.4582 17.0524 28.822 16.4288C28.1859 15.8053 27.827 14.9593 27.8242 14.0761V4.20173C27.8633 3.64398 28.1163 3.12161 28.532 2.74013C28.9477 2.35865 29.4952 2.14648 30.0638 2.14648C30.6325 2.14648 31.1799 2.35865 31.5956 2.74013C32.0113 3.12161 32.2643 3.64398 32.3034 4.20173V13.0092H36.7826C37.3752 13.0092 37.9435 13.2406 38.3625 13.6526C38.7815 14.0645 39.0169 14.6232 39.0169 15.2058C39.0169 15.7884 38.7815 16.3471 38.3625 16.7591C37.9435 17.171 37.3752 17.4025 36.7826 17.4025Z" fill="black"/>
<path d="M23.3554 6.39718C24.5893 6.39718 25.5896 5.41371 25.5896 4.20054C25.5896 2.98737 24.5893 2.00391 23.3554 2.00391C22.1214 2.00391 21.1211 2.98737 21.1211 4.20054C21.1211 5.41371 22.1214 6.39718 23.3554 6.39718Z" fill="black"/>
<path d="M30.0663 24.0026C31.3003 24.0026 32.3006 23.0192 32.3006 21.806C32.3006 20.5928 31.3003 19.6094 30.0663 19.6094C28.8324 19.6094 27.832 20.5928 27.832 21.806C27.832 23.0192 28.8324 24.0026 30.0663 24.0026Z" fill="black"/>
</svg>
