<svg viewBox="0 0 20 20" fill="none" xmlns="http://www.w3.org/2000/svg">
<g clip-path="url(#clip0_39461_41324)">
<ellipse cx="10.6895" cy="9.99999" rx="4.75586" ry="4.35888" fill="white"/>
<path d="M2.9983 12.4192L2.37529 12.8368C2.33231 12.7726 2.27928 12.7086 2.09541 12.4929C2.07409 12.4679 2.05306 12.4432 2.03233 12.4189C1.65917 11.9815 1.38098 11.6554 1.21035 11.2984C0.817904 10.4773 0.817904 9.52282 1.21035 8.70174C1.38098 8.34475 1.65918 8.01865 2.03233 7.58126C2.05306 7.55695 2.07409 7.5323 2.09541 7.50729C2.27929 7.29151 2.33231 7.22753 2.37529 7.1634C2.48656 6.99739 2.56378 6.81096 2.60249 6.6149C2.61744 6.53915 2.62519 6.45643 2.64775 6.17382C2.65036 6.14106 2.65292 6.10876 2.65545 6.07691C2.70088 5.50376 2.73475 5.07647 2.86652 4.70338C3.16961 3.8453 3.84456 3.17034 4.70265 2.86726C5.07574 2.73548 5.50303 2.70161 6.07618 2.65618C6.10803 2.65365 6.14032 2.65109 6.17309 2.64848C6.45569 2.62593 6.53842 2.61817 6.61417 2.60322C6.81023 2.56451 6.99666 2.48729 7.16266 2.37602C7.2268 2.33304 7.29078 2.28002 7.50656 2.09614M2.9983 12.4192L7.50656 2.09614M2.9983 12.4192L2.37529 12.8368C2.48656 13.0028 2.56378 13.1892 2.60249 13.3853C2.61744 13.461 2.62519 13.5437 2.64775 13.8263C2.65036 13.8591 2.65292 13.8914 2.65545 13.9233C2.70088 14.4964 2.73475 14.9237 2.86652 15.2968C3.16961 16.1549 3.84456 16.8298 4.70265 17.1329C5.07574 17.2647 5.50303 17.2986 6.07619 17.344C6.10803 17.3465 6.14033 17.3491 6.17309 17.3517C6.45569 17.3742 6.53842 17.382 6.61417 17.3969C6.81023 17.4356 6.99666 17.5129 7.16266 17.6241C7.2268 17.6671 7.29078 17.7201 7.50655 17.904C7.53156 17.9253 7.5562 17.9464 7.5805 17.9671C8.01792 18.3403 8.34401 18.6184 8.70101 18.7891L9.02444 18.1124M2.9983 12.4192L9.02444 18.1124M7.50656 2.09614C7.53157 2.07482 7.55621 2.0538 7.58052 2.03307C8.01792 1.65991 8.34402 1.38171 8.70101 1.21108C9.52208 0.818637 10.4766 0.818637 11.2977 1.21108C11.6547 1.38171 11.9808 1.6599 12.4182 2.03306C12.4425 2.05379 12.4671 2.07482 12.4921 2.09614C12.7079 2.28002 12.7719 2.33304 12.836 2.37602L12.4329 2.97745L12.836 2.37602C13.002 2.48729 13.1885 2.56451 13.3845 2.60322C13.4603 2.61817 13.543 2.62593 13.8256 2.64848C13.8584 2.65109 13.8907 2.65365 13.9225 2.65618C14.4957 2.70161 14.923 2.73548 15.296 2.86726C16.1541 3.17034 16.8291 3.84529 17.1322 4.70338C17.264 5.07647 17.2978 5.50376 17.3433 6.07692C17.3458 6.10876 17.3483 6.14106 17.351 6.17382C17.3735 6.45642 17.3813 6.53915 17.3962 6.6149C17.4349 6.81096 17.5121 6.99739 17.6234 7.16339C17.6664 7.22753 17.7194 7.29151 17.9033 7.50729C17.9246 7.53229 17.9456 7.55693 17.9663 7.58123C18.3395 8.01865 18.6177 8.34474 18.7883 8.70174L18.247 8.96048L18.7883 8.70174C19.1808 9.52282 19.1808 10.4773 18.7883 11.2984C18.6177 11.6554 18.3395 11.9815 17.9663 12.4189C17.9456 12.4432 17.9246 12.4679 17.9033 12.4929C17.7194 12.7086 17.6664 12.7726 17.6234 12.8368C17.5121 13.0028 17.4349 13.1892 17.3962 13.3853C17.3813 13.461 17.3735 13.5437 17.351 13.8263C17.3483 13.8591 17.3458 13.8914 17.3433 13.9232C17.2978 14.4964 17.264 14.9237 17.1322 15.2968C16.8291 16.1549 16.1541 16.8298 15.296 17.1329C14.923 17.2647 14.4957 17.2986 13.9225 17.344C13.8907 17.3465 13.8584 17.3491 13.8256 17.3517C13.543 17.3742 13.4603 17.382 13.3845 17.3969C13.1885 17.4356 13.002 17.5129 12.836 17.6241C12.7719 17.6671 12.7079 17.7201 12.4921 17.904C12.4671 17.9253 12.4425 17.9464 12.4182 17.9671C11.9808 18.3402 11.6547 18.6184 11.2977 18.7891C10.4766 19.1815 9.52208 19.1815 8.70101 18.7891L9.02444 18.1124M7.50656 2.09614L9.02444 18.1124" fill="white" stroke="white" stroke-width="1.5"/>
<path fill-rule="evenodd" clip-rule="evenodd" d="M7.99302 2.66697C7.79008 2.83992 7.6886 2.9264 7.58023 2.99903C7.33181 3.16553 7.05283 3.28109 6.75943 3.33902C6.63144 3.36429 6.49854 3.37489 6.23275 3.3961C5.56493 3.44939 5.23102 3.47604 4.95244 3.57444C4.30811 3.80202 3.80129 4.30884 3.57371 4.95317C3.47531 5.23175 3.44866 5.56566 3.39537 6.23348C3.37416 6.49928 3.36355 6.63217 3.33828 6.76016C3.28036 7.05356 3.1648 7.33255 2.9983 7.58097C2.92566 7.68934 2.83919 7.79081 2.66624 7.99375C2.23171 8.50365 2.01444 8.75861 1.88703 9.02517C1.59234 9.64171 1.59234 10.3585 1.88703 10.975C2.01444 11.2416 2.23171 11.4965 2.66624 12.0064C2.83917 12.2093 2.92567 12.3108 2.9983 12.4192C3.1648 12.6676 3.28036 12.9466 3.33828 13.24C3.36355 13.368 3.37416 13.5009 3.39537 13.7667C3.44866 14.4345 3.47531 14.7684 3.57371 15.047C3.80129 15.6913 4.30811 16.1981 4.95244 16.4257C5.23102 16.5241 5.56493 16.5508 6.23275 16.6041C6.49854 16.6253 6.63144 16.6359 6.75943 16.6611C7.05283 16.7191 7.33181 16.8346 7.58023 17.0011C7.6886 17.0738 7.79008 17.1602 7.99302 17.3332C8.50292 17.7677 8.75787 17.985 9.02444 18.1124C9.64098 18.4071 10.3577 18.4071 10.9743 18.1124C11.2408 17.985 11.4958 17.7677 12.0057 17.3332C12.2086 17.1602 12.3101 17.0738 12.4185 17.0011C12.6669 16.8346 12.9459 16.7191 13.2393 16.6611C13.3673 16.6359 13.5002 16.6253 13.7659 16.6041C14.4338 16.5508 14.7677 16.5241 15.0463 16.4257C15.6906 16.1981 16.1974 15.6913 16.425 15.047C16.5234 14.7684 16.55 14.4345 16.6033 13.7667C16.6245 13.5009 16.6351 13.368 16.6604 13.24C16.7183 12.9466 16.8339 12.6676 17.0004 12.4192C17.073 12.3108 17.1595 12.2094 17.3325 12.0064C17.767 11.4965 17.9843 11.2416 18.1117 10.975C18.4064 10.3585 18.4064 9.64171 18.1117 9.02517C17.9843 8.75861 17.767 8.50365 17.3325 7.99375C17.1595 7.79081 17.073 7.68934 17.0004 7.58096C16.8339 7.33255 16.7183 7.05356 16.6604 6.76016C16.6351 6.63217 16.6245 6.49928 16.6033 6.23348C16.55 5.56566 16.5234 5.23175 16.425 4.95317C16.1974 4.30884 15.6906 3.80202 15.0463 3.57444C14.7677 3.47604 14.4338 3.44939 13.7659 3.3961C13.5002 3.37489 13.3673 3.36429 13.2393 3.33902C12.9459 3.28109 12.6669 3.16553 12.4185 2.99903C12.3101 2.92639 12.2086 2.83992 12.0057 2.66697C11.4958 2.23244 11.2408 2.01517 10.9743 1.88776C10.3577 1.59308 9.64098 1.59308 9.02444 1.88776C8.75788 2.01517 8.50292 2.23244 7.99302 2.66697ZM13.6439 8.21936C13.9088 7.9545 13.9088 7.52508 13.6439 7.26022C13.3791 6.99536 12.9496 6.99536 12.6848 7.26022L8.6429 11.3021L7.3139 9.97308C7.04904 9.70822 6.61962 9.70822 6.35475 9.97308C6.0899 10.2379 6.0899 10.6674 6.35475 10.9322L8.16333 12.7408C8.42819 13.0057 8.85762 13.0057 9.12248 12.7408L13.6439 8.21936Z" fill="#0068BC"/>
</g>
<defs>
<clipPath id="clip0_39461_41324">
<rect width="20" height="20" fill="white"/>
</clipPath>
</defs>
</svg>
