<svg viewBox="0 0 16 15" fill="none" xmlns="http://www.w3.org/2000/svg">
<path d="M13.8599 6.96278L13.0439 6.01478C12.8879 5.83478 12.7619 5.49878 12.7619 5.25878V4.23878C12.7619 3.60278 12.2399 3.08078 11.6039 3.08078H10.5839C10.3499 3.08078 10.0079 2.95478 9.82794 2.79878L8.87994 1.98278C8.46594 1.62879 7.78795 1.62879 7.36795 1.98278L6.42595 2.80478C6.24595 2.95478 5.90395 3.08078 5.66995 3.08078H4.63195C3.99595 3.08078 3.47395 3.60278 3.47395 4.23878V5.26478C3.47395 5.49878 3.34795 5.83478 3.19795 6.01478L2.38795 6.96878C2.03995 7.38278 2.03995 8.05478 2.38795 8.46878L3.19795 9.42278C3.34795 9.60278 3.47395 9.93877 3.47395 10.1728V11.1988C3.47395 11.8348 3.99595 12.3568 4.63195 12.3568H5.66995C5.90395 12.3568 6.24595 12.4828 6.42595 12.6388L7.37395 13.4548C7.78795 13.8088 8.46594 13.8088 8.88594 13.4548L9.83394 12.6388C10.0139 12.4828 10.3499 12.3568 10.5899 12.3568H11.6099C12.2459 12.3568 12.7679 11.8348 12.7679 11.1988V10.1788C12.7679 9.94478 12.8939 9.60278 13.0499 9.42278L13.8659 8.47478C14.2139 8.06078 14.2139 7.37678 13.8599 6.96278ZM10.6199 6.58478L7.72195 9.48278C7.63795 9.56678 7.52395 9.61478 7.40395 9.61478C7.28395 9.61478 7.16995 9.56678 7.08595 9.48278L5.63395 8.03078C5.45995 7.85678 5.45995 7.56878 5.63395 7.39478C5.80795 7.22078 6.09595 7.22078 6.26995 7.39478L7.40395 8.52878L9.98394 5.94878C10.1579 5.77478 10.4459 5.77478 10.6199 5.94878C10.7939 6.12278 10.7939 6.41078 10.6199 6.58478Z" fill="#338EFF"/>
</svg>
