<svg width="" height="" viewBox="0 0 28 28" fill="none" xmlns="http://www.w3.org/2000/svg">
<path d="M25.6323 21.3837C25.6323 21.8037 25.539 22.2354 25.3406 22.6554C25.1423 23.0754 24.8857 23.472 24.5473 23.8454C23.9757 24.4754 23.3456 24.9304 22.634 25.222C21.934 25.5137 21.1757 25.6654 20.359 25.6654C19.169 25.6654 17.8973 25.3854 16.5557 24.8137C15.214 24.242 13.8723 23.472 12.5423 22.5037C11.2007 21.5237 9.92898 20.4387 8.71565 19.237C7.51398 18.0237 6.42898 16.752 5.46065 15.422C4.50398 14.092 3.73398 12.762 3.17398 11.4437C2.61398 10.1137 2.33398 8.84203 2.33398 7.6287C2.33398 6.83536 2.47398 6.07703 2.75398 5.37703C3.03398 4.66536 3.47732 4.01203 4.09565 3.4287C4.84232 2.6937 5.65898 2.33203 6.52232 2.33203C6.84898 2.33203 7.17565 2.40203 7.46732 2.54203C7.77065 2.68203 8.03898 2.89203 8.24898 3.19536L10.9557 7.01036C11.1657 7.30203 11.3173 7.57036 11.4223 7.82703C11.5273 8.07203 11.5857 8.31703 11.5857 8.5387C11.5857 8.8187 11.504 9.0987 11.3407 9.36703C11.189 9.63536 10.9673 9.91536 10.6873 10.1954L9.80065 11.117C9.67232 11.2454 9.61398 11.397 9.61398 11.5837C9.61398 11.677 9.62565 11.7587 9.64898 11.852C9.68398 11.9454 9.71898 12.0154 9.74232 12.0854C9.95232 12.4704 10.314 12.972 10.8273 13.5787C11.3523 14.1854 11.9123 14.8037 12.519 15.422C13.149 16.0404 13.7557 16.612 14.374 17.137C14.9807 17.6504 15.4823 18.0004 15.879 18.2104C15.9373 18.2337 16.0073 18.2687 16.089 18.3037C16.1823 18.3387 16.2757 18.3504 16.3807 18.3504C16.579 18.3504 16.7307 18.2804 16.859 18.152L17.7457 17.277C18.0373 16.9854 18.3173 16.7637 18.5857 16.6237C18.854 16.4604 19.1223 16.3787 19.414 16.3787C19.6356 16.3787 19.869 16.4254 20.1257 16.5304C20.3823 16.6354 20.6507 16.787 20.9423 16.9854L24.804 19.727C25.1073 19.937 25.3173 20.182 25.4456 20.4737C25.5623 20.7654 25.6323 21.057 25.6323 21.3837Z" stroke="" stroke-width="1.5" stroke-miterlimit="10"/>
<path d="M21.5833 10.4974C21.5833 9.7974 21.035 8.72406 20.2183 7.84906C19.4717 7.04406 18.48 6.41406 17.5 6.41406" stroke="" stroke-width="1.5" stroke-linecap="round" stroke-linejoin="round"/>
<path d="M25.6667 10.4987C25.6667 5.9837 22.015 2.33203 17.5 2.33203" stroke="" stroke-width="1.5" stroke-linecap="round" stroke-linejoin="round"/>
</svg>
