<svg viewBox="0 0 15 15" fill="none" xmlns="http://www.w3.org/2000/svg">
<path d="M2.25 0H12.75C13.3467 0 13.919 0.23705 14.341 0.659001C14.7629 1.08095 15 1.65324 15 2.24997V9.74986C15 10.3466 14.7629 10.9189 14.341 11.3408C13.919 11.7628 13.3467 11.9998 12.75 11.9998H4.0575L1.2825 14.7823C1.21242 14.8518 1.12931 14.9068 1.03793 14.9441C0.946552 14.9814 0.848705 15.0004 0.75 14.9998C0.651618 15.0023 0.55401 14.9818 0.465 14.9398C0.328036 14.8835 0.210791 14.788 0.12804 14.6652C0.0452909 14.5424 0.000739098 14.3979 0 14.2498V2.24997C0 1.65324 0.237053 1.08095 0.65901 0.659001C1.08097 0.23705 1.65326 0 2.25 0ZM1.5 12.4423L3.2175 10.7174C3.28758 10.6478 3.37069 10.5928 3.46207 10.5555C3.55345 10.5182 3.65129 10.4993 3.75 10.4999H12.75C12.9489 10.4999 13.1397 10.4208 13.2803 10.2802C13.421 10.1395 13.5 9.94877 13.5 9.74986V2.24997C13.5 2.05106 13.421 1.8603 13.2803 1.71965C13.1397 1.579 12.9489 1.49998 12.75 1.49998H2.25C2.05109 1.49998 1.86032 1.579 1.71967 1.71965C1.57902 1.8603 1.5 2.05106 1.5 2.24997V12.4423Z" fill=""/>
</svg>
