<svg viewBox="0 0 33 24" fill="none" xmlns="http://www.w3.org/2000/svg">
<path d="M8.92124 0.0662264C8.29475 -0.143062 7.39951 0.165999 6.67621 0.679873C6.34131 0.919204 6.04489 1.20123 5.82811 1.49504C5.41932 0.928586 4.89136 0.482966 4.47168 0.335989C3.32722 -0.0648157 2.69765 0.712262 2.45969 1.17659C1.57964 2.89385 3.92007 5.96072 4.93312 6.3155C5.75539 6.59036 8.52833 4.69579 9.53375 2.66169C9.94667 1.82785 10.0938 0.45627 8.92124 0.0662264Z" fill="#F24F7A"/>
<path d="M31.0503 20.6988C31.2145 20.7837 31.2653 20.8685 31.225 21.0383C31.1347 21.5192 29.7663 23.245 27.7245 23.245C25.938 23.245 24.9659 22.1416 25.3615 20.1329L26.5802 13.6542C26.9297 11.9001 26.4911 11.2777 25.6081 11.3343C24.3564 11.3909 22.7295 13.5693 22.1953 16.3419L20.9865 22.6792C20.9483 22.8206 20.8349 22.8206 20.8045 22.8489C20.1708 22.9904 19.4579 23.047 18.7205 23.047C17.9832 23.047 17.3086 22.9621 16.6926 22.8489C16.6662 22.8206 16.5832 22.7924 16.5891 22.7075L18.3281 13.6542C18.6776 11.9001 18.2106 11.2777 17.3559 11.3343C16.1042 11.3909 14.4832 13.4844 13.9451 16.3136L12.706 22.6792C12.6678 22.8206 12.5544 22.8206 12.524 22.8489C11.9186 22.9904 11.2057 23.047 10.4684 23.047C9.7311 23.047 8.99973 22.9621 8.35541 22.8489C8.32903 22.8206 8.24593 22.7924 8.25187 22.7075C8.54334 21.3778 9.70661 15.6912 10.1623 13.2298C10.5158 11.4191 9.97036 11.1079 9.25481 10.7967C9.11896 10.7119 9.06818 10.627 9.08005 10.4572C9.17039 9.97628 10.5388 8.25049 12.5806 8.25049C14.197 8.25049 14.9198 9.26899 14.8736 10.7402C14.8499 11.0797 14.7998 11.3909 14.7457 11.7586H14.8308C16.273 9.38216 18.08 8.27879 19.8118 8.25049C21.8556 8.2222 23.1337 9.41045 22.9998 11.7304H23.0849C24.4625 9.46703 26.3018 8.30708 28.0923 8.25049C30.3629 8.2222 31.7347 9.69336 31.1887 12.6357C30.8833 14.1634 30.4976 16.0307 30.0617 18.2091C29.7023 20.1047 30.3347 20.3876 31.0503 20.6988Z" fill="#F24F7A"/>
<path d="M2.76906 23.234C0.982509 23.234 0.0104149 22.1306 0.377726 20.1219L2.58886 8.777C2.59281 8.72042 2.62513 8.66383 2.71218 8.63554C3.31561 8.52238 4.0872 8.4375 4.76779 8.4375C5.5051 8.4375 6.2668 8.49408 6.85243 8.63554C6.87881 8.66383 6.9619 8.69212 6.92761 8.777L5.10622 18.1981C4.74682 20.0936 5.37927 20.3765 6.09481 20.6877C6.25903 20.7726 6.30981 20.8575 6.26958 21.0272C6.17924 21.5082 4.81082 23.234 2.76906 23.234Z" fill="#F24F7A"/>
</svg>
