<svg viewBox="0 0 61 62" fill="none" xmlns="http://www.w3.org/2000/svg">
<g clip-path="url(#clip0_39864_54797)">
<rect x="0.402344" y="0.667969" width="60.5986" height="60.5986" rx="15.1497" fill="#F24F7A"/>
<g filter="url(#filter0_f_39864_54797)">
<path d="M64.3126 25.7639C64.9447 19.8283 63.1318 14.7151 62.1463 12.9005L66.6027 13.1624L62.957 75.2012L51.5733 74.5322C51.5733 74.5322 54.4118 72.9423 55.5193 69.1646C56.6268 65.3869 60.1538 62.6298 61.2254 57.2031C62.297 51.7763 62.943 49.0695 63.4944 46.4668C63.9356 44.3847 64.466 36.7157 64.676 33.1414C64.548 34.8174 63.8369 39.2845 62.0163 43.7449C60.1957 48.2053 59.294 53.9055 59.0707 56.1981C58.9524 54.9468 59.0096 51.2099 60.1853 46.2724C61.6548 40.1005 63.5224 33.1834 64.3126 25.7639Z" fill="white" fill-opacity="0.2"/>
</g>
<g filter="url(#filter1_di_39864_54797)">
<path d="M22.1746 15.7446C21.4309 15.4962 20.3681 15.8631 19.5094 16.473C19.1119 16.7571 18.76 17.0919 18.5026 17.4407C18.0173 16.7683 17.3906 16.2393 16.8923 16.0648C15.5337 15.5891 14.7863 16.5115 14.5038 17.0627C13.4591 19.1011 16.2375 22.7416 17.4401 23.1627C18.4163 23.489 21.7082 21.24 22.9017 18.8255C23.3919 17.8357 23.5666 16.2076 22.1746 15.7446Z" fill="white"/>
</g>
<path d="M48.4337 40.2224C48.6287 40.3231 48.689 40.4239 48.6412 40.6253C48.534 41.1963 46.9095 43.2448 44.4856 43.2448C42.3647 43.2448 41.2107 41.9351 41.6804 39.5507L43.1271 31.8602C43.542 29.7781 43.0214 29.0393 41.9731 29.1064C40.4871 29.1736 38.5557 31.7595 37.9216 35.0506L36.4866 42.5732C36.4412 42.7411 36.3066 42.7411 36.2706 42.7747C35.5182 42.9426 34.6719 43.0097 33.7966 43.0097C32.9213 43.0097 32.1204 42.909 31.3892 42.7747C31.3578 42.7411 31.2592 42.7075 31.2662 42.6067L33.3306 31.8602C33.7456 29.7781 33.1913 29.0393 32.1766 29.1064C30.6907 29.1736 28.7663 31.6587 28.1275 35.017L26.6565 42.5732C26.6111 42.7411 26.4764 42.7411 26.4404 42.7747C25.7217 42.9426 24.8754 43.0097 24.0001 43.0097C23.1248 43.0097 22.2566 42.909 21.4917 42.7747C21.4604 42.7411 21.3617 42.7075 21.3688 42.6067C21.7148 41.0283 23.0958 34.2782 23.6367 31.3565C24.0563 29.2072 23.4089 28.8378 22.5594 28.4684C22.3981 28.3676 22.3379 28.2669 22.3519 28.0654C22.4592 27.4945 24.0837 25.4459 26.5076 25.4459C28.4265 25.4459 29.2845 26.6549 29.2298 28.4012C29.2016 28.8042 29.1421 29.1736 29.0779 29.6102H29.1789C30.8911 26.7892 33.0362 25.4795 35.0921 25.4459C37.5183 25.4123 39.0356 26.8228 38.8767 29.5766H38.9777C40.6132 26.89 42.7967 25.5131 44.9223 25.4459C47.6178 25.4123 49.2462 27.1586 48.598 30.6512C48.2356 32.4647 47.7776 34.6812 47.2601 37.2671C46.8335 39.5171 47.5843 39.8529 48.4337 40.2224Z" fill="white"/>
<g filter="url(#filter2_di_39864_54797)">
<path d="M14.8194 43.2455C12.6985 43.2455 11.5445 41.9357 11.9806 39.5514L14.6055 26.0846C14.6102 26.0175 14.6486 25.9503 14.7519 25.9167C15.4683 25.7824 16.3842 25.6816 17.1922 25.6816C18.0675 25.6816 18.9717 25.7488 19.667 25.9167C19.6983 25.9503 19.7969 25.9839 19.7562 26.0846L17.594 37.2677C17.1673 39.5178 17.9181 39.8536 18.7676 40.223C18.9625 40.3238 19.0228 40.4245 18.975 40.626C18.8678 41.1969 17.2433 43.2455 14.8194 43.2455Z" fill="white"/>
</g>
</g>
<defs>
<filter id="filter0_f_39864_54797" x="48.4536" y="9.77974" width="21.2686" height="68.5421" filterUnits="userSpaceOnUse" color-interpolation-filters="sRGB">
<feFlood flood-opacity="0" result="BackgroundImageFix"/>
<feBlend mode="normal" in="SourceGraphic" in2="BackgroundImageFix" result="shape"/>
<feGaussianBlur stdDeviation="1.56032" result="effect1_foregroundBlur_39864_54797"/>
</filter>
<filter id="filter1_di_39864_54797" x="13.2729" y="15.0739" width="11.8021" height="10.3451" filterUnits="userSpaceOnUse" color-interpolation-filters="sRGB">
<feFlood flood-opacity="0" result="BackgroundImageFix"/>
<feColorMatrix in="SourceAlpha" type="matrix" values="0 0 0 0 0 0 0 0 0 0 0 0 0 0 0 0 0 0 127 0" result="hardAlpha"/>
<feOffset dx="0.408365" dy="0.81673"/>
<feGaussianBlur stdDeviation="0.70443"/>
<feComposite in2="hardAlpha" operator="out"/>
<feColorMatrix type="matrix" values="0 0 0 0 0.937489 0 0 0 0 0.362932 0 0 0 0 0.53654 0 0 0 0.6 0"/>
<feBlend mode="normal" in2="BackgroundImageFix" result="effect1_dropShadow_39864_54797"/>
<feBlend mode="normal" in="SourceGraphic" in2="effect1_dropShadow_39864_54797" result="shape"/>
<feColorMatrix in="SourceAlpha" type="matrix" values="0 0 0 0 0 0 0 0 0 0 0 0 0 0 0 0 0 0 127 0" result="hardAlpha"/>
<feOffset dx="0.204183" dy="-0.204183"/>
<feGaussianBlur stdDeviation="1.32719"/>
<feComposite in2="hardAlpha" operator="arithmetic" k2="-1" k3="1"/>
<feColorMatrix type="matrix" values="0 0 0 0 1 0 0 0 0 1 0 0 0 0 1 0 0 0 0.5 0"/>
<feBlend mode="normal" in2="shape" result="effect2_innerShadow_39864_54797"/>
</filter>
<filter id="filter2_di_39864_54797" x="10.8901" y="25.0895" width="10.6927" height="20.3822" filterUnits="userSpaceOnUse" color-interpolation-filters="sRGB">
<feFlood flood-opacity="0" result="BackgroundImageFix"/>
<feColorMatrix in="SourceAlpha" type="matrix" values="0 0 0 0 0 0 0 0 0 0 0 0 0 0 0 0 0 0 127 0" result="hardAlpha"/>
<feOffset dx="0.408365" dy="0.81673"/>
<feGaussianBlur stdDeviation="0.70443"/>
<feComposite in2="hardAlpha" operator="out"/>
<feColorMatrix type="matrix" values="0 0 0 0 0.937489 0 0 0 0 0.362932 0 0 0 0 0.53654 0 0 0 0.6 0"/>
<feBlend mode="normal" in2="BackgroundImageFix" result="effect1_dropShadow_39864_54797"/>
<feBlend mode="normal" in="SourceGraphic" in2="effect1_dropShadow_39864_54797" result="shape"/>
<feColorMatrix in="SourceAlpha" type="matrix" values="0 0 0 0 0 0 0 0 0 0 0 0 0 0 0 0 0 0 127 0" result="hardAlpha"/>
<feOffset dx="0.204183" dy="-0.204183"/>
<feGaussianBlur stdDeviation="1.32719"/>
<feComposite in2="hardAlpha" operator="arithmetic" k2="-1" k3="1"/>
<feColorMatrix type="matrix" values="0 0 0 0 1 0 0 0 0 1 0 0 0 0 1 0 0 0 0.5 0"/>
<feBlend mode="normal" in2="shape" result="effect2_innerShadow_39864_54797"/>
</filter>
<clipPath id="clip0_39864_54797">
<rect x="0.402344" y="0.667969" width="60.5986" height="60.5986" rx="15.1497" fill="white"/>
</clipPath>
</defs>
</svg>
