<svg viewBox="0 0 374 92" fill="none" xmlns="http://www.w3.org/2000/svg">
<path fill-rule="evenodd" clip-rule="evenodd" d="M243.77 53.3276C243.823 53.3014 243.861 53.282 243.887 53.2684C243.848 53.2884 243.809 53.3081 243.77 53.3276Z" fill="#3B82F6"/>
<path fill-rule="evenodd" clip-rule="evenodd" d="M288.438 41.8128C288.458 41.7129 288.479 41.6134 288.5 41.5144C288.499 41.5479 288.496 41.5819 288.49 41.6162C288.422 41.9944 288.35 42.3689 288.271 42.7395C288.32 42.4357 288.376 42.1268 288.438 41.8128ZM295.117 25.9701C296.378 25.76 297.65 25.7501 298.23 25.7604C297.208 25.7774 296.166 25.8451 295.117 25.9701ZM300.309 25.8728C299.61 25.8087 298.914 25.7722 298.23 25.7604C298.533 25.7525 299.358 25.7668 300.309 25.8728Z" fill="#3B82F6"/>
<path fill-rule="evenodd" clip-rule="evenodd" d="M265.407 34.3284C265.491 33.1062 263.082 31.4475 260.108 31.4475C256.063 31.4475 253.642 33.8714 252.594 36.6837C252.53 36.8552 252.471 37.0281 252.418 37.202C252.362 37.5268 252.307 37.852 252.252 38.1774L252.168 38.675L252.165 38.6945C251.898 40.2809 251.616 41.956 251.281 43.5277C251.272 43.5688 251.29 43.4867 251.281 43.5277C250.758 45.7981 249.676 48.0383 248.2 49.7764C247.531 50.6011 246.781 51.3384 245.964 51.9717C245.493 52.3248 245.004 52.6457 244.501 52.9325C244.3 53.0484 244.094 53.1621 243.887 53.2684C243.861 53.282 243.823 53.3014 243.77 53.3276L243.74 53.3428C243.622 53.4024 243.257 53.5215 243.089 53.5736L241.222 53.6227C240.918 53.6246 240.613 53.6264 240.309 53.6264H231.471L233.303 43.331C234.053 39.1174 233.786 34.9405 231.38 31.6543C226.802 25.3923 217.433 24.6883 210.473 26.4098C204.187 27.9612 198.356 32.0046 195.693 38.9005C193.438 44.7489 194.884 50.8875 199.047 54.5173C203.319 58.2405 209.183 58.2605 214.56 58.2605H216.719C212.8 63.0676 206.409 66.7659 206.409 66.7659C206.409 66.7659 202.442 68.6733 201.575 68.9932C201.363 69.0716 201.18 69.1394 201.022 69.2106C200.583 69.5035 200.434 69.882 200.431 70.3033C200.407 73.4631 204.015 77.4819 209.7 76.4123C219.225 74.62 226.04 64.4812 229.032 58.237H240.126C243.55 58.237 246.935 58.2203 250.352 57.2629C252.238 56.7346 254.074 55.931 255.762 54.8558C259.066 57.4181 263.452 58.2509 267.556 58.2204C272.071 58.1892 276.622 57.1982 280.62 54.5953C280.496 54.4913 280.373 54.3845 280.252 54.2749C276.662 51.0219 275.5 46.1258 276.541 41.2465C276.487 41.3596 276.446 41.4824 276.423 41.6162L276.416 41.6329C275.704 45.6363 273.948 49.2628 270.824 51.7215L270.533 51.9297C269.742 52.4964 268.895 52.9807 268.006 53.3752C267.908 53.3161 267.37 52.9997 267.242 52.9259C264.643 51.0885 263.422 47.4235 263.754 43.7491C263.775 43.5207 263.801 43.2922 263.834 43.0641C264.039 41.6342 264.303 40.207 264.571 38.7807C264.729 37.9374 264.889 37.0945 265.039 36.2516C265.039 36.2516 265.376 34.7857 265.407 34.3284ZM218.971 53.5843H214.169C212.894 53.5843 211.64 53.3868 210.739 52.6918C205.708 48.8108 205.218 38.2807 213.706 32.1048C215.381 30.8864 217.64 30.2005 218.956 31.2641C221.314 33.1703 222.104 38.9435 218.971 53.5843Z" fill="#3B82F6"/>
<path d="M290.463 58.1482C295.264 58.5386 300.219 57.848 304.778 55.516C305.43 55.1825 306.07 54.8004 306.694 54.3745C310.881 51.5153 314.289 46.6848 314.983 41.3804C315.088 40.5745 315.131 39.7576 315.104 38.9351C314.811 29.9734 307.373 26.52 300.309 25.8728C299.61 25.8087 298.914 25.7722 298.23 25.7604C297.208 25.7774 296.166 25.8451 295.117 25.9701C288.543 26.7531 281.716 29.7843 278.186 36.6665C277.421 38.1563 276.871 39.7005 276.541 41.2465C275.5 46.1258 276.662 51.0219 280.252 54.2749C280.373 54.3845 280.496 54.4913 280.62 54.5953C281.325 54.1368 282.012 53.6282 282.679 53.066C285.821 50.4174 287.405 46.8209 288.271 42.7395C288.32 42.4357 288.376 42.1268 288.438 41.8128C288.458 41.7129 288.479 41.6134 288.5 41.5144C289.854 35.1647 293.425 30.6502 297.834 30.6502C302.97 30.6502 304.046 36.072 302.838 42.1318C301.604 48.5742 298.311 53.3582 293.504 53.3582C289.352 53.3582 287.228 49.2256 288.271 42.7395C287.405 46.8209 285.821 50.4174 282.679 53.066C282.012 53.6282 281.325 54.1368 280.62 54.5953C283.37 56.8902 286.982 57.8642 290.463 58.1482Z" fill="#3B82F6"/>
<path d="M333.528 56.6732C338.349 54.7749 342.475 51.0817 344.482 45.7205C345.302 43.5356 345.667 41.1175 346.022 38.757L346.061 38.5042L346.09 38.3102L346.129 38.0553C346.22 37.4605 346.313 36.8713 346.416 36.2924L346.472 36.0059C346.614 35.3594 346.739 34.7857 346.771 34.3284C346.855 33.1062 344.445 31.4475 341.471 31.4475C336.773 31.4475 334.285 34.7187 333.579 38.0698L333.543 38.2778L333.46 38.7515C333.219 40.1347 332.975 41.5177 332.715 42.8981C332.702 42.975 332.688 43.0518 332.673 43.1284C332.296 45.1193 331.515 47.0211 330.391 48.684C329.525 49.9655 328.47 51.481 327.285 52.5823C326.517 53.2956 325.425 53.5534 324.411 53.5534H320.05C318.884 53.5534 317.696 53.2244 317.015 52.3511C314.965 49.7249 314.995 41.9136 314.989 41.647C314.983 41.3804 315.001 41.4662 314.983 41.3804C314.289 46.6848 310.881 51.5153 306.694 54.3745C310.444 57.6514 315.613 58.2379 320.406 58.2379C320.691 58.2379 320.977 58.2384 321.263 58.239C325.364 58.2467 329.504 58.2545 333.528 56.6732Z" fill="#3B82F6"/>
<path d="M373.557 10.2398C373.708 9.72306 373.672 9.40007 373.351 9.01248C372.32 8.04351 366.331 6.94534 361.86 11.5964C360.409 13.1067 359.32 14.8963 359.12 16.6408L354.47 42.119C353.299 48.1803 351.165 49.085 348.768 50.0801C348.226 50.3515 347.928 50.6229 347.824 51.1657C347.527 52.7036 349.483 58.2221 355.362 58.2221C360.506 58.2221 364.617 54.6939 365.857 48.2708L371.702 16.5994C371.71 16.5507 371.72 16.4928 371.733 16.4268C371.964 15.2735 372.966 11.6157 373.557 10.2398Z" fill="#3B82F6"/>
<path d="M307.886 67.5636C313.284 68.0548 325.788 68.4399 332.621 66.0505C332.921 69.1085 332.321 75.6654 327.526 77.4291C322.73 79.1928 313.839 78.8275 309.992 78.4244C307.254 77.7528 306.693 71.4911 307.886 67.5636Z" fill="#3B82F6"/>
<path d="M259.744 67.5231C244.197 69.5127 237.329 68.1155 231.243 68.172C229.53 69.6823 229.84 74.3525 234.477 77.342C240.274 81.079 261.613 78.9776 259.744 67.5231Z" fill="#3B82F6"/>
<path d="M239.184 82.9936C239.184 82.9936 241.727 83.7026 248.793 82.02C248.975 84.6153 248.554 91.7881 243.266 91.5345C237.312 91.249 238.196 85.8568 239.184 82.9936Z" fill="#3B82F6"/>
<path d="M24.7422 74.633C18.5871 74.633 13.8181 72.8475 10.4351 69.2766C7.09909 65.7526 5.4311 60.8426 5.4311 54.5465V40.0984H15.8619V54.2646C15.8619 57.4597 16.5902 59.8324 18.0468 61.383C19.5033 62.9805 21.7821 63.7792 24.8832 63.7792H27.7023C30.7564 63.7792 33.1292 63.0275 34.8207 61.5239C36.5122 60.0204 37.3579 57.8825 37.3579 55.1104V33.0506H47.7183V54.2646C47.7183 58.3994 46.896 61.9938 45.2515 65.0479C43.607 68.1489 41.2577 70.5217 38.2036 72.1662C35.1966 73.8107 31.6961 74.633 27.7023 74.633H24.7422ZM19.1039 32.9096V24.1703H29.9577V32.9096H19.1039ZM71.8798 47.1463C72.1147 47.1463 72.2791 47.4752 72.3731 48.133C72.5141 48.7908 72.5845 50.2943 72.5845 52.6436C72.5845 54.8989 72.5141 56.3555 72.3731 57.0133C72.2791 57.6711 72.1147 58 71.8798 58H69.0606C64.9259 58 61.7778 56.8254 59.6165 54.4761C57.5021 52.1268 56.4449 48.7673 56.4449 44.3976V12.6823H66.8758V43.6224C66.8758 44.844 67.1107 45.7367 67.5806 46.3006C68.0504 46.8644 68.8022 47.1463 69.8359 47.1463H71.8798ZM91.9067 44.8205C91.9067 48.9083 90.6851 52.1268 88.2418 54.4761C85.8455 56.8254 82.6035 58 78.5158 58H71.8908C71.4209 58 71.186 56.2145 71.186 52.6436C71.186 48.9787 71.4209 47.1463 71.8908 47.1463H78.5158C79.4555 47.1463 80.2072 46.8879 80.7711 46.371C81.3819 45.8542 81.6873 45.1729 81.6873 44.3272V33.0506H91.9067V44.8205ZM87.678 64.4136V73.1529H67.3801V64.4136H87.678ZM116.067 47.1463C116.301 47.1463 116.466 47.4752 116.56 48.133C116.701 48.7908 116.771 50.2943 116.771 52.6436C116.771 54.8989 116.701 56.3555 116.56 57.0133C116.466 57.6711 116.301 58 116.067 58H113.247C109.113 58 105.965 56.8254 103.803 54.4761C101.689 52.1268 100.632 48.7673 100.632 44.3976V12.6823H111.063V43.6224C111.063 44.844 111.297 45.7367 111.767 46.3006C112.237 46.8644 112.989 47.1463 114.023 47.1463H116.067ZM124.605 47.1463C122.162 45.4548 120.941 42.9881 120.941 39.746C120.941 37.1618 121.528 34.789 122.703 32.6277C123.924 30.4194 125.616 28.6574 127.777 27.3418C129.985 26.0262 132.546 25.3684 135.459 25.3684C140.111 25.3684 143.682 26.7545 146.172 29.5266C148.662 32.2988 149.907 36.1986 149.907 41.2261V43.7633C149.907 48.4149 148.333 51.9623 145.185 54.4056C142.037 56.8019 137.48 58 131.512 58H116.078C115.608 58 115.373 56.2145 115.373 52.6436C115.373 48.9787 115.608 47.1463 116.078 47.1463H123.125H124.605ZM138.701 46.7234C139.547 45.8307 139.97 44.3272 139.97 42.2128V41.508C139.97 39.5816 139.57 38.125 138.772 37.1383C137.973 36.1046 136.822 35.5878 135.318 35.5878C134.144 35.5878 133.133 36.0107 132.288 36.8564C131.489 37.6552 131.089 38.6654 131.089 39.887C131.089 41.3905 131.653 42.6827 132.781 43.7633C133.956 44.797 135.929 45.7837 138.701 46.7234ZM145.397 11.0613V19.8006H125.099V11.0613H145.397ZM161.116 11.0613C159.377 11.0613 158.249 11.7425 157.733 13.1051L155.971 17.5453L149.346 14.5852L151.742 8.17163C152.635 5.82234 153.786 4.24832 155.195 3.44956C156.558 2.60382 158.602 2.18095 161.327 2.18095H178.524V11.0613H161.116ZM172.181 18.2501V58H161.75V18.2501H172.181Z" fill="#3B82F6"/>
</svg>
