<svg viewBox="0 0 86 41" fill="none" xmlns="http://www.w3.org/2000/svg">
<path d="M85.8955 1.49796C85.9675 1.24996 85.9505 1.09496 85.7965 0.909959C85.3015 0.444959 82.4285 -0.0820409 80.2845 2.14996C79.5875 2.87396 79.0645 3.73196 78.9695 4.56896L76.7395 16.791C76.1775 19.699 75.1535 20.133 74.0035 20.611C73.7435 20.741 73.6005 20.871 73.5505 21.131C73.4085 21.869 74.3465 24.516 77.1665 24.516C79.6345 24.516 81.6065 22.824 82.2015 19.742L85.0045 4.54896L85.0205 4.46596C85.1305 3.91296 85.6115 2.15796 85.8955 1.49796ZM54.3915 28.997C56.9815 29.233 62.9795 29.417 66.2575 28.271C66.4015 29.739 66.1135 32.884 63.8135 33.73C61.5135 34.576 57.2475 34.4 55.4025 34.207C54.0885 33.885 53.8195 30.881 54.3925 28.997M31.2975 28.978C23.8395 29.932 20.5445 29.262 17.6245 29.289C16.8035 30.014 16.9515 32.254 19.1765 33.689C21.9565 35.481 32.1935 34.473 31.2965 28.978M21.4345 36.399C21.4345 36.399 22.6545 36.739 26.0445 35.932C26.1315 37.177 25.9295 40.618 23.3925 40.497C20.5365 40.36 20.9605 37.773 21.4345 36.399Z" fill=""/>
<path fill-rule="evenodd" clip-rule="evenodd" d="M45.0774 16.5727L45.0625 16.644C45.0325 16.7946 45.0058 16.943 44.9825 17.089C45.0191 16.9116 45.0541 16.732 45.0875 16.55L45.0925 16.501L45.0774 16.5727ZM48.2665 9.04396C48.7603 8.96781 49.2598 8.93435 49.7595 8.94396C49.2681 8.95129 48.7705 8.98463 48.2665 9.04396ZM49.7595 8.94396C49.9045 8.93996 50.3005 8.94696 50.7565 8.99796C50.4249 8.96811 50.0923 8.9501 49.7595 8.94396Z" fill=""/>
<path fill-rule="evenodd" clip-rule="evenodd" d="M23.6905 22.14L23.6345 22.168L23.6195 22.176C23.5176 22.2183 23.4134 22.2551 23.3075 22.286L22.4115 22.31L21.9745 22.312H17.7345L18.6135 17.372C18.9735 15.352 18.8445 13.348 17.6905 11.772C15.4945 8.76696 11.0005 8.42996 7.66047 9.25496C4.64547 9.99996 1.84847 11.939 0.570467 15.247C-0.510533 18.053 0.183467 20.997 2.18047 22.739C4.22947 24.525 7.04247 24.535 9.62147 24.535H10.6575C8.77747 26.841 5.71147 28.615 5.71147 28.615C5.71147 28.615 3.80847 29.53 3.39247 29.683C3.29113 29.7196 3.2028 29.7543 3.12747 29.787C3.03843 29.8421 2.96537 29.9195 2.91555 30.0116C2.86573 30.1037 2.84088 30.2073 2.84347 30.312C2.83247 31.828 4.56347 33.755 7.29047 33.242C11.8605 32.382 15.1295 27.519 16.5645 24.523H21.8865C23.5285 24.523 25.1525 24.515 26.7915 24.056C27.7088 23.8005 28.5835 23.4113 29.3875 22.901C30.9725 24.131 33.0765 24.53 35.0445 24.515C37.2105 24.5 39.3945 24.025 41.3125 22.776C42.6315 23.877 44.3635 24.344 46.0335 24.481C48.3375 24.668 50.7135 24.337 52.9005 23.218C53.2138 23.058 53.5205 22.8753 53.8205 22.67L53.83 22.6635C54.3694 23.1833 55.9416 24.2442 57.9595 24.3661C60.4896 24.5191 65.8491 25.2345 69.294 22.1833C70.147 21.5053 71.9579 19.5325 72.3779 17.0653C72.5324 16.0081 72.854 13.8439 72.9038 13.6446C72.9661 13.3955 73.0752 12.949 72.9641 12.7436C72.853 12.5381 71.8211 11.3055 69.4967 11.7587C67.6371 12.1212 66.8214 13.966 66.6459 14.843C66.5028 16.1898 65.7772 19.0231 65.0472 20.0827C64.3172 21.1424 64.157 21.3371 63.7821 21.7355C63.4071 22.1339 63.0459 22.2922 62.1671 22.2748H60.2853C59.8027 22.2962 58.8529 22.2786 58.4761 21.2546C58.1045 20.2446 57.5164 20.0272 57.7523 16.7299C57.7689 16.6326 57.7836 16.535 57.7965 16.437C57.8471 16.0503 57.8665 15.6593 57.8545 15.264C57.7145 10.964 54.1455 9.30796 50.7565 8.99796C50.4249 8.96811 50.0923 8.9501 49.7595 8.94396C49.2681 8.95129 48.7705 8.98463 48.2665 9.04396C45.1125 9.41996 41.8375 10.874 40.1445 14.176C39.7858 14.8704 39.5212 15.6091 39.3555 16.373C39.3287 16.4292 39.3095 16.4887 39.2985 16.55L39.2945 16.558C38.9545 18.478 38.1115 20.218 36.6125 21.398L36.4725 21.498C36.0925 21.77 35.6885 22.001 35.2605 22.191L34.8945 21.976C33.6475 21.094 33.0615 19.336 33.2205 17.573C33.2305 17.463 33.2435 17.3536 33.2595 17.245C33.3575 16.559 33.4845 15.874 33.6125 15.19C33.6891 14.7846 33.7641 14.3803 33.8375 13.977C33.8375 13.977 33.9985 13.273 34.0135 13.054C34.0535 12.468 32.8985 11.672 31.4715 11.672C29.5315 11.672 28.3695 12.835 27.8675 14.184C27.8368 14.266 27.8085 14.3486 27.7825 14.432L27.7025 14.9L27.6625 15.14L27.6615 15.148C27.5367 15.9239 27.3954 16.6971 27.2375 17.467C26.9875 18.557 26.4675 19.631 25.7595 20.465C25.4395 20.86 25.0785 21.214 24.6865 21.518C24.3733 21.754 24.04 21.9622 23.6905 22.14ZM44.9825 17.089C45.0058 16.943 45.0325 16.7946 45.0625 16.644L45.0774 16.5727L45.0925 16.501C45.7425 13.455 47.4545 11.29 49.5695 11.29C52.0335 11.29 52.5495 13.89 51.9695 16.797C51.3785 19.887 49.7995 22.183 47.4925 22.183C45.5005 22.183 44.4825 20.2 44.9825 17.089ZM9.43447 22.291H11.7385C13.2405 15.268 12.8625 12.498 11.7305 11.584C11.0995 11.074 10.0155 11.403 9.21247 11.987C5.13947 14.95 5.37547 20.001 7.78947 21.863C8.22147 22.197 8.82247 22.291 9.43447 22.291Z" fill=""/>
</svg>
