<svg viewBox="0 0 72 72" fill="none" xmlns="http://www.w3.org/2000/svg">
<rect width="72" height="72" rx="18" fill="#3B82F6"/>
<path d="M25.4751 17.7358C24.5564 17.4289 23.2436 17.8821 22.1829 18.6356C21.6917 18.9865 21.257 19.4001 20.9391 19.8309C20.3397 19.0003 19.5654 18.3469 18.95 18.1313C17.2716 17.5436 16.3484 18.6831 15.9994 19.3639C14.7089 21.882 18.141 26.3791 19.6267 26.8993C20.8325 27.3023 24.8989 24.5243 26.3734 21.5416C26.9789 20.3189 27.1947 18.3077 25.4751 17.7358Z" fill="white"/>
<path d="M57.9065 47.9708C58.1473 48.0953 58.2218 48.2197 58.1628 48.4687C58.0303 49.1739 56.0236 51.7045 53.0294 51.7045C50.4094 51.7045 48.9839 50.0866 49.5641 47.1411L51.3513 37.6411C51.8638 35.0691 51.2207 34.1564 49.9257 34.2394C48.0901 34.3223 45.7043 37.5167 44.9209 41.5822L43.1483 50.8748C43.0922 51.0822 42.9259 51.0822 42.8814 51.1237C41.952 51.3311 40.9065 51.4141 39.8253 51.4141C38.7441 51.4141 37.7547 51.2896 36.8514 51.1237C36.8127 51.0822 36.6909 51.0407 36.6996 50.9163L39.2497 37.6411C39.7622 35.0691 39.0775 34.1564 37.8241 34.2394C35.9885 34.3223 33.6114 37.3922 32.8223 41.5407L31.0052 50.8748C30.9491 51.0822 30.7827 51.0822 30.7382 51.1237C29.8504 51.3311 28.805 51.4141 27.7237 51.4141C26.6425 51.4141 25.57 51.2896 24.6251 51.1237C24.5864 51.0822 24.4645 51.0407 24.4732 50.9163C24.9007 48.9665 26.6066 40.628 27.2748 37.0188C27.7932 34.3638 26.9934 33.9075 25.944 33.4512C25.7448 33.3267 25.6703 33.2022 25.6877 32.9533C25.8202 32.2481 27.827 29.7175 30.8212 29.7175C33.1916 29.7175 34.2516 31.211 34.1839 33.3682C34.1491 33.866 34.0756 34.3223 33.9963 34.8616H34.121C36.2361 31.3769 38.886 29.759 41.4256 29.7175C44.4227 29.676 46.297 31.4184 46.1007 34.8202H46.2255C48.2458 31.5014 50.9431 29.8005 53.5688 29.7175C56.8986 29.676 58.9102 31.8332 58.1095 36.1477C57.6617 38.3878 57.096 41.1258 56.4568 44.3202C55.9297 47.0997 56.8572 47.5145 57.9065 47.9708Z" fill="white"/>
<path d="M16.3849 51.7083C13.765 51.7083 12.3395 50.0904 12.8781 47.1449L16.1207 30.5095C16.1265 30.4266 16.1739 30.3436 16.3015 30.3021C17.1864 30.1362 18.318 30.0117 19.316 30.0117C20.3973 30.0117 21.5143 30.0947 22.3731 30.3021C22.4118 30.3436 22.5336 30.3851 22.4833 30.5095L19.8123 44.324C19.2853 47.1035 20.2127 47.5183 21.2621 47.9746C21.5029 48.0991 21.5774 48.2235 21.5184 48.4725C21.3859 49.1777 19.3791 51.7083 16.3849 51.7083Z" fill="white"/>
</svg>
