<svg viewBox="0 0 394 92" fill="none" xmlns="http://www.w3.org/2000/svg">
<path fill-rule="evenodd" clip-rule="evenodd" d="M49.411 53.3276C49.4636 53.3014 49.5017 53.282 49.5278 53.2684C49.4888 53.2884 49.4499 53.3081 49.411 53.3276Z" fill="#F24F7A"/>
<path fill-rule="evenodd" clip-rule="evenodd" d="M94.079 41.8128C94.099 41.7129 94.1196 41.6134 94.1407 41.5144C94.1398 41.5479 94.1364 41.5819 94.1303 41.6162C94.0629 41.9944 93.9901 42.3689 93.9115 42.7395C93.9603 42.4357 94.0161 42.1268 94.079 41.8128ZM100.758 25.9701C102.018 25.76 103.29 25.7501 103.87 25.7604C102.849 25.7774 101.806 25.8451 100.758 25.9701ZM105.949 25.8728C105.25 25.8087 104.555 25.7722 103.87 25.7604C104.173 25.7525 104.999 25.7668 105.949 25.8728Z" fill="#F24F7A"/>
<path fill-rule="evenodd" clip-rule="evenodd" d="M71.0476 34.3284C71.1318 33.1062 68.7225 31.4475 65.7483 31.4475C61.704 31.4475 59.2822 33.8714 58.2345 36.6837C58.1706 36.8552 58.1119 37.0281 58.0581 37.202C58.0022 37.5268 57.9471 37.852 57.8923 38.1774L57.8087 38.675L57.8054 38.6945C57.5391 40.2809 57.2565 41.956 56.9216 43.5277C56.9125 43.5688 56.931 43.4867 56.9216 43.5277C56.3991 45.7981 55.3164 48.0383 53.8403 49.7764C53.1719 50.6011 52.4211 51.3384 51.6048 51.9717C51.1335 52.3248 50.6448 52.6457 50.1415 52.9325C49.9409 53.0484 49.7347 53.1621 49.5278 53.2684C49.5017 53.282 49.4636 53.3014 49.411 53.3276L49.3803 53.3428C49.2623 53.4024 48.8974 53.5215 48.7297 53.5736L46.8626 53.6227C46.5583 53.6246 46.254 53.6264 45.9498 53.6264H37.1121L38.9438 43.331C39.6932 39.1174 39.4263 34.9405 37.0209 31.6543C32.4426 25.3923 23.0731 24.6883 16.1135 26.4098C9.82737 27.9612 3.99636 32.0046 1.33356 38.9005C-0.921629 44.7489 0.52503 50.8875 4.68748 54.5173C8.95992 58.2405 14.824 58.2605 20.2004 58.2605H22.3598C18.4408 63.0676 12.0501 66.7659 12.0501 66.7659C12.0501 66.7659 8.08224 68.6733 7.21605 68.9932C7.00377 69.0716 6.82028 69.1394 6.66215 69.2106C6.2232 69.5035 6.07477 69.882 6.07152 70.3033C6.04715 73.4631 9.65521 77.4819 15.3404 76.4123C24.8659 74.62 31.6809 64.4812 34.6727 58.237H45.7671C49.1903 58.237 52.5759 58.2203 55.9922 57.2629C57.879 56.7346 59.7149 55.931 61.4031 54.8558C64.7071 57.4181 69.0924 58.2509 73.1964 58.2204C77.7113 58.1892 82.2629 57.1982 86.2611 54.5953C86.1364 54.4913 86.0135 54.3845 85.8924 54.2749C82.303 51.0219 81.1408 46.1258 82.1814 41.2465C82.1273 41.3596 82.0868 41.4824 82.0634 41.6162L82.0563 41.6329C81.3449 45.6363 79.5885 49.2628 76.4646 51.7215L76.174 51.9297C75.383 52.4964 74.5361 52.9807 73.6466 53.3752C73.5482 53.3161 73.0108 52.9997 72.8826 52.9259C70.2834 51.0885 69.0629 47.4235 69.3946 43.7491C69.4152 43.5207 69.4418 43.2922 69.4745 43.0641C69.6796 41.6342 69.9434 40.207 70.2113 38.7807C70.3697 37.9374 70.5295 37.0945 70.6794 36.2516C70.6794 36.2516 71.0162 34.7857 71.0476 34.3284ZM24.6118 53.5843H19.81C18.5346 53.5843 17.2809 53.3868 16.3799 52.6918C11.3485 48.8108 10.8586 38.2807 19.3466 32.1048C21.0211 30.8864 23.2802 30.2005 24.5963 31.2641C26.9549 33.1703 27.7445 38.9435 24.6118 53.5843Z" fill="#F24F7A"/>
<path d="M96.1037 58.1482C100.905 58.5386 105.86 57.848 110.419 55.516C111.07 55.1825 111.711 54.8004 112.335 54.3745C116.521 51.5153 119.93 46.6848 120.624 41.3804C120.729 40.5745 120.772 39.7576 120.745 38.9351C120.451 29.9734 113.013 26.52 105.949 25.8728C105.25 25.8087 104.555 25.7722 103.87 25.7604C102.849 25.7774 101.806 25.8451 100.758 25.9701C94.1835 26.7531 87.3564 29.7843 83.8269 36.6665C83.062 38.1563 82.5112 39.7005 82.1814 41.2465C81.1408 46.1258 82.303 51.0219 85.8924 54.2749C86.0135 54.3845 86.1364 54.4913 86.2611 54.5953C86.9655 54.1368 87.6527 53.6282 88.3195 53.066C91.4615 50.4174 93.0452 46.8209 93.9115 42.7395C93.9603 42.4357 94.0161 42.1268 94.079 41.8128C94.099 41.7129 94.1196 41.6134 94.1407 41.5144C95.4944 35.1647 99.0653 30.6502 103.475 30.6502C108.611 30.6502 109.686 36.072 108.479 42.1318C107.245 48.5742 103.952 53.3582 99.1447 53.3582C94.9929 53.3582 92.8684 49.2256 93.9115 42.7395C93.0452 46.8209 91.4615 50.4174 88.3195 53.066C87.6527 53.6282 86.9655 54.1368 86.2611 54.5953C89.011 56.8902 92.6228 57.8642 96.1037 58.1482Z" fill="#F24F7A"/>
<path d="M139.168 56.6732C143.99 54.7749 148.115 51.0817 150.123 45.7205C150.943 43.5356 151.307 41.1175 151.663 38.757L151.701 38.5042L151.731 38.3102L151.769 38.0553C151.86 37.4605 151.953 36.8713 152.056 36.2924L152.113 36.0059C152.254 35.3594 152.38 34.7857 152.411 34.3284C152.495 33.1062 150.086 31.4475 147.112 31.4475C142.414 31.4475 139.926 34.7187 139.22 38.0698L139.184 38.2778L139.101 38.7515C138.859 40.1347 138.616 41.5177 138.356 42.8981C138.343 42.975 138.329 43.0518 138.314 43.1284C137.936 45.1193 137.155 47.0211 136.032 48.684C135.166 49.9655 134.111 51.481 132.925 52.5823C132.157 53.2956 131.065 53.5534 130.051 53.5534H125.691C124.524 53.5534 123.337 53.2244 122.655 52.3511C120.605 49.7249 120.635 41.9136 120.629 41.647C120.624 41.3804 120.641 41.4662 120.624 41.3804C119.93 46.6848 116.521 51.5153 112.335 54.3745C116.084 57.6514 121.254 58.2379 126.047 58.2379C126.332 58.2379 126.618 58.2384 126.903 58.239C131.005 58.2467 135.145 58.2545 139.168 56.6732Z" fill="#F24F7A"/>
<path d="M179.198 10.2398C179.348 9.72306 179.312 9.40007 178.992 9.01248C177.96 8.04351 171.972 6.94534 167.501 11.5964C166.049 13.1067 164.961 14.8963 164.761 16.6408L160.11 42.119C158.94 48.1803 156.806 49.085 154.409 50.0801C153.866 50.3515 153.569 50.6229 153.464 51.1657C153.167 52.7036 155.123 58.2221 161.002 58.2221C166.147 58.2221 170.257 54.6939 171.497 48.2708L177.342 16.5994C177.35 16.5507 177.361 16.4928 177.374 16.4268C177.605 15.2735 178.607 11.6157 179.198 10.2398Z" fill="#F24F7A"/>
<path d="M113.526 67.5636C118.924 68.0548 131.429 68.4399 138.262 66.0505C138.562 69.1085 137.962 75.6654 133.166 77.4291C128.371 79.1928 119.479 78.8275 115.633 78.4244C112.894 77.7528 112.334 71.4911 113.526 67.5636Z" fill="#F24F7A"/>
<path d="M65.3847 67.5231C49.8375 69.5127 42.9701 68.1155 36.8836 68.172C35.1709 69.6823 35.4804 74.3525 40.118 77.342C45.915 81.079 67.2533 78.9776 65.3847 67.5231Z" fill="#F24F7A"/>
<path d="M44.8244 82.9936C44.8244 82.9936 47.368 83.7026 54.4334 82.02C54.6153 84.6153 54.1947 91.7881 48.9071 91.5345C42.9529 91.249 43.8368 85.8568 44.8244 82.9936Z" fill="#F24F7A"/>
<path d="M242.022 47.1463C242.492 47.1463 242.727 48.9787 242.727 52.6436C242.727 56.2145 242.492 58 242.022 58H236.736C236.971 58.3289 237.088 58.8223 237.088 59.4801C236.994 62.4402 236.125 65.0714 234.481 67.3737C232.836 69.676 230.534 71.4614 227.574 72.73C224.661 73.9986 221.325 74.633 217.566 74.633H212.28C206.125 74.633 201.356 72.8475 197.973 69.2766C194.637 65.7526 192.969 60.8426 192.969 54.5465V40.0984H203.4V54.2646C203.4 57.4597 204.128 59.8324 205.584 61.383C207.041 62.9805 209.32 63.7792 212.421 63.7792H218.13C221.231 63.7792 223.463 63.4034 224.825 62.6516C226.188 61.9468 226.869 60.8896 226.869 59.4801C226.869 58.6813 226.658 58.1175 226.235 57.7886C225.812 57.4127 225.131 57.2247 224.191 57.2247H211.857L212.703 47.1463H242.022ZM244.623 47.1463C245.563 47.1463 246.314 46.8879 246.878 46.371C247.442 45.8542 247.724 45.1259 247.724 44.1862V12.6823H258.155V44.8205C258.155 48.9552 256.957 52.1973 254.56 54.5465C252.211 56.8488 248.993 58 244.905 58H242.015C241.545 58 241.31 56.2145 241.31 52.6436C241.31 48.9787 241.545 47.1463 242.015 47.1463H244.623ZM281.619 47.1463C282.558 47.1463 283.31 46.9584 283.874 46.5825C284.485 46.2066 284.79 45.6897 284.79 45.0319C284.79 44.4681 284.485 43.3405 283.874 41.649C283.263 39.9575 281.666 35.7523 279.082 29.0333L277.601 25.157L287.328 20.6463L295.574 43.5519C295.996 44.8205 296.513 45.7367 297.124 46.3006C297.735 46.8644 298.534 47.1463 299.52 47.1463H301.494C301.964 47.1463 302.198 48.9787 302.198 52.6436C302.198 54.9459 302.128 56.426 301.987 57.0838C301.846 57.6946 301.682 58 301.494 58H298.816C294.963 58 292.214 56.8958 290.57 54.6875C289.583 55.9091 288.455 56.7784 287.187 57.2952C285.965 57.7651 284.485 58 282.746 58H266.184L265.338 47.1463H281.619ZM303.525 47.1463C304.512 47.1463 305.24 46.9349 305.71 46.512C306.18 46.0891 306.415 45.3843 306.415 44.3976V42.8471C306.415 38.2425 307.731 34.6011 310.362 31.9229C312.993 29.2447 316.564 27.9056 321.075 27.9056C325.585 27.9056 329.062 29.2212 331.505 31.8524C333.949 34.4367 335.17 38.1485 335.17 42.9881V43.9748C335.17 45.1024 335.405 45.9247 335.875 46.4415C336.392 46.9114 337.12 47.1463 338.06 47.1463H340.104C340.574 47.1463 340.809 48.9787 340.809 52.6436C340.809 56.2145 340.574 58 340.104 58H338.201C334.301 58 331.599 56.9898 330.096 54.9694C327.935 56.9898 324.787 58 320.652 58C318.537 58 316.728 57.7181 315.225 57.1543C313.721 56.5904 312.594 55.8387 311.842 54.8989C310.949 55.9796 309.822 56.7784 308.459 57.2952C307.143 57.7651 305.499 58 303.525 58H301.482C301.012 58 300.777 56.2145 300.777 52.6436C300.777 48.9787 301.012 47.1463 301.482 47.1463H303.525ZM325.092 42.9881C325.092 39.793 323.635 38.1955 320.722 38.1955C317.856 38.1955 316.423 39.793 316.423 42.9881C316.423 44.3976 316.775 45.5018 317.48 46.3006C318.232 47.0523 319.313 47.4282 320.722 47.4282C322.226 47.4282 323.33 47.0758 324.035 46.371C324.74 45.6193 325.092 44.4916 325.092 42.9881ZM384.918 35.5173C386.562 37.3028 387.737 39.0413 388.442 40.7327C389.193 42.4242 389.569 44.1862 389.569 46.0186C389.569 49.5896 388.348 52.4792 385.904 54.6875C383.508 56.8958 380.219 58 376.037 58H367.862C365.184 58 363.187 57.9295 361.871 57.7886C360.603 57.6476 359.475 57.3187 358.488 56.8019C357.408 57.2717 356.092 57.6006 354.542 57.7886C353.038 57.9295 351.065 58 348.621 58H340.093C339.624 58 339.389 56.2145 339.389 52.6436C339.389 48.9787 339.624 47.1463 340.093 47.1463H346.648C346.131 46.4885 345.708 45.5958 345.379 44.4681C345.05 43.3405 344.886 42.2128 344.886 41.0851C344.886 38.5009 345.52 36.1281 346.789 33.9668C348.057 31.8055 349.796 30.114 352.004 28.8923C354.213 27.6237 356.656 26.9894 359.334 26.9894C360.838 26.9894 362.318 27.2478 363.774 27.7647L363.422 27.4123L370.54 20.0825L384.918 35.5173ZM375.544 47.1463C377.893 47.1463 379.068 46.418 379.068 44.9615C379.068 44.3976 378.927 43.8573 378.645 43.3405C378.363 42.8236 377.799 42.1423 376.954 41.2966L372.02 36.2221C372.443 37.4907 372.655 38.8298 372.655 40.2394C372.655 41.555 372.42 42.8471 371.95 44.1157C371.527 45.3373 370.94 46.3475 370.188 47.1463H375.544ZM358.559 47.2873C361.613 45.7367 363.14 43.7163 363.14 41.2261C363.14 40.0045 362.741 38.9943 361.942 38.1955C361.143 37.3968 360.086 36.9974 358.77 36.9974C357.455 36.9974 356.397 37.3968 355.599 38.1955C354.847 38.9943 354.471 40.0045 354.471 41.2261C354.471 43.8103 355.834 45.8307 358.559 47.2873Z" fill="#F24F7A"/>
</svg>
