<svg width="17" height="17" viewBox="0 0 17 17" fill="none" xmlns="http://www.w3.org/2000/svg">
<path d="M8.5 1.59375C7.13408 1.59375 5.79882 1.99879 4.6631 2.75766C3.52737 3.51653 2.64218 4.59514 2.11946 5.85709C1.59674 7.11904 1.45998 8.50766 1.72645 9.84734C1.99293 11.187 2.65069 12.4176 3.61655 13.3835C4.5824 14.3493 5.81298 15.0071 7.15266 15.2735C8.49234 15.54 9.88096 15.4033 11.1429 14.8805C12.4049 14.3578 13.4835 13.4726 14.2423 12.3369C15.0012 11.2012 15.4063 9.86593 15.4063 8.5C15.4043 6.66894 14.6761 4.91343 13.3813 3.61868C12.0866 2.32393 10.3311 1.59568 8.5 1.59375ZM8.5 14.3438C7.34422 14.3438 6.21439 14.001 5.25339 13.3589C4.29239 12.7168 3.54338 11.8041 3.10108 10.7363C2.65878 9.6685 2.54306 8.49352 2.76854 7.35994C2.99402 6.22636 3.55058 5.18511 4.36785 4.36784C5.18511 3.55058 6.22637 2.99402 7.35994 2.76854C8.49352 2.54305 9.6685 2.65878 10.7363 3.10108C11.8041 3.54338 12.7168 4.29239 13.3589 5.25339C14.001 6.21439 14.3438 7.34422 14.3438 8.5C14.342 10.0493 13.7258 11.5347 12.6302 12.6302C11.5347 13.7257 10.0493 14.342 8.5 14.3438ZM9.5625 11.6875C9.5625 11.8284 9.50653 11.9635 9.4069 12.0632C9.30728 12.1628 9.17215 12.2188 9.03125 12.2188C8.74946 12.2188 8.47921 12.1068 8.27995 11.9076C8.08069 11.7083 7.96875 11.438 7.96875 11.1562V8.5C7.82786 8.5 7.69273 8.44403 7.5931 8.3444C7.49347 8.24477 7.4375 8.10965 7.4375 7.96875C7.4375 7.82785 7.49347 7.69273 7.5931 7.5931C7.69273 7.49347 7.82786 7.4375 7.96875 7.4375C8.25055 7.4375 8.5208 7.54944 8.72005 7.7487C8.91931 7.94796 9.03125 8.21821 9.03125 8.5V11.1562C9.17215 11.1562 9.30728 11.2122 9.4069 11.3118C9.50653 11.4115 9.5625 11.5466 9.5625 11.6875ZM7.4375 5.57812C7.4375 5.42052 7.48424 5.26645 7.5718 5.13541C7.65936 5.00436 7.78382 4.90222 7.92943 4.84191C8.07504 4.78159 8.23526 4.76581 8.38984 4.79656C8.54442 4.82731 8.68641 4.9032 8.79785 5.01465C8.9093 5.12609 8.98519 5.26808 9.01594 5.42266C9.04669 5.57724 9.03091 5.73747 8.97059 5.88308C8.91028 6.02869 8.80814 6.15314 8.6771 6.2407C8.54605 6.32826 8.39198 6.375 8.23438 6.375C8.02303 6.375 7.82035 6.29104 7.6709 6.1416C7.52146 5.99216 7.4375 5.78947 7.4375 5.57812Z" fill="#F47500"/>
</svg>
