<svg viewBox="0 0 20 20" fill="none" xmlns="http://www.w3.org/2000/svg">
<rect x="0.00390625" width="20" height="20" rx="10" fill="url(#paint0_radial_40726_14462)"/>
<rect x="0.00390625" width="20" height="20" rx="10" fill="url(#paint1_radial_40726_14462)"/>
<path d="M10.0045 4C8.37495 4 8.17045 4.00713 7.53044 4.03625C6.89169 4.0655 6.45568 4.16663 6.07418 4.31501C5.67955 4.46827 5.3448 4.67328 5.01129 5.00692C4.67754 5.34043 4.47254 5.67519 4.31878 6.06971C4.17003 6.45135 4.06878 6.88749 4.04003 7.52602C4.01141 8.16604 4.00391 8.37068 4.00391 10.0002C4.00391 11.6298 4.01116 11.8337 4.04016 12.4737C4.06953 13.1125 4.17066 13.5485 4.31891 13.93C4.47229 14.3247 4.67729 14.6594 5.01092 14.9929C5.3443 15.3267 5.67905 15.5322 6.07343 15.6855C6.45518 15.8339 6.89131 15.935 7.52994 15.9642C8.16995 15.9934 8.37433 16.0005 10.0037 16.0005C11.6334 16.0005 11.8372 15.9934 12.4772 15.9642C13.116 15.935 13.5525 15.8339 13.9343 15.6855C14.3288 15.5322 14.663 15.3267 14.9964 14.9929C15.3301 14.6594 15.5352 14.3247 15.6889 13.9302C15.8364 13.5485 15.9377 13.1124 15.9677 12.4738C15.9964 11.8338 16.0039 11.6298 16.0039 10.0002C16.0039 8.37068 15.9964 8.16617 15.9677 7.52614C15.9377 6.88737 15.8364 6.45135 15.6889 6.06983C15.5352 5.67519 15.3301 5.34043 14.9964 5.00692C14.6626 4.67315 14.3289 4.46814 13.9339 4.31501C13.5514 4.16663 13.1151 4.0655 12.4764 4.03625C11.8364 4.00713 11.6326 4 10.0026 4H10.0045ZM9.46621 5.08129C9.62596 5.08104 9.80422 5.08129 10.0045 5.08129C11.6065 5.08129 11.7964 5.08704 12.429 5.1158C13.014 5.14255 13.3315 5.2403 13.543 5.32243C13.823 5.43118 14.0226 5.56119 14.2325 5.7712C14.4425 5.98121 14.5725 6.18121 14.6815 6.46122C14.7636 6.67248 14.8615 6.99 14.8881 7.57502C14.9169 8.20755 14.9231 8.39755 14.9231 9.99887C14.9231 11.6002 14.9169 11.7902 14.8881 12.4227C14.8614 13.0077 14.7636 13.3253 14.6815 13.5365C14.5728 13.8165 14.4425 14.0159 14.2325 14.2258C14.0225 14.4358 13.8231 14.5658 13.543 14.6746C13.3318 14.7571 13.014 14.8546 12.429 14.8813C11.7965 14.9101 11.6065 14.9163 10.0045 14.9163C8.40233 14.9163 8.21245 14.9101 7.57994 14.8813C6.99494 14.8543 6.67743 14.7566 6.46581 14.6744C6.1858 14.5657 5.9858 14.4357 5.7758 14.2257C5.5658 14.0157 5.4358 13.8161 5.32679 13.536C5.24467 13.3248 5.14679 13.0072 5.12017 12.4222C5.09142 11.7897 5.08567 11.5997 5.08567 9.99737C5.08567 8.39505 5.09142 8.20605 5.12017 7.57352C5.14692 6.9885 5.24467 6.67098 5.32679 6.45947C5.43555 6.17946 5.5658 5.97946 5.7758 5.76945C5.9858 5.55944 6.1858 5.42943 6.46581 5.32043C6.67731 5.23793 6.99494 5.14042 7.57994 5.11355C8.13345 5.08854 8.34795 5.08104 9.46621 5.07979V5.08129ZM13.2073 6.07758C12.8097 6.07758 12.4872 6.39972 12.4872 6.79736C12.4872 7.19488 12.8097 7.51739 13.2073 7.51739C13.6048 7.51739 13.9273 7.19488 13.9273 6.79736C13.9273 6.39985 13.6048 6.07733 13.2073 6.07733V6.07758ZM10.0045 6.91887C8.30283 6.91887 6.92319 8.29855 6.92319 10.0002C6.92319 11.7019 8.30283 13.081 10.0045 13.081C11.7061 13.081 13.0853 11.7019 13.0853 10.0002C13.0853 8.29855 11.706 6.91887 10.0043 6.91887H10.0045ZM10.0045 8.00016C11.109 8.00016 12.0045 8.89557 12.0045 10.0002C12.0045 11.1048 11.109 12.0003 10.0045 12.0003C8.89983 12.0003 8.00445 11.1048 8.00445 10.0002C8.00445 8.89557 8.89983 8.00016 10.0045 8.00016V8.00016Z" fill="white"/>
<defs>
<radialGradient id="paint0_radial_40726_14462" cx="0" cy="0" r="1" gradientUnits="userSpaceOnUse" gradientTransform="translate(5.31643 21.5404) rotate(-90) scale(19.8215 18.4355)">
<stop stop-color="#FFDD55"/>
<stop offset="0.1" stop-color="#FFDD55"/>
<stop offset="0.5" stop-color="#FF543E"/>
<stop offset="1" stop-color="#C837AB"/>
</radialGradient>
<radialGradient id="paint1_radial_40726_14462" cx="0" cy="0" r="1" gradientUnits="userSpaceOnUse" gradientTransform="translate(-3.3462 1.44077) rotate(78.6806) scale(8.86028 36.5225)">
<stop stop-color="#3771C8"/>
<stop offset="0.128" stop-color="#3771C8"/>
<stop offset="1" stop-color="#6600FF" stop-opacity="0"/>
</radialGradient>
</defs>
</svg>
