<svg viewBox="0 0 24 25" fill="none" xmlns="http://www.w3.org/2000/svg">
<g clip-path="url(#clip0_39864_54830)">
<path d="M12 16.0176C14.0711 16.0176 15.75 14.3386 15.75 12.2676C15.75 10.1965 14.0711 8.51758 12 8.51758C9.92893 8.51758 8.25 10.1965 8.25 12.2676C8.25 14.3386 9.92893 16.0176 12 16.0176Z" stroke="" stroke-width="1.5" stroke-miterlimit="10"/>
<path d="M16.5 3.26758H7.5C5.01472 3.26758 3 5.2823 3 7.76758V16.7676C3 19.2529 5.01472 21.2676 7.5 21.2676H16.5C18.9853 21.2676 21 19.2529 21 16.7676V7.76758C21 5.2823 18.9853 3.26758 16.5 3.26758Z" stroke="" stroke-width="1.5" stroke-linecap="round" stroke-linejoin="round"/>
<path d="M16.875 8.51758C17.4963 8.51758 18 8.0139 18 7.39258C18 6.77126 17.4963 6.26758 16.875 6.26758C16.2537 6.26758 15.75 6.77126 15.75 7.39258C15.75 8.0139 16.2537 8.51758 16.875 8.51758Z" fill=""/>
</g>
<defs>
<clipPath id="clip0_39864_54830">
<rect width="24" height="24" fill="white" transform="translate(0 0.267578)"/>
</clipPath>
</defs>
</svg>
