<svg viewBox="0 0 16 16" fill="none" xmlns="http://www.w3.org/2000/svg">
<path d="M3.76 14.5421V4.92013L8.42 0.289551C8.58 0.129184 8.76347 0.035637 8.9704 0.00890925C9.1768 -0.0178185 9.38 0.0155912 9.58 0.109138C9.76667 0.216049 9.90667 0.363052 10 0.550146C10.0933 0.73724 10.1133 0.937699 10.06 1.15152L9.2 4.92013H14.56C14.9333 4.92013 15.2667 5.06714 15.56 5.36114C15.8533 5.65515 16 5.98924 16 6.36343V7.66641C16 7.74659 15.9899 7.83667 15.9696 7.93663C15.9499 8.03712 15.9267 8.12746 15.9 8.20765L13.6 13.62C13.4933 13.8873 13.3035 14.1078 13.0304 14.2815C12.7568 14.4553 12.4733 14.5421 12.18 14.5421H3.76ZM4.96 5.44132V13.3394H12.18C12.2333 13.3394 12.2901 13.3228 12.3504 13.2897C12.4101 13.256 12.46 13.2057 12.5 13.1389L14.8 7.72655V6.36343C14.8 6.29661 14.7768 6.23968 14.7304 6.19264C14.6835 6.14614 14.6267 6.12288 14.56 6.12288H7.68L8.68 1.73285L4.96 5.44132ZM1.44 14.5421C1.04 14.5421 0.7 14.4018 0.42 14.1212C0.14 13.8405 0 13.4997 0 13.0988V6.36343C0 5.96252 0.14 5.62174 0.42 5.34109C0.7 5.06045 1.04 4.92013 1.44 4.92013H3.76V6.12288H1.44C1.37333 6.12288 1.3168 6.14614 1.2704 6.19264C1.22347 6.23968 1.2 6.29661 1.2 6.36343V13.0988C1.2 13.1656 1.22347 13.2226 1.2704 13.2696C1.3168 13.3161 1.37333 13.3394 1.44 13.3394H3.76V14.5421H1.44Z" fill=""/>
</svg>
