<svg width="24" height="24" viewBox="0 0 24 24" fill="none" xmlns="http://www.w3.org/2000/svg">
<path d="M7.06205 8.91992H3.30078V20.9158H7.06205V8.91992Z" stroke="#7E7E7E" stroke-width="1.14293"/>
<path d="M17.2398 8.65811C17.1011 8.64077 16.9538 8.6321 16.8065 8.62343C14.7005 8.53676 13.5132 9.78489 13.0972 10.3223C12.9845 10.4696 12.9325 10.5563 12.9325 10.5563V8.9528H9.33594V20.9487H12.9325H13.0972C13.0972 19.7266 13.0972 18.5131 13.0972 17.291C13.0972 16.6323 13.0972 15.9735 13.0972 15.3148C13.0972 14.5 13.0365 13.6333 13.4439 12.8879C13.7905 12.2638 14.4145 11.9518 15.1165 11.9518C17.1965 11.9518 17.2398 13.8326 17.2398 14.006C17.2398 14.0147 17.2398 14.0233 17.2398 14.0233V21.0007H21.0011V13.1739C21.0011 10.4956 19.6404 8.91813 17.2398 8.65811Z" stroke="#7E7E7E" stroke-width="1.14293"/>
<path d="M5.18395 7.36845C6.39012 7.36845 7.36792 6.39054 7.36792 5.18423C7.36792 3.97791 6.39012 3 5.18395 3C3.97779 3 3 3.97791 3 5.18423C3 6.39054 3.97779 7.36845 5.18395 7.36845Z" stroke="#7E7E7E" stroke-width="1.14293"/>
</svg>
