<svg viewBox="0 0 20 20" fill="none" xmlns="http://www.w3.org/2000/svg">
<rect x="0.00390625" width="20" height="20" rx="10" fill="#1265BF"/>
<path d="M6.33847 6.67254C7.07553 6.67254 7.67304 6.07427 7.67304 5.33627C7.67304 4.59827 7.07553 4 6.33847 4C5.60141 4 5.00391 4.59827 5.00391 5.33627C5.00391 6.07427 5.60141 6.67254 6.33847 6.67254Z" fill="white"/>
<path d="M8.89528 7.66009H11.1071V8.67463C11.1071 8.67463 11.7073 7.47268 13.3404 7.47268C14.7971 7.47268 16.0039 8.19124 16.0039 10.3815V15H13.7118V10.9411C13.7118 9.64908 13.0229 9.50698 12.498 9.50698C11.4085 9.50698 11.222 10.4479 11.222 11.1096V15H8.89528V7.66009Z" fill="white"/>
<path d="M5.1751 7.66009H7.50185V15H5.1751V7.66009Z" fill="white"/>
</svg>
