<svg width="85" height="38" viewBox="0 0 85 38" fill="none" xmlns="http://www.w3.org/2000/svg">
<path fill-rule="evenodd" clip-rule="evenodd" d="M25.2899 20.585C25.3138 20.573 25.3312 20.5642 25.3431 20.558C25.3254 20.5671 25.3076 20.5761 25.2899 20.585Z" fill="#EC407A"/>
<path fill-rule="evenodd" clip-rule="evenodd" d="M45.6464 15.3374C45.6555 15.2919 45.6649 15.2465 45.6745 15.2014C45.6741 15.2167 45.6725 15.2321 45.6698 15.2478C45.639 15.4201 45.6059 15.5908 45.5701 15.7597C45.5923 15.6213 45.6178 15.4805 45.6464 15.3374ZM48.69 8.11738C49.2645 8.02167 49.8442 8.01714 50.1086 8.02185C49.6431 8.02959 49.168 8.06045 48.69 8.11738ZM51.056 8.07304C50.7374 8.04386 50.4205 8.02719 50.1086 8.02185C50.2467 8.01825 50.623 8.02474 51.056 8.07304Z" fill="#EC407A"/>
<path fill-rule="evenodd" clip-rule="evenodd" d="M35.1503 11.9265C35.1887 11.3695 34.0907 10.6136 32.7353 10.6136C30.8922 10.6136 29.7885 11.7183 29.311 12.9999C29.2819 13.078 29.2551 13.1569 29.2306 13.2361C29.2052 13.3841 29.1801 13.5323 29.1551 13.6806L29.117 13.9074L29.1155 13.9163C28.9941 14.6393 28.8653 15.4026 28.7127 16.1189C28.717 16.1002 28.7086 16.1376 28.7127 16.1189C28.4746 17.1536 27.9811 18.1745 27.3084 18.9666C27.0038 19.3425 26.6617 19.6785 26.2897 19.9671C26.0749 20.128 25.8522 20.2742 25.6228 20.4049C25.5314 20.4578 25.4374 20.5096 25.3431 20.558C25.3312 20.5642 25.3138 20.573 25.2899 20.585L25.2759 20.5919C25.2221 20.6191 25.0558 20.6734 24.9794 20.6971L24.1285 20.7195C23.9898 20.7203 23.8512 20.7212 23.7125 20.7212H19.6849L20.5197 16.0293C20.8612 14.109 20.7396 12.2055 19.6434 10.7079C17.5569 7.85407 13.287 7.53326 10.1153 8.31779C7.25049 9.02478 4.59313 10.8675 3.37961 14.0102C2.35186 16.6754 3.01114 19.473 4.90809 21.1272C6.85516 22.8239 9.5276 22.8331 11.9778 22.8331H12.9619C11.1759 25.0238 8.26345 26.7092 8.26345 26.7092C8.26345 26.7092 6.45518 27.5785 6.06043 27.7243C5.96369 27.76 5.88007 27.7909 5.808 27.8233C5.60796 27.9568 5.54032 28.1293 5.53884 28.3213C5.52773 29.7613 7.17203 31.5928 9.76295 31.1054C14.104 30.2886 17.2098 25.668 18.5732 22.8224H23.6293C25.1893 22.8224 26.7322 22.8148 28.2891 22.3784C29.149 22.1377 29.9857 21.7715 30.755 21.2815C32.2608 22.4492 34.2593 22.8287 36.1296 22.8148C38.1872 22.8006 40.2615 22.349 42.0836 21.1627C42.0267 21.1153 41.9707 21.0667 41.9155 21.0167C40.2797 19.5342 39.7501 17.303 40.2243 15.0793C40.1996 15.1308 40.1812 15.1868 40.1705 15.2478L40.1673 15.2554C39.8431 17.0799 39.0427 18.7325 37.619 19.8531L37.4866 19.9479C37.1261 20.2062 36.7401 20.4269 36.3348 20.6067C36.2899 20.5798 36.045 20.4356 35.9866 20.4019C34.802 19.5646 34.2458 17.8944 34.397 16.2198C34.4064 16.1157 34.4185 16.0116 34.4334 15.9076C34.5269 15.256 34.6471 14.6056 34.7692 13.9556C34.8414 13.5713 34.9142 13.1871 34.9825 12.803C34.9825 12.803 35.136 12.1349 35.1503 11.9265ZM13.9882 20.702H11.7999C11.2186 20.702 10.6473 20.612 10.2367 20.2953C7.94372 18.5266 7.72047 13.7277 11.5887 10.9132C12.3518 10.3579 13.3813 10.0453 13.9811 10.53C15.056 11.3987 15.4159 14.0297 13.9882 20.702Z" fill="#EC407A"/>
<path d="M46.5691 22.7819C48.7572 22.9598 51.0153 22.6451 53.0928 21.5823C53.3898 21.4304 53.6818 21.2562 53.966 21.0621C55.874 19.7591 57.4274 17.5577 57.7435 15.1403C57.7916 14.773 57.8111 14.4008 57.7989 14.0259C57.6651 9.94181 54.2754 8.36802 51.056 8.07304C50.7374 8.04386 50.4205 8.02719 50.1086 8.02185C49.6431 8.02959 49.168 8.06045 48.69 8.11738C45.694 8.47424 42.5827 9.85566 40.9742 12.992C40.6256 13.671 40.3746 14.3748 40.2243 15.0793C39.7501 17.303 40.2797 19.5342 41.9155 21.0167C41.9707 21.0667 42.0267 21.1153 42.0836 21.1627C42.4046 20.9538 42.7177 20.722 43.0216 20.4658C44.4535 19.2587 45.1753 17.6197 45.5701 15.7597C45.5923 15.6213 45.6178 15.4805 45.6464 15.3374C45.6555 15.2919 45.6649 15.2465 45.6745 15.2014C46.2914 12.3076 47.9188 10.2502 49.9282 10.2502C52.2691 10.2502 52.7591 12.7211 52.2088 15.4827C51.6464 18.4188 50.1458 20.599 47.955 20.599C46.0629 20.599 45.0947 18.7156 45.5701 15.7597C45.1753 17.6197 44.4535 19.2587 43.0216 20.4658C42.7177 20.722 42.4046 20.9538 42.0836 21.1627C43.3367 22.2086 44.9827 22.6525 46.5691 22.7819Z" fill="#EC407A"/>
<path d="M66.1949 22.1097C68.3922 21.2446 70.2724 19.5615 71.1873 17.1182C71.5608 16.1225 71.727 15.0205 71.8891 13.9448L71.9065 13.8296L71.9199 13.7411L71.9376 13.625C71.979 13.3539 72.0214 13.0854 72.0683 12.8216L72.0942 12.691C72.1586 12.3964 72.2157 12.1349 72.2301 11.9265C72.2685 11.3695 71.1705 10.6136 69.815 10.6136C67.6739 10.6136 66.54 12.1044 66.2185 13.6316L66.2019 13.7264L66.1642 13.9423C66.054 14.5726 65.9431 15.2029 65.8247 15.832C65.8186 15.867 65.8122 15.902 65.8056 15.937C65.6334 16.8442 65.2775 17.7109 64.7654 18.4688C64.3708 19.0528 63.8901 19.7435 63.3498 20.2453C62.9999 20.5704 62.5021 20.6879 62.04 20.6879H60.0527C59.5212 20.6879 58.9801 20.538 58.6695 20.14C57.7353 18.9431 57.7488 15.3833 57.7462 15.2618C57.7436 15.1403 57.7517 15.1794 57.7435 15.1403C57.4274 17.5577 55.874 19.7591 53.966 21.0621C55.6748 22.5555 58.0306 22.8228 60.215 22.8228C60.345 22.8228 60.4752 22.823 60.6054 22.8233C62.4745 22.8268 64.3613 22.8303 66.1949 22.1097Z" fill="#EC407A"/>
<path d="M84.4376 0.948664C84.5061 0.71315 84.4897 0.565954 84.3438 0.389319C83.8736 -0.0522698 81.1445 -0.552737 79.107 1.56689C78.4454 2.25516 77.9493 3.07076 77.8583 3.86578L75.7387 15.4769C75.2054 18.2392 74.2327 18.6515 73.1404 19.105C72.8933 19.2287 72.7578 19.3524 72.71 19.5998C72.5747 20.3006 73.466 22.8156 76.1453 22.8156C78.4897 22.8156 80.363 21.2077 80.9281 18.2805L83.5918 3.84689C83.5955 3.82468 83.6003 3.79833 83.6064 3.76823C83.7116 3.24266 84.1681 1.5757 84.4376 0.948664Z" fill="#EC407A"/>
<path d="M54.5091 27.0728C56.9691 27.2966 62.6677 27.4721 65.7818 26.3832C65.9184 27.7768 65.6451 30.765 63.4596 31.5688C61.2741 32.3725 57.222 32.206 55.4691 32.0223C54.2211 31.7163 53.9657 28.8626 54.5091 27.0728Z" fill="#EC407A"/>
<path d="M32.5696 27.0543C25.4843 27.961 22.3546 27.3243 19.5808 27.35C18.8003 28.0383 18.9413 30.1667 21.0548 31.5291C23.6966 33.2321 33.4212 32.2744 32.5696 27.0543Z" fill="#EC407A"/>
<path d="M23.1996 34.1046C23.1996 34.1046 24.3588 34.4278 27.5788 33.6609C27.6617 34.8437 27.47 38.1126 25.0603 37.997C22.3468 37.8669 22.7496 35.4095 23.1996 34.1046Z" fill="#EC407A"/>
</svg>
