<svg width="203" height="95" viewBox="0 0 203 95" fill="none" xmlns="http://www.w3.org/2000/svg">
<path fill-rule="evenodd" clip-rule="evenodd" d="M55.8648 51.1646C55.9244 51.1349 55.9676 51.113 55.9972 51.0975C55.9531 51.1202 55.9089 51.1426 55.8648 51.1646Z" fill="#EC407A"/>
<path fill-rule="evenodd" clip-rule="evenodd" d="M106.465 38.1205C106.488 38.0073 106.511 37.8946 106.535 37.7824C106.534 37.8204 106.53 37.8589 106.524 37.8978C106.447 38.3262 106.365 38.7505 106.276 39.1703C106.331 38.8261 106.394 38.4762 106.465 38.1205ZM114.031 20.1736C115.459 19.9357 116.9 19.9244 117.557 19.9361C116.4 19.9554 115.219 20.0321 114.031 20.1736ZM119.912 20.0634C119.12 19.9908 118.332 19.9494 117.557 19.9361C117.9 19.9272 118.836 19.9433 119.912 20.0634Z" fill="#EC407A"/>
<path fill-rule="evenodd" clip-rule="evenodd" d="M80.3751 29.642C80.4705 28.2575 77.7412 26.3785 74.3719 26.3785C69.7905 26.3785 67.0471 29.1244 65.8603 32.3102C65.7879 32.5044 65.7213 32.7003 65.6605 32.8973C65.5971 33.2653 65.5347 33.6337 65.4726 34.0023L65.3779 34.5659L65.3742 34.5881C65.0724 36.3851 64.7524 38.2827 64.373 40.0632C64.3627 40.1097 64.3837 40.0167 64.373 40.0632C63.781 42.6351 62.5546 45.1728 60.8824 47.1418C60.1253 48.076 59.2748 48.9112 58.3501 49.6286C57.8162 50.0286 57.2625 50.3921 56.6924 50.717C56.4652 50.8483 56.2315 50.9771 55.9972 51.0975C55.9676 51.113 55.9244 51.1349 55.8648 51.1646L55.8301 51.1818C55.6964 51.2493 55.2831 51.3842 55.0931 51.4433L52.978 51.4989C52.6333 51.501 52.2886 51.5031 51.944 51.5031H41.9325L44.0075 39.8403C44.8564 35.0671 44.554 30.3354 41.8292 26.6128C36.6428 19.5191 26.029 18.7217 18.145 20.6718C11.024 22.4291 4.41855 27.0096 1.40209 34.8214C-1.15262 41.4465 0.486179 48.4004 5.20145 52.5123C10.0413 56.73 16.6842 56.7527 22.7747 56.7527H25.2209C20.7815 62.1982 13.5419 66.3877 13.5419 66.3877C13.5419 66.3877 9.04709 68.5484 8.06586 68.9108C7.82538 68.9996 7.61752 69.0764 7.43839 69.157C6.94114 69.4889 6.773 69.9177 6.76932 70.3949C6.74172 73.9743 10.829 78.527 17.2693 77.3152C28.0598 75.285 35.7799 63.7996 39.1691 56.7261H51.737C55.6149 56.7261 59.4501 56.7072 63.3201 55.6225C65.4575 55.0241 67.5372 54.1138 69.4497 52.8958C73.1925 55.7984 78.1602 56.7418 82.8093 56.7073C87.9238 56.6719 93.0799 55.5493 97.6092 52.6007C97.4679 52.4828 97.3287 52.3618 97.1915 52.2377C93.1254 48.5527 91.8088 43.0063 92.9877 37.4789C92.9263 37.6071 92.8805 37.7462 92.8539 37.8978L92.8459 37.9166C92.04 42.4518 90.0503 46.5599 86.5115 49.3452L86.1823 49.5811C85.2863 50.223 84.3269 50.7716 83.3193 51.2185C83.2078 51.1516 82.599 50.7931 82.4538 50.7095C79.5094 48.6281 78.1267 44.4764 78.5025 40.3139C78.5259 40.0552 78.556 39.7963 78.593 39.538C78.8254 37.9182 79.1243 36.3014 79.4278 34.6857C79.6072 33.7304 79.7882 32.7755 79.958 31.8207C79.958 31.8207 80.3395 30.16 80.3751 29.642ZM27.772 51.4554H22.3325C20.8876 51.4554 19.4675 51.2317 18.4468 50.4444C12.7472 46.0479 12.1922 34.1193 21.8075 27.1232C23.7045 25.7429 26.2635 24.9659 27.7544 26.1707C30.4263 28.3302 31.3208 34.8701 27.772 51.4554Z" fill="#EC407A"/>
<path d="M108.759 56.6255C114.198 57.0677 119.811 56.2854 124.975 53.6436C125.713 53.2659 126.439 52.833 127.146 52.3506C131.888 49.1116 135.75 43.6395 136.535 37.6306C136.655 36.7177 136.703 35.7923 136.673 34.8606C136.34 24.7086 127.915 20.7966 119.912 20.0634C119.12 19.9908 118.332 19.9494 117.557 19.9361C116.4 19.9554 115.219 20.0321 114.031 20.1736C106.584 21.0607 98.8499 24.4945 94.8516 32.2906C93.9852 33.9783 93.3612 35.7277 92.9877 37.4789C91.8088 43.0063 93.1254 48.5527 97.1915 52.2377C97.3287 52.3618 97.4679 52.4828 97.6092 52.6007C98.4071 52.0812 99.1855 51.5051 99.9409 50.8683C103.5 47.8678 105.294 43.7938 106.276 39.1703C106.331 38.8261 106.394 38.4762 106.465 38.1205C106.488 38.0073 106.511 37.8946 106.535 37.7824C108.069 30.5894 112.114 25.4753 117.109 25.4753C122.927 25.4753 124.146 31.6173 122.778 38.4818C121.38 45.7799 117.65 51.1993 112.204 51.1993C107.501 51.1993 105.094 46.5177 106.276 39.1703C105.294 43.7938 103.5 47.8678 99.9409 50.8683C99.1855 51.5051 98.4071 52.0812 97.6092 52.6007C100.724 55.2003 104.816 56.3037 108.759 56.6255Z" fill="#EC407A"/>
<path d="M157.543 54.9546C163.005 52.8041 167.679 48.6205 169.953 42.5471C170.881 40.0721 171.294 37.3328 171.697 34.6588L171.741 34.3724L171.774 34.1527L171.818 33.8639C171.921 33.1902 172.026 32.5227 172.143 31.8669L172.207 31.5424C172.367 30.8099 172.509 30.16 172.545 29.642C172.64 28.2575 169.911 26.3785 166.542 26.3785C161.22 26.3785 158.401 30.0841 157.602 33.8803L157.561 34.116L157.467 34.6526C157.193 36.2195 156.917 37.7862 156.623 39.3499C156.608 39.437 156.592 39.524 156.575 39.6109C156.147 41.8661 155.263 44.0205 153.99 45.9043C153.009 47.356 151.814 49.0728 150.471 50.3203C149.601 51.1284 148.364 51.4203 147.215 51.4203H142.275C140.954 51.4203 139.609 51.0477 138.837 50.0584C136.515 47.0834 136.549 38.2346 136.542 37.9326C136.535 37.6306 136.556 37.7278 136.535 37.6306C135.75 43.6395 131.888 49.1116 127.146 52.3506C131.393 56.0627 137.249 56.7271 142.679 56.7271C143.002 56.7271 143.325 56.7277 143.649 56.7283C148.295 56.737 152.985 56.7458 157.543 54.9546Z" fill="#EC407A"/>
<path d="M202.889 2.35421C203.06 1.76878 203.019 1.4029 202.656 0.963832C201.487 -0.133834 194.704 -1.37785 189.639 3.89094C187.994 5.60178 186.761 7.62913 186.535 9.60533L181.266 38.4674C179.941 45.3337 177.523 46.3585 174.808 47.4858C174.193 47.7932 173.857 48.1007 173.738 48.7156C173.402 50.4578 175.617 56.7091 182.277 56.7091C188.104 56.7091 192.761 52.7123 194.166 45.4361L200.787 9.55836C200.796 9.50318 200.808 9.43766 200.823 9.36285C201.085 8.05644 202.219 3.91283 202.889 2.35421Z" fill="#EC407A"/>
<path d="M128.496 67.2914C134.61 67.8478 148.776 68.284 156.516 65.5773C156.856 69.0414 156.176 76.4692 150.744 78.4671C145.311 80.465 135.239 80.0512 130.882 79.5945C127.78 78.8338 127.145 71.7404 128.496 67.2914Z" fill="#EC407A"/>
<path d="M73.96 67.2454C56.348 69.4992 48.5685 67.9165 41.6736 67.9805C39.7335 69.6914 40.0841 74.9819 45.3376 78.3685C51.9045 82.6017 76.0769 80.2212 73.96 67.2454Z" fill="#EC407A"/>
<path d="M50.6691 84.7706C50.6691 84.7706 53.5505 85.5738 61.5544 83.6677C61.7604 86.6078 61.2839 94.7332 55.2941 94.4459C48.5491 94.1224 49.5503 88.0141 50.6691 84.7706Z" fill="#EC407A"/>
</svg>
