<svg viewBox="0 0 50 20" fill="none" xmlns="http://www.w3.org/2000/svg">
<path d="M6.88583 10.2853C7.26059 10.2853 7.5885 10.1526 7.85395 9.87936C7.93202 9.80129 7.99448 9.7076 8.05694 9.62952C8.11159 9.72321 8.18186 9.80129 8.25212 9.87936C8.51757 10.1448 8.82987 10.2853 9.20463 10.2853C9.57938 10.2853 9.90729 10.1526 10.1571 9.87936C10.4226 9.61391 10.5397 9.2938 10.5397 8.91124C10.5397 8.53648 10.407 8.20857 10.1571 7.95874C9.90729 7.7089 9.57938 7.57617 9.20463 7.57617C8.82987 7.57617 8.50196 7.7089 8.25212 7.95874C8.17405 8.03681 8.11159 8.12269 8.05694 8.20857C8.00229 8.11488 7.93202 8.03681 7.85395 7.95874C7.5885 7.69328 7.26839 7.57617 6.88583 7.57617C6.51889 7.57617 6.19879 7.7089 5.93334 7.97435C5.66788 8.2398 5.53516 8.5521 5.53516 8.92685C5.53516 9.30161 5.66788 9.62952 5.91772 9.89497C6.19098 10.1526 6.50327 10.2853 6.88583 10.2853Z" fill="#0091EA"/>
<path d="M34.3683 7.98159C34.0404 7.98159 33.7828 8.09089 33.572 8.32511C33.3612 8.55933 33.2597 8.83259 33.2597 9.16051C33.2597 9.39473 33.3221 9.73825 33.4314 10.1833C33.5407 10.6283 33.6032 10.9796 33.6032 11.206C33.6032 12.0258 33.0176 12.4318 31.8465 12.4318H31.4327H30.7691H30.4881C29.4419 12.4318 28.4503 11.9712 27.5056 11.0577C26.397 9.95686 25.6553 9.22297 25.2727 8.83259C23.9142 7.51314 22.7431 6.45914 21.7594 5.66278C21.5954 5.53006 21.5174 5.38172 21.5174 5.22557C21.5174 5.06161 21.6189 4.9445 21.814 4.85862C23.7659 4.09349 25.8661 3.45328 28.099 2.9458C28.786 2.78965 29.1374 2.4149 29.1374 1.84496C29.1374 1.07983 28.6924 0.697266 27.7945 0.697266C27.6384 0.697266 27.4588 0.720688 27.2558 0.767532C23.9845 1.53266 21.5954 2.38367 20.073 3.32056C19.3938 3.73435 19.058 4.4214 19.058 5.35829C19.058 5.81893 19.1283 6.17807 19.2845 6.45914C19.5499 6.92758 20.4243 7.80982 21.9077 9.08243C23.2272 10.2223 23.8908 10.9952 23.8908 11.4012C23.8908 11.9478 23.3287 12.2757 22.2044 12.385C21.9624 12.4084 21.0489 12.4162 19.464 12.4162H19.1283H18.7536C17.6996 12.4162 17.0906 11.9868 16.9266 11.128C16.8329 10.6517 16.7705 10.3472 16.7549 10.2379C16.6143 9.8944 16.3411 9.72264 15.9429 9.72264C15.576 9.72264 15.2949 9.95686 15.0919 10.4253C14.7562 11.1748 14.5532 11.612 14.4517 11.737C13.749 12.6192 11.8987 13.0564 8.91626 13.0564H7.46409C5.43417 13.0564 4.04445 12.8222 3.28714 12.3459C2.77966 12.018 2.52202 11.534 2.52202 10.8703C2.52202 10.6751 2.56105 10.3863 2.64693 10.0037C2.72501 9.62114 2.77185 9.33227 2.77185 9.13708C2.77185 8.55933 2.49078 8.27046 1.90523 8.27046C1.36652 8.27046 0.937115 8.7389 0.65605 9.6758C0.453058 10.3394 0.351562 11.0187 0.351562 11.7291C0.351562 14.4617 2.67816 15.8202 7.33917 15.8202C11.8206 15.8202 14.5922 15.1176 15.6462 13.72C16.1069 14.6882 16.9969 15.1722 18.3242 15.1722H18.4569H19.1361H19.1595C21.1817 15.1722 22.6026 15.0473 23.438 14.7975C24.7106 14.4149 25.4913 13.6107 25.7802 12.4006C27.0918 14.2509 28.7236 15.1722 30.6676 15.1722H30.7925H31.464H31.7294C33.0411 15.1722 34.0638 14.7897 34.8055 14.0245C35.5472 13.2594 35.9142 12.2132 35.9142 10.8938C35.8829 8.94971 35.3755 7.98159 34.3683 7.98159Z" fill="#0091EA"/>
<path d="M32.4388 16.6484C32.0719 16.6484 31.7518 16.7812 31.4863 17.0466C31.3145 17.2184 31.2052 17.4214 31.1428 17.6322C31.0803 17.4058 30.971 17.2184 30.7993 17.0466C30.5338 16.7812 30.2215 16.6484 29.8468 16.6484C29.472 16.6484 29.1441 16.7812 28.8786 17.031C28.6132 17.2886 28.4805 17.6088 28.4805 17.9835C28.4805 18.3583 28.6132 18.6862 28.8786 18.9516C29.1441 19.2171 29.4642 19.3576 29.8468 19.3576C30.2293 19.3576 30.5494 19.2249 30.7993 18.9516C30.971 18.7799 31.0725 18.5769 31.135 18.3505C31.1974 18.5769 31.2989 18.7799 31.4707 18.9516C31.7361 19.2171 32.0484 19.3576 32.4232 19.3576C32.7979 19.3576 33.1259 19.2249 33.3913 18.9516C33.6568 18.6862 33.7895 18.3661 33.7895 17.9835C33.7895 17.6009 33.6568 17.2808 33.3913 17.031C33.118 16.7812 32.8136 16.6484 32.4388 16.6484Z" fill="#0091EA"/>
<path d="M49.0357 9.87875C48.5517 9.11362 47.8568 8.73106 46.9512 8.73106C46.2017 8.73106 45.46 9.13705 44.7183 9.94121C44.5621 10.113 44.1874 10.6205 43.6018 11.4637C43.3364 11.8462 43.0709 12.1117 42.8289 12.2444C42.5869 12.3771 42.2433 12.4474 41.7827 12.4474H41.4782C40.2368 12.4474 39.6279 11.6823 39.6279 10.1754V2.22748C39.6279 1.17348 39.2219 0.642578 38.4177 0.642578C38.0117 0.642578 37.6994 0.814341 37.4808 1.15006C37.2856 1.44674 37.2076 1.79808 37.2154 2.22748L37.4886 9.73041C37.5589 11.5964 37.7541 12.869 38.0664 13.5482C38.5817 14.6569 39.6279 15.2034 41.2049 15.2034H41.3299H42.0013H42.0716C42.946 15.2034 43.6721 14.8989 44.2732 14.2977C44.9525 15.1097 45.8269 15.5157 46.9121 15.5157C47.7553 15.5157 48.4346 15.18 48.9421 14.5007C49.4105 13.8918 49.6447 13.1579 49.6447 12.2834C49.6681 11.3231 49.4495 10.519 49.0357 9.87875ZM46.8575 13.2281C46.592 13.2281 46.3188 13.1501 46.0065 12.9939C45.6395 12.7987 45.4678 12.5957 45.4678 12.3615C45.4678 12.057 45.6239 11.7603 45.9284 11.4871C46.2329 11.2138 46.5374 11.0733 46.8419 11.0733C47.1464 11.0733 47.3884 11.2138 47.5758 11.5027C47.7319 11.7447 47.81 12.0336 47.81 12.3693C47.8022 12.9471 47.4899 13.2281 46.8575 13.2281Z" fill="#0091EA"/>
</svg>
