<svg viewBox="0 0 20 20" fill="none" xmlns="http://www.w3.org/2000/svg">
<g clip-path="url(#clip0_39864_54914)">
<circle cx="10.0039" cy="10" r="10" fill="white"/>
<path d="M10.0072 19.9988C15.5297 19.9988 20.0066 15.522 20.0066 9.99942C20.0066 4.47689 15.5297 0 10.0072 0C4.48468 0 0.0078125 4.47689 0.0078125 9.99942C0.0078125 15.522 4.48468 19.9988 10.0072 19.9988Z" fill="#0091EA"/>
<path d="M16.1422 8.814C16.0576 6.92081 14.5027 5.41797 12.59 5.41797C11.5296 5.41797 10.5732 5.88639 9.92265 6.62154C9.27207 5.88639 8.31573 5.41797 7.25528 5.41797C5.38162 5.41797 3.84626 6.86226 3.70964 8.70991C3.70313 8.74894 3.70312 8.80099 3.70312 8.84653V12.8606C3.70312 13.3551 4.09998 13.7519 4.59442 13.7519H4.61393C5.10837 13.7519 5.50523 13.3551 5.50523 12.8606V8.97664H5.51173C5.51173 8.00077 6.30543 7.20707 7.2813 7.20707C8.25717 7.20707 9.05088 8.00077 9.05088 8.97664H9.05738V12.2556C9.05738 12.75 9.45423 13.1469 9.94867 13.1469H9.96819C10.4626 13.1469 10.8595 12.75 10.8595 12.2556V8.97014C10.866 7.99427 11.6532 7.21357 12.6291 7.21357C13.6049 7.21357 14.3986 8.00728 14.3986 8.98315H14.4051V12.8736C14.4051 13.3616 14.802 13.7519 15.2834 13.7519H15.3029C15.7909 13.7519 16.1812 13.3551 16.1812 12.8736V8.90508C16.1422 8.85954 16.1422 8.84002 16.1422 8.814Z" fill="white"/>
<path d="M12.7822 14.0969C12.7432 14.0319 12.613 14.162 12.613 14.162C12.1186 14.6954 11.0972 15.0403 10.0368 15.0403C8.97632 15.0403 7.96142 14.6954 7.46048 14.162C7.46048 14.162 7.33036 14.0253 7.29133 14.0969C7.23928 14.175 7.31735 14.2986 7.31735 14.2986C7.94841 15.2094 8.91126 15.6193 10.0368 15.6193C11.1623 15.6193 12.1251 15.2094 12.7562 14.2986C12.7627 14.2986 12.8342 14.175 12.7822 14.0969Z" fill="white"/>
</g>
<defs>
<clipPath id="clip0_39864_54914">
<rect width="20" height="20" fill="white" transform="translate(0.00390625)"/>
</clipPath>
</defs>
</svg>
