<svg viewBox="0 0 38 38" fill="none" xmlns="http://www.w3.org/2000/svg">
<g clip-path="url(#clip0_36374_51256)">
<path d="M26.5517 27.1835C24.8722 23.2983 24.0721 17.6451 29.5288 19.334L30.8002 20.3233" stroke="" stroke-width="2.05662" stroke-linecap="round" stroke-linejoin="round"/>
<path d="M30.1484 24.2414C31.2546 26.8454 32.4607 30.7774 28.0417 32.4919C23.6227 34.2063 15.8112 29.5085 14.1183 27.8764C12.4253 26.2442 11.5329 24.9607 10.6833 21.6957C8.84379 21.4024 5.26662 20.3075 3.78434 18.5226C2.59075 17.3364 1.2032 14.589 2.36585 10.8638C3.56832 7.01101 7.54515 5.70549 9.30234 5.61098C11.0595 5.51647 14.6824 5.23603 16.5705 10.3831C16.6337 10.3899 16.7029 10.3996 16.7765 10.4117C18.0293 10.6172 18.5437 11.92 18.4454 13.1858" stroke="" stroke-width="2.05662" stroke-linecap="round" stroke-linejoin="round"/>
<path d="M30.0068 23.9637C30.604 24.7603 32.1206 25.3676 33.6681 24.4105C35.6025 23.2142 34.8664 17.3429 32.0312 17.896C31.3415 18.0809 30.6079 18.7965 30.8056 20.2387" stroke="" stroke-width="2.05662" stroke-linecap="round" stroke-linejoin="round"/>
<path d="M17.6129 23.4453L21.1618 22.346C21.8874 22.1516 22.4977 21.7921 23.129 21.39M19.3115 14.6168C21.1051 14.333 21.5506 15.5486 21.9399 15.9589C22.3292 16.3692 23.0757 15.9991 24.0338 17.7455C24.2058 18.0591 24.2813 18.6896 24.2575 19.0217C24.1937 19.9161 23.8825 20.91 23.129 21.39M23.129 21.39L25.2751 22.5651" stroke="" stroke-width="2.05662" stroke-linecap="round" stroke-linejoin="round"/>
<path d="M18.5051 13.3046C18.679 13.7032 18.8678 14.2728 18.9817 14.9005M14.1487 21.9768C14.1905 20.7579 14.7761 19.9828 16.0193 19.6109M16.0193 19.6109C17.2625 19.2391 17.1996 19.1528 18.1266 18.397C19.141 17.5699 19.2039 16.1248 18.9817 14.9005M16.0193 19.6109L20.0031 18.6576M18.9817 14.9005C18.4884 15.1967 17.2714 16.2555 16.0193 15.4155" stroke="" stroke-width="2.05662" stroke-linecap="round" stroke-linejoin="round"/>
<path d="M13.7425 12.3008C13.7425 12.3008 13.2928 11.8418 12.4036 12.1677C11.5144 12.4936 11.4327 13.3204 11.4327 13.3204" stroke="" stroke-width="2.05662" stroke-linecap="round" stroke-linejoin="round"/>
</g>
<defs>
<clipPath id="clip0_36374_51256">
<rect width="37.0192" height="37.0192" fill="" transform="translate(0.253906 0.708984)"/>
</clipPath>
</defs>
</svg>
