<svg viewBox="0 0 47 47" fill="none" xmlns="http://www.w3.org/2000/svg">
<path d="M34.4948 9.59858L34.4948 36.4718C34.4948 41.117 31.9418 43.6699 27.2966 43.6699L19.6186 43.6699C14.9734 43.6699 12.4204 41.117 12.4204 36.4718L12.4204 9.59858C12.4204 4.95336 14.9734 2.40041 19.6186 2.40041L27.2966 2.40041C31.9418 2.40041 34.4948 4.95336 34.4948 9.59858ZM15.2997 36.4718C15.2997 39.5046 16.5858 40.7907 19.6186 40.7907L27.2966 40.7907C30.3295 40.7907 31.6155 39.5046 31.6155 36.4718L31.6155 9.59858C31.6155 6.56575 30.3295 5.27968 27.2966 5.27968L19.6186 5.27968C16.5857 5.27968 15.2997 6.56575 15.2997 9.59858L15.2997 36.4718Z" fill=""/>
<path d="M24.8972 11.5174C24.8972 12.3044 24.2446 12.957 23.4576 12.957L13.86 12.957C13.073 12.957 12.4204 12.3044 12.4204 11.5174C12.4204 10.7304 13.073 10.0778 13.86 10.0778L23.4576 10.0778C24.2446 10.0778 24.8972 10.7304 24.8972 11.5174Z" fill=""/>
<path d="M22.9777 34.5506C22.9777 35.3376 22.3251 35.9902 21.5381 35.9902L13.86 35.9902C13.073 35.9902 12.4204 35.3376 12.4204 34.5506C12.4204 33.7636 13.073 33.111 13.86 33.111L21.5381 33.111C22.3251 33.111 22.9777 33.7636 22.9777 34.5506Z" fill=""/>
<path d="M24.8972 26.8729C24.8972 27.6791 24.2446 28.3125 23.4384 28.3125L13.8408 28.2165C13.0538 28.2165 12.4204 27.5639 12.4204 26.7769C12.4204 26.7769 12.4204 26.7769 12.4204 26.7577C12.4204 25.9707 13.073 25.3181 13.8792 25.3373L23.4768 25.4332C24.2638 25.4332 24.8972 26.0859 24.8972 26.8729Z" fill=""/>
<path d="M21.0582 19.1951C21.0582 19.9821 20.4056 20.6348 19.6186 20.6348L13.86 20.6348C13.073 20.6348 12.4204 19.9821 12.4204 19.1951C12.4204 18.4081 13.073 17.7555 13.86 17.7555L19.6186 17.7555C20.4056 17.7555 21.0582 18.4081 21.0582 19.1951Z" fill=""/>
</svg>
