<svg width="24" height="24" viewBox="0 0 24 24" fill="none" xmlns="http://www.w3.org/2000/svg">
<rect width="24" height="24" rx="7" fill="#34B288"/>
<path d="M3.68742 13.325C3.35142 13.067 3.18342 12.677 3.18342 12.155C3.18342 11.813 3.25842 11.504 3.40842 11.228C3.55842 10.952 3.76842 10.736 4.03842 10.58C4.31442 10.418 4.62942 10.337 4.98342 10.337C5.21142 10.337 5.43042 10.367 5.64042 10.427C5.85642 10.487 6.08142 10.589 6.31542 10.733L6.00042 11.507C5.65242 11.351 5.31342 11.273 4.98342 11.273C4.73142 11.273 4.52142 11.354 4.35342 11.516C4.19142 11.672 4.11042 11.87 4.11042 12.11C4.11042 12.368 4.18542 12.578 4.33542 12.74C4.48542 12.896 4.69242 12.974 4.95642 12.974H6.54942L6.46842 13.946H4.78542C4.44342 13.946 4.16142 14.054 3.93942 14.27C3.72342 14.492 3.61542 14.774 3.61542 15.116C3.61542 15.464 3.72942 15.722 3.95742 15.89C4.19142 16.058 4.56042 16.142 5.06442 16.142H6.73842L6.65742 17.114H5.01942C4.22142 17.114 3.63342 16.952 3.25542 16.628C2.87742 16.304 2.68842 15.812 2.68842 15.152C2.68842 14.762 2.77842 14.402 2.95842 14.072C3.13842 13.742 3.38142 13.493 3.68742 13.325ZM11.4517 13.676C11.4517 14.192 11.3557 14.636 11.1637 15.008C10.9717 15.386 10.6987 15.674 10.3447 15.872C9.99675 16.076 9.58575 16.178 9.11175 16.178H7.95075L7.86975 15.206H9.13875C9.56475 15.206 9.90075 15.098 10.1467 14.882C10.3927 14.666 10.5187 14.372 10.5247 14H9.75075C9.11475 14 8.65875 13.871 8.38275 13.613C8.10675 13.349 7.96875 12.938 7.96875 12.38C7.96875 11.996 8.04075 11.657 8.18475 11.363C8.33475 11.069 8.54175 10.841 8.80575 10.679C9.07575 10.511 9.38475 10.427 9.73275 10.427C10.2667 10.427 10.6867 10.607 10.9927 10.967C11.2987 11.321 11.4517 11.807 11.4517 12.425V13.676ZM8.90475 12.335C8.90475 12.587 8.97075 12.767 9.10275 12.875C9.23475 12.977 9.46575 13.028 9.79575 13.028H10.5247V12.443C10.5247 12.089 10.4527 11.822 10.3087 11.642C10.1647 11.456 9.95775 11.363 9.68775 11.363C9.44175 11.363 9.24975 11.453 9.11175 11.633C8.97375 11.807 8.90475 12.041 8.90475 12.335ZM12.0608 15.206C12.5228 15.206 12.8828 15.074 13.1408 14.81C13.4048 14.552 13.5368 14.186 13.5368 13.712V11.012H14.4728V12.398C14.4728 12.818 14.7008 13.028 15.1568 13.028H15.2828C15.3428 13.028 15.3728 13.196 15.3728 13.532C15.3728 13.844 15.3428 14 15.2828 14H15.1568C15.0068 14 14.8688 13.979 14.7428 13.937C14.6228 13.889 14.5328 13.826 14.4728 13.748V13.802C14.4608 14.27 14.3528 14.684 14.1488 15.044C13.9508 15.404 13.6718 15.683 13.3118 15.881C12.9578 16.079 12.5438 16.178 12.0698 16.178H11.8088L11.7278 15.206H12.0608ZM15.9017 13.028C16.1477 13.028 16.3337 12.974 16.4597 12.866C16.5857 12.752 16.6487 12.593 16.6487 12.389V11.012H17.5847V12.389C17.5847 12.815 17.8277 13.028 18.3137 13.028C18.5597 13.028 18.7457 12.974 18.8717 12.866C18.9977 12.752 19.0607 12.593 19.0607 12.389V11.012H19.9967V12.389C19.9967 12.593 20.0537 12.752 20.1677 12.866C20.2817 12.974 20.4527 13.028 20.6807 13.028C20.9147 13.028 21.0887 12.974 21.2027 12.866C21.3227 12.752 21.3827 12.593 21.3827 12.389V11.012H22.3097V12.38C22.3097 12.89 22.1657 13.289 21.8777 13.577C21.5897 13.859 21.1907 14 20.6807 14C20.0687 14 19.6727 13.826 19.4927 13.478C19.2587 13.826 18.8657 14 18.3137 14C17.9777 14 17.7107 13.958 17.5127 13.874C17.3147 13.784 17.1707 13.652 17.0807 13.478C16.8467 13.826 16.4537 14 15.9017 14H15.1907C15.1307 14 15.1007 13.844 15.1007 13.532C15.1007 13.196 15.1307 13.028 15.1907 13.028H15.9017ZM19.9697 7.799V8.636H19.0247V7.799H19.9697ZM20.7167 9.122V9.986H18.2687V9.122H20.7167Z" fill="white"/>
</svg>
