<svg viewBox="0 0 40 40" fill="none" xmlns="http://www.w3.org/2000/svg">
<path d="M14.3499 8.68203L12 13.382C11.6833 14.032 10.8333 14.6487 10.1166 14.782L5.86661 15.482C3.14994 15.932 2.51662 17.8987 4.46662 19.8654L7.78332 23.182C8.33332 23.732 8.64994 24.8154 8.46661 25.5987L7.51664 29.6987C6.76664 32.932 8.49996 34.1987 11.35 32.4987L15.3333 30.132C16.05 29.6987 17.25 29.6987 17.9666 30.132L21.95 32.4987C24.8 34.182 26.5333 32.932 25.7833 29.6987L24.8333 25.5987C24.65 24.832 24.9666 23.7487 25.5166 23.182L28.8333 19.8654C30.7833 17.9154 30.1499 15.9487 27.4333 15.482L23.1833 14.782C22.4666 14.6654 21.6166 14.032 21.3 13.382L18.95 8.68203C17.7 6.13203 15.6333 6.13203 14.3499 8.68203Z" fill=""/>
<path opacity="0.4" d="M26.6667 9.58203H36.6667C37.3501 9.58203 37.9167 9.01536 37.9167 8.33203C37.9167 7.6487 37.3501 7.08203 36.6667 7.08203H26.6667C25.9834 7.08203 25.4167 7.6487 25.4167 8.33203C25.4167 9.01536 25.9834 9.58203 26.6667 9.58203Z" fill=""/>
<path opacity="0.4" d="M31.6667 32.9141H36.6667C37.3501 32.9141 37.9167 32.3474 37.9167 31.6641C37.9167 30.9807 37.3501 30.4141 36.6667 30.4141H31.6667C30.9834 30.4141 30.4167 30.9807 30.4167 31.6641C30.4167 32.3474 30.9834 32.9141 31.6667 32.9141Z" fill=""/>
<path opacity="0.4" d="M35.0001 21.2461H36.6667C37.3501 21.2461 37.9167 20.6794 37.9167 19.9961C37.9167 19.3128 37.3501 18.7461 36.6667 18.7461H35.0001C34.3167 18.7461 33.7501 19.3128 33.7501 19.9961C33.7501 20.6794 34.3167 21.2461 35.0001 21.2461Z" fill=""/>
</svg>
