<svg viewBox="0 0 24 25" fill="none" xmlns="http://www.w3.org/2000/svg">
<g clip-path="url(#clip0_39864_54832)">
<path d="M8.24927 12.9115L16.7111 20.33C16.8086 20.416 16.9268 20.4751 17.054 20.5017C17.1812 20.5283 17.3132 20.5213 17.437 20.4815C17.5607 20.4417 17.672 20.3705 17.7599 20.2747C17.8478 20.1789 17.9093 20.062 17.9383 19.9353L21.7493 3.38183C21.753 3.36523 21.7521 3.34793 21.7468 3.33179C21.7414 3.31564 21.7318 3.30126 21.7188 3.29019C21.7059 3.27911 21.6903 3.27175 21.6735 3.2689C21.6567 3.26605 21.6395 3.26782 21.6236 3.27402L2.62427 10.7093C2.50632 10.7547 2.40628 10.8372 2.33916 10.9442C2.27205 11.0513 2.24148 11.1773 2.25205 11.3032C2.26261 11.4292 2.31374 11.5483 2.39776 11.6427C2.48178 11.7371 2.59415 11.8017 2.71802 11.8268L8.24927 12.9115Z" stroke="" stroke-width="1.5" stroke-linecap="round" stroke-linejoin="round"/>
<path d="M8.25 12.911L21.6947 3.27539" stroke="" stroke-width="1.5" stroke-linecap="round" stroke-linejoin="round"/>
</g>
<defs>
<clipPath id="clip0_39864_54832">
<rect width="24" height="24" fill="white" transform="translate(0 0.267578)"/>
</clipPath>
</defs>
</svg>
