<svg width="" height="" viewBox="0 0 31 30" fill="none" xmlns="http://www.w3.org/2000/svg">
<g clip-path="url(#clip0_49792_71244)">
<path d="M15.5 30C23.7843 30 30.5 23.2843 30.5 15C30.5 6.71573 23.7843 0 15.5 0C7.21573 0 0.5 6.71573 0.5 15C0.5 23.2843 7.21573 30 15.5 30Z" fill="url(#paint0_linear_49792_71244)"/>
<path fill-rule="evenodd" clip-rule="evenodd" d="M7.28782 14.841C11.6606 12.9358 14.5765 11.6798 16.0355 11.073C20.2011 9.34032 21.0667 9.03934 21.6309 9.0294C21.755 9.02722 22.0324 9.05797 22.2122 9.2038C22.3639 9.32693 22.4057 9.49327 22.4256 9.61002C22.4456 9.72676 22.4705 9.99271 22.4507 10.2005C22.225 12.5724 21.2482 18.3282 20.7513 20.9847C20.541 22.1088 20.127 22.4857 19.7262 22.5226C18.8551 22.6027 18.1937 21.9469 17.35 21.3939C16.0298 20.5285 15.2839 19.9898 14.0025 19.1453C12.5215 18.1693 13.4816 17.633 14.3256 16.7563C14.5464 16.5269 18.3844 13.036 18.4587 12.7193C18.468 12.6797 18.4766 12.5321 18.3889 12.4541C18.3012 12.3761 18.1718 12.4028 18.0783 12.424C17.9459 12.4541 15.8369 13.848 11.7513 16.606C11.1526 17.017 10.6104 17.2173 10.1246 17.2068C9.58899 17.1953 8.55875 16.904 7.79288 16.6551C6.8535 16.3497 6.1069 16.1883 6.17192 15.6697C6.20578 15.3996 6.57775 15.1233 7.28782 14.841Z" fill="white"/>
</g>
<defs>
<linearGradient id="paint0_linear_49792_71244" x1="15.5" y1="0" x2="15.5" y2="29.7775" gradientUnits="userSpaceOnUse">
<stop stop-color="#2AABEE"/>
<stop offset="1" stop-color="#229ED9"/>
</linearGradient>
<clipPath id="clip0_49792_71244">
<rect width="30" height="30" fill="white" transform="translate(0.5)"/>
</clipPath>
</defs>
</svg>
