<svg width="22" height="18" viewBox="0 0 22 18" fill="none" xmlns="http://www.w3.org/2000/svg">
<path fill-rule="evenodd" clip-rule="evenodd" d="M0 17.24C0 16.8203 0.343595 16.48 0.767442 16.48H21.2326C21.6564 16.48 22 16.8203 22 17.24C22 17.6597 21.6564 18 21.2326 18H0.767442C0.343595 18 0 17.6597 0 17.24Z" fill=""/>
<path fill-rule="evenodd" clip-rule="evenodd" d="M2.68981 0.890395C1.7907 1.78079 1.7907 3.21386 1.7907 6.08V11.1467C1.7907 13.0574 1.7907 14.0128 2.39011 14.6064C2.98952 15.2 3.95425 15.2 5.88372 15.2H16.1163C18.0457 15.2 19.0105 15.2 19.6099 14.6064C20.2093 14.0128 20.2093 13.0574 20.2093 11.1467V6.08C20.2093 3.21386 20.2093 1.78079 19.3102 0.890395C18.4111 0 16.964 0 14.0698 0H7.93023C5.03603 0 3.58893 0 2.68981 0.890395ZM7.16279 12.16C7.16279 11.7403 7.50639 11.4 7.93023 11.4H14.0698C14.4936 11.4 14.8372 11.7403 14.8372 12.16C14.8372 12.5797 14.4936 12.92 14.0698 12.92H7.93023C7.50639 12.92 7.16279 12.5797 7.16279 12.16Z" fill=""/>
</svg>
