<svg width="22" height="22" viewBox="0 0 22 22" fill="none" xmlns="http://www.w3.org/2000/svg">
<path d="M16.75 10.75C16.75 14.0637 14.0637 16.75 10.75 16.75C7.43629 16.75 4.75 14.0637 4.75 10.75C4.75 7.43629 7.43629 4.75 10.75 4.75C14.0637 4.75 16.75 7.43629 16.75 10.75Z" fill=""/>
<path fill-rule="evenodd" clip-rule="evenodd" d="M10.75 0C11.1642 0 11.5 0.335786 11.5 0.75V1.75C11.5 2.16421 11.1642 2.5 10.75 2.5C10.3358 2.5 10 2.16421 10 1.75V0.75C10 0.335786 10.3358 0 10.75 0ZM3.14861 3.14861C3.4415 2.85572 3.91638 2.85572 4.20927 3.14861L4.60211 3.54145C4.895 3.83434 4.895 4.30921 4.60211 4.60211C4.30921 4.895 3.83434 4.895 3.54145 4.60211L3.14861 4.20927C2.85572 3.91638 2.85572 3.4415 3.14861 3.14861ZM18.3511 3.14887C18.644 3.44176 18.644 3.91664 18.3511 4.20953L17.9583 4.60237C17.6654 4.89526 17.1905 4.89526 16.8976 4.60237C16.6047 4.30947 16.6047 3.8346 16.8976 3.54171L17.2905 3.14887C17.5834 2.85598 18.0582 2.85598 18.3511 3.14887ZM0 10.75C0 10.3358 0.335786 10 0.75 10H1.75C2.16421 10 2.5 10.3358 2.5 10.75C2.5 11.1642 2.16421 11.5 1.75 11.5H0.75C0.335786 11.5 0 11.1642 0 10.75ZM19 10.75C19 10.3358 19.3358 10 19.75 10H20.75C21.1642 10 21.5 10.3358 21.5 10.75C21.5 11.1642 21.1642 11.5 20.75 11.5H19.75C19.3358 11.5 19 11.1642 19 10.75ZM16.8976 16.8976C17.1905 16.6047 17.6654 16.6047 17.9583 16.8976L18.3511 17.2905C18.644 17.5834 18.644 18.0582 18.3511 18.3511C18.0582 18.644 17.5834 18.644 17.2905 18.3511L16.8976 17.9583C16.6047 17.6654 16.6047 17.1905 16.8976 16.8976ZM4.60211 16.8979C4.895 17.1908 4.895 17.6657 4.60211 17.9586L4.20927 18.3514C3.91638 18.6443 3.4415 18.6443 3.14861 18.3514C2.85572 18.0585 2.85572 17.5836 3.14861 17.2907L3.54145 16.8979C3.83434 16.605 4.30921 16.605 4.60211 16.8979ZM10.75 19C11.1642 19 11.5 19.3358 11.5 19.75V20.75C11.5 21.1642 11.1642 21.5 10.75 21.5C10.3358 21.5 10 21.1642 10 20.75V19.75C10 19.3358 10.3358 19 10.75 19Z" fill=""/>
</svg>
