<svg width="20" height="20" viewBox="0 0 20 20" fill="none" xmlns="http://www.w3.org/2000/svg">
<path d="M17.9001 0.307189C17.7392 -0.102396 17.1616 -0.102396 17.0007 0.307189L16.5703 1.40247C16.5212 1.52752 16.4226 1.62651 16.298 1.67583L15.2067 2.1078C14.7986 2.26934 14.7986 2.849 15.2067 3.01054L16.298 3.44252C16.4226 3.49184 16.5212 3.59082 16.5703 3.71587L17.0007 4.81115C17.1616 5.22074 17.7392 5.22074 17.9001 4.81116L18.3305 3.71587C18.3796 3.59082 18.4782 3.49184 18.6028 3.44252L19.6941 3.01054C20.1022 2.849 20.1022 2.26934 19.6941 2.1078L18.6028 1.67583C18.4782 1.62651 18.3796 1.52752 18.3305 1.40247L17.9001 0.307189Z" fill=""/>
<path d="M14.0328 6.12967C13.8718 5.72009 13.2943 5.72009 13.1333 6.12967L12.9764 6.52902C12.9273 6.65407 12.8287 6.75305 12.7041 6.80237L12.3062 6.95987C11.8981 7.12141 11.8981 7.70107 12.3062 7.86261L12.7041 8.02011C12.8287 8.06943 12.9273 8.16842 12.9764 8.29346L13.1333 8.69281C13.2943 9.1024 13.8718 9.1024 14.0328 8.69281L14.1897 8.29346C14.2388 8.16842 14.3374 8.06943 14.462 8.02011L14.8599 7.86261C15.268 7.70107 15.268 7.12141 14.8599 6.95987L14.462 6.80237C14.3374 6.75305 14.2388 6.65407 14.1897 6.52902L14.0328 6.12967Z" fill=""/>
<path d="M10 20C15.5228 20 20 15.5228 20 10C20 9.53731 19.3065 9.46084 19.0672 9.85684C17.9289 11.7406 15.8615 13 13.5 13C9.91015 13 7 10.0899 7 6.5C7 4.13845 8.25937 2.07105 10.1432 0.93276C10.5392 0.693468 10.4627 0 10 0C4.47715 0 0 4.47715 0 10C0 15.5228 4.47715 20 10 20Z" fill=""/>
</svg>
