<svg viewBox="0 0 47 47" fill="none" xmlns="http://www.w3.org/2000/svg">
<path d="M27.6988 43.6679H20.0208C9.5978 43.6679 5.14453 39.2147 5.14453 28.7917V17.2747C5.14453 6.85171 9.5978 2.39844 20.0208 2.39844H27.6988C38.1218 2.39844 42.575 6.85171 42.575 17.2747V28.7917C42.575 39.2147 38.1218 43.6679 27.6988 43.6679ZM20.0208 5.27771C11.1718 5.27771 8.0238 8.42571 8.0238 17.2747V28.7917C8.0238 37.6407 11.1718 40.7887 20.0208 40.7887H27.6988C36.5478 40.7887 39.6958 37.6407 39.6958 28.7917V17.2747C39.6958 8.42571 36.5478 5.27771 27.6988 5.27771H20.0208Z" fill=""/>
<path d="M29.7529 24.0703C29.4074 24.0703 29.0619 23.9359 28.7932 23.7056C25.9907 21.2102 21.7294 21.2102 18.9269 23.7056C18.6198 23.9935 18.1975 24.1087 17.756 24.0511C17.3337 23.9935 16.969 23.744 16.7386 23.3793L12.5541 16.661C12.1894 16.0659 12.3046 15.2981 12.8228 14.8182C19.1188 9.23246 28.6012 9.23246 34.8972 14.8182C35.4155 15.2789 35.5307 16.0659 35.166 16.661L30.9814 23.3793C30.7511 23.744 30.3864 23.9743 29.9641 24.0511C29.8873 24.0511 29.8105 24.0703 29.7529 24.0703ZM23.86 18.9452C25.7795 18.9452 27.6799 19.4827 29.3498 20.5384L32.0371 16.2195C27.1808 12.6108 20.5201 12.6108 15.6637 16.2195L18.351 20.5384C20.0402 19.4635 21.9405 18.9452 23.86 18.9452Z" fill=""/>
</svg>
