<svg width="28" height="28" viewBox="0 0 28 28" fill="none" xmlns="http://www.w3.org/2000/svg">
<path fill-rule="evenodd" clip-rule="evenodd" d="M14.9582 3.45042C17.5585 3.57822 19.9814 4.6505 21.8321 6.50236C23.8061 8.4776 24.8926 11.1032 24.8916 13.8955C24.8892 19.6575 20.1984 24.3457 14.4361 24.3457C12.2691 24.3457 10.5471 23.6799 9.43525 23.0738L3.89258 24.527L5.37592 19.1116C4.46095 17.5268 3.97949 15.7291 3.98025 13.8872C3.98256 8.12529 8.67293 3.4375 14.4359 3.4375L14.9582 3.45042ZM9.69202 21.1819L10.0094 21.3701C11.3437 22.1615 12.8731 22.5802 14.4325 22.5808H14.436C19.2259 22.5808 23.1243 18.6842 23.1262 13.8949C23.1271 11.574 22.224 9.39167 20.5833 7.7499C18.9425 6.10802 16.7606 5.2033 14.4395 5.20255C9.64595 5.20255 5.74748 9.09873 5.74557 13.8878C5.74491 15.529 6.20434 17.1274 7.07424 18.5103L7.28087 18.839L6.40296 22.0442L9.69202 21.1819ZM19.7034 16.3805C19.6382 16.2715 19.464 16.2062 19.2028 16.0755C18.9415 15.9448 17.6571 15.3131 17.4176 15.2259C17.1782 15.1389 17.004 15.0953 16.8298 15.3567C16.6557 15.618 16.155 16.2062 16.0026 16.3805C15.8502 16.5548 15.6978 16.5766 15.4366 16.4459C15.1754 16.3152 14.3336 16.0394 13.3357 15.1498C12.5591 14.4574 12.0348 13.6024 11.8824 13.3409C11.73 13.0796 11.8661 12.9382 11.9969 12.808C12.1144 12.691 12.2582 12.503 12.3888 12.3506C12.5194 12.1981 12.5629 12.0891 12.6501 11.9149C12.7371 11.7406 12.6936 11.5882 12.6283 11.4575C12.5629 11.3267 12.0405 10.0415 11.8228 9.51861C11.6107 9.00949 11.3953 9.07842 11.235 9.07038C11.0828 9.06283 10.9084 9.06117 10.7343 9.06117C10.5601 9.06117 10.2771 9.12648 10.0376 9.38795C9.79815 9.64932 9.12325 10.2811 9.12325 11.5663C9.12325 12.8516 10.0594 14.0932 10.19 14.2675C10.3206 14.4418 12.0322 17.0792 14.6529 18.2103C15.2762 18.4794 15.7628 18.64 16.1422 18.7604C16.7681 18.9591 17.3376 18.9311 17.7877 18.8638C18.2897 18.7889 19.3334 18.2321 19.5511 17.6223C19.7688 17.0122 19.7688 16.4894 19.7034 16.3805Z" fill=""/>
</svg>
