<svg width="" height="" viewBox="0 0 37 37" fill="none" xmlns="http://www.w3.org/2000/svg">
<path d="M18.7695 12.9453V15.9808" stroke="" stroke-width="2" stroke-linecap="round" stroke-linejoin="round"/>
<path d="M8.65063 15.9766H28.8875C29.4242 15.9766 29.9389 16.1898 30.3184 16.5693C30.6979 16.9488 30.9111 17.4635 30.9111 18.0002V20.951C30.9111 23.1568 29.1821 25.0212 26.9776 25.0819C26.4367 25.0971 25.8982 25.0037 25.3941 24.8072C24.8899 24.6107 24.4302 24.3151 24.0423 23.9379C23.6543 23.5606 23.3459 23.1095 23.1354 22.611C22.9248 22.1125 22.8164 21.5769 22.8164 21.0358C22.8164 22.1092 22.39 23.1387 21.631 23.8977C20.8719 24.6567 19.8425 25.0831 18.769 25.0831C17.6956 25.0831 16.6662 24.6567 15.9071 23.8977C15.1481 23.1387 14.7217 22.1092 14.7217 21.0358C14.7219 21.577 14.6136 22.1128 14.4031 22.6114C14.1926 23.11 13.8842 23.5613 13.4963 23.9387C13.1083 24.3161 12.6486 24.6118 12.1443 24.8083C11.6401 25.0049 11.1015 25.0984 10.5605 25.0831C8.35594 25.0212 6.62695 23.1568 6.62695 20.951V18.0002C6.62695 17.4635 6.84016 16.9488 7.21968 16.5693C7.59919 16.1898 8.11392 15.9766 8.65063 15.9766Z" stroke="" stroke-width="2" stroke-linecap="round" stroke-linejoin="round"/>
<path d="M29.9011 23.6797V29.131C29.9011 29.6677 29.6879 30.1824 29.3084 30.5619C28.9289 30.9415 28.4142 31.1547 27.8774 31.1547H9.66431C9.12759 31.1547 8.61286 30.9415 8.23335 30.5619C7.85383 30.1824 7.64063 29.6677 7.64062 29.131V23.6797" stroke="" stroke-width="2" stroke-linecap="round" stroke-linejoin="round"/>
<path d="M21.8064 9.90881C21.8064 10.7139 21.4866 11.486 20.9173 12.0553C20.348 12.6245 19.5759 12.9443 18.7709 12.9443C17.9658 12.9443 17.1937 12.6245 16.6244 12.0553C16.0552 11.486 15.7354 10.7139 15.7354 9.90881C15.7354 6.87329 18.7709 4.84961 18.7709 4.84961C18.7709 4.84961 21.8064 6.87329 21.8064 9.90881Z" stroke="" stroke-width="2" stroke-linecap="round" stroke-linejoin="round"/>
</svg>
