<svg viewBox="0 0 18 18" fill="none" xmlns="http://www.w3.org/2000/svg">
<path d="M7.83464 10.5001L6.04297 8.70842C5.89019 8.55564 5.69575 8.47925 5.45964 8.47925C5.22352 8.47925 5.02908 8.55564 4.8763 8.70842C4.72352 8.86119 4.64714 9.05564 4.64714 9.29175C4.64714 9.52786 4.72352 9.7223 4.8763 9.87508L7.2513 12.2501C7.41797 12.4167 7.61241 12.5001 7.83464 12.5001C8.05686 12.5001 8.2513 12.4167 8.41797 12.2501L13.1263 7.54175C13.2791 7.38897 13.3555 7.19453 13.3555 6.95841C13.3555 6.7223 13.2791 6.52786 13.1263 6.37508C12.9735 6.2223 12.7791 6.14592 12.543 6.14592C12.3069 6.14592 12.1124 6.2223 11.9596 6.37508L7.83464 10.5001ZM9.0013 17.3334C7.84852 17.3334 6.76519 17.1147 5.7513 16.6772C4.73741 16.2397 3.85547 15.6459 3.10547 14.8959C2.35547 14.1459 1.76172 13.264 1.32422 12.2501C0.886719 11.2362 0.667969 10.1529 0.667969 9.00008C0.667969 7.8473 0.886719 6.76397 1.32422 5.75008C1.76172 4.73619 2.35547 3.85425 3.10547 3.10425C3.85547 2.35425 4.73741 1.7605 5.7513 1.323C6.76519 0.885498 7.84852 0.666748 9.0013 0.666748C10.1541 0.666748 11.2374 0.885498 12.2513 1.323C13.2652 1.7605 14.1471 2.35425 14.8971 3.10425C15.6471 3.85425 16.2409 4.73619 16.6784 5.75008C17.1159 6.76397 17.3346 7.8473 17.3346 9.00008C17.3346 10.1529 17.1159 11.2362 16.6784 12.2501C16.2409 13.264 15.6471 14.1459 14.8971 14.8959C14.1471 15.6459 13.2652 16.2397 12.2513 16.6772C11.2374 17.1147 10.1541 17.3334 9.0013 17.3334Z" fill="#EC407A"/>
</svg>
