<svg width="" height="" viewBox="0 0 25 25" fill="none" xmlns="http://www.w3.org/2000/svg">
<path opacity="0.5" fill-rule="evenodd" clip-rule="evenodd" d="M20.4564 14.6186L20.6404 12.9146C20.7374 12.0046 20.8024 11.4046 20.7514 11.0256C20.5389 11.0231 20.3295 10.9755 20.1369 10.8858C19.9443 10.7962 19.773 10.6666 19.6344 10.5056C19.3074 10.7066 18.8814 11.1316 18.2404 11.7706C17.7454 12.2636 17.4984 12.5096 17.2224 12.5476C17.0694 12.5688 16.9136 12.5469 16.7724 12.4846C16.5184 12.3726 16.3484 12.0686 16.0094 11.4596L14.2194 8.25059C14.0104 7.87559 13.8354 7.56059 13.6774 7.30859C13.3961 7.45176 13.0849 7.52613 12.7694 7.52559C12.4424 7.52559 12.1344 7.44759 11.8614 7.30859C11.7034 7.56159 11.5284 7.87559 11.3184 8.25059L9.52937 11.4596C9.18937 12.0686 9.01937 12.3726 8.76537 12.4846C8.62412 12.5469 8.46831 12.5688 8.31537 12.5476C8.04037 12.5096 7.79337 12.2636 7.29837 11.7706C6.65737 11.1316 6.23137 10.7066 5.90537 10.5056C5.76663 10.6667 5.59516 10.7964 5.40239 10.886C5.20962 10.9757 4.99996 11.0233 4.78737 11.0256C4.73637 11.4036 4.80137 12.0046 4.89837 12.9146L5.08237 14.6186L5.17137 15.4686C5.42337 17.9036 5.63137 19.9186 6.48137 20.6786C7.42737 21.5256 8.84537 21.5256 11.6814 21.5256H13.8574C16.6934 21.5256 18.1114 21.5256 19.0574 20.6786C19.9074 19.9186 20.1154 17.9036 20.3674 15.4686C20.3964 15.1906 20.4244 14.9066 20.4564 14.6186Z" fill=""/>
<path d="M20.7695 11.0254C21.1666 11.023 21.5465 10.8633 21.826 10.5813C22.1054 10.2993 22.2617 9.91796 22.2605 9.52092C22.2593 9.12387 22.1008 8.7435 21.8196 8.46317C21.5384 8.18284 21.1576 8.02542 20.7605 8.02542C20.3635 8.02542 19.9826 8.18284 19.7015 8.46317C19.4203 8.7435 19.2617 9.12387 19.2605 9.52092C19.2593 9.91796 19.4156 10.2993 19.6951 10.5813C19.9746 10.8633 20.3545 11.023 20.7515 11.0254H20.7695ZM12.7695 3.52539C12.2391 3.52539 11.7304 3.7361 11.3553 4.11118C10.9802 4.48625 10.7695 4.99496 10.7695 5.52539C10.7695 6.05582 10.9802 6.56453 11.3553 6.9396C11.7304 7.31468 12.2391 7.52539 12.7695 7.52539C13.3 7.52539 13.8087 7.31468 14.1837 6.9396C14.5588 6.56453 14.7695 6.05582 14.7695 5.52539C14.7695 4.99496 14.5588 4.48625 14.1837 4.11118C13.8087 3.7361 13.3 3.52539 12.7695 3.52539ZM3.26953 9.52539C3.26953 9.92322 3.42757 10.3047 3.70887 10.5861C3.99018 10.8674 4.37171 11.0254 4.76953 11.0254H4.78753C5.18248 11.0214 5.55985 10.8616 5.83744 10.5806C6.11503 10.2996 6.27034 9.92035 6.26953 9.52539C6.26953 9.12757 6.1115 8.74603 5.83019 8.46473C5.54889 8.18343 5.16736 8.02539 4.76953 8.02539C4.37171 8.02539 3.99018 8.18343 3.70887 8.46473C3.42757 8.74603 3.26953 9.12757 3.26953 9.52539ZM5.61853 18.7754C5.5152 18.2791 5.43312 17.7787 5.37253 17.2754H20.1665C20.0965 17.8204 20.0185 18.3254 19.9205 18.7754H5.61853Z" fill=""/>
</svg>
