<svg viewBox="0 0 27 24" fill="none" xmlns="http://www.w3.org/2000/svg">
<g clip-path="url(#clip0_7734_20810)">
<path d="M5.64415 18.8944C4.70277 18.0319 5.32695 16.2197 4.84807 15.1584C4.35077 14.0625 2.52734 13.1719 2.52734 12C2.52734 10.8281 4.35077 9.9375 4.84807 8.84156C5.32695 7.78125 4.70277 5.96812 5.64415 5.10562C6.58554 4.24312 8.5645 4.815 9.72179 4.37625C10.9231 3.92063 11.8901 2.25 13.1691 2.25C14.4482 2.25 15.4203 3.92063 16.6164 4.37625C17.7747 4.815 19.7527 4.24312 20.6941 5.10562C21.6355 5.96812 21.0113 7.78031 21.4902 8.84156C21.9875 9.94219 23.8109 10.8281 23.8109 12C23.8109 13.1719 21.9875 14.0625 21.4902 15.1584C21.0113 16.2197 21.6355 18.0319 20.6941 18.8944C19.7527 19.7569 17.7747 19.185 16.6164 19.6238C15.4203 20.0794 14.4482 21.75 13.1691 21.75C11.8901 21.75 10.918 20.0794 9.72179 19.6238C8.5645 19.185 6.58554 19.7569 5.64415 18.8944Z" stroke-width="1.5" stroke-linecap="round" stroke-linejoin="round"/>
<path d="M9.89501 10.5C10.7992 10.5 11.5322 9.82843 11.5322 9C11.5322 8.17157 10.7992 7.5 9.89501 7.5C8.99081 7.5 8.25781 8.17157 8.25781 9C8.25781 9.82843 8.99081 10.5 9.89501 10.5Z" stroke-width="1.5" stroke-linecap="round" stroke-linejoin="round"/>
<path d="M16.4438 16.5C17.348 16.5 18.081 15.8284 18.081 15C18.081 14.1716 17.348 13.5 16.4438 13.5C15.5396 13.5 14.8066 14.1716 14.8066 15C14.8066 15.8284 15.5396 16.5 16.4438 16.5Z" stroke-width="1.5" stroke-linecap="round" stroke-linejoin="round"/>
<path d="M9.07617 15.75L17.2621 8.25" stroke-width="1.5" stroke-linecap="round" stroke-linejoin="round"/>
</g>
<defs>
<clipPath id="clip0_7734_20810">
<rect width="26.1951" height="24" fill="white" transform="translate(0.0722656)"/>
</clipPath>
</defs>
</svg>
