<svg width="" height="" viewBox="0 0 13 13" fill="none" xmlns="http://www.w3.org/2000/svg">
<g clip-path="url(#clip0_40202_7747)">
<path fill-rule="evenodd" clip-rule="evenodd" d="M9.99277 1.07698C10.5257 0.544002 11.3899 0.544002 11.9229 1.07698C12.4558 1.60996 12.4558 2.47409 11.9229 3.00707L9.61987 5.31004C9.61435 5.31557 9.6089 5.32101 9.60353 5.32639C9.47849 5.45146 9.39147 5.53851 9.29388 5.61463C9.17912 5.70414 9.05495 5.78088 8.92357 5.84349C8.81184 5.89674 8.69506 5.93565 8.52728 5.99155C8.52007 5.99395 8.51276 5.99639 8.50535 5.99885L7.51004 6.33063C7.27118 6.41025 7.00783 6.34808 6.82979 6.17004C6.65175 5.992 6.58958 5.72865 6.6692 5.48979L7.00098 4.49448C7.00344 4.48707 7.00588 4.47976 7.00828 4.47255C7.06418 4.30476 7.10309 4.18799 7.15634 4.07626C7.21895 3.94488 7.29569 3.82071 7.3852 3.70595C7.46132 3.60836 7.54837 3.52134 7.67344 3.3963C7.67882 3.39093 7.68427 3.38548 7.68979 3.37996L9.99277 1.07698ZM11.3483 1.6515C11.1327 1.43583 10.783 1.43583 10.5673 1.6515L10.4959 1.72285C10.4987 1.73165 10.5018 1.74071 10.505 1.75001C10.5493 1.87765 10.6334 2.0468 10.7932 2.20661C10.953 2.36643 11.1222 2.45057 11.2498 2.49485C11.2591 2.49808 11.2682 2.50109 11.277 2.50389L11.3483 2.43254C11.564 2.21686 11.564 1.86718 11.3483 1.6515ZM10.6628 3.1181C10.5185 3.03719 10.3657 2.9281 10.2187 2.78114C10.0717 2.63418 9.96264 2.48135 9.88174 2.33706L8.26431 3.95448C8.11686 4.10194 8.06745 4.15233 8.02586 4.20566C7.97265 4.27388 7.92702 4.3477 7.8898 4.42581C7.86071 4.48686 7.83772 4.55358 7.77178 4.75141L7.64974 5.11752L7.88231 5.35009L8.24842 5.22805C8.44625 5.16211 8.51297 5.13912 8.57402 5.11003C8.65213 5.07281 8.72595 5.02718 8.79417 4.97397C8.8475 4.93238 8.89789 4.88297 9.04535 4.73552L10.6628 3.1181Z" fill=""/>
<path fill-rule="evenodd" clip-rule="evenodd" d="M6.49967 0.677246L6.46859 0.677246C5.21821 0.677239 4.23832 0.677234 3.47376 0.780026C2.6912 0.885239 2.07369 1.1048 1.589 1.58949C1.10431 2.07418 0.88475 2.69169 0.779537 3.47425C0.676745 4.23881 0.676751 5.2187 0.676758 6.46908V6.53124C0.676751 7.78162 0.676745 8.76152 0.779537 9.52607C0.88475 10.3086 1.10431 10.9262 1.589 11.4108C2.07369 11.8955 2.6912 12.1151 3.47376 12.2203C4.23832 12.3231 5.21822 12.3231 6.4686 12.3231H6.53075C7.78113 12.3231 8.76103 12.3231 9.52558 12.2203C10.3081 12.1151 10.9257 11.8955 11.4104 11.4108C11.895 10.9262 12.1146 10.3086 12.2198 9.52607C12.3226 8.76152 12.3226 7.78162 12.3226 6.53124V6.50016C12.3226 6.2758 12.1407 6.09391 11.9163 6.09391C11.692 6.09391 11.5101 6.2758 11.5101 6.50016C11.5101 7.78837 11.5092 8.71365 11.4146 9.41781C11.4108 9.44559 11.407 9.47292 11.4029 9.49983L9.90036 8.1475C9.19651 7.51404 8.14832 7.45095 7.37358 7.99543L7.21205 8.10895C6.94286 8.29814 6.57662 8.26641 6.34397 8.03376L4.02037 5.71016C3.40535 5.09514 2.41883 5.06229 1.76427 5.63503L1.48979 5.8752C1.49225 4.90439 1.50618 4.16722 1.58479 3.58252C1.67789 2.89005 1.85496 2.47257 2.16352 2.16401C2.47209 1.85545 2.88956 1.67838 3.58203 1.58528C4.28618 1.49061 5.21147 1.48975 6.49967 1.48975C6.72404 1.48975 6.90592 1.30786 6.90592 1.0835C6.90592 0.859131 6.72404 0.677246 6.49967 0.677246ZM1.58479 9.41781C1.67789 10.1103 1.85496 10.5278 2.16352 10.8363C2.47209 11.1449 2.88956 11.3219 3.58203 11.415C4.28618 11.5097 5.21147 11.5106 6.49967 11.5106C7.78788 11.5106 8.71317 11.5097 9.41732 11.415C10.1098 11.3219 10.5273 11.1449 10.8358 10.8363C10.9677 10.7044 11.0756 10.5526 11.1632 10.3679C11.1421 10.355 11.1219 10.34 11.1029 10.3229L9.35683 8.75143C8.93452 8.37135 8.3056 8.3335 7.84076 8.66019L7.67923 8.7737C7.087 9.18991 6.28129 9.12013 5.76944 8.60828L3.44584 6.28468C3.13329 5.97213 2.63195 5.95544 2.2993 6.2465L1.48946 6.9551C1.49086 8.01055 1.50165 8.79944 1.58479 9.41781Z" fill=""/>
</g>
<defs>
<clipPath id="clip0_40202_7747">
<rect width="13" height="13" fill=""/>
</clipPath>
</defs>
</svg>
