<svg width="" height="" viewBox="0 0 25 25" fill="none" xmlns="http://www.w3.org/2000/svg">
<g clip-path="url(#clip0_15952_42612)">
<path d="M12.0898 21.0371C17.0604 21.0371 21.0898 17.0077 21.0898 12.0371C21.0898 7.06655 17.0604 3.03711 12.0898 3.03711C7.11928 3.03711 3.08984 7.06655 3.08984 12.0371C3.08984 17.0077 7.11928 21.0371 12.0898 21.0371Z" stroke="#7E7E7E" stroke-width="1.5" stroke-linecap="round" stroke-linejoin="round"/>
<path d="M8.33984 12.0372C8.33984 15.5491 9.58953 18.686 11.5536 20.8019C11.6218 20.8761 11.7047 20.9354 11.797 20.9759C11.8893 21.0164 11.989 21.0373 12.0898 21.0373C12.1907 21.0373 12.2904 21.0164 12.3827 20.9759C12.475 20.9354 12.5579 20.8761 12.6261 20.8019C14.5902 18.686 15.8398 15.5491 15.8398 12.0372C15.8398 8.52535 14.5902 5.38848 12.6261 3.27254C12.5579 3.19833 12.475 3.13908 12.3827 3.09856C12.2904 3.05803 12.1907 3.03711 12.0898 3.03711C11.989 3.03711 11.8893 3.05803 11.797 3.09856C11.7047 3.13908 11.6218 3.19833 11.5536 3.27254C9.58953 5.38848 8.33984 8.52535 8.33984 12.0372Z" stroke="#7E7E7E" stroke-width="1.5" stroke-linecap="round" stroke-linejoin="round"/>
<path d="M3.60156 9.03711H20.5778" stroke="#7E7E7E" stroke-width="1.5" stroke-linecap="round" stroke-linejoin="round"/>
<path d="M3.60156 15.0371H20.5778" stroke="#7E7E7E" stroke-width="1.5" stroke-linecap="round" stroke-linejoin="round"/>
</g>
<defs>
<clipPath id="clip0_15952_42612">
<rect width="24" height="24" fill="white" transform="translate(0.0898438 0.0371094)"/>
</clipPath>
</defs>
</svg>
