<svg viewBox="0 0 102 74" fill="none" xmlns="http://www.w3.org/2000/svg">
<path d="M28.0353 0.210068C26.0479 -0.453789 23.208 0.526543 20.9135 2.15653C19.8511 2.91568 18.9107 3.81027 18.2231 4.74223C16.9263 2.94544 15.2514 1.53195 13.9201 1.06574C10.2895 -0.205593 8.29237 2.25927 7.53751 3.73211C4.74575 9.1792 12.1702 18.9072 15.3839 20.0326C17.9924 20.9044 26.7889 14.8949 29.9784 8.4428C31.2883 5.79787 31.755 1.44727 28.0353 0.210068Z" fill=""/>
<path d="M98.1982 65.6199C98.7191 65.8891 98.8802 66.1584 98.7526 66.6968C98.466 68.2224 94.125 73.6965 87.648 73.6965C81.9806 73.6965 78.8968 70.1967 80.152 63.8251L84.0179 43.2747C85.1266 37.7108 83.7354 35.7365 80.9341 35.916C76.9634 36.0955 71.8023 43.0055 70.1078 51.8L66.2733 71.9017C66.1519 72.3504 65.7921 72.3504 65.6959 72.4402C63.6854 72.8889 61.4239 73.0683 59.0849 73.0683C56.746 73.0683 54.6058 72.7991 52.6518 72.4402C52.5681 72.3504 52.3045 72.2607 52.3234 71.9915L57.8398 43.2747C58.9486 37.7108 57.4674 35.7365 54.756 35.916C50.7853 36.0955 45.643 42.7363 43.936 51.7102L40.0052 71.9017C39.8839 72.3504 39.5241 72.3504 39.4278 72.4402C37.5073 72.8889 35.2458 73.0683 32.9069 73.0683C30.5679 73.0683 28.2478 72.7991 26.2039 72.4402C26.1202 72.3504 25.8566 72.2607 25.8754 71.9915C26.8 67.7737 30.4903 49.736 31.9358 41.9286C33.0571 36.1852 31.3269 35.1981 29.057 34.211C28.6261 33.9418 28.465 33.6725 28.5026 33.1341C28.7892 31.6085 33.1302 26.1344 39.6072 26.1344C44.7349 26.1344 47.0279 29.365 46.8815 34.0315C46.8062 35.1084 46.6472 36.0955 46.4756 37.2621H46.7455C51.3208 29.724 57.053 26.2241 62.5468 26.1344C69.0301 26.0446 73.0846 29.8137 72.66 37.1724H72.9299C77.3001 29.9932 83.1349 26.3139 88.8148 26.1344C96.0178 26.0446 100.369 30.7111 98.6373 40.0441C97.6687 44.89 96.4449 50.8128 95.0621 57.7228C93.922 63.7354 95.9283 64.6328 98.1982 65.6199Z" fill=""/>
<path d="M8.38054 73.6996C2.71312 73.6996 -0.370626 70.1997 0.794587 63.8282L7.8089 27.8425C7.82145 27.663 7.92396 27.4835 8.20011 27.3938C10.1144 27.0348 12.5621 26.7656 14.7211 26.7656C17.06 26.7656 19.4764 26.9451 21.3341 27.3938C21.4178 27.4835 21.6814 27.5733 21.5726 27.8425L15.7947 57.7259C14.6546 63.7385 16.6609 64.6359 18.9308 65.623C19.4517 65.8922 19.6128 66.1614 19.4852 66.6999C19.1986 68.2254 14.8576 73.6996 8.38054 73.6996Z" fill=""/>
</svg>
