<svg width="" height="" viewBox="0 0 25 25" fill="none" xmlns="http://www.w3.org/2000/svg">
<g clip-path="url(#clip0_15952_42621)">
<path d="M12.0898 15.7871C14.1609 15.7871 15.8398 14.1082 15.8398 12.0371C15.8398 9.96604 14.1609 8.28711 12.0898 8.28711C10.0188 8.28711 8.33984 9.96604 8.33984 12.0371C8.33984 14.1082 10.0188 15.7871 12.0898 15.7871Z" stroke="#7E7E7E" stroke-width="1.5" stroke-miterlimit="10"/>
<path d="M16.5898 3.03711H7.58984C5.10456 3.03711 3.08984 5.05183 3.08984 7.53711V16.5371C3.08984 19.0224 5.10456 21.0371 7.58984 21.0371H16.5898C19.0751 21.0371 21.0898 19.0224 21.0898 16.5371V7.53711C21.0898 5.05183 19.0751 3.03711 16.5898 3.03711Z" stroke="#7E7E7E" stroke-width="1.5" stroke-linecap="round" stroke-linejoin="round"/>
<path d="M16.9648 8.28711C17.5862 8.28711 18.0898 7.78343 18.0898 7.16211C18.0898 6.54079 17.5862 6.03711 16.9648 6.03711C16.3435 6.03711 15.8398 6.54079 15.8398 7.16211C15.8398 7.78343 16.3435 8.28711 16.9648 8.28711Z" fill="#7E7E7E"/>
</g>
<defs>
<clipPath id="clip0_15952_42621">
<rect width="24" height="24" fill="white" transform="translate(0.0898438 0.0371094)"/>
</clipPath>
</defs>
</svg>
