<?xml version="1.0" encoding="UTF-8"?>
<svg width="121px" height="121px" viewBox="0 0 121 121" version="1.1" xmlns="http://www.w3.org/2000/svg" xmlns:xlink="http://www.w3.org/1999/xlink">
    <title>Frame</title>
    <defs>
        <path d="M0,0 L120,0 L120,121 L0,121 L0,0 Z" id="path-1"></path>
    </defs>
    <g id="Frame" stroke="none" fill="none" transform="translate(0.4137, 0)" xlink:href="#path-1" fill-rule="evenodd" stroke-width="1">
        <g id="Group-Copy">
            <g id="Group" transform="translate(17.2182, 0)" fill="#A0C6F0" fill-rule="nonzero">
                <g id="Vector">
                    <path d="M8.55535626,35.3814397 C10.2103162,36.9029352 20.3269271,44.3769498 29.0421604,47.2864761 L55.4614628,47.2864761 C66.3054546,44.1433869 74.393401,37.0097068 76.1618058,35.3814397 C87.7198326,24.7509909 85.5777288,18.785131 81.2601519,14.8212348 C76.9425751,10.8506655 70.4628745,8.88206288 58.898174,19.5125117 C56.9696118,21.2875898 55.2212283,23.33627 53.6530202,25.5184149 C54.2202444,22.9558961 54.5605773,20.3666853 54.5605773,17.8575526 C54.5605773,2.8227747 48.4612473,0 42.3552457,0 C36.2559173,0 30.1499183,2.8227747 30.1499183,17.8575526 C30.1499183,20.3666853 30.4902512,22.9558961 31.0574753,25.5184149 C29.4892673,23.33627 27.7408838,21.2875898 25.8123215,19.5125117 C14.2542947,8.88206288 7.76791821,10.8506655 3.45701448,14.8212348 C-0.860562387,18.785131 -3.00267055,24.7509909 8.55535626,35.3814397 Z M58.3376214,28.4546343 C67.5333267,19.9996574 71.2836827,20.2665871 73.3056701,22.128417 C75.3276574,23.990247 75.6279528,27.4403062 66.4322475,35.895283 C61.867761,40.0927421 56.2822728,43.3959904 51.8112115,45.6648872 C51.3707786,45.1777417 50.7568403,44.817381 50.0828444,44.6905897 C49.4355415,44.5637984 48.7014851,44.6105175 48.1876467,44.2301436 C47.7805799,43.9298485 47.6204193,43.4426981 47.3334705,43.0489778 C47.2800847,42.9755723 47.2266989,42.9088417 47.1666399,42.8421094 C49.6290603,38.5979379 53.4194543,32.9790815 58.3376214,28.4546343 Z M42.3619173,10.3434999 C45.2247313,10.3434999 48.0875483,12.5923768 48.0875483,24.5507972 C48.0875483,30.8903617 46.4793042,37.276639 44.9711551,41.8744917 C44.6441671,41.8477988 44.3105009,41.8611436 43.9901861,41.9145294 C42.748966,42.1213994 41.6679067,42.8087465 40.7403284,43.5961872 C40.6869426,43.6428998 40.6335584,43.6829375 40.5668261,43.7029572 C40.5067671,43.7229768 40.4400316,43.7163052 40.3799725,43.6962856 C38.7250126,39.0583937 36.6362945,31.7779009 36.6362945,24.5507972 C36.6362945,12.5857032 39.4991034,10.3434999 42.3619173,10.3434999 Z M11.4115001,22.1350907 C13.4334875,20.2732607 17.1838404,19.9996594 26.3795457,28.4613099 C31.4178312,33.0992018 35.281628,38.8848884 37.7440484,43.1690991 C37.1434581,43.2224849 36.5495393,43.3893123 36.0156813,43.6495681 C34.9679848,44.1700797 34.1605262,45.0509438 33.6733807,46.058601 C29.0822011,43.7897042 23.1096661,40.3463213 18.2849237,35.9086262 C9.08921839,27.4403026 9.38283954,23.9969206 11.4115001,22.1350907 Z"></path>
                </g>
            </g>
            <g id="Group" transform="translate(45.3862, 21.9096)" fill="#74A8E6" fill-rule="nonzero">
                <g transform="translate(4.7356, 19.4184)" id="Vector">
                    <g transform="translate(4.5335, 1.2839)">
                        <path d="M2.74936587,0.998661556 C2.8094249,1.03202769 2.86948719,1.06539306 2.93621945,1.08541274 C2.87616042,0.911908876 2.8094249,0.731731711 2.74936587,0.551554611 C2.69598006,0.531534933 2.64259914,0.504839619 2.59588656,0.478146715 C1.81511912,0.0710799459 0.894212263,-0.0690545523 0,0.0310438351 C0.106771618,0.211220936 0.206868378,0.384722343 0.306966768,0.558226208 C1.14779327,0.478147495 2.015311,0.611614445 2.74936587,0.998661556 Z"></path>
                    </g>
                    <g transform="translate(18.9076, 4.1507)">
                        <path d="M0.38037062,0 C0.253579328,0.0667322567 0.126791291,0.126788844 0,0.193521101 C0.420413246,0.653973678 0.687337383,1.22119948 0.720703513,1.82178979 C0.734049965,2.06869915 0.700687092,2.31560686 0.64062806,2.56251621 C0.653974512,2.55584299 0.667319334,2.55584217 0.680665786,2.54916895 C0.834149979,2.17546832 0.914231952,1.78174882 0.9008855,1.39470172 C0.867519371,0.894209796 0.680665786,0.413739979 0.38037062,0 Z"></path>
                    </g>
                    <g transform="translate(12.0609, 0)">
                        <path d="M2.19549295,1.52149475 C2.26222521,1.4080499 2.32895747,1.29460669 2.39568973,1.18116184 C1.901871,0.500492788 1.06772104,0.10677162 0.180181987,0 C0.120122955,0.186850329 0.0600590315,0.367028249 0,0.547205358 C0.847499676,0.607264392 1.6683081,0.934250833 2.19549295,1.52149475 Z"></path>
                    </g>
                    <g transform="translate(0, 4.5121)">
                        <path d="M0.496176254,0.887538266 C0.569581739,0.66064857 0.663005267,0.433758889 0.769776881,0.220215649 C0.622965911,0.146810159 0.47615658,0.0734054894 0.329345611,0 C0.269286581,0.146810979 0.209227547,0.300294366 0.162514967,0.453778565 C-0.037681805,1.07438861 -0.057701479,1.78175386 0.129148839,2.40903709 C0.21590077,2.43572999 0.302650267,2.45574804 0.389402199,2.48244095 C0.289303813,1.95525607 0.329345611,1.38803023 0.496176254,0.887538266 Z"></path>
                    </g>
                </g>
                <g id="Vector">
                    <path d="M9.48265266,20.7136902 C7.04025201,16.0691252 4.29088599,9.90306759 2.89618176,3.61688916 C1.98862298,2.35564952 1.02767679,1.14112162 0,0 C0.72738162,4.74466339 2.58921168,9.5694058 4.73799053,13.8803095 C6.53976158,16.2893439 8.05458307,18.6650132 9.26243702,20.7337132 C9.34251573,20.7203667 9.40924718,20.7203634 9.48265266,20.7136902 Z"></path>
                </g>
                <g transform="translate(19.0521, 0)" id="Vector">
                    <path d="M6.43299141,3.6168894 C5.07165335,9.77627735 2.40236133,15.8222201 0,20.4334193 C0.0467125806,20.4868051 0.100096758,20.5401909 0.140136115,20.60025 C0.133462889,20.6135964 0.120114808,20.6269396 0.113441582,20.6469593 C1.31462225,18.5982788 2.81610457,16.2559788 4.59118269,13.8803104 C6.73996148,9.57607954 8.60179149,4.7446637 9.32917309,0 C8.30149632,1.1411217 7.34055016,2.35564968 6.43299141,3.6168894 Z"></path>
                </g>
            </g>
            <g id="Group" transform="translate(0, 47.2868)" fill-rule="nonzero">
                <g transform="translate(0, 0.0006)" fill="#3272B8" id="Vector">
                    <path d="M3.4983564,0 C1.64319965,0 0.135050502,1.49480349 0.128377276,3.34996026 C0.0616450169,16.7097585 -0.0117610794,63.3489345 0.00158537254,69.6017471 C0.00158537254,69.6150935 0.00158537254,69.6284383 0.00158537254,69.6417848 C0.00825859853,71.5036148 1.54310101,72.9984207 3.41160426,72.9984207 L115.762035,72.9984207 C117.623865,72.9984207 119.158705,71.5036148 119.172516,69.6417848 C119.172516,69.6284383 119.172516,69.6150935 119.172516,69.6017471 C119.178725,63.3556076 119.111999,16.7097585 119.045267,3.34996026 C119.038594,1.49480349 117.530444,0 115.675288,0 L3.4983564,0 Z"></path>
                </g>
                <g transform="translate(0.0016, 0)" fill="#315AA6" id="Vector">
                    <g transform="translate(0, 55.6673)">
                        <path d="M24.0436348,3.22426737 C28.4346178,3.36440511 32.1649513,5.94694342 36.5626074,5.92692374 C41.9612474,5.90690407 46.7993328,1.97637414 51.9243706,3.15753512 C53.0654923,3.42446414 54.0664778,3.91828447 55.0541153,4.41877639 L55.0541153,1.56263257 C54.0064188,1.04212096 52.9653923,0.501591316 51.7642116,0.221315853 C46.6391737,-0.959845129 41.8010884,2.9706848 36.4024484,2.99070448 C32.0047923,3.01072416 28.2811319,0.42818584 23.8834758,0.288048109 C18.5916073,0.121217469 14.0071022,3.51121443 8.72190732,3.23093897 C5.62553031,3.06410833 2.92954661,1.65606101 0.0066736334,0.948699073 C0.0066736334,1.92966322 0.0066732262,2.90395419 0,3.85155221 C2.98293212,4.54556765 5.71895482,6.0003276 8.87539071,6.16715824 C14.1672592,6.4474337 18.7517663,3.05076351 24.0436348,3.22426737 Z"></path>
                    </g>
                    <g transform="translate(0.0267, 40.7603)">
                        <path d="M8.85537067,6.16715824 C14.1405654,6.4474337 18.7250735,3.05076351 24.0169419,3.22426737 C28.4079248,3.36440511 32.1382562,5.94694342 36.5359122,5.92692374 C41.9345521,5.90690407 46.7726415,1.97637414 51.8976792,3.15753512 C53.0388009,3.42446414 54.0397864,3.91828447 55.0274239,4.41877639 L55.0274239,1.56263257 C53.9797274,1.04212096 52.9387009,0.501591316 51.7375202,0.221315853 C46.6124824,-0.959845129 41.7743972,2.9706848 36.3757573,2.99070448 C31.9781012,3.01072416 28.2544389,0.42818584 23.8567829,0.288048109 C18.5649145,0.121217469 13.9804084,3.51121443 8.69521365,3.23093897 C5.60551008,3.06410833 2.91619904,1.66273261 0.00667261503,0.955370669 C0.00667261503,1.67607905 0.00667322608,2.6703897 0,3.85822381 C2.97625868,4.54556606 5.70560796,6.0003276 8.85537067,6.16715824 Z"></path>
                    </g>
                    <g transform="translate(0, 63.1222)">
                        <path d="M24.0436348,3.2242676 C28.4346178,3.36440534 32.1649513,5.94694384 36.5626074,5.92692416 C41.9612474,5.90690448 46.7993328,1.97637428 51.9243706,3.15753534 C53.0654923,3.42446439 54.0664778,3.91828474 55.0541153,4.4187767 L55.0541153,1.56264083 C54.0064188,1.04212918 52.9653923,0.501591351 51.7642116,0.221315869 C46.6391737,-0.959845197 41.8010884,2.97068501 36.4024484,2.99070469 C32.0047923,3.01072437 28.2811319,0.428185871 23.8834758,0.28804813 C18.5916073,0.121217478 14.0071022,3.51122283 8.72190732,3.23094735 C5.61885719,3.06411669 2.92287298,1.64938788 0,0.94869914 C0,2.02976182 0,3.01072597 0,3.85155248 C2.98960524,4.53889478 5.72562845,6.00700776 8.88206434,6.17383842 C14.1672592,6.44744068 18.7517663,3.05076373 24.0436348,3.2242676 Z"></path>
                    </g>
                    <g transform="translate(0.0133, 48.213)">
                        <path d="M8.86871698,6.16715824 C14.1539118,6.4474337 18.7384189,3.05076351 24.0302873,3.22426737 C28.4212702,3.36440511 32.1515996,5.94694342 36.5492557,5.92692374 C41.9478956,5.90690407 46.7859891,1.97637414 51.9110269,3.15753512 C53.0521485,3.42446414 54.053134,3.91827632 55.0407715,4.41876824 L55.0407715,1.56263257 C53.993075,1.04212096 52.9520485,0.501591316 51.7508678,0.221315853 C46.62583,-0.959845129 41.7877447,2.9706848 36.3891048,2.99070448 C31.9914487,3.01072416 28.2677843,0.42818584 23.8701283,0.288048109 C18.5782598,0.121217469 13.9937548,3.51121443 8.70855996,3.23093897 C5.61218298,3.06410833 2.92287244,1.65605936 0.00667261507,0.955370669 C0.00667261507,1.88962225 0.00667322612,2.86391322 0,3.85822381 C2.98293208,4.54556606 5.71228112,6.0003276 8.86871698,6.16715824 Z"></path>
                    </g>
                    <g transform="translate(40.1995, 70.5748)">
                        <path d="M14.8546028,1.56397217 C13.8069064,1.04346053 12.7658799,0.502930824 11.5646993,0.222655346 C7.66753539,-0.67823016 3.93720315,1.37712348 0,2.42481995 L14.8546028,2.42481995 L14.8546028,1.56397217 Z"></path>
                    </g>
                    <g transform="translate(14.2807, 70.8585)">
                        <path d="M9.60277226,0.00602992009 C6.23279297,-0.100741697 3.156436,1.23390181 0,2.14813375 L18.251276,2.14813375 C15.3951352,1.38071277 12.6591099,0.10612831 9.60277226,0.00602992009 Z"></path>
                    </g>
                    <g transform="translate(0.7341, 71.7102)">
                        <path d="M2.66929042,1.28793585 L3.98391676,1.28793585 C2.64927155,0.874195861 1.34131846,0.380373862 0,0 C0.620610034,0.787440666 1.58822775,1.28793585 2.66929042,1.28793585 Z"></path>
                    </g>
                    <g transform="translate(0.1068, 3.4822)">
                        <path d="M8.77529178,6.16715824 C14.0604863,6.4474337 18.6449932,3.05076351 23.9368613,3.22426737 C28.3278441,3.36440511 32.0581753,5.94694342 36.4558311,5.92692374 C41.8544708,5.90690407 46.6925599,1.97637414 51.8175974,3.15753512 C52.9587191,3.42446414 53.9597045,3.91828447 54.9473419,4.41877639 L54.9473419,1.56263257 C53.8996455,1.04212096 52.858619,0.501591316 51.6574384,0.221315853 C46.5324009,-0.959845129 41.6943158,2.9706848 36.2956761,2.99070448 C31.8980203,3.01072416 28.1743581,0.42818584 23.7767023,0.288048109 C18.4848341,0.121217469 13.9003293,3.51121443 8.61513477,3.23093897 C5.55879745,3.07078155 2.88950642,1.68942466 0.0133462477,0.975389532 C0.0133462477,1.78284985 0.00667322578,2.7638156 0,3.87157107 C2.9495658,4.57893301 5.65222221,6.00700081 8.77529178,6.16715824 Z"></path>
                    </g>
                    <g transform="translate(0.0734, 18.3924)">
                        <path d="M36.3290429,2.98873097 C31.931387,3.00875065 28.2077248,0.426212165 23.8100689,0.286074428 C18.5182006,0.119243781 13.9336957,3.50924095 8.64850106,3.22896547 C5.57214406,3.06880805 2.90285374,1.67410218 0.00667363311,0.966740209 C0.00667363311,1.9477044 0,2.92199706 0,3.86292193 C2.95623898,4.56361065 5.67891506,5.99835396 8.80865807,6.16518461 C14.0938527,6.44546008 18.6783597,3.04879001 23.9702279,3.22229388 C28.3612107,3.36243161 32.091542,5.94496978 36.4891979,5.9249501 C41.8878377,5.90493043 46.7259269,1.97440059 51.8509645,3.15556162 C52.9920862,3.42249065 53.9930716,3.91631074 54.9807091,4.41680268 L54.9807091,1.56065888 C53.9330126,1.04014725 52.8919861,0.499617643 51.6908055,0.219342169 C46.5657679,-0.955145611 41.7276827,2.96871129 36.3290429,2.98873097 Z"></path>
                    </g>
                    <g transform="translate(0.0534, 25.8501)">
                        <path d="M8.82867867,6.16716634 C14.1138737,6.4474418 18.69838,3.0507635 23.9902487,3.22426735 C28.3812319,3.36440508 32.1115635,5.94694338 36.5092198,5.92692371 C41.90786,5.90690403 46.7459496,1.97637412 51.8709876,3.1575351 C53.0121094,3.42446412 54.0130949,3.91828444 55.0007324,4.41877636 L55.0007324,1.56264071 C53.9530359,1.0421291 52.9120093,0.501591312 51.7108286,0.221315852 C46.5857905,-0.959845123 41.747705,2.97068478 36.3490648,2.99070446 C31.9514085,3.01072414 28.2277459,0.428185838 23.8300897,0.288048107 C18.538221,0.121217468 13.9537167,3.51122256 8.66852164,3.2309471 C5.5921644,3.06411646 2.9095271,1.66941234 0.00667363366,0.962050406 C0.00667363366,2.04978612 0,3.03074384 0,3.85822378 C2.96958573,4.55223921 5.69226228,6.0003357 8.82867867,6.16716634 Z"></path>
                    </g>
                    <g transform="translate(1.8885, 0)">
                        <path d="M0,0.407065134 C2.28891643,1.1344467 4.51110086,2.06870158 6.99354094,2.19549286 C10.5170042,2.38234318 13.7334986,0.934251588 17.0634384,0 L1.60824785,0 C1.02767721,0 0.480472252,0.146809328 0,0.407065134 Z"></path>
                    </g>
                    <g transform="translate(54.1332, 0)">
                        <path d="M0.920908451,0.453778565 L0.920908451,0 L0,0 C0.306968391,0.146810979 0.61394006,0.300294366 0.920908451,0.453778565 Z"></path>
                    </g>
                    <g transform="translate(0.0868, 10.9367)">
                        <path d="M36.3156954,2.99070446 C31.9180395,3.01072414 28.1943773,0.428185838 23.7967214,0.288048107 C18.5048532,0.121217468 13.9203493,3.51122256 8.63515474,3.2309471 C5.56547089,3.07078968 2.89618034,1.68275712 0.00667363306,0.968722002 C0.00667363306,1.90964683 0,2.88393938 0,3.86490352 C2.94956584,4.56559221 5.66556852,6.0003357 8.78863812,6.16716634 C14.0738327,6.4474418 18.6583366,3.0507635 23.9502048,3.22426735 C28.3411876,3.36440508 32.0715229,5.94694338 36.4691788,5.92692371 C41.8678185,5.90690403 46.7059077,1.97637412 51.8309453,3.1575351 C52.9720669,3.42446412 53.9730483,3.91828444 54.9606857,4.41877636 L54.9606857,1.56264071 C53.9129893,1.0421291 52.8719669,0.501591312 51.6707862,0.221315852 C46.5524223,-0.959845123 41.7143351,2.97068478 36.3156954,2.99070446 Z"></path>
                    </g>
                    <g transform="translate(28.1877, 0)">
                        <path d="M8.37489835,1.95525436 C11.2043462,1.9419079 13.8869838,0.85417292 16.5295811,0 L0,0 C2.76271557,0.807460352 5.41198601,1.96860081 8.37489835,1.95525436 Z"></path>
                    </g>
                    <g transform="translate(75.6677, 0)">
                        <path d="M10.0698916,2.3956897 C12.4255404,2.05535519 14.4675492,0.720708402 16.6029816,0 L0,0 C3.33661303,1.13444839 6.5330818,2.90285486 10.0698916,2.3956897 Z"></path>
                    </g>
                    <g transform="translate(64.0963, 0)">
                        <path d="M0,0.974289358 C0.880865843,0.660647751 1.76840659,0.313641606 2.66261888,0 L0,0 L0,0.974289358 Z"></path>
                    </g>
                    <g transform="translate(64.0963, 10.8805)">
                        <path d="M37.0897841,3.12605129 C35.0744699,2.52546097 33.693117,1.05067641 31.564358,0.696995432 C27.9674892,0.103078368 25.0980039,2.95921574 21.4811155,3.47972736 C16.229287,4.24047507 11.7448723,-0.0370594134 6.39294543,0.229869615 C4.13072178,0.343314456 2.06202675,1.2642179 0,2.00494598 L0,5.00122609 C2.12208575,4.24715157 4.23749507,3.28620545 6.55310447,3.17276061 C11.8983582,2.90583158 16.3894379,7.18337413 21.6412664,6.42262642 C25.2581548,5.89544158 28.1276483,3.04596935 31.7245171,3.63988641 C33.8532761,3.99356738 35.2346289,5.46835189 37.2499431,6.0689422 C42.628563,7.67051637 47.8737204,2.4186845 53.659407,2.97923543 C54.1065131,3.02594801 54.5402712,3.09935512 54.9673576,3.20612674 C54.9673576,2.21181613 54.960686,1.24419831 54.960686,0.303273453 C54.486887,0.183155393 54.0064115,0.0897286121 53.5059196,0.0430160329 C47.720233,-0.524208153 42.468404,4.73429871 37.0897841,3.12605129 Z"></path>
                    </g>
                    <g transform="translate(64.0963, 3.4207)">
                        <path d="M0,5.00789288 C2.12208572,4.25381832 4.237495,3.29287622 6.55310436,3.17943137 C11.898358,2.91250233 16.3894376,7.19003698 21.641266,6.42928923 C25.2581544,5.90210436 28.1276478,3.0526401 31.7245165,3.6465572 C33.8532755,4.0002382 35.2346283,5.47501871 37.2499425,6.07560906 C42.6285623,7.67718333 47.8737196,2.42535522 53.6594061,2.98590619 C54.099839,3.02594554 54.5269287,3.10602344 54.9473419,3.20612183 C54.9406687,2.05165377 54.9406638,1.06401629 54.9339906,0.303268539 C54.4668648,0.183150472 53.9930658,0.09640097 53.4992471,0.0430151603 C47.7135606,-0.524209059 42.4684033,4.73429224 37.0897835,3.13271798 C35.0744693,2.53212763 33.6931165,1.0573431 31.5643575,0.703662105 C27.9674887,0.109745007 25.0980035,2.9658865 21.4811151,3.48639814 C16.2292867,4.2471459 11.7448721,-0.0303927667 6.39294532,0.236536278 C4.13072171,0.349981125 2.06202671,1.27088868 0,2.0116168 L0,5.00789288 Z"></path>
                    </g>
                    <g transform="translate(64.0963, 25.7907)">
                        <path d="M37.0897848,3.13272203 C35.0744705,2.53213168 33.6931177,1.0573471 31.5643586,0.703666111 C27.9674897,0.109749016 25.0980044,2.96588648 21.4811159,3.48639812 C16.2292873,4.24714587 11.7448725,-0.0303887253 6.39294555,0.236540317 C4.13072186,0.349985164 2.06202678,1.27088867 0,2.01161679 L0,5.00789693 C2.12208579,4.25382237 4.23749515,3.2928762 6.5531046,3.17943135 C11.8983585,2.91250231 16.3894382,7.19004508 21.6412668,6.42929734 C25.2581553,5.90211247 28.1276488,3.05264008 31.7245177,3.64655718 C33.8532767,4.00023817 35.2346296,5.47502275 37.2499438,6.0756131 C42.6285638,7.67718735 47.8737213,2.4253552 53.659408,2.98590617 C54.1198606,3.03261875 54.5669651,3.11269746 55.0007248,3.21946908 C55.0007248,2.36529613 54.9940532,1.38433194 54.9940532,0.316615772 C54.5135809,0.189824478 54.0130873,0.0964009416 53.499249,0.0430151322 C47.7202354,-0.524209084 42.4684048,4.73429629 37.0897848,3.13272203 Z"></path>
                    </g>
                    <g transform="translate(64.0963, 18.3351)">
                        <path d="M37.0897842,3.1327139 C35.0744699,2.53212355 33.6931171,1.05734718 31.5643581,0.703666178 C27.9674893,0.10974908 25.098004,2.9658865 21.4811155,3.48639814 C16.229287,4.2471459 11.7448723,-0.0303886619 6.39294544,0.236540383 C4.13072179,0.34998523 2.06202675,1.27088881 0,2.01161693 L0,5.00789696 C2.12208576,4.25382239 4.23749508,3.29287622 6.55310449,3.17943137 C11.8983583,2.91250233 16.3894379,7.19003698 21.6412664,6.42928923 C25.2581549,5.90210436 28.1276483,3.0526401 31.7245171,3.6465572 C33.8532761,4.0002382 35.234629,5.47502278 37.2499432,6.07561313 C42.6285631,7.6771874 47.8737205,2.42535522 53.6594071,2.98590619 C54.1131865,3.03261877 54.5536226,3.11269911 54.9807091,3.2127975 C54.9807091,2.26519941 54.9740293,1.29090847 54.9740293,0.309944241 C54.4935571,0.183152946 54.0064132,0.0897277741 53.4992481,0.0430151922 C47.7202346,-0.524209027 42.4684041,4.73428817 37.0897842,3.1327139 Z"></path>
                    </g>
                    <g transform="translate(97.1688, 0)">
                        <path d="M4.17743771,2.04200551 C7.6274955,3.06968227 11.0308422,1.26791293 14.5476322,0 L0,0 C1.43474354,0.587243895 2.62257616,1.57487969 4.17743771,2.04200551 Z"></path>
                    </g>
                    <g transform="translate(64.103, 63.0657)">
                        <path d="M53.6527378,2.97923457 C54.1332101,3.02594715 54.6003359,3.11270398 55.0541153,3.22614882 C55.0541153,2.36530269 55.0541153,1.39101003 55.0541153,0.329967112 C54.5536233,0.19650259 54.0331084,0.0964009416 53.4992504,0.0430151322 C47.7135635,-0.524209084 42.468414,4.73429629 37.0897939,3.13272203 C35.0744796,2.53213168 33.6931185,1.0573471 31.5643594,0.703666111 C27.9674905,0.109749016 25.098005,2.96589462 21.4811164,3.48640627 C16.2292877,4.24715402 11.744881,-0.0303887253 6.39295386,0.236540317 C4.13073011,0.349985164 2.06202684,1.27088867 0,2.01161679 L0,5.00789693 C2.12208585,4.25382237 4.23749526,3.2928762 6.55310477,3.17943135 C11.8983588,2.91250231 16.3894468,7.19004508 21.6412755,6.42929734 C25.2581641,5.90211247 28.1276495,3.05264008 31.7245185,3.64655718 C33.8532776,4.00023817 35.2346305,5.47502275 37.2499448,6.0756131 C42.6218918,7.6705141 47.867051,2.41201036 53.6527378,2.97923457 Z"></path>
                    </g>
                    <g transform="translate(107.8727, 70.5205)">
                        <path d="M11.0708838,0.277029515 C10.6371241,0.170257896 10.190013,0.090179171 9.72288719,0.0434665889 C6.34623488,-0.290194718 3.14976278,1.37143702 0,2.48586583 L7.87440681,2.48586583 C9.33584331,2.47919261 10.5837382,1.56496211 11.0708838,0.277029515 Z"></path>
                    </g>
                    <g transform="translate(64.103, 70.7376)">
                        <path d="M6.392954,0.0118107304 C4.1307302,0.125255579 2.06202688,1.04616727 0,1.7868954 L0,2.26069283 L15.141552,2.26069283 C12.2987577,1.23301603 9.48933108,-0.141673469 6.392954,0.0118107304 Z"></path>
                    </g>
                    <g transform="translate(64.0963, 48.1515)">
                        <path d="M21.6412658,6.42262568 C25.2581541,5.89544082 28.1276475,3.04596846 31.7245162,3.63988555 C33.8532752,3.99356654 35.234628,5.46835111 37.2499422,6.06894145 C42.6285619,7.67051569 47.8737192,2.41868359 53.6594056,2.97923454 C54.1332046,3.02594713 54.5936539,3.11270395 55.04076,3.22614879 C55.04076,2.22516489 55.04076,1.25754715 55.0340884,0.323295512 C54.5402697,0.189830992 54.0264314,0.0897277131 53.4992466,0.0430151319 C47.7135601,-0.524209079 42.4684029,4.73429624 37.0897831,3.132722 C35.0744689,2.53213166 33.6931161,1.0573471 31.5643572,0.703666104 C27.9674885,0.109749015 25.0980032,2.9658946 21.4811149,3.48640624 C16.2292865,4.24715398 11.744872,-0.0303887251 6.39294526,0.236540315 C4.13072167,0.349985161 2.06202669,1.27088866 0,2.01161677 L0,5.00789688 C2.1220857,4.25382233 4.23749496,3.29287617 6.5531043,3.17943133 C11.905031,2.90582906 16.3894374,7.18337342 21.6412658,6.42262568 Z"></path>
                    </g>
                    <g transform="translate(88.8006, 71.1369)">
                        <path d="M6.86007917,0.0807874516 C4.3909857,-0.326279329 2.26222358,0.888252678 0,1.8625437 L10.8506632,1.8625437 C9.5627307,1.18854785 8.40826756,0.341043273 6.86007917,0.0807874516 Z"></path>
                    </g>
                    <g transform="translate(64.0963, 55.6041)">
                        <path d="M21.6412673,6.42261711 C25.2581559,5.89543228 28.1276495,3.04596826 31.7245185,3.6398853 C33.8532776,3.99356627 35.2346305,5.46834259 37.2499448,6.06893289 C42.6285649,7.67050703 47.8737226,2.41868342 53.6594094,2.97923434 C54.1398817,3.02594692 54.6003359,3.11269559 55.0541153,3.22614043 C55.0541153,2.27854242 55.0541153,1.30424996 55.0474437,0.329959004 C54.5469517,0.196494493 54.0331084,0.0964009939 53.4992504,0.0430151886 C47.7135635,-0.524208984 42.4684059,4.73428778 37.0897858,3.13271365 C35.0744714,2.53212334 33.6931185,1.05734709 31.5643594,0.703666121 C27.9674905,0.109749071 25.098005,2.96588625 21.4811164,3.48639786 C16.2292877,4.24714555 11.7448728,-0.0303886594 6.39294571,0.236540363 C4.13072196,0.349985201 2.06202684,1.2708887 0,2.01161677 L0,5.00789655 C2.12208585,4.25382204 4.23749526,3.29287595 6.55310477,3.17943111 C11.9050319,2.90582887 16.3894386,7.18336479 21.6412673,6.42261711 Z"></path>
                    </g>
                    <g transform="translate(64.0963, 40.6907)">
                        <path d="M21.6412656,6.42928923 C25.2581539,5.90210436 28.1276472,3.0526401 31.7245159,3.6465572 C33.8532748,4.0002382 35.2346276,5.47502278 37.2499417,6.07561313 C42.6285614,7.6771874 47.8737186,2.42535522 53.659405,2.98590619 C54.1265308,3.03261877 54.5869833,3.11936908 55.0274162,3.2261407 C55.0274162,1.92486161 55.0207446,0.917204533 55.0207446,0.323287434 C54.5269259,0.19649614 54.0264308,0.0964010018 53.4992459,0.0430151922 C47.7135596,-0.524209027 42.4684024,4.73428817 37.0897827,3.1327139 C35.0744685,2.53212355 33.6931158,1.05734718 31.5643568,0.703666178 C27.9674882,0.10974908 25.098003,2.9658865 21.4811147,3.48639814 C16.2292864,4.2471459 11.7448719,-0.0303886619 6.39294519,0.236540383 C4.13072162,0.34998523 2.06202667,1.27088881 0,2.01161693 L0,5.00789696 C2.12208567,4.25382239 4.23749491,3.29287622 6.55310423,3.17943137 C11.9050309,2.91250233 16.3894373,7.19003698 21.6412656,6.42928923 Z"></path>
                    </g>
                </g>
                <g transform="translate(0.0349, 0)" id="Vector">
                    <g transform="translate(0.0067, 0)" fill="#A0C6F0">
                        <path d="M64.0562977,32.5653428 L64.0562977,0 L55.0140765,0 L55.0140765,32.5653428 L0.0133462483,32.5653428 C0.00667302221,35.1612278 0,37.8038268 0,40.4330779 L55.0207481,40.4330779 L55.0207481,72.9984207 L64.0629693,72.9984207 L64.0629693,40.4330779 L119.083717,40.4330779 C119.077044,37.8038268 119.070374,35.1612278 119.070374,32.5653428 L64.0562977,32.5653428 Z"></path>
                    </g>
                    <g transform="translate(0, 0.0004)" fill="#74A8E6">
                        <g transform="translate(0, 32.5635)">
                            <g>
                                <path d="M0.00667363321,0 C0.00667363321,2.59588512 0,5.23848414 0,7.86773539 L1.68165374,7.86773539 C1.68165374,5.23848414 1.68832636,2.59588512 1.68832636,0 L0.00667363321,0 Z"></path>
                            </g>
                            <g transform="translate(117.3287, -0.0001)">
                                <path d="M1.74839015,0 L0,0 C0,2.59588512 0.00667159698,5.23848414 0.00667159698,7.86773539 L1.75506175,7.86773539 C1.75506175,5.23848414 1.74839015,2.59588512 1.74839015,0 Z"></path>
                            </g>
                        </g>
                        <g transform="translate(53.7729, 32.5645)">
                            <polygon points="0 0 1.24789405 0 1.24789405 7.86773539 0 7.86773539"></polygon>
                        </g>
                        <g transform="translate(64.063, 32.5645)">
                            <polygon points="0 0 1.39470589 0 1.39470589 7.86773539 0 7.86773539"></polygon>
                        </g>
                        <g transform="translate(55.0207, 70.8216)">
                            <polygon points="0 0 9.04222107 0 9.04222107 2.17546988 0 2.17546988"></polygon>
                        </g>
                        <g transform="translate(55.0207, 0)">
                            <polygon points="0 0 9.04222107 0 9.04222107 2.17546988 0 2.17546988"></polygon>
                        </g>
                    </g>
                </g>
            </g>
            <g id="Group" transform="translate(50.6113, 41.8759)" fill="#A0C6F0" fill-rule="nonzero">
                <path d="M19.1321392,5.41198475 C19.0654069,4.18411117 17.9910209,3.07635642 16.6830686,2.82277383 C16.0357657,2.69598254 15.3017092,2.74269348 14.7878708,2.3623196 C14.3808041,2.06202443 14.2206434,1.57487811 13.9336947,1.18115776 C13.3998366,0.44042964 12.4455637,0.046712582 11.4712727,0 C11.5913908,0.046712582 11.7048405,0.106771619 11.8182853,0.166830653 C12.3588167,0.473799048 12.7725583,0.880865039 13.0795267,1.38803022 C13.3197628,1.77507735 13.4599005,2.20883704 13.7134831,2.58921092 C14.3340931,3.51011614 15.2883644,3.05633512 16.0491121,3.5635003 C16.1358641,3.61688611 16.209263,3.69029323 16.2426292,3.79039162 C16.4494992,4.39098197 15.0481266,4.56448341 14.7211386,4.58450308 C11.8049388,4.75133374 8.88873835,4.86477858 5.9658655,4.91816439 C4.5244487,4.9448573 3.08970439,4.95820456 1.64828759,4.96487779 C1.12110274,4.96487779 0.44043452,4.77802665 0.0934267905,5.2518257 C0.0533874341,5.30521151 0.0266929036,5.35859732 0,5.41865635 L19.1321392,5.41865635 L19.1321392,5.41198475 Z" id="Vector"></path>
            </g>
        </g>
    </g>
</svg>