<svg width="" height="" viewBox="0 0 25 25" fill="none" xmlns="http://www.w3.org/2000/svg">
<g clip-path="url(#clip0_15952_42615)">
<path d="M8.34009 12.681L16.802 20.0995C16.8994 20.1855 17.0176 20.2447 17.1448 20.2712C17.2721 20.2978 17.404 20.2909 17.5278 20.2511C17.6515 20.2113 17.7628 20.14 17.8507 20.0442C17.9386 19.9485 18.0001 19.8315 18.0292 19.7048L21.8401 3.15136C21.8438 3.13476 21.8429 3.11746 21.8376 3.10132C21.8322 3.08518 21.8226 3.07079 21.8097 3.05972C21.7968 3.04864 21.7811 3.04128 21.7643 3.03843C21.7475 3.03558 21.7303 3.03735 21.7145 3.04355L2.71509 10.4789C2.59714 10.5243 2.4971 10.6067 2.42998 10.7138C2.36287 10.8209 2.3323 10.9468 2.34287 11.0728C2.35343 11.1987 2.40456 11.3178 2.48858 11.4122C2.5726 11.5066 2.68498 11.5713 2.80884 11.5964L8.34009 12.681Z" stroke="#7E7E7E" stroke-width="1.5" stroke-linecap="round" stroke-linejoin="round"/>
<path d="M8.33984 12.6805L21.7845 3.04492" stroke="#7E7E7E" stroke-width="1.5" stroke-linecap="round" stroke-linejoin="round"/>
<path d="M12.4995 16.3295L9.62984 19.307C9.52615 19.4145 9.39269 19.4887 9.24657 19.5199C9.10045 19.5511 8.94834 19.538 8.80973 19.4822C8.67113 19.4264 8.55235 19.3305 8.46863 19.2067C8.38491 19.0829 8.34006 18.937 8.33984 18.7876V12.6816" stroke="#7E7E7E" stroke-width="1.5" stroke-linecap="round" stroke-linejoin="round"/>
</g>
<defs>
<clipPath id="clip0_15952_42615">
<rect width="24" height="24" fill="white" transform="translate(0.0898438 0.0371094)"/>
</clipPath>
</defs>
</svg>
