<svg width="" height="" viewBox="0 0 18 18" fill="none" xmlns="http://www.w3.org/2000/svg">
<path fill-rule="evenodd" clip-rule="evenodd" d="M13.875 0.9375C14.1857 0.9375 14.4375 1.18934 14.4375 1.5V3.5625H16.5C16.8107 3.5625 17.0625 3.81434 17.0625 4.125C17.0625 4.43566 16.8107 4.6875 16.5 4.6875H14.4375V6.75C14.4375 7.06066 14.1857 7.3125 13.875 7.3125C13.5643 7.3125 13.3125 7.06066 13.3125 6.75V4.6875H11.25C10.9393 4.6875 10.6875 4.43566 10.6875 4.125C10.6875 3.81434 10.9393 3.5625 11.25 3.5625H13.3125V1.5C13.3125 1.18934 13.5643 0.9375 13.875 0.9375Z" fill=""/>
<path fill-rule="evenodd" clip-rule="evenodd" d="M9 0.9375L8.95697 0.9375C7.22567 0.937491 5.86889 0.937483 4.81028 1.07981C3.72673 1.22549 2.87171 1.5295 2.2006 2.2006C1.5295 2.87171 1.22549 3.72673 1.07981 4.81028C0.937483 5.86889 0.937491 7.22567 0.9375 8.95697V9.04303C0.937491 10.7743 0.937483 12.1311 1.07981 13.1897C1.22549 14.2733 1.5295 15.1283 2.2006 15.7994C2.87171 16.4705 3.72673 16.7745 4.81028 16.9202C5.8689 17.0625 7.22567 17.0625 8.95697 17.0625H9.04303C10.7743 17.0625 12.1311 17.0625 13.1897 16.9202C14.2733 16.7745 15.1283 16.4705 15.7994 15.7994C16.4705 15.1283 16.7745 14.2733 16.9202 13.1897C17.0625 12.1311 17.0625 10.7743 17.0625 9.04303V9C17.0625 8.68934 16.8107 8.4375 16.5 8.4375C16.1893 8.4375 15.9375 8.68934 15.9375 9C15.9375 10.7837 15.9363 12.0648 15.8052 13.0398C15.8001 13.0783 15.7947 13.1161 15.7891 13.1534L13.7086 11.2809C12.7341 10.4038 11.2827 10.3165 10.21 11.0704L9.98637 11.2275C9.61364 11.4895 9.10655 11.4456 8.78441 11.1234L5.56711 7.90614C4.71556 7.05459 3.3496 7.0091 2.44328 7.80212L2.06323 8.13467C2.06664 6.79046 2.08593 5.76977 2.19478 4.96018C2.32369 4.00138 2.56886 3.42334 2.9961 2.9961C3.42334 2.56886 4.00138 2.32369 4.96018 2.19478C5.93517 2.06369 7.21633 2.0625 9 2.0625C9.31066 2.0625 9.5625 1.81066 9.5625 1.5C9.5625 1.18934 9.31066 0.9375 9 0.9375ZM2.19478 13.0398C2.32369 13.9986 2.56886 14.5767 2.9961 15.0039C3.42334 15.4311 4.00138 15.6763 4.96018 15.8052C5.93517 15.9363 7.21633 15.9375 9 15.9375C10.7837 15.9375 12.0648 15.9363 13.0398 15.8052C13.9986 15.6763 14.5767 15.4311 15.0039 15.0039C15.1866 14.8213 15.3359 14.611 15.4572 14.3553C15.428 14.3375 15.4 14.3167 15.3737 14.293L12.9561 12.1171C12.3713 11.5909 11.5005 11.5385 10.8569 11.9908L10.6332 12.148C9.81323 12.7243 8.69762 12.6276 7.98891 11.9189L4.77162 8.70164C4.33886 8.26888 3.64468 8.24577 3.1841 8.64878L2.06279 9.62991C2.06472 11.0913 2.07967 12.1836 2.19478 13.0398Z" fill=""/>
</svg>
