<svg viewBox="0 0 25 15" fill="none" xmlns="http://www.w3.org/2000/svg">
<path fill-rule="evenodd" clip-rule="evenodd" d="M24.433 14.4288L24.4266 14.3888C24.421 14.3532 24.4154 14.3179 24.4094 14.2825C24.3599 13.9812 24.2982 13.6834 24.2265 13.3897C24.1007 12.8766 23.9424 12.3758 23.7534 11.8907C23.5936 11.48 23.4118 11.0804 23.21 10.6931C22.9504 10.1958 22.6577 9.71833 22.3343 9.26429C21.9378 8.70789 21.495 8.18661 21.0115 7.70626C20.8086 7.50438 20.5986 7.30956 20.3818 7.1229C19.9122 6.71746 19.4105 6.34829 18.8821 6.0183C18.8845 6.01448 18.8866 6.01053 18.8887 6.00658C18.8909 6.00264 18.893 5.99869 18.8953 5.99487C19.0164 5.7857 19.1376 5.57667 19.2589 5.36763C19.38 5.15874 19.5014 4.94951 19.6223 4.74048L20.3326 3.51532C20.503 3.2222 20.6731 2.92847 20.8425 2.63535C20.8828 2.56571 20.9145 2.49376 20.9384 2.42006C21.0047 2.21469 21.0076 1.99879 20.9544 1.79809C20.9409 1.74839 20.9245 1.69982 20.9045 1.65244C20.8845 1.60502 20.8614 1.55881 20.835 1.51434C20.7444 1.36224 20.615 1.22999 20.4524 1.13344C20.3087 1.04804 20.1479 0.997127 19.9832 0.982508C19.914 0.976661 19.8445 0.977231 19.7753 0.984255C19.7183 0.990103 19.6616 1.00066 19.6052 1.01528C19.4048 1.06851 19.2187 1.17851 19.074 1.33764C19.0219 1.39497 18.9748 1.45819 18.9345 1.52779C18.7645 1.82091 18.5944 2.11464 18.4247 2.40776L17.7144 3.63292C17.5933 3.84228 17.4719 4.05149 17.3506 4.26069C17.2295 4.46953 17.1084 4.67836 16.9874 4.88734L16.9619 4.93137C16.944 4.96214 16.9257 4.99369 16.9079 5.02483L16.8936 5.01912C16.8617 5.0064 16.83 4.99372 16.7981 4.98151C15.4631 4.47249 14.0148 4.19402 12.5009 4.19402C12.4595 4.19402 12.4185 4.19402 12.3768 4.1946C11.0308 4.20804 9.73759 4.44208 8.53102 4.86217C8.3916 4.91073 8.25362 4.96222 8.1167 5.01606L8.08694 4.96478C8.07203 4.93919 8.05706 4.9135 8.04254 4.88791C7.92148 4.67873 7.80024 4.46969 7.67901 4.26066L7.67836 4.25954C7.55736 4.0509 7.43635 3.84227 7.31553 3.63349L6.60527 2.40833C6.43484 2.11521 6.26476 1.82152 6.0954 1.52839C6.05475 1.45876 6.00805 1.39558 5.95599 1.33824C5.81123 1.17908 5.62511 1.06908 5.42472 1.01585C5.36839 1.00123 5.31169 0.990709 5.25429 0.984861C5.18547 0.977837 5.11595 0.977231 5.04678 0.983079C4.88205 0.997127 4.72124 1.04804 4.57719 1.13404C4.4146 1.23056 4.28625 1.36281 4.19497 1.51491C4.16858 1.55938 4.14505 1.60562 4.12544 1.65301C4.10547 1.70039 4.08836 1.74896 4.07552 1.7987C4.0224 1.99936 4.02525 2.21526 4.09121 2.42063C4.11546 2.49437 4.14683 2.56632 4.18713 2.63596C4.35756 2.92908 4.52763 3.22277 4.69699 3.51589C4.92187 3.90322 5.14643 4.29055 5.37097 4.67785L5.40761 4.74105C5.52864 4.95018 5.64975 5.15916 5.77087 5.36814C5.89203 5.5772 6.01319 5.78626 6.13427 5.99548L6.14032 6.006C5.65185 6.30967 5.18726 6.64608 4.7487 7.01408C4.48592 7.23468 4.23276 7.46576 3.99031 7.7074C3.50718 8.18775 3.06469 8.70907 2.66749 9.26547C2.34374 9.7195 2.05065 10.1963 1.79179 10.6943C1.58998 11.0816 1.40814 11.4812 1.24841 11.8919C1.05943 12.3769 0.901122 12.8778 0.775259 13.3909C0.703591 13.6846 0.64262 13.9818 0.592346 14.2837C0.584949 14.3275 0.578132 14.3718 0.571372 14.4157L0.569169 14.43C0.542071 14.6049 0.519254 14.781 0.5 14.9583H24.5C24.4807 14.781 24.4579 14.6049 24.4312 14.43L24.433 14.4288ZM18.7445 11.6383C19.2248 11.3186 19.2947 10.579 18.9003 9.98633C18.5063 9.39367 17.7975 9.17243 17.3176 9.49211C16.8373 9.81183 16.7674 10.5514 17.1618 11.1441C17.5558 11.7367 18.2646 11.958 18.7445 11.6383ZM7.70555 9.49408C8.18583 9.81377 8.25572 10.5534 7.86137 11.146C7.46737 11.7387 6.75854 11.9599 6.27826 11.6402C5.79834 11.3205 5.72846 10.5809 6.12245 9.98827C6.5168 9.39564 7.22527 9.17436 7.70555 9.49408Z" fill=""/>
</svg>
