<svg viewBox="0 0 18 23" fill="none" xmlns="http://www.w3.org/2000/svg">
<path d="M15.0395 12.3042C15.0503 11.4696 15.272 10.6512 15.684 9.92524C16.096 9.19929 16.685 8.58935 17.3961 8.15218C16.9443 7.50702 16.3484 6.97607 15.6556 6.60152C14.9627 6.22697 14.1921 6.01913 13.4049 5.9945C11.7257 5.81824 10.0977 6.99933 9.242 6.99933C8.36973 6.99933 7.05223 6.012 5.6335 6.04119C4.71583 6.07083 3.82148 6.33769 3.0376 6.81575C2.25372 7.2938 1.60705 7.96676 1.16058 8.76905C-0.77342 12.1175 0.66917 17.0385 2.52178 19.7451C3.44868 21.0705 4.53196 22.5509 5.94941 22.4984C7.33647 22.4409 7.85451 21.614 9.52881 21.614C11.1876 21.614 11.6736 22.4984 13.1198 22.4651C14.6082 22.4409 15.5459 21.1338 16.4403 19.7959C17.1063 18.8516 17.6188 17.8078 17.9587 16.7034C17.094 16.3377 16.3561 15.7255 15.837 14.9432C15.3179 14.1609 15.0405 13.2431 15.0395 12.3042Z" fill=""/>
<path d="M12.3091 4.21523C13.1206 3.24102 13.5204 1.98884 13.4236 0.724609C12.1837 0.85483 11.0385 1.44739 10.216 2.38422C9.81385 2.84188 9.50586 3.37432 9.30961 3.95109C9.11337 4.52786 9.03272 5.13765 9.07229 5.74561C9.69243 5.75199 10.3059 5.61758 10.8666 5.35249C11.4273 5.08741 11.9205 4.69856 12.3091 4.21523Z" fill=""/>
</svg>
