<svg viewBox="0 0 49 49" fill="none" xmlns="http://www.w3.org/2000/svg">
<g clip-path="url(#clip0_39864_54545)">
<path d="M38.3821 0.791016H9.77412C4.41612 0.791016 0.078125 5.12902 0.078125 10.487V39.101C0.078125 44.453 4.41612 48.791 9.77412 48.791H38.3881C43.7401 48.791 48.0841 44.453 48.0841 39.095V10.487C48.0781 5.12902 43.7401 0.791016 38.3821 0.791016Z" fill="url(#paint0_linear_39864_54545)"/>
<path d="M23.8766 11.8226L24.8486 10.1426C25.4486 9.09262 26.7866 8.73862 27.8366 9.33862C28.8866 9.93862 29.2406 11.2766 28.6406 12.3266L19.2746 28.5386H26.0486C28.2446 28.5386 29.4746 31.1186 28.5206 32.9066H8.66056C7.44856 32.9066 6.47656 31.9346 6.47656 30.7226C6.47656 29.5106 7.44856 28.5386 8.66056 28.5386H14.2286L21.3566 16.1846L19.1306 12.3206C18.5306 11.2706 18.8846 9.94462 19.9346 9.33262C20.9846 8.73262 22.3106 9.08662 22.9226 10.1366L23.8766 11.8226ZM15.4526 35.1566L13.3526 38.7986C12.7526 39.8486 11.4146 40.2026 10.3646 39.6026C9.31456 39.0026 8.96056 37.6646 9.56056 36.6146L11.1206 33.9146C12.8846 33.3686 14.3186 33.7886 15.4526 35.1566ZM33.5366 28.5506H39.2186C40.4306 28.5506 41.4026 29.5226 41.4026 30.7346C41.4026 31.9466 40.4306 32.9186 39.2186 32.9186H36.0626L38.1926 36.6146C38.7926 37.6646 38.4386 38.9906 37.3886 39.6026C36.3386 40.2026 35.0126 39.8486 34.4006 38.7986C30.8126 32.5766 28.1186 27.9206 26.3306 24.8186C24.5006 21.6626 25.8086 18.4946 27.0986 17.4206C28.5326 19.8806 30.6746 23.5946 33.5366 28.5506Z" fill="white"/>
</g>
<defs>
<linearGradient id="paint0_linear_39864_54545" x1="24.0811" y1="0.791016" x2="24.0811" y2="48.791" gradientUnits="userSpaceOnUse">
<stop stop-color="#18BFFB"/>
<stop offset="1" stop-color="#2072F3"/>
</linearGradient>
<clipPath id="clip0_39864_54545">
<rect width="48" height="48" fill="white" transform="translate(0.078125 0.791016)"/>
</clipPath>
</defs>
</svg>
