<svg viewBox="0 0 100 26" fill="none" xmlns="http://www.w3.org/2000/svg">
<path d="M15.0395 12.3355C15.0503 11.5008 15.272 10.6824 15.684 9.95649C16.096 9.23054 16.685 8.6206 17.3961 8.18343C16.9443 7.53827 16.3484 7.00732 15.6556 6.63277C14.9627 6.25822 14.1921 6.05038 13.4049 6.02575C11.7257 5.84949 10.0977 7.03058 9.242 7.03058C8.36973 7.03058 7.05223 6.04325 5.6335 6.07244C4.71583 6.10208 3.82148 6.36894 3.0376 6.847C2.25372 7.32505 1.60705 7.99801 1.16058 8.8003C-0.77342 12.1487 0.66917 17.0698 2.52178 19.7764C3.44868 21.1017 4.53196 22.5822 5.94941 22.5297C7.33647 22.4722 7.85451 21.6452 9.52881 21.6452C11.1876 21.6452 11.6736 22.5297 13.1198 22.4963C14.6082 22.4721 15.5459 21.1651 16.4403 19.8272C17.1063 18.8828 17.6188 17.8391 17.9587 16.7347C17.094 16.3689 16.3561 15.7567 15.837 14.9745C15.3179 14.1922 15.0405 13.2744 15.0395 12.3355Z" fill=""/>
<path d="M12.3091 4.24648C13.1206 3.27227 13.5204 2.02009 13.4236 0.755859C12.1837 0.88608 11.0385 1.47864 10.216 2.41547C9.81385 2.87313 9.50586 3.40557 9.30961 3.98234C9.11337 4.55911 9.03272 5.1689 9.07229 5.77686C9.69243 5.78324 10.3059 5.64883 10.8666 5.38374C11.4273 5.11866 11.9205 4.72981 12.3091 4.24648Z" fill=""/>
<path d="M32.5742 19.1748H27.8408L26.7041 22.5313H24.6992L29.1826 10.1133H31.2656L35.749 22.5313H33.7099L32.5742 19.1748ZM28.3311 17.626H32.083L30.2334 12.1787H30.1817L28.3311 17.626Z" fill=""/>
<path d="M45.4307 18.0046C45.4307 20.8181 43.9248 22.6257 41.6524 22.6257C41.0767 22.6558 40.5042 22.5232 40.0004 22.2431C39.4966 21.9629 39.0819 21.5466 38.8037 21.0417H38.7607V25.5261H36.9023V13.4773H38.7012V14.9831H38.7354C39.0263 14.4807 39.4481 14.0665 39.9557 13.7846C40.4633 13.5028 41.0379 13.3638 41.6182 13.3825C43.916 13.3825 45.4307 15.1989 45.4307 18.0046ZM43.5205 18.0046C43.5205 16.1716 42.5733 14.9665 41.128 14.9665C39.708 14.9665 38.753 16.197 38.753 18.0046C38.753 19.8288 39.708 21.0505 41.128 21.0505C42.5733 21.0505 43.5205 19.8542 43.5205 18.0046Z" fill=""/>
<path d="M55.3955 18.0046C55.3955 20.8181 53.8897 22.6257 51.6172 22.6257C51.0416 22.6558 50.4691 22.5232 49.9653 22.2431C49.4615 21.9629 49.0468 21.5466 48.7686 21.0417H48.7256V25.5261H46.8672V13.4772H48.666V14.9831H48.7002C48.9911 14.4806 49.4129 14.0665 49.9205 13.7846C50.4281 13.5028 51.0027 13.3638 51.583 13.3825C53.8809 13.3825 55.3955 15.1989 55.3955 18.0046ZM53.4854 18.0046C53.4854 16.1716 52.5381 14.9665 51.0928 14.9665C49.6729 14.9665 48.7178 16.197 48.7178 18.0046C48.7178 19.8288 49.6729 21.0505 51.0928 21.0505C52.5381 21.0505 53.4854 19.8542 53.4854 18.0046Z" fill=""/>
<path d="M61.9805 19.0713C62.1182 20.3028 63.3145 21.1113 64.9492 21.1113C66.5157 21.1113 67.6426 20.3028 67.6426 19.1924C67.6426 18.2285 66.9629 17.6514 65.3535 17.2559L63.7442 16.8682C61.4639 16.3174 60.4053 15.251 60.4053 13.5205C60.4053 11.3779 62.2725 9.90625 64.9239 9.90625C67.5479 9.90625 69.3467 11.3779 69.4073 13.5205H67.5313C67.419 12.2812 66.3945 11.5332 64.8975 11.5332C63.4004 11.5332 62.376 12.29 62.376 13.3916C62.376 14.2695 63.0303 14.7861 64.6309 15.1816L65.999 15.5175C68.5469 16.1201 69.6055 17.1436 69.6055 18.9599C69.6055 21.2832 67.7549 22.7382 64.8115 22.7382C62.0576 22.7382 60.1982 21.3173 60.0781 19.0712L61.9805 19.0713Z" fill=""/>
<path d="M73.6172 11.3359V13.4785H75.3389V14.9502H73.6172V19.9414C73.6172 20.7168 73.9619 21.0781 74.7187 21.0781C74.9231 21.0746 75.1272 21.0602 75.3301 21.0351V22.498C74.9898 22.5616 74.6439 22.5904 74.2978 22.584C72.4648 22.584 71.75 21.8955 71.75 20.1396V14.9502H70.4336V13.4785H71.75V11.3359H73.6172Z" fill=""/>
<path d="M76.3359 18.0059C76.3359 15.1572 78.0137 13.3672 80.6299 13.3672C83.2549 13.3672 84.9248 15.1572 84.9248 18.0059C84.9248 20.8623 83.2637 22.6445 80.6299 22.6445C77.997 22.6445 76.3359 20.8623 76.3359 18.0059ZM83.0312 18.0059C83.0312 16.0518 82.1357 14.8984 80.6299 14.8984C79.124 14.8984 78.2295 16.0605 78.2295 18.0059C78.2295 19.9678 79.124 21.1123 80.6299 21.1123C82.1357 21.1123 83.0312 19.9678 83.0312 18.0059Z" fill=""/>
<path d="M86.457 13.4772H88.2295V15.0182H88.2725C88.3924 14.5369 88.6744 14.1116 89.071 13.8137C89.4675 13.5158 89.9546 13.3635 90.4502 13.3824C90.6644 13.3817 90.878 13.4049 91.087 13.4518V15.1901C90.8166 15.1074 90.5345 15.0695 90.252 15.0778C89.982 15.0668 89.7128 15.1144 89.463 15.2173C89.2131 15.3202 88.9885 15.4759 88.8045 15.6738C88.6206 15.8717 88.4816 16.107 88.3972 16.3637C88.3127 16.6204 88.2849 16.8923 88.3154 17.1608V22.5309H86.457L86.457 13.4772Z" fill=""/>
<path d="M99.6553 19.873C99.4053 21.5166 97.8047 22.6445 95.7568 22.6445C93.123 22.6445 91.4883 20.8799 91.4883 18.0488C91.4883 15.209 93.1318 13.3672 95.6787 13.3672C98.1836 13.3672 99.7588 15.0879 99.7588 17.833V18.4697H93.3643V18.582C93.3348 18.9152 93.3765 19.2509 93.4866 19.5667C93.5968 19.8826 93.7729 20.1714 94.0033 20.4139C94.2337 20.6565 94.513 20.8472 94.8227 20.9735C95.1325 21.0998 95.4655 21.1588 95.7998 21.1465C96.239 21.1876 96.6797 21.0859 97.0564 20.8565C97.4331 20.627 97.7257 20.2821 97.8906 19.873L99.6553 19.873ZM93.373 17.1709H97.8994C97.9161 16.8713 97.8707 16.5715 97.766 16.2903C97.6613 16.0091 97.4996 15.7525 97.2911 15.5368C97.0826 15.321 96.8317 15.1507 96.5543 15.0364C96.2768 14.9222 95.9787 14.8666 95.6787 14.873C95.3761 14.8712 95.0761 14.9294 94.796 15.0441C94.516 15.1589 94.2615 15.3279 94.0471 15.5416C93.8327 15.7552 93.6628 16.0092 93.5471 16.2888C93.4314 16.5685 93.3723 16.8683 93.373 17.1709Z" fill=""/>
<path d="M28.0967 0.766536C28.4863 0.738577 28.8773 0.797437 29.2414 0.93887C29.6055 1.0803 29.9337 1.30078 30.2022 1.58441C30.4708 1.86803 30.6731 2.20773 30.7945 2.579C30.9159 2.95027 30.9534 3.34386 30.9043 3.73138C30.9043 5.63763 29.874 6.73338 28.0967 6.73338H25.9414V0.766536H28.0967ZM26.8682 5.88954H27.9932C28.2716 5.90618 28.5502 5.86053 28.8087 5.75592C29.0673 5.6513 29.2992 5.49035 29.4877 5.28479C29.6762 5.07922 29.8165 4.83421 29.8983 4.5676C29.9802 4.30098 30.0016 4.01946 29.9609 3.74354C29.9986 3.4687 29.9751 3.18893 29.892 2.92427C29.8089 2.6596 29.6682 2.4166 29.4802 2.21267C29.2921 2.00874 29.0612 1.84893 28.8042 1.7447C28.5471 1.64046 28.2701 1.59438 27.9932 1.60975H26.8682V5.88954Z" fill=""/>
<path d="M31.9515 4.48091C31.9231 4.18499 31.957 3.88642 32.0508 3.60435C32.1447 3.32228 32.2964 3.06294 32.4964 2.84296C32.6963 2.62298 32.94 2.44721 33.2119 2.32694C33.4837 2.20666 33.7777 2.14453 34.075 2.14453C34.3723 2.14453 34.6662 2.20666 34.9381 2.32694C35.2099 2.44721 35.4537 2.62298 35.6536 2.84296C35.8535 3.06294 36.0053 3.32228 36.0991 3.60435C36.193 3.88642 36.2268 4.18499 36.1985 4.48091C36.2274 4.77713 36.1939 5.07611 36.1003 5.35864C36.0067 5.64116 35.8551 5.90098 35.6551 6.1214C35.4551 6.34181 35.2112 6.51794 34.9391 6.63848C34.6669 6.75901 34.3726 6.82128 34.075 6.82128C33.7774 6.82128 33.483 6.75901 33.2109 6.63848C32.9388 6.51794 32.6949 6.34181 32.4949 6.1214C32.2949 5.90098 32.1432 5.64116 32.0496 5.35864C31.9561 5.07611 31.9226 4.77713 31.9515 4.48091ZM35.2845 4.48091C35.2845 3.50484 34.846 2.93404 34.0765 2.93404C33.304 2.93404 32.8695 3.50484 32.8695 4.48092C32.8695 5.46481 33.304 6.03121 34.0765 6.03121C34.846 6.0312 35.2845 5.46089 35.2845 4.48091Z" fill=""/>
<path d="M41.8437 6.7334H40.9219L39.9912 3.41699H39.9209L38.9941 6.7334H38.0811L36.8398 2.23047H37.7412L38.5479 5.66647H38.6143L39.54 2.23047H40.3926L41.3184 5.66647H41.3887L42.1914 2.23047H43.0801L41.8437 6.7334Z" fill=""/>
<path d="M44.125 2.23003H44.9805V2.94535H45.0469C45.1595 2.68843 45.3495 2.47306 45.5904 2.32926C45.8313 2.18545 46.111 2.12038 46.3906 2.1431C46.6097 2.12663 46.8297 2.15967 47.0343 2.23976C47.2389 2.31986 47.4229 2.44496 47.5726 2.60581C47.7222 2.76665 47.8338 2.95911 47.899 3.16893C47.9642 3.37875 47.9814 3.60055 47.9492 3.8179V6.7329H47.0606V4.04107C47.0606 3.31744 46.7461 2.95757 46.0889 2.95757C45.9401 2.95064 45.7916 2.97595 45.6536 3.03178C45.5155 3.08762 45.3911 3.17264 45.289 3.28102C45.1869 3.38941 45.1094 3.51859 45.0619 3.65972C45.0144 3.80085 44.9979 3.95059 45.0137 4.09867V6.73295H44.125L44.125 2.23003Z" fill=""/>
<path d="M49.3633 0.472656H50.252V6.7334H49.3633V0.472656Z" fill=""/>
<path d="M51.4866 4.47904C51.4583 4.1831 51.4922 3.88452 51.586 3.60244C51.6799 3.32036 51.8317 3.06101 52.0316 2.84102C52.2316 2.62103 52.4753 2.44526 52.7472 2.32499C53.0191 2.20471 53.3131 2.14258 53.6104 2.14258C53.9077 2.14258 54.2017 2.20471 54.4735 2.32499C54.7454 2.44526 54.9891 2.62103 55.1891 2.84102C55.3891 3.06101 55.5408 3.32036 55.6347 3.60244C55.7286 3.88452 55.7624 4.1831 55.7341 4.47904C55.763 4.77527 55.7295 5.07426 55.6359 5.35678C55.5422 5.63931 55.3905 5.89912 55.1905 6.11953C54.9905 6.33993 54.7466 6.51606 54.4745 6.63659C54.2023 6.75712 53.908 6.81939 53.6104 6.81939C53.3127 6.81939 53.0184 6.75712 52.7463 6.63659C52.4741 6.51606 52.2302 6.33993 52.0302 6.11953C51.8302 5.89912 51.6785 5.63931 51.5849 5.35678C51.4913 5.07426 51.4578 4.77527 51.4866 4.47904ZM54.8196 4.47904C54.8196 3.50297 54.3811 2.93217 53.6116 2.93217C52.8391 2.93217 52.4046 3.50297 52.4046 4.47905C52.4046 5.46294 52.8392 6.02934 53.6116 6.02934C54.3811 6.02933 54.8196 5.45902 54.8196 4.47904Z" fill=""/>
<path d="M56.6719 5.46093C56.6719 4.65038 57.2754 4.1831 58.3467 4.11669L59.5664 4.04638V3.65771C59.5664 3.18212 59.252 2.91357 58.6445 2.91357C58.1484 2.91357 57.8047 3.0957 57.7061 3.41406H56.8457C56.9365 2.64062 57.6641 2.14453 58.6855 2.14453C59.8145 2.14453 60.4512 2.70653 60.4512 3.65771V6.73437H59.5957V6.10156H59.5254C59.3827 6.32855 59.1823 6.5136 58.9446 6.63781C58.707 6.76202 58.4407 6.82095 58.1729 6.80856C57.9838 6.82822 57.7928 6.80806 57.612 6.74936C57.4312 6.69066 57.2648 6.59473 57.1234 6.46776C56.9819 6.34079 56.8687 6.1856 56.7909 6.01219C56.7132 5.83877 56.6726 5.65098 56.6719 5.46093ZM59.5664 5.07616V4.6997L58.4668 4.77001C57.8467 4.81151 57.5654 5.02245 57.5654 5.41942C57.5654 5.82469 57.917 6.06053 58.4004 6.06053C58.5421 6.07487 58.6851 6.06057 58.8212 6.01848C58.9572 5.97639 59.0833 5.90737 59.1921 5.81553C59.3009 5.72369 59.3901 5.6109 59.4544 5.48388C59.5187 5.35686 59.5568 5.2182 59.5664 5.07616Z" fill=""/>
<path d="M61.6172 4.48C61.6172 3.05715 62.3486 2.15578 63.4863 2.15578C63.7677 2.14281 64.047 2.21021 64.2916 2.35011C64.5361 2.49 64.7357 2.69661 64.8672 2.94578H64.9336V0.472656H65.8223V6.7334H64.9707V6.02197H64.9004C64.7588 6.26946 64.5522 6.47349 64.3029 6.61197C64.0537 6.75046 63.7713 6.81811 63.4863 6.80761C62.3408 6.80766 61.6172 5.90627 61.6172 4.48ZM62.5352 4.48C62.5352 5.43508 62.9854 6.00979 63.7383 6.00979C64.4873 6.00979 64.9502 5.42679 64.9502 4.48391C64.9502 3.54543 64.4825 2.95412 63.7383 2.95412C62.9902 2.95412 62.5352 3.53273 62.5352 4.48Z" fill=""/>
<path d="M69.5022 4.48091C69.4739 4.18499 69.5078 3.88642 69.6016 3.60435C69.6955 3.32228 69.8472 3.06294 70.0472 2.84296C70.2471 2.62298 70.4908 2.44721 70.7627 2.32694C71.0345 2.20666 71.3285 2.14453 71.6258 2.14453C71.923 2.14453 72.217 2.20666 72.4889 2.32694C72.7607 2.44721 73.0044 2.62298 73.2044 2.84296C73.4043 3.06294 73.5561 3.32228 73.6499 3.60435C73.7438 3.88642 73.7776 4.18499 73.7493 4.48091C73.7781 4.77713 73.7447 5.07611 73.6511 5.35864C73.5575 5.64116 73.4058 5.90098 73.2059 6.1214C73.0059 6.34181 72.762 6.51794 72.4898 6.63848C72.2177 6.75901 71.9234 6.82128 71.6258 6.82128C71.3281 6.82128 71.0338 6.75901 70.7617 6.63848C70.4896 6.51794 70.2457 6.34181 70.0457 6.1214C69.8457 5.90098 69.694 5.64116 69.6004 5.35864C69.5068 5.07611 69.4734 4.77713 69.5022 4.48091ZM72.8352 4.48091C72.8352 3.50484 72.3968 2.93404 71.6272 2.93404C70.8548 2.93404 70.4202 3.50484 70.4202 4.48092C70.4202 5.46481 70.8548 6.03121 71.6272 6.03121C72.3968 6.0312 72.8352 5.46089 72.8352 4.48091Z" fill=""/>
<path d="M74.9414 2.23003H75.7969V2.94535H75.8633C75.9759 2.68843 76.1659 2.47306 76.4068 2.32926C76.6477 2.18545 76.9274 2.12038 77.207 2.1431C77.4261 2.12663 77.6461 2.15967 77.8507 2.23976C78.0553 2.31986 78.2393 2.44496 78.389 2.60581C78.5387 2.76665 78.6502 2.95911 78.7154 3.16893C78.7806 3.37875 78.7978 3.60055 78.7656 3.8179V6.7329H77.877V4.04107C77.877 3.31744 77.5625 2.95757 76.9053 2.95757C76.7565 2.95064 76.608 2.97595 76.47 3.03178C76.3319 3.08762 76.2076 3.17264 76.1054 3.28102C76.0033 3.38941 75.9258 3.51859 75.8783 3.65972C75.8308 3.80085 75.8143 3.95059 75.8301 4.09867V6.73295H74.9414V2.23003Z" fill=""/>
<path d="M83.7842 1.10938V2.25097H84.7598V2.99951H83.7842V5.31494C83.7842 5.78662 83.9785 5.99316 84.4209 5.99316C84.5342 5.9928 84.6473 5.98595 84.7598 5.97265V6.71288C84.6002 6.74144 84.4385 6.75662 84.2764 6.75829C83.2881 6.75829 82.8945 6.41063 82.8945 5.54247V2.99947H82.1797V2.25093H82.8945V1.10938H83.7842Z" fill=""/>
<path d="M85.9766 0.472656H86.8574V2.95411H86.9277C87.0459 2.69479 87.2411 2.47819 87.4868 2.33385C87.7325 2.1895 88.0167 2.12442 88.3007 2.14747C88.5187 2.13561 88.7366 2.17199 88.9389 2.25404C89.1411 2.33608 89.3228 2.46175 89.4709 2.62209C89.6191 2.78243 89.73 2.97348 89.7958 3.18161C89.8615 3.38975 89.8806 3.60984 89.8515 3.82618V6.73341H88.962V4.04541C88.962 3.32617 88.627 2.96191 87.9991 2.96191C87.8463 2.94938 87.6927 2.97038 87.5489 3.02343C87.4051 3.07648 87.2747 3.16031 87.1667 3.26905C87.0587 3.37779 86.9758 3.50881 86.9237 3.65295C86.8716 3.79708 86.8517 3.95086 86.8653 4.10351V6.73339H85.9766L85.9766 0.472656Z" fill=""/>
<path d="M95.0309 5.51667C94.9102 5.92821 94.6486 6.2842 94.2919 6.52235C93.9352 6.7605 93.5061 6.86565 93.0798 6.8194C92.7831 6.82723 92.4883 6.77041 92.2158 6.65289C91.9433 6.53536 91.6996 6.35994 91.5017 6.1388C91.3038 5.91766 91.1564 5.6561 91.0697 5.37228C90.983 5.08846 90.9591 4.78917 90.9997 4.49519C90.9602 4.20031 90.9845 3.90038 91.071 3.6157C91.1574 3.33103 91.3041 3.06826 91.501 2.84519C91.6978 2.62212 91.9403 2.44395 92.212 2.32274C92.4837 2.20153 92.7783 2.14012 93.0758 2.14265C94.3288 2.14265 95.0846 2.99865 95.0846 4.41265V4.72274H91.9049V4.77254C91.891 4.93779 91.9118 5.10412 91.9659 5.26087C92.02 5.41762 92.1063 5.56133 92.2192 5.68278C92.3321 5.80424 92.4692 5.90076 92.6216 5.96616C92.774 6.03156 92.9383 6.06438 93.1042 6.06254C93.3167 6.08806 93.5321 6.04979 93.7229 5.95258C93.9136 5.85537 94.0712 5.70363 94.1754 5.51664L95.0309 5.51667ZM91.9049 4.0655H94.1793C94.1905 3.91438 94.17 3.76258 94.119 3.61986C94.0681 3.47714 93.9878 3.34666 93.8834 3.2368C93.7791 3.12694 93.6528 3.04014 93.5129 2.98196C93.373 2.92379 93.2224 2.89553 93.0709 2.899C92.9172 2.89707 92.7647 2.92593 92.6223 2.98387C92.48 3.04182 92.3506 3.12768 92.242 3.23639C92.1333 3.34511 92.0475 3.47447 91.9896 3.61687C91.9317 3.75926 91.9029 3.91181 91.9049 4.0655Z" fill=""/>
</svg>
