<svg width="136" height="32" viewBox="0 0 136 32" fill="none" xmlns="http://www.w3.org/2000/svg">
<path d="M43.6915 4.84899C43.6915 5.8002 43.3998 6.56203 42.8252 7.13019C42.1645 7.80373 41.304 8.14263 40.2495 8.14263C39.2417 8.14263 38.3812 7.79803 37.6753 7.1188C36.9679 6.42959 36.615 5.58376 36.615 4.57132C36.615 3.55887 36.9679 2.71304 37.6753 2.02953C38.3812 1.3446 39.2417 1 40.2495 1C40.7512 1 41.2296 1.1011 41.6861 1.28907C42.1411 1.47845 42.5116 1.73477 42.78 2.05089L42.1703 2.65181C41.7021 2.11212 41.0648 1.84584 40.2495 1.84584C39.5144 1.84584 38.8771 2.09646 38.336 2.60197C37.8007 3.1089 37.5324 3.76535 37.5324 4.57132C37.5324 5.37728 37.8007 6.03943 38.336 6.54636C38.8771 7.04617 39.5144 7.30249 40.2495 7.30249C41.0298 7.30249 41.6861 7.04617 42.2039 6.54066C42.5451 6.20603 42.7391 5.74467 42.7902 5.15514H40.2495V4.33209H43.639C43.6798 4.51008 43.6915 4.68238 43.6915 4.84899Z" fill="#202020" stroke="#202020" stroke-width="0.123572" stroke-miterlimit="10"/>
<path d="M49.0688 1.99497H45.885V4.1594H48.7553V4.98245H45.885V7.14689H49.0688V7.98561H44.9836V1.15625H49.0688V1.99497Z" fill="#202020" stroke="#202020" stroke-width="0.123572" stroke-miterlimit="10"/>
<path d="M52.8638 7.98561H51.9624V1.99497H50.0095V1.15625H54.8181V1.99497H52.8638V7.98561Z" fill="#202020" stroke="#202020" stroke-width="0.123572" stroke-miterlimit="10"/>
<path d="M58.2981 7.98561V1.15625H59.198V7.98561H58.2981Z" fill="#202020" stroke="#202020" stroke-width="0.123572" stroke-miterlimit="10"/>
<path d="M63.187 7.98561H62.2929V1.99497H60.3328V1.15625H65.1472V1.99497H63.187V7.98561Z" fill="#202020" stroke="#202020" stroke-width="0.123572" stroke-miterlimit="10"/>
<path d="M74.2509 7.1074C73.5611 7.79803 72.7064 8.14263 71.6869 8.14263C70.6616 8.14263 69.8069 7.79803 69.1171 7.1074C68.4287 6.4182 68.0859 5.57237 68.0859 4.57132C68.0859 3.57026 68.4287 2.72443 69.1171 2.03523C69.8069 1.3446 70.6616 1 71.6869 1C72.7005 1 73.5552 1.3446 74.2451 2.04092C74.9393 2.73582 75.2821 3.57596 75.2821 4.57132C75.2821 5.57237 74.9393 6.4182 74.2509 7.1074ZM69.7836 6.53497C70.3028 7.04617 70.9343 7.30249 71.6869 7.30249C72.4336 7.30249 73.071 7.04617 73.5844 6.53497C74.1021 6.02376 74.3647 5.36731 74.3647 4.57132C74.3647 3.77532 74.1021 3.11887 73.5844 2.60766C73.071 2.09646 72.4336 1.84014 71.6869 1.84014C70.9343 1.84014 70.3028 2.09646 69.7836 2.60766C69.2658 3.11887 69.0033 3.77532 69.0033 4.57132C69.0033 5.36731 69.2658 6.02376 69.7836 6.53497Z" fill="#202020" stroke="#202020" stroke-width="0.123572" stroke-miterlimit="10"/>
<path d="M76.5466 7.98561V1.15625H77.6405L81.0416 6.46766H81.081L81.0416 5.15475V1.15625H81.9415V7.98561H81.0023L77.4407 2.41219H77.4013L77.4407 3.73079V7.98561H76.5466Z" fill="#202020" stroke="#202020" stroke-width="0.123572" stroke-miterlimit="10"/>
<mask id="path-8-inside-1_47392_72679" fill="white">
<path d="M67.8644 17.9597C65.1239 17.9597 62.8851 19.9959 62.8851 22.8054C62.8851 25.5921 65.1239 27.6498 67.8644 27.6498C70.6107 27.6498 72.8494 25.5921 72.8494 22.8054C72.8494 19.9959 70.6107 17.9597 67.8644 17.9597ZM67.8644 25.7417C66.3607 25.7417 65.067 24.5299 65.067 22.8054C65.067 21.0582 66.3607 19.8678 67.8644 19.8678C69.368 19.8678 70.6675 21.0582 70.6675 22.8054C70.6675 24.5299 69.368 25.7417 67.8644 25.7417ZM57.0002 17.9597C54.2539 17.9597 52.021 19.9959 52.021 22.8054C52.021 25.5921 54.2539 27.6498 57.0002 27.6498C59.745 27.6498 61.9794 25.5921 61.9794 22.8054C61.9794 19.9959 59.745 17.9597 57.0002 17.9597ZM57.0002 25.7417C55.495 25.7417 54.197 24.5299 54.197 22.8054C54.197 21.0582 55.495 19.8678 57.0002 19.8678C58.5039 19.8678 59.7975 21.0582 59.7975 22.8054C59.7975 24.5299 58.5039 25.7417 57.0002 25.7417ZM44.0723 19.4449V21.5039H49.1084C48.9611 22.6545 48.5673 23.5003 47.9635 24.0899C47.2284 24.8018 46.0835 25.5921 44.0723 25.5921C40.973 25.5921 38.5461 23.15 38.5461 20.1241C38.5461 17.0982 40.973 14.6561 44.0723 14.6561C45.7481 14.6561 46.9674 15.2954 47.8672 16.1242L49.3534 14.6731C48.0948 13.4998 46.4204 12.5984 44.0723 12.5984C39.8223 12.5984 36.2505 15.9747 36.2505 20.1241C36.2505 24.2735 39.8223 27.6498 44.0723 27.6498C46.3694 27.6498 48.0948 26.915 49.4511 25.5366C50.8411 24.1796 51.2742 22.2714 51.2742 20.7307C51.2742 20.2523 51.2334 19.8122 51.1605 19.4449H44.0723ZM96.9361 21.0411C96.5263 19.9575 95.2618 17.9597 92.6861 17.9597C90.1338 17.9597 88.0088 19.9233 88.0088 22.8054C88.0088 25.5195 90.1119 27.6498 92.9311 27.6498C95.2107 27.6498 96.5263 26.2927 97.0674 25.5024L95.3756 24.4017C94.8111 25.2077 94.0425 25.7417 92.9311 25.7417C91.8271 25.7417 91.0351 25.2475 90.5276 24.2735L97.1651 21.5922L96.9361 21.0411ZM90.1688 22.6545C90.1119 20.7862 91.655 19.8293 92.7605 19.8293C93.6268 19.8293 94.3619 20.2523 94.6069 20.8574L90.1688 22.6545ZM84.7739 27.355H86.9558V13.1153H84.7739V27.355ZM81.2006 19.039H81.1277C80.6377 18.4723 79.7028 17.9597 78.5185 17.9597C76.0333 17.9597 73.761 20.0899 73.761 22.8211C73.761 25.5366 76.0333 27.6498 78.5185 27.6498C79.7028 27.6498 80.6377 27.1329 81.1277 26.549H81.2006V27.2439C81.2006 29.0965 80.187 30.0919 78.5521 30.0919C77.219 30.0919 76.3921 29.1521 76.0508 28.3618L74.1533 29.135C74.7002 30.4194 76.1485 32 78.5521 32C81.1102 32 83.2688 30.5305 83.2688 26.9549V18.2544H81.2006V19.039ZM78.7052 25.7417C77.2015 25.7417 75.9428 24.5128 75.9428 22.8211C75.9428 21.1138 77.2015 19.8678 78.7052 19.8678C80.187 19.8678 81.3552 21.1138 81.3552 22.8211C81.3552 24.5128 80.187 25.7417 78.7052 25.7417ZM107.151 13.1153H101.933V27.355H104.109V21.9596H107.151C109.568 21.9596 111.938 20.2523 111.938 17.5367C111.938 14.8227 109.562 13.1153 107.151 13.1153ZM107.208 19.9789H104.109V15.0961H107.208C108.833 15.0961 109.76 16.4132 109.76 17.5367C109.76 18.6389 108.833 19.9789 107.208 19.9789ZM120.66 17.9326C119.087 17.9326 117.452 18.6104 116.78 20.1127L118.711 20.903C119.127 20.1127 119.891 19.8564 120.699 19.8564C121.828 19.8564 122.973 20.5185 122.99 21.6876V21.8371C122.597 21.615 121.754 21.2861 120.717 21.2861C118.637 21.2861 116.518 22.4039 116.518 24.49C116.518 26.3981 118.221 27.627 120.136 27.627C121.6 27.627 122.408 26.9819 122.916 26.2315H122.99V27.3322H125.092V21.8699C125.092 19.3452 123.161 17.9326 120.66 17.9326ZM120.397 25.736C119.685 25.736 118.694 25.3914 118.694 24.5299C118.694 23.4277 119.93 23.0048 121.001 23.0048C121.959 23.0048 122.408 23.2113 122.99 23.4832C122.82 24.8018 121.657 25.736 120.397 25.736ZM132.749 18.2445L130.248 24.4174H130.173L127.587 18.2445H125.241L129.126 26.8709L126.909 31.6711H129.183L135.17 18.2445H132.749ZM113.134 27.355H115.316V13.1153H113.134V27.355Z"/>
</mask>
<path d="M67.8644 17.9597C65.1239 17.9597 62.8851 19.9959 62.8851 22.8054C62.8851 25.5921 65.1239 27.6498 67.8644 27.6498C70.6107 27.6498 72.8494 25.5921 72.8494 22.8054C72.8494 19.9959 70.6107 17.9597 67.8644 17.9597ZM67.8644 25.7417C66.3607 25.7417 65.067 24.5299 65.067 22.8054C65.067 21.0582 66.3607 19.8678 67.8644 19.8678C69.368 19.8678 70.6675 21.0582 70.6675 22.8054C70.6675 24.5299 69.368 25.7417 67.8644 25.7417ZM57.0002 17.9597C54.2539 17.9597 52.021 19.9959 52.021 22.8054C52.021 25.5921 54.2539 27.6498 57.0002 27.6498C59.745 27.6498 61.9794 25.5921 61.9794 22.8054C61.9794 19.9959 59.745 17.9597 57.0002 17.9597ZM57.0002 25.7417C55.495 25.7417 54.197 24.5299 54.197 22.8054C54.197 21.0582 55.495 19.8678 57.0002 19.8678C58.5039 19.8678 59.7975 21.0582 59.7975 22.8054C59.7975 24.5299 58.5039 25.7417 57.0002 25.7417ZM44.0723 19.4449V21.5039H49.1084C48.9611 22.6545 48.5673 23.5003 47.9635 24.0899C47.2284 24.8018 46.0835 25.5921 44.0723 25.5921C40.973 25.5921 38.5461 23.15 38.5461 20.1241C38.5461 17.0982 40.973 14.6561 44.0723 14.6561C45.7481 14.6561 46.9674 15.2954 47.8672 16.1242L49.3534 14.6731C48.0948 13.4998 46.4204 12.5984 44.0723 12.5984C39.8223 12.5984 36.2505 15.9747 36.2505 20.1241C36.2505 24.2735 39.8223 27.6498 44.0723 27.6498C46.3694 27.6498 48.0948 26.915 49.4511 25.5366C50.8411 24.1796 51.2742 22.2714 51.2742 20.7307C51.2742 20.2523 51.2334 19.8122 51.1605 19.4449H44.0723ZM96.9361 21.0411C96.5263 19.9575 95.2618 17.9597 92.6861 17.9597C90.1338 17.9597 88.0088 19.9233 88.0088 22.8054C88.0088 25.5195 90.1119 27.6498 92.9311 27.6498C95.2107 27.6498 96.5263 26.2927 97.0674 25.5024L95.3756 24.4017C94.8111 25.2077 94.0425 25.7417 92.9311 25.7417C91.8271 25.7417 91.0351 25.2475 90.5276 24.2735L97.1651 21.5922L96.9361 21.0411ZM90.1688 22.6545C90.1119 20.7862 91.655 19.8293 92.7605 19.8293C93.6268 19.8293 94.3619 20.2523 94.6069 20.8574L90.1688 22.6545ZM84.7739 27.355H86.9558V13.1153H84.7739V27.355ZM81.2006 19.039H81.1277C80.6377 18.4723 79.7028 17.9597 78.5185 17.9597C76.0333 17.9597 73.761 20.0899 73.761 22.8211C73.761 25.5366 76.0333 27.6498 78.5185 27.6498C79.7028 27.6498 80.6377 27.1329 81.1277 26.549H81.2006V27.2439C81.2006 29.0965 80.187 30.0919 78.5521 30.0919C77.219 30.0919 76.3921 29.1521 76.0508 28.3618L74.1533 29.135C74.7002 30.4194 76.1485 32 78.5521 32C81.1102 32 83.2688 30.5305 83.2688 26.9549V18.2544H81.2006V19.039ZM78.7052 25.7417C77.2015 25.7417 75.9428 24.5128 75.9428 22.8211C75.9428 21.1138 77.2015 19.8678 78.7052 19.8678C80.187 19.8678 81.3552 21.1138 81.3552 22.8211C81.3552 24.5128 80.187 25.7417 78.7052 25.7417ZM107.151 13.1153H101.933V27.355H104.109V21.9596H107.151C109.568 21.9596 111.938 20.2523 111.938 17.5367C111.938 14.8227 109.562 13.1153 107.151 13.1153ZM107.208 19.9789H104.109V15.0961H107.208C108.833 15.0961 109.76 16.4132 109.76 17.5367C109.76 18.6389 108.833 19.9789 107.208 19.9789ZM120.66 17.9326C119.087 17.9326 117.452 18.6104 116.78 20.1127L118.711 20.903C119.127 20.1127 119.891 19.8564 120.699 19.8564C121.828 19.8564 122.973 20.5185 122.99 21.6876V21.8371C122.597 21.615 121.754 21.2861 120.717 21.2861C118.637 21.2861 116.518 22.4039 116.518 24.49C116.518 26.3981 118.221 27.627 120.136 27.627C121.6 27.627 122.408 26.9819 122.916 26.2315H122.99V27.3322H125.092V21.8699C125.092 19.3452 123.161 17.9326 120.66 17.9326ZM120.397 25.736C119.685 25.736 118.694 25.3914 118.694 24.5299C118.694 23.4277 119.93 23.0048 121.001 23.0048C121.959 23.0048 122.408 23.2113 122.99 23.4832C122.82 24.8018 121.657 25.736 120.397 25.736ZM132.749 18.2445L130.248 24.4174H130.173L127.587 18.2445H125.241L129.126 26.8709L126.909 31.6711H129.183L135.17 18.2445H132.749ZM113.134 27.355H115.316V13.1153H113.134V27.355Z" fill="#202020" stroke="#202020" stroke-width="1.54465" mask="url(#path-8-inside-1_47392_72679)"/>
<path d="M0.541093 1.76849C0.198351 2.11878 0 2.66417 0 3.37045V28.5633C0 29.2696 0.198351 29.815 0.541093 30.1653L0.625685 30.2422L15.085 16.1306V15.7974L0.625685 1.6859L0.541093 1.76849Z" fill="url(#paint0_linear_47392_72679)"/>
<path d="M19.8994 20.8359L15.085 16.1297V15.7965L19.9052 11.0903L20.0131 11.1515L25.7216 14.3227C27.3507 15.2226 27.3507 16.7036 25.7216 17.6092L20.0131 20.7747L19.8994 20.8359Z" fill="url(#paint1_linear_47392_72679)"/>
<path d="M20.0131 20.776L15.0849 15.9645L0.541016 30.1657C1.08211 30.7211 1.96449 30.788 2.96792 30.2326L20.0131 20.776Z" fill="url(#paint2_linear_47392_72679)"/>
<path d="M20.0131 11.1513L2.96792 1.69472C1.96449 1.14507 1.08211 1.21199 0.541016 1.76734L15.0849 15.9629L20.0131 11.1513Z" fill="url(#paint3_linear_47392_72679)"/>
<defs>
<linearGradient id="paint0_linear_47392_72679" x1="13.8012" y1="28.8257" x2="-5.31144" y2="9.24994" gradientUnits="userSpaceOnUse">
<stop stop-color="#00A0FF"/>
<stop offset="0.0066" stop-color="#00A1FF"/>
<stop offset="0.2601" stop-color="#00BEFF"/>
<stop offset="0.5122" stop-color="#00D2FF"/>
<stop offset="0.7604" stop-color="#00DFFF"/>
<stop offset="1" stop-color="#00E3FF"/>
</linearGradient>
<linearGradient id="paint1_linear_47392_72679" x1="27.843" y1="15.9615" x2="-0.389446" y2="15.9615" gradientUnits="userSpaceOnUse">
<stop stop-color="#FFE000"/>
<stop offset="0.4087" stop-color="#FFBD00"/>
<stop offset="0.7754" stop-color="#FFA500"/>
<stop offset="1" stop-color="#FF9C00"/>
</linearGradient>
<linearGradient id="paint2_linear_47392_72679" x1="17.3333" y1="13.3488" x2="-8.58497" y2="-13.1975" gradientUnits="userSpaceOnUse">
<stop stop-color="#FF3A44"/>
<stop offset="1" stop-color="#C31162"/>
</linearGradient>
<linearGradient id="paint3_linear_47392_72679" x1="-3.11999" y1="38.5457" x2="8.45368" y2="26.6917" gradientUnits="userSpaceOnUse">
<stop stop-color="#32A071"/>
<stop offset="0.0685" stop-color="#2DA771"/>
<stop offset="0.4762" stop-color="#15CF74"/>
<stop offset="0.8009" stop-color="#06E775"/>
<stop offset="1" stop-color="#00F076"/>
</linearGradient>
</defs>
</svg>
