<svg viewBox="0 0 24 25" fill="none" xmlns="http://www.w3.org/2000/svg">
<path d="M18.66 0.5H5.34C2.3908 0.5 0 2.8908 0 5.84V19.16C0 22.1092 2.3908 24.5 5.34 24.5H18.66C21.6092 24.5 24 22.1092 24 19.16V5.84C24 2.8908 21.6092 0.5 18.66 0.5Z" fill="white"/>
<path d="M15.2486 6.50152C16.061 5.54748 16.4636 4.31104 16.3686 3.06152C15.1406 3.18326 14.0044 3.76568 13.1886 4.69152C12.3915 5.60293 11.9887 6.79339 12.0686 8.00152C12.6779 8.01023 13.2811 7.87962 13.8322 7.61966C14.3833 7.3597 14.8678 6.97725 15.2486 6.50152Z" fill="url(#paint0_linear_41490_79286)"/>
<path d="M13.8 10.6892C13.8 10.6892 12.03 12.2792 12 12.2792C11.97 12.2792 10.16 10.6592 10.16 10.6592C8.55709 9.00197 6.37417 8.03059 4.07 7.94922H0V19.1592C0 20.5755 0.562605 21.9337 1.56405 22.9352C2.56549 23.9366 3.92374 24.4992 5.34 24.4992H18.66C20.0763 24.4992 21.4345 23.9366 22.436 22.9352C23.4374 21.9337 24 20.5755 24 19.1592V7.94922H19.9C17.5873 8.03281 15.3986 9.01592 13.8 10.6892Z" fill="url(#paint1_linear_41490_79286)"/>
<path d="M11.9916 18.9086C11.1504 18.9099 10.3173 18.7449 9.54009 18.423C8.76291 18.1011 8.05707 17.6286 7.46318 17.0329C6.86928 16.4371 6.39907 15.7298 6.07959 14.9516C5.76011 14.1735 5.59768 13.3398 5.60163 12.4986C5.60163 12.2493 5.70067 12.0102 5.87695 11.8339C6.05324 11.6576 6.29233 11.5586 6.54163 11.5586C6.79094 11.5586 7.03003 11.6576 7.20631 11.8339C7.3826 12.0102 7.48163 12.2493 7.48163 12.4986C7.44053 13.1148 7.52641 13.7328 7.73395 14.3145C7.94149 14.8961 8.26628 15.4289 8.68817 15.8799C9.11006 16.3308 9.62007 16.6904 10.1866 16.9361C10.7531 17.1819 11.3641 17.3088 11.9816 17.3088C12.5992 17.3088 13.2101 17.1819 13.7767 16.9361C14.3432 16.6904 14.8532 16.3308 15.2751 15.8799C15.697 15.4289 16.0218 14.8961 16.2293 14.3145C16.4368 13.7328 16.5227 13.1148 16.4816 12.4986C16.5056 12.2673 16.6144 12.0531 16.7871 11.8973C16.9598 11.7416 17.1841 11.6554 17.4166 11.6554C17.6492 11.6554 17.8735 11.7416 18.0461 11.8973C18.2188 12.0531 18.3277 12.2673 18.3516 12.4986C18.3529 13.3373 18.1889 14.168 17.8689 14.9432C17.5488 15.7184 17.0791 16.4229 16.4865 17.0164C15.8939 17.6099 15.1902 18.0807 14.4155 18.402C13.6408 18.7232 12.8103 18.8886 11.9716 18.8886L11.9916 18.9086Z" fill="white"/>
<defs>
<linearGradient id="paint0_linear_41490_79286" x1="12.0186" y1="5.52152" x2="16.3886" y2="5.52152" gradientUnits="userSpaceOnUse">
<stop stop-color="#1767E6"/>
<stop offset="0.64" stop-color="#14BBF2"/>
</linearGradient>
<linearGradient id="paint1_linear_41490_79286" x1="7.76" y1="23.5292" x2="19.55" y2="-2.61078" gradientUnits="userSpaceOnUse">
<stop stop-color="#1767E6"/>
<stop offset="0.64" stop-color="#14BBF2"/>
</linearGradient>
</defs>
</svg>
