<svg viewBox="0 0 14 19" fill="none" xmlns="http://www.w3.org/2000/svg">
<path d="M6.57613 3.94448C6.80642 2.03308 8.53861 0.671488 10.4443 0.902497L10.7782 0.942798C10.8358 0.949994 10.8775 1.00253 10.8703 1.0601L10.83 1.39474C10.5997 3.30614 8.8675 4.66773 6.96186 4.43672L6.62795 4.39642C6.57037 4.38923 6.52935 4.33668 6.53583 4.27911L6.57613 3.94448Z" fill="#0047FF"/>
<path fill-rule="evenodd" clip-rule="evenodd" d="M4.6313 5.55273C2.47882 5.55273 0.734375 7.30293 0.734375 9.46118V14.2145C0.734375 16.3727 2.47882 18.1229 4.6313 18.1229H9.37095C11.5234 18.1229 13.2679 16.3735 13.2679 14.2145V9.46118C13.2679 7.30293 11.5234 5.55273 9.37095 5.55273H4.6313ZM4.84216 8.29894C4.08581 8.29894 3.47266 8.91353 3.47266 9.67204V14.0029C3.47266 14.7614 4.08581 15.376 4.84216 15.376H9.16081C9.91717 15.376 10.5303 14.7614 10.5303 14.0029V9.67204C10.5303 8.91353 9.91717 8.29894 9.16081 8.29894H4.84216Z" fill="#0047FF"/>
</svg>
