<svg viewBox="0 0 24 25" fill="none" xmlns="http://www.w3.org/2000/svg">
<rect y="0.5" width="24" height="24" rx="6" fill="#00C760"/>
<path fill-rule="evenodd" clip-rule="evenodd" d="M13.2216 5.04075C12.5527 5.88812 12.0132 6.59009 12.0224 6.60068C12.0529 6.63547 15.0249 4.76062 15.0228 4.70798C15.0218 4.6797 14.8896 4.39638 14.7292 4.07834L14.4375 3.5L13.2216 5.04075ZM12.3755 5.00625C12.1663 5.74494 12.0048 6.36 12.0167 6.37303C12.0453 6.40442 13.4756 4.33649 13.4738 4.26653C13.4725 4.22011 13.0758 3.87853 12.8338 3.71566C12.7802 3.6796 12.6369 4.08285 12.3755 5.00625ZM9.12953 6.84565C6.92804 7.07411 5.59361 8.1914 5.15506 10.1731C5.00077 10.8703 4.95388 12.1514 5.04962 13.0554C5.43467 16.6923 7.32906 19.3018 9.71455 19.4815C10.2276 19.5201 10.2476 19.515 10.8287 19.1958C11.4032 18.8801 11.4387 18.8707 12.0603 18.8709C12.6846 18.871 12.7136 18.8788 13.2338 19.1855C13.6818 19.4497 13.8284 19.5 14.1495 19.5C14.6611 19.5 15.4783 19.2624 15.9888 18.9651C16.4828 18.6774 17.3 17.8492 17.6522 17.279C18.0933 16.5651 18.8125 14.8274 18.7124 14.7173C18.6924 14.6955 18.4447 14.614 18.1618 14.5363C17.5452 14.367 17.1051 14.055 16.8435 13.6016C16.3152 12.6863 16.4549 11.6066 17.1963 10.8741C17.5552 10.5195 17.9167 10.3675 18.6126 10.2785C18.8257 10.2513 19 10.2152 19 10.1984C19 10.1816 18.8501 9.82373 18.6668 9.40316C17.9609 7.78289 16.8258 7.02385 14.8472 6.84913C13.926 6.76777 13.6991 6.81063 13.1031 7.17916C12.658 7.45441 12.6025 7.46981 12.057 7.46981C11.5133 7.46981 11.451 7.45271 10.9454 7.16384C10.3264 6.81034 10.0076 6.75452 9.12953 6.84565ZM10.372 8.42949C11.2944 9.06927 12.6567 9.08289 13.6519 8.46236C13.9476 8.27795 14.0681 8.2473 14.4941 8.24841C15.0762 8.24996 15.7663 8.39714 16.2192 8.61657C16.5823 8.79239 17.0461 9.12672 17.0461 9.2126C17.0461 9.24391 16.9168 9.35274 16.7588 9.45454C16.3292 9.73119 15.7856 10.4055 15.5542 10.9486C14.9707 12.3189 15.2223 13.8667 16.2047 14.9493C16.4274 15.1947 16.7079 15.4403 16.8279 15.4949C16.948 15.5496 17.0461 15.6192 17.0461 15.6498C17.0461 15.7852 16.3617 16.8309 16.0624 17.153C15.6647 17.5807 14.9598 17.9848 14.4863 18.0563C14.1786 18.1028 14.0964 18.0833 13.7515 17.8812C13.2212 17.5707 12.6733 17.4267 12.0294 17.4289C11.34 17.4313 11.0009 17.5179 10.3917 17.8474C9.90529 18.1105 9.89956 18.1116 9.48217 18.0222C7.93207 17.6901 6.72639 15.8174 6.37139 13.1902C5.9288 9.91524 6.98215 8.28017 9.55197 8.253C10.0334 8.24796 10.1449 8.27195 10.372 8.42949Z" fill="white"/>
</svg>
