<svg width="50" height="29" viewBox="0 0 50 29" fill="none" xmlns="http://www.w3.org/2000/svg">
<path fill-rule="evenodd" clip-rule="evenodd" d="M49.8603 27.9016L49.8471 27.8185C49.8354 27.7448 49.8237 27.6715 49.8113 27.5982C49.7081 26.9731 49.5796 26.3553 49.4303 25.746C49.168 24.6816 48.8382 23.6427 48.4445 22.6366C48.1118 21.7845 47.7329 20.9556 47.3125 20.1521C46.7717 19.1204 46.1618 18.1301 45.4881 17.1882C44.6621 16.034 43.7395 14.9526 42.7322 13.9562C42.3096 13.5374 41.8721 13.1332 41.4204 12.746C40.4421 11.905 39.397 11.1392 38.2961 10.4546C38.3009 10.4467 38.3054 10.4385 38.3099 10.4303C38.3143 10.4221 38.3188 10.414 38.3236 10.406C38.5758 9.97213 38.8284 9.53851 39.081 9.10488C39.3334 8.67155 39.5862 8.23751 39.8382 7.8039L41.3179 5.26241C41.673 4.65435 42.0273 4.04503 42.3801 3.43697C42.4641 3.29252 42.5302 3.14326 42.58 2.99038C42.7181 2.56434 42.7241 2.11649 42.6134 1.70014C42.5852 1.59704 42.551 1.4963 42.5094 1.398C42.4678 1.29962 42.4195 1.20377 42.3645 1.11153C42.1759 0.796002 41.9062 0.521668 41.5675 0.321373C41.2681 0.144228 40.9331 0.0386073 40.59 0.00828196C40.4458 -0.00384819 40.301 -0.00266476 40.1569 0.0119062C40.038 0.0240364 39.9199 0.0459298 39.8026 0.0762552C39.3851 0.186684 38.9973 0.414864 38.6958 0.744967C38.5873 0.863901 38.4892 0.99504 38.4053 1.13942C38.051 1.74748 37.6967 2.3568 37.3431 2.96486L35.8634 5.50635C35.611 5.94065 35.3582 6.37463 35.1054 6.80862C34.8531 7.24183 34.6007 7.67504 34.3488 8.10856L34.2956 8.19989C34.2583 8.26371 34.2201 8.32917 34.1831 8.39376L34.1533 8.38191C34.087 8.35552 34.0208 8.32922 33.9543 8.3039C31.1732 7.24798 28.1559 6.67032 25.0019 6.67032C24.9157 6.67032 24.8303 6.67032 24.7434 6.67151C21.9392 6.69939 19.245 7.18489 16.7313 8.05634C16.4408 8.15708 16.1534 8.26388 15.8681 8.37557L15.8061 8.26918C15.7751 8.2161 15.7439 8.16282 15.7136 8.10974C15.4614 7.6758 15.2088 7.24218 14.9563 6.80855L14.9549 6.80622C14.7028 6.37343 14.4507 5.94064 14.199 5.50753L12.7193 2.96604C12.3642 2.35798 12.0099 1.74874 11.6571 1.14068C11.5724 0.996223 11.4751 0.865158 11.3666 0.746224C11.0651 0.416047 10.6773 0.187867 10.2598 0.0774386C10.1425 0.0471132 10.0244 0.0252937 9.90477 0.0131636C9.7614 -0.00140737 9.61656 -0.00266476 9.47245 0.00946538C9.12927 0.0386073 8.79425 0.144228 8.49415 0.32263C8.15543 0.522852 7.88801 0.797185 7.69785 1.11272C7.64288 1.20495 7.59385 1.30088 7.553 1.39918C7.5114 1.49748 7.47575 1.59822 7.44901 1.7014C7.33833 2.11767 7.34426 2.56552 7.48169 2.99156C7.5322 3.14452 7.59757 3.29378 7.68151 3.43823C8.03658 4.04629 8.3909 4.65553 8.74374 5.26359C9.21223 6.06708 9.68006 6.87057 10.1479 7.67399L10.2242 7.80508C10.4763 8.23891 10.7286 8.67242 10.981 9.10593C11.2334 9.53962 11.4858 9.9733 11.7381 10.4073L11.7507 10.4291C10.733 11.0591 9.76512 11.7569 8.85145 12.5203C8.30399 12.9779 7.77659 13.4573 7.27147 13.9585C6.26495 14.955 5.3431 16.0364 4.5156 17.1906C3.84112 18.1325 3.23053 19.1216 2.69124 20.1545C2.2708 20.958 1.89196 21.7869 1.55918 22.639C1.16548 23.6451 0.835671 24.684 0.573455 25.7485C0.424148 26.3578 0.297126 26.9743 0.192388 27.6006C0.176978 27.6915 0.162775 27.7833 0.148691 27.8743L0.144103 27.904C0.0876485 28.2669 0.0401123 28.6322 0 29L50 29C49.9599 28.6322 49.9123 28.2669 49.8566 27.904L49.8603 27.9016ZM38.0094 22.1129C39.01 21.4497 39.1556 19.9154 38.334 18.686C37.5132 17.4566 36.0365 16.9976 35.0366 17.6608C34.0361 18.324 33.8905 19.8583 34.712 21.0876C35.5328 22.3171 37.0096 22.7761 38.0094 22.1129ZM15.0116 17.6649C16.0121 18.328 16.1577 19.8623 15.3362 21.0917C14.5154 22.3211 13.0386 22.7801 12.038 22.1169C11.0382 21.4537 10.8926 19.9195 11.7134 18.69C12.535 17.4607 14.011 17.0016 15.0116 17.6649Z" fill="#D0D0D0"/>
</svg>
