<svg viewBox="0 0 9 13" fill="none" xmlns="http://www.w3.org/2000/svg">
<path d="M8.59534 8.8102C8.59534 9.89286 8.21862 10.8141 7.46517 11.574C6.71184 12.334 5.79478 12.714 4.71401 12.714C3.63323 12.714 2.71506 12.334 1.95951 11.574C1.20395 10.8141 0.826172 9.89286 0.826172 8.8102V2.81653C0.826172 2.04731 1.09328 1.39347 1.62751 0.85503C2.16162 0.316586 2.81328 0.0473633 3.58251 0.0473633C4.35173 0.0473633 5.00345 0.316586 5.53767 0.85503C6.07189 1.39347 6.339 2.04731 6.339 2.81653V8.4897C6.339 8.94092 6.18184 9.32614 5.86751 9.64536C5.55306 9.96459 5.16995 10.1242 4.71817 10.1242C4.26628 10.1242 3.88073 9.9657 3.56151 9.6487C3.24228 9.3317 3.08267 8.94536 3.08267 8.4897V3.1372C3.08267 2.99553 3.13056 2.87675 3.22634 2.78086C3.32223 2.68509 3.44106 2.6372 3.58284 2.6372C3.72451 2.6372 3.84323 2.68509 3.93901 2.78086C4.03467 2.87675 4.08251 2.99553 4.08251 3.1372V8.4897C4.08251 8.66836 4.14256 8.81881 4.26267 8.94103C4.38278 9.06325 4.53217 9.12436 4.71084 9.12436C4.88939 9.12436 5.03873 9.06325 5.15884 8.94103C5.27895 8.81881 5.33901 8.66836 5.33901 8.4897V2.8102C5.33212 2.31786 5.16112 1.90097 4.82601 1.55953C4.49089 1.21809 4.07639 1.04736 3.58251 1.04736C3.09073 1.04736 2.67506 1.21914 2.33551 1.5627C1.99595 1.90636 1.82617 2.32431 1.82617 2.81653V8.8102C1.81928 9.6162 2.09789 10.3016 2.66201 10.8665C3.22612 11.4315 3.91089 11.714 4.71634 11.714C5.51034 11.714 6.18528 11.4315 6.74117 10.8665C7.29695 10.3016 7.58167 9.6162 7.59534 8.8102V3.1372C7.59534 2.99553 7.64328 2.87675 7.73917 2.78086C7.83506 2.68509 7.95389 2.6372 8.09567 2.6372C8.23734 2.6372 8.35606 2.68509 8.45184 2.78086C8.5475 2.87675 8.59534 2.99553 8.59534 3.1372V8.8102Z" fill=""/>
</svg>
