<svg width="" height="" viewBox="0 0 24 24" fill="none" xmlns="http://www.w3.org/2000/svg">
<rect width="24" height="24" rx="12" fill="#EBEAFF"/>
<rect x="0.5625" y="0.5625" width="22.875" height="22.875" rx="11.4375" stroke="white" stroke-width="1.125"/>
<path fill-rule="evenodd" clip-rule="evenodd" d="M10.0533 18.7498C10.9553 18.7483 11.6902 18.0131 11.6915 17.1108V5.91526C11.6921 5.54997 11.3956 5.25159 11.0305 5.25H11.0264C8.97003 5.25 7.13088 6.75827 6.77833 8.67131C6.75266 8.81061 6.89101 8.91837 7.02773 8.88138C7.29719 8.80848 7.57432 8.77138 7.8553 8.77075L7.85825 8.77073C8.02076 8.77073 8.15805 8.89773 8.17075 9.05985C8.17605 9.14542 8.14582 9.22928 8.08785 9.29099C8.02987 9.35267 7.94808 9.38804 7.86347 9.38804C6.42493 9.38953 5.25339 10.5614 5.2519 12.0004L5.25186 12.0028C5.22316 12.7621 5.52876 13.5007 6.07713 14.0185C6.15873 14.0956 6.28769 14.0748 6.35827 13.9875C6.78332 13.4619 7.42235 13.1532 8.10645 13.1524C8.47367 13.1524 8.77202 12.854 8.77202 12.4872C8.77184 12.4049 8.80383 12.3274 8.86201 12.2691C8.9202 12.2108 8.99759 12.1787 9.07994 12.1787L9.0964 12.1789C9.26319 12.1906 9.39124 12.3307 9.3879 12.498C9.38647 12.6775 9.34721 12.8533 9.27321 13.0151C9.2366 13.0952 9.2467 13.1914 9.30886 13.2537L9.66483 13.6107C9.77659 13.7329 9.7724 13.9202 9.65529 14.0372C9.59706 14.0954 9.51967 14.1274 9.43733 14.1274C9.35998 14.1274 9.28597 14.0986 9.22894 14.0463L9.22693 14.0443L8.7674 13.5847C8.56807 13.7057 8.3407 13.7695 8.10657 13.7697C7.25959 13.7737 6.5617 14.4131 6.48346 15.257C6.40544 16.0988 6.97088 16.854 7.7996 17.0162C7.79971 17.0163 7.79982 17.0163 7.79993 17.0163C7.80087 17.0163 7.80163 17.0155 7.80167 17.0146C7.8181 16.6307 7.93332 16.2546 8.13501 15.9271C8.33779 15.5978 8.62361 15.3246 8.96163 15.1369C9.00734 15.1117 9.05886 15.0984 9.11068 15.0984C9.22312 15.0984 9.32672 15.1595 9.38102 15.2579C9.46328 15.4069 9.40898 15.595 9.26002 15.6773C8.60685 16.0393 8.28101 16.7974 8.46777 17.5207C8.65452 18.244 9.3065 18.7494 10.0533 18.7498ZM16.9721 8.88152C17.1089 8.91853 17.2473 8.81069 17.2215 8.67136C16.8682 6.75811 15.0289 5.25 12.9728 5.25H12.9689C12.6041 5.25159 12.3074 5.54999 12.3078 5.91518V9.53574C12.3078 9.64671 12.4032 9.73608 12.5092 9.70324C12.8786 9.5888 13.1477 9.24376 13.1516 8.84289C13.1496 8.68127 13.2703 8.54524 13.4324 8.52789L13.4355 8.52763C13.4441 8.52712 13.4528 8.52709 13.4614 8.52752C13.5432 8.52801 13.6198 8.55996 13.6774 8.61763C13.7348 8.67503 13.7676 8.7545 13.7675 8.83568C13.7681 9.02576 13.7324 9.21506 13.6632 9.39182C13.6332 9.46848 13.6465 9.55702 13.7047 9.61524L14.167 10.0778C14.2827 10.2 14.2801 10.3889 14.1611 10.5079C14.1029 10.5662 14.0255 10.5982 13.9431 10.5982C13.8639 10.5982 13.7886 10.5683 13.7311 10.5138L13.7299 10.5126L13.2203 10.0039C13.0111 10.18 12.7582 10.2961 12.4898 10.3406C12.3888 10.3573 12.3078 10.4402 12.3078 10.5426V17.1121C12.3083 17.9135 12.8821 18.5926 13.672 18.7267C13.763 18.7422 13.8556 18.75 13.9473 18.75C14.6417 18.75 15.2626 18.3091 15.4925 17.6529C15.7575 16.8965 15.4411 16.0657 14.7403 15.6773C14.668 15.6375 14.6154 15.5718 14.5924 15.4923C14.5694 15.4129 14.5787 15.3292 14.6185 15.2568C14.673 15.1579 14.777 15.0964 14.8899 15.0964C14.9418 15.0964 14.9933 15.1097 15.039 15.1348C15.3772 15.3225 15.663 15.5956 15.8658 15.9248C16.0674 16.2522 16.1826 16.6279 16.1991 17.012C16.1992 17.0131 16.2001 17.0139 16.2011 17.0139C16.2013 17.0139 16.2014 17.0139 16.2015 17.0139C17.0282 16.8498 17.5919 16.0947 17.5136 15.2546C17.4351 14.4123 16.7383 13.7733 15.8927 13.7681L15.8904 13.7681C15.7245 13.7614 15.5945 13.626 15.5945 13.4599C15.5945 13.2937 15.7245 13.1584 15.8904 13.1517L15.8931 13.1516C16.5773 13.1523 17.2164 13.4609 17.6413 13.9867C17.7119 14.0739 17.8409 14.0948 17.9225 14.0178C18.471 13.4999 18.7767 12.7613 18.7482 12.002L18.7481 11.9996C18.7464 10.5606 17.5747 9.38874 16.1362 9.38725C16.0515 9.38725 15.9698 9.35187 15.9118 9.2902C15.8538 9.22849 15.8235 9.14462 15.8288 9.0601C15.842 8.89729 15.9793 8.77073 16.1413 8.77073L16.1454 8.77075C16.4259 8.77148 16.7029 8.80866 16.9721 8.88152Z" fill="#736AE1"/>
</svg>
