<svg viewBox="0 0 12 14" fill="none" xmlns="http://www.w3.org/2000/svg">
<path d="M7.52802 0.528199C7.65303 0.403218 7.82257 0.333008 7.99935 0.333008C8.17612 0.333008 8.34566 0.403218 8.47068 0.528199L11.1373 3.19487C11.2623 3.31988 11.3325 3.48942 11.3325 3.6662C11.3325 3.84297 11.2623 4.01251 11.1373 4.13753L8.47068 6.8042C8.34495 6.92564 8.17655 6.99283 8.00175 6.99131C7.82695 6.9898 7.65974 6.91968 7.53614 6.79608C7.41253 6.67247 7.34242 6.50526 7.3409 6.33047C7.33938 6.15567 7.40658 5.98727 7.52802 5.86153L9.05668 4.33287H1.33268C1.15587 4.33287 0.986302 4.26263 0.861278 4.1376C0.736254 4.01258 0.666016 3.84301 0.666016 3.6662C0.666016 3.48939 0.736254 3.31982 0.861278 3.19479C0.986302 3.06977 1.15587 2.99953 1.33268 2.99953H9.05668L7.52802 1.47087C7.40303 1.34585 7.33282 1.17631 7.33282 0.999532C7.33282 0.822756 7.40303 0.653217 7.52802 0.528199ZM4.47068 7.19487C4.59566 7.31988 4.66587 7.48942 4.66587 7.6662C4.66587 7.84297 4.59566 8.01251 4.47068 8.13753L2.94202 9.6662H10.666C10.8428 9.6662 11.0124 9.73644 11.1374 9.86146C11.2624 9.98648 11.3327 10.1561 11.3327 10.3329C11.3327 10.5097 11.2624 10.6792 11.1374 10.8043C11.0124 10.9293 10.8428 10.9995 10.666 10.9995H2.94202L4.47068 12.5282C4.59212 12.6539 4.65932 12.8223 4.6578 12.9971C4.65628 13.1719 4.58617 13.3391 4.46256 13.4627C4.33896 13.5863 4.17175 13.6565 3.99695 13.658C3.82215 13.6595 3.65375 13.5923 3.52802 13.4709L0.861349 10.8042C0.736368 10.6792 0.666158 10.5096 0.666158 10.3329C0.666158 10.1561 0.736368 9.98655 0.861349 9.86153L3.52802 7.19487C3.65303 7.06988 3.82257 6.99967 3.99935 6.99967C4.17612 6.99967 4.34566 7.06988 4.47068 7.19487Z" fill=""/>
</svg>
