<svg viewBox="0 0 29 28" fill="none" xmlns="http://www.w3.org/2000/svg">
<path fill-rule="evenodd" clip-rule="evenodd" d="M16.0306 1.45837H18.7454C20.1394 1.45836 21.248 1.45836 22.1371 1.54289C23.0487 1.62957 23.8195 1.81126 24.5061 2.23202C25.2125 2.66491 25.8064 3.25885 26.2393 3.96527C26.6601 4.65189 26.8418 5.42266 26.9284 6.33428C27.013 7.22335 27.013 8.33193 27.013 9.72599V10.6777C27.013 11.67 27.013 12.4593 26.9693 13.0993C26.9246 13.754 26.8314 14.3161 26.6133 14.8425C26.0805 16.1289 25.0584 17.151 23.772 17.6838C23.3297 17.867 22.8582 17.9632 22.324 18.0156C22.3178 18.1781 22.31 18.3326 22.2999 18.4797C22.2525 19.1751 22.1537 19.7676 21.9245 20.3208C21.3621 21.6787 20.2833 22.7575 18.9254 23.3199C18.229 23.6084 17.461 23.6929 16.4951 23.7238C15.9754 23.7404 15.6432 23.7518 15.3909 23.7826C15.1523 23.8117 15.0628 23.8506 15.0144 23.8792C14.9606 23.911 14.8863 23.9694 14.7569 24.1476C14.617 24.3402 14.4587 24.6059 14.2079 25.0296L13.9052 25.541C13.1154 26.8753 11.1606 26.8753 10.3708 25.541L10.0681 25.0296C9.81731 24.6059 9.65899 24.3402 9.51913 24.1476C9.38967 23.9694 9.31543 23.911 9.26164 23.8792C9.21325 23.8506 9.12372 23.8117 8.88514 23.7826C8.63279 23.7518 8.30059 23.7404 7.7809 23.7238C6.81504 23.6929 6.04699 23.6084 5.35065 23.3199C3.99278 22.7575 2.91397 21.6787 2.35152 20.3208C2.12238 19.7676 2.02356 19.1751 1.97612 18.4797C1.92968 17.799 1.92968 16.9588 1.92969 15.8987V14.8883C1.92968 13.3989 1.92967 12.2188 2.01958 11.2732C2.11163 10.3051 2.30406 9.49289 2.74631 8.77121C3.20325 8.02554 3.83018 7.39861 4.57584 6.94166C5.29752 6.49941 6.1097 6.30698 7.07782 6.21493C7.32393 6.19153 7.58592 6.17422 7.86512 6.16142C7.95848 5.32161 8.14462 4.60493 8.5366 3.96527C8.96949 3.25885 9.56342 2.66491 10.2698 2.23202C10.9565 1.81126 11.7272 1.62957 12.6388 1.54289C13.5279 1.45836 14.6365 1.45836 16.0306 1.45837ZM9.63355 6.12644C9.96814 6.12504 10.3209 6.12504 10.6929 6.12504H13.5832C15.0725 6.12503 16.2527 6.12502 17.1982 6.21493C18.1663 6.30698 18.9785 6.49941 19.7002 6.94166C20.4459 7.39861 21.0728 8.02554 21.5297 8.77121C21.972 9.49289 22.1644 10.3051 22.2565 11.2732C22.3464 12.2188 22.3464 13.3989 22.3464 14.8882V15.8987C22.3464 16.0192 22.3464 16.1369 22.3463 16.2519C22.6676 16.2102 22.902 16.15 23.1023 16.067C23.9599 15.7118 24.6413 15.0304 24.9965 14.1728C25.1115 13.8952 25.1848 13.5457 25.2234 12.9802C25.2625 12.4067 25.263 11.6771 25.263 10.6459V9.77091C25.263 8.32183 25.262 7.29647 25.1863 6.49992C25.1118 5.7164 24.9711 5.24508 24.7472 4.87964C24.4586 4.40869 24.0626 4.01273 23.5917 3.72414C23.2263 3.50019 22.7549 3.35953 21.9714 3.28503C21.1749 3.2093 20.1495 3.20837 18.7005 3.20837H16.0755C14.6264 3.20837 13.601 3.2093 12.8045 3.28503C12.021 3.35953 11.5497 3.50019 11.1842 3.72414C10.7133 4.01273 10.3173 4.40869 10.0287 4.87964C9.8414 5.18532 9.71403 5.56139 9.63355 6.12644ZM7.24347 7.95707C6.40344 8.03694 5.89072 8.18835 5.49022 8.43378C4.98003 8.74643 4.55107 9.17538 4.23843 9.68558C3.993 10.0861 3.84159 10.5988 3.76172 11.4388C3.68061 12.2919 3.67969 13.3889 3.67969 14.9334V15.8667C3.67969 16.9659 3.68016 17.7465 3.72206 18.3606C3.76343 18.9668 3.84222 19.3467 3.96831 19.6511C4.35314 20.5802 5.09128 21.3183 6.02035 21.7032C6.41023 21.8646 6.91254 21.9451 7.83685 21.9747L7.87313 21.9758C8.3461 21.9909 8.75749 22.0041 9.09704 22.0455C9.45901 22.0896 9.81464 22.1731 10.1526 22.373C10.4852 22.5697 10.7254 22.8305 10.9351 23.1192C11.129 23.3862 11.3289 23.7239 11.5554 24.1067L11.8768 24.6496C11.9297 24.7391 12.0222 24.7917 12.138 24.7917C12.2538 24.7917 12.3463 24.7391 12.3992 24.6496L12.7206 24.1067C12.9471 23.7239 13.147 23.3862 13.341 23.1192C13.5506 22.8305 13.7908 22.5697 14.1234 22.373C14.4614 22.1731 14.817 22.0896 15.179 22.0455C15.5185 22.0041 15.9299 21.9909 16.4029 21.9758L16.4392 21.9747C17.3635 21.9451 17.8658 21.8646 18.2557 21.7032C19.1848 21.3183 19.9229 20.5802 20.3077 19.6511C20.4338 19.3467 20.5126 18.9668 20.554 18.3606C20.5959 17.7465 20.5964 16.9659 20.5964 15.8667V14.9334C20.5964 13.3889 20.5954 12.2919 20.5143 11.4388C20.4345 10.5988 20.283 10.0861 20.0376 9.68558C19.725 9.17538 19.296 8.74643 18.7858 8.43378C18.3853 8.18835 17.8726 8.03694 17.0326 7.95707C16.1795 7.87596 15.0826 7.87504 13.538 7.87504H10.738C9.19348 7.87504 8.09651 7.87596 7.24347 7.95707Z" fill=""/>
<path d="M9.22135 15.1667C9.22135 15.811 8.69902 16.3334 8.05469 16.3334C7.41036 16.3334 6.88802 15.811 6.88802 15.1667C6.88802 14.5224 7.41036 14 8.05469 14C8.69902 14 9.22135 14.5224 9.22135 15.1667Z" fill=""/>
<path d="M13.3047 15.1667C13.3047 15.811 12.7824 16.3334 12.138 16.3334C11.4937 16.3334 10.9714 15.811 10.9714 15.1667C10.9714 14.5224 11.4937 14 12.138 14C12.7824 14 13.3047 14.5224 13.3047 15.1667Z" fill=""/>
<path d="M17.388 15.1667C17.388 15.811 16.8657 16.3334 16.2214 16.3334C15.577 16.3334 15.0547 15.811 15.0547 15.1667C15.0547 14.5224 15.577 14 16.2214 14C16.8657 14 17.388 14.5224 17.388 15.1667Z" fill=""/>
</svg>
