<svg viewBox="0 0 17 16" fill="none" xmlns="http://www.w3.org/2000/svg">
<g clip-path="url(#clip0_14396_23335)">
<path d="M14.668 8.5C14.4136 11.58 11.8136 14 8.66797 14C7.07667 14 5.55055 13.3679 4.42533 12.2426C3.30011 11.1174 2.66797 9.5913 2.66797 8C2.66797 4.85437 5.08797 2.25438 8.16797 2" stroke="" stroke-width="1.33333" stroke-linecap="round" stroke-linejoin="round"/>
<path d="M8.66797 4.5V8H12.168" stroke="" stroke-width="1.33333" stroke-linecap="round" stroke-linejoin="round"/>
<path d="M10.668 2.875C11.0131 2.875 11.293 2.59518 11.293 2.25C11.293 1.90482 11.0131 1.625 10.668 1.625C10.3228 1.625 10.043 1.90482 10.043 2.25C10.043 2.59518 10.3228 2.875 10.668 2.875Z" fill=""/>
<path d="M12.918 4.375C13.2631 4.375 13.543 4.09518 13.543 3.75C13.543 3.40482 13.2631 3.125 12.918 3.125C12.5728 3.125 12.293 3.40482 12.293 3.75C12.293 4.09518 12.5728 4.375 12.918 4.375Z" fill=""/>
<path d="M14.418 6.625C14.7631 6.625 15.043 6.34518 15.043 6C15.043 5.65482 14.7631 5.375 14.418 5.375C14.0728 5.375 13.793 5.65482 13.793 6C13.793 6.34518 14.0728 6.625 14.418 6.625Z" fill=""/>
</g>
<defs>
<clipPath id="clip0_14396_23335">
<rect width="16" height="16" fill="white" transform="translate(0.667969)"/>
</clipPath>
</defs>
</svg>
