<svg viewBox="0 0 20 20" fill="none" xmlns="http://www.w3.org/2000/svg">
<path d="M7.50033 9.99935C7.50033 10.4596 7.12723 10.8327 6.66699 10.8327C6.20676 10.8327 5.83366 10.4596 5.83366 9.99935C5.83366 9.53911 6.20676 9.16602 6.66699 9.16602C7.12723 9.16602 7.50033 9.53911 7.50033 9.99935Z" fill=""/>
<path d="M10.8337 9.99935C10.8337 10.4596 10.4606 10.8327 10.0003 10.8327C9.54009 10.8327 9.16699 10.4596 9.16699 9.99935C9.16699 9.53911 9.54009 9.16602 10.0003 9.16602C10.4606 9.16602 10.8337 9.53911 10.8337 9.99935Z" fill=""/>
<path d="M14.167 9.99935C14.167 10.4596 13.7939 10.8327 13.3337 10.8327C12.8734 10.8327 12.5003 10.4596 12.5003 9.99935C12.5003 9.53911 12.8734 9.16602 13.3337 9.16602C13.7939 9.16602 14.167 9.53911 14.167 9.99935Z" fill=""/>
<path fill-rule="evenodd" clip-rule="evenodd" d="M18.9587 9.99935C18.9587 5.0518 14.9479 1.04102 10.0003 1.04102C5.05277 1.04102 1.04199 5.0518 1.04199 9.99935C1.04199 11.4313 1.37842 12.7864 1.9771 13.9884C2.06644 14.1678 2.08539 14.3509 2.04416 14.505L1.54782 16.36C1.20805 17.6299 2.3698 18.7916 3.63966 18.4519L5.49469 17.9555C5.64877 17.9143 5.83192 17.9332 6.01128 18.0226C7.21326 18.6213 8.5684 18.9577 10.0003 18.9577C14.9479 18.9577 18.9587 14.9469 18.9587 9.99935ZM10.0003 2.29102C14.2575 2.29102 17.7087 5.74215 17.7087 9.99935C17.7087 14.2565 14.2575 17.7077 10.0003 17.7077C8.76611 17.7077 7.60133 17.4181 6.56858 16.9037C6.15408 16.6972 5.65843 16.6177 5.1716 16.748L3.31657 17.2443C2.97588 17.3355 2.66419 17.0238 2.75535 16.6831L3.25169 14.8281C3.38195 14.3412 3.30244 13.8456 3.09599 13.4311C2.5816 12.3983 2.29199 11.2336 2.29199 9.99935C2.29199 5.74215 5.74313 2.29102 10.0003 2.29102Z" fill=""/>
</svg>
