<svg width="" height="" viewBox="0 0 21 20" fill="none" xmlns="http://www.w3.org/2000/svg">
<path d="M12.4661 3.39823L13.2385 2.62583C14.5182 1.34608 16.5931 1.34608 17.8729 2.62583C19.1526 3.90558 19.1526 5.98047 17.8729 7.26023L17.1005 8.03263M12.4661 3.39823C12.4661 3.39823 12.5626 5.03958 14.0109 6.48783C15.4591 7.93608 17.1005 8.03263 17.1005 8.03263M12.4661 3.39823L5.36504 10.4993C4.88407 10.9802 4.64358 11.2207 4.43676 11.4859C4.19279 11.7987 3.98363 12.1371 3.81297 12.4952C3.66829 12.7988 3.56075 13.1214 3.34565 13.7667L2.65699 15.8327L2.43419 16.5011M17.1005 8.03263L9.99943 15.1337C9.51846 15.6146 9.27798 15.8551 9.01282 16.0619C8.70003 16.3059 8.36159 16.5151 8.0035 16.6857C7.69993 16.8304 7.37728 16.938 6.732 17.153L4.66602 17.8417L3.99762 18.0645M3.99762 18.0645L3.32922 18.2873C3.01167 18.3932 2.66156 18.3105 2.42487 18.0738C2.18819 17.8371 2.10554 17.487 2.21139 17.1695L2.43419 16.5011M3.99762 18.0645L2.43419 16.5011" stroke="" stroke-width="1.5"/>
</svg>
