<svg width="" height="" viewBox="0 0 24 24" fill="none" xmlns="http://www.w3.org/2000/svg">
<rect width="24" height="24" rx="12" fill="#E6FFF4"/>
<path fill-rule="evenodd" clip-rule="evenodd" d="M7.5 6.50047C7.50045 5.98148 7.89941 5.55866 8.38935 5.55795H14.8602C15.3502 5.55866 15.7493 5.98148 15.75 6.50044L15.75 17.8079C15.7493 18.3269 15.3502 18.7495 14.8603 18.75L8.38934 18.75C7.89963 18.7493 7.50067 18.3267 7.5 17.808L7.5 6.50047ZM13.4371 8.11714C13.547 7.53902 12.8659 7.19091 12.5238 7.65034L8.86144 12.5694C8.58733 12.9375 8.82923 13.4856 9.26585 13.4856H9.88704C10.0024 13.4856 10.0885 13.5918 10.0645 13.7046L9.47889 16.4684C9.35817 17.0381 10.0198 17.4049 10.3758 16.9656L13.9948 12.4989C14.2895 12.1351 14.0511 11.5648 13.6043 11.5648L13.0013 11.5648C12.8875 11.5648 12.8018 11.4612 12.823 11.3494L13.4371 8.11714ZM9.62717 12.9227C9.47794 12.9227 9.39251 12.7526 9.48163 12.6329L12.4572 8.63632C12.5722 8.48184 12.817 8.58934 12.781 8.77855L12.2732 11.4513C12.2069 11.8004 12.4531 12.1276 12.7821 12.1276H13.2238C13.3765 12.1276 13.4609 12.3047 13.3648 12.4233L10.4602 16.0082C10.3401 16.1564 10.1021 16.0429 10.1417 15.8564L10.6174 13.6115C10.6921 13.259 10.4448 12.9227 10.111 12.9227H9.62717ZM13.023 4.94503C13.023 5.19081 12.8237 5.39006 12.5779 5.39006H10.6721C10.4263 5.39006 10.227 5.19081 10.227 4.94503C10.227 4.69925 10.4263 4.5 10.6721 4.5H12.5779C12.8237 4.5 13.023 4.69925 13.023 4.94503Z" fill="#53E0A2"/>
<rect x="0.5625" y="0.5625" width="22.875" height="22.875" rx="11.4375" stroke="white" stroke-width="1.125"/>
</svg>
