<svg width="" height="" viewBox="0 0 25 24" fill="none" xmlns="http://www.w3.org/2000/svg">
<g clip-path="url(#clip0_16875_87055)">
<path d="M12.5 21C17.4706 21 21.5 16.9706 21.5 12C21.5 7.02944 17.4706 3 12.5 3C7.52944 3 3.5 7.02944 3.5 12C3.5 16.9706 7.52944 21 12.5 21Z" stroke="" stroke-width="1.5" stroke-linecap="round" stroke-linejoin="round"/>
<path d="M11.75 11.25C11.9489 11.25 12.1397 11.329 12.2803 11.4697C12.421 11.6103 12.5 11.8011 12.5 12V15.75C12.5 15.9489 12.579 16.1397 12.7197 16.2803C12.8603 16.421 13.0511 16.5 13.25 16.5" stroke="" stroke-width="1.5" stroke-linecap="round" stroke-linejoin="round"/>
<path d="M12.125 9C12.7463 9 13.25 8.49632 13.25 7.875C13.25 7.25368 12.7463 6.75 12.125 6.75C11.5037 6.75 11 7.25368 11 7.875C11 8.49632 11.5037 9 12.125 9Z" fill=""/>
</g>
<defs>
<clipPath id="clip0_16875_87055">
<rect width="24" height="24" fill="white" transform="translate(0.5)"/>
</clipPath>
</defs>
</svg>
