<svg viewBox="0 0 25 25" fill="none" xmlns="http://www.w3.org/2000/svg">
<mask id="mask0_7217_25139" style="mask-type:alpha" maskUnits="userSpaceOnUse" x="0" y="0" width="25" height="25">
<rect x="0.25" y="0.519531" width="24" height="24" fill="#D9D9D9"/>
</mask>
<g mask="url(#mask0_7217_25139)">
<ellipse cx="12.9368" cy="12.749" rx="6.86646" ry="5.54883" fill="white"/>
<path d="M10.85 14.3195L8.7 12.1695C8.51667 11.9862 8.28333 11.8945 8 11.8945C7.71667 11.8945 7.48333 11.9862 7.3 12.1695C7.11667 12.3529 7.025 12.5862 7.025 12.8695C7.025 13.1529 7.11667 13.3862 7.3 13.5695L10.15 16.4195C10.35 16.6195 10.5833 16.7195 10.85 16.7195C11.1167 16.7195 11.35 16.6195 11.55 16.4195L17.2 10.7695C17.3833 10.5862 17.475 10.3529 17.475 10.0695C17.475 9.7862 17.3833 9.55286 17.2 9.36953C17.0167 9.1862 16.7833 9.09453 16.5 9.09453C16.2167 9.09453 15.9833 9.1862 15.8 9.36953L10.85 14.3195ZM12.25 22.5195C10.8667 22.5195 9.56667 22.257 8.35 21.732C7.13333 21.207 6.075 20.4945 5.175 19.5945C4.275 18.6945 3.5625 17.6362 3.0375 16.4195C2.5125 15.2029 2.25 13.9029 2.25 12.5195C2.25 11.1362 2.5125 9.8362 3.0375 8.61953C3.5625 7.40286 4.275 6.34453 5.175 5.44453C6.075 4.54453 7.13333 3.83203 8.35 3.30703C9.56667 2.78203 10.8667 2.51953 12.25 2.51953C13.6333 2.51953 14.9333 2.78203 16.15 3.30703C17.3667 3.83203 18.425 4.54453 19.325 5.44453C20.225 6.34453 20.9375 7.40286 21.4625 8.61953C21.9875 9.8362 22.25 11.1362 22.25 12.5195C22.25 13.9029 21.9875 15.2029 21.4625 16.4195C20.9375 17.6362 20.225 18.6945 19.325 19.5945C18.425 20.4945 17.3667 21.207 16.15 21.732C14.9333 22.257 13.6333 22.5195 12.25 22.5195Z" fill="#F24F7A"/>
</g>
</svg>
