<svg width="" height="" viewBox="0 0 39 38" fill="none" xmlns="http://www.w3.org/2000/svg">
<path d="M20.8498 3.00389L24.8425 12.5189C24.9391 12.7498 25.097 12.95 25.299 13.0978C25.501 13.2456 25.7396 13.3354 25.9889 13.3576L36.2086 14.2411C36.4797 14.2629 36.7384 14.3646 36.9517 14.5334C37.165 14.7022 37.3235 14.9305 37.407 15.1894C37.4905 15.4483 37.4954 15.7262 37.421 15.9878C37.3465 16.2495 37.1962 16.4832 36.9889 16.6594L29.2356 23.4226C29.0472 23.5882 28.9071 23.8017 28.8302 24.0404C28.7533 24.2792 28.7426 24.5343 28.7991 24.7787L31.1228 34.8403C31.1842 35.1031 31.1669 35.3781 31.0731 35.6312C30.9793 35.8842 30.8131 36.1041 30.5952 36.2633C30.3773 36.4225 30.1174 36.5141 29.8478 36.5267C29.5783 36.5393 29.3109 36.4722 29.0792 36.3339L20.2964 31.0058C20.083 30.876 19.838 30.8074 19.5883 30.8074C19.3385 30.8074 19.0936 30.876 18.8801 31.0058L10.0973 36.3339C9.8656 36.4722 9.59829 36.5393 9.32871 36.5267C9.05913 36.5141 8.79921 36.4225 8.58133 36.2633C8.36345 36.1041 8.19724 35.8842 8.10343 35.6312C8.00961 35.3781 7.99233 35.1031 8.05374 34.8403L10.3775 24.7787C10.434 24.5343 10.4232 24.2792 10.3463 24.0404C10.2695 23.8017 10.1294 23.5882 9.94093 23.4226L2.18765 16.6594C1.98037 16.4832 1.83 16.2495 1.75558 15.9878C1.68116 15.7262 1.68602 15.4483 1.76956 15.1894C1.8531 14.9305 2.01155 14.7022 2.22488 14.5334C2.4382 14.3646 2.6968 14.2629 2.96796 14.2411L13.1876 13.3576C13.437 13.3354 13.6755 13.2456 13.8776 13.0978C14.0796 12.95 14.2374 12.7498 14.3341 12.5189L18.3267 3.00389C18.4334 2.75789 18.6096 2.54844 18.8337 2.4013C19.0579 2.25417 19.3202 2.17578 19.5883 2.17578C19.8564 2.17578 20.1187 2.25417 20.3428 2.4013C20.567 2.54844 20.7432 2.75789 20.8498 3.00389Z" fill="" stroke="" stroke-width="2.75" stroke-linecap="round" stroke-linejoin="round"/>
</svg>
