<svg viewBox="0 0 16 16" fill="none" xmlns="http://www.w3.org/2000/svg">
<g clip-path="url(#clip0_14396_23376)">
<path d="M8.45853 1.80601L9.91041 5.26602C9.94555 5.34998 10.0029 5.42277 10.0764 5.47652C10.1499 5.53026 10.2366 5.56294 10.3273 5.57101L14.0435 5.89226C14.1421 5.90019 14.2362 5.93719 14.3137 5.99857C14.3913 6.05996 14.4489 6.14297 14.4793 6.23712C14.5097 6.33126 14.5115 6.4323 14.4844 6.52745C14.4573 6.62259 14.4027 6.70758 14.3273 6.77164L11.5079 9.23101C11.4394 9.29121 11.3884 9.36884 11.3605 9.45567C11.3325 9.54249 11.3286 9.63527 11.3492 9.72414L12.1942 13.3829C12.2165 13.4785 12.2102 13.5785 12.1761 13.6705C12.142 13.7625 12.0815 13.8424 12.0023 13.9003C11.9231 13.9582 11.8286 13.9916 11.7305 13.9961C11.6325 14.0007 11.5353 13.9763 11.451 13.926L8.25728 11.9885C8.17968 11.9413 8.09061 11.9164 7.99978 11.9164C7.90896 11.9164 7.81989 11.9413 7.74228 11.9885L4.54853 13.926C4.46427 13.9763 4.36706 14.0007 4.26903 13.9961C4.17101 13.9916 4.07649 13.9582 3.99726 13.9003C3.91803 13.8424 3.85759 13.7625 3.82348 13.6705C3.78936 13.5785 3.78308 13.4785 3.80541 13.3829L4.65041 9.72414C4.67095 9.63527 4.66704 9.54249 4.63908 9.45567C4.61113 9.36884 4.56019 9.29121 4.49166 9.23101L1.67228 6.77164C1.59691 6.70758 1.54223 6.62259 1.51517 6.52745C1.48811 6.4323 1.48988 6.33126 1.52025 6.23712C1.55063 6.14297 1.60825 6.05996 1.68582 5.99857C1.76339 5.93719 1.85743 5.90019 1.95603 5.89226L5.67228 5.57101C5.76295 5.56294 5.84969 5.53026 5.92316 5.47652C5.99662 5.42277 6.05402 5.34998 6.08916 5.26602L7.54103 1.80601C7.57981 1.71656 7.6439 1.64039 7.72541 1.58689C7.80691 1.53339 7.90229 1.50488 7.99978 1.50488C8.09728 1.50488 8.19266 1.53339 8.27416 1.58689C8.35567 1.64039 8.41976 1.71656 8.45853 1.80601Z" stroke="" stroke-width="1.33333" stroke-linecap="round" stroke-linejoin="round"/>
</g>
<defs>
<clipPath id="clip0_14396_23376">
<rect width="16" height="16" fill=""/>
</clipPath>
</defs>
</svg>
