<svg viewBox="0 0 16 17" fill="none" xmlns="http://www.w3.org/2000/svg">
<g clip-path="url(#clip0_14396_23222)">
<path d="M14 13.3027V13.8027C14 14.3332 13.7893 14.8419 13.4142 15.2169C13.0391 15.592 12.5304 15.8027 12 15.8027H8.5" stroke="" stroke-width="1.5" stroke-linecap="round" stroke-linejoin="round"/>
<path d="M14 8.80273H12C11.7348 8.80273 11.4804 8.90809 11.2929 9.09563C11.1054 9.28316 11 9.53752 11 9.80273V12.3027C11 12.568 11.1054 12.8223 11.2929 13.0098C11.4804 13.1974 11.7348 13.3027 12 13.3027H14V8.80273ZM14 8.80273C14 8.0148 13.8448 7.23459 13.5433 6.50663C13.2417 5.77868 12.7998 5.11725 12.2426 4.56009C11.6855 4.00294 11.0241 3.56099 10.2961 3.25946C9.56815 2.95793 8.78793 2.80273 8 2.80273C7.21207 2.80273 6.43185 2.95793 5.7039 3.25946C4.97595 3.56099 4.31451 4.00294 3.75736 4.56009C3.20021 5.11725 2.75825 5.77868 2.45672 6.50663C2.15519 7.23459 2 8.0148 2 8.80273M2 8.80273V12.3027C2 12.568 2.10536 12.8223 2.29289 13.0098C2.48043 13.1974 2.73478 13.3027 3 13.3027H4C4.26522 13.3027 4.51957 13.1974 4.70711 13.0098C4.89464 12.8223 5 12.568 5 12.3027V9.80273C5 9.53752 4.89464 9.28316 4.70711 9.09563C4.51957 8.90809 4.26522 8.80273 4 8.80273H2Z" stroke="" stroke-width="1.5" stroke-linecap="round" stroke-linejoin="round"/>
</g>
<defs>
<clipPath id="clip0_14396_23222">
<rect width="16" height="16" fill="white" transform="translate(0 0.802734)"/>
</clipPath>
</defs>
</svg>
