<svg viewBox="0 0 838 702" fill="none" xmlns="http://www.w3.org/2000/svg">
<path fill-rule="evenodd" clip-rule="evenodd" d="M488.163 75.2537C568.218 18.3741 667.303 -15.8352 736.643 7.33045C866.422 50.5035 850.137 202.32 804.436 294.617C693.156 519.767 386.247 729.473 295.238 699.049C183.114 659.779 -75.9244 320.314 21.4793 130.234C47.8163 78.8388 117.497 -7.17432 244.166 37.1899C290.616 53.4584 349.051 102.783 394.295 165.483C418.288 132.962 451.096 101.745 488.163 75.2537ZM484.066 91.5675C559.385 38.0527 652.609 5.86715 717.846 27.6624C839.948 68.2815 824.627 211.117 781.629 297.954C676.932 509.784 388.179 707.085 302.553 678.461C197.063 641.514 -46.6517 322.131 44.9899 143.296C69.7689 94.9405 135.328 14.0157 254.503 55.7554C298.206 71.0616 353.184 117.468 395.751 176.459C418.325 145.862 449.192 116.491 484.066 91.5675Z" fill="url(#paint0_linear_42851_60946)"/>
<defs>
<linearGradient id="paint0_linear_42851_60946" x1="224.043" y1="555.065" x2="796.496" y2="51.5826" gradientUnits="userSpaceOnUse">
<stop stop-color="#EFEFEF" stop-opacity="0"/>
<stop offset="1" stop-color="#FF9EB8"/>
</linearGradient>
</defs>
</svg>
