<svg viewBox="0 0 220 220" fill="none" xmlns="http://www.w3.org/2000/svg">
<g clip-path="url(#clip0_62255_11157)">
<path d="M220 0H0V220H220V0Z" fill="#F24F7A"/>
<g filter="url(#filter0_di_62255_11157)">
<path d="M84.9341 60.2321C82.6106 59.4986 79.2902 60.5819 76.6073 62.3826C75.3655 63.2213 74.2661 64.2097 73.462 65.2395C71.9458 63.2544 69.9878 61.6925 68.4309 61.1774C64.1865 59.773 61.8514 62.4962 60.9688 64.1234C57.7048 70.1416 66.3852 80.8895 70.1424 82.1328C73.1924 83.0961 83.477 76.4564 87.2057 69.3278C88.7371 66.4057 89.2829 61.599 84.9341 60.2321Z" fill="white"/>
</g>
<path d="M166.249 133C166.854 133.3 167.042 133.6 166.893 134.2C166.56 135.901 161.515 142 153.988 142C147.401 142 143.819 138.101 145.277 131L149.77 108.101C151.057 101.901 149.442 99.7011 146.186 99.9017C141.571 100.101 135.573 107.801 133.605 117.6L129.148 140.001C129.007 140.5 128.589 140.5 128.478 140.601C126.14 141.1 123.513 141.3 120.795 141.3C118.076 141.3 115.59 141 113.319 140.601C113.221 140.5 112.916 140.4 112.937 140.1L119.347 108.101C120.636 101.901 118.914 99.7011 115.763 99.9017C111.149 100.101 105.173 107.501 103.19 117.501L98.6223 140.001C98.4801 140.5 98.0619 140.5 97.9508 140.601C95.7192 141.1 93.0907 141.3 90.3726 141.3C87.6544 141.3 84.9583 141 82.5831 140.601C82.4859 140.5 82.1793 140.4 82.2013 140.1C83.2758 135.4 87.5644 115.301 89.244 106.601C90.5471 100.202 88.5366 99.1014 85.8987 98.0015C85.3978 97.7014 85.2108 97.4015 85.2544 96.8016C85.5875 95.1016 90.6322 89.0017 98.1599 89.0017C104.118 89.0017 106.783 92.6017 106.613 97.8014C106.524 99.0015 106.34 100.101 106.141 101.402H106.454C111.772 93.0015 118.432 89.1017 124.817 89.0017C132.352 88.9016 137.063 93.1015 136.57 101.301H136.883C141.963 93.3016 148.744 89.2018 155.344 89.0017C163.715 88.9016 168.772 94.1015 166.759 104.5C165.633 109.902 164.21 116.501 162.604 124.2C161.279 130.901 163.611 131.901 166.249 133Z" fill="white"/>
<g filter="url(#filter1_di_62255_11157)">
<path d="M61.9543 141.424C55.3282 141.424 51.7228 137.557 53.0853 130.518L61.286 90.7592C61.3007 90.561 61.4208 90.3626 61.7434 90.2634C63.9816 89.8668 66.8431 89.5693 69.3674 89.5693C72.1021 89.5693 74.927 89.7678 77.0993 90.2634C77.1971 90.3626 77.5051 90.4618 77.378 90.7592L70.6228 123.776C69.2897 130.418 71.6353 131.41 74.2894 132.501C74.8983 132.798 75.0867 133.095 74.9373 133.69C74.6024 135.376 69.5271 141.424 61.9543 141.424Z" fill="white"/>
</g>
</g>
<defs>
<filter id="filter0_di_62255_11157" x="59.2485" y="59.4079" width="30.8929" height="25.0443" filterUnits="userSpaceOnUse" color-interpolation-filters="sRGB">
<feFlood flood-opacity="0" result="BackgroundImageFix"/>
<feColorMatrix in="SourceAlpha" type="matrix" values="0 0 0 0 0 0 0 0 0 0 0 0 0 0 0 0 0 0 127 0" result="hardAlpha"/>
<feOffset dx="0.408365" dy="0.81673"/>
<feGaussianBlur stdDeviation="0.70443"/>
<feComposite in2="hardAlpha" operator="out"/>
<feColorMatrix type="matrix" values="0 0 0 0 0.937489 0 0 0 0 0.362932 0 0 0 0 0.53654 0 0 0 0.6 0"/>
<feBlend mode="normal" in2="BackgroundImageFix" result="effect1_dropShadow_62255_11157"/>
<feBlend mode="normal" in="SourceGraphic" in2="effect1_dropShadow_62255_11157" result="shape"/>
<feColorMatrix in="SourceAlpha" type="matrix" values="0 0 0 0 0 0 0 0 0 0 0 0 0 0 0 0 0 0 127 0" result="hardAlpha"/>
<feOffset dx="0.204183" dy="-0.204183"/>
<feGaussianBlur stdDeviation="1.32719"/>
<feComposite in2="hardAlpha" operator="arithmetic" k2="-1" k3="1"/>
<feColorMatrix type="matrix" values="0 0 0 0 1 0 0 0 0 1 0 0 0 0 1 0 0 0 0.5 0"/>
<feBlend mode="normal" in2="shape" result="effect2_innerShadow_62255_11157"/>
</filter>
<filter id="filter1_di_62255_11157" x="51.7993" y="88.9772" width="27.4261" height="54.6722" filterUnits="userSpaceOnUse" color-interpolation-filters="sRGB">
<feFlood flood-opacity="0" result="BackgroundImageFix"/>
<feColorMatrix in="SourceAlpha" type="matrix" values="0 0 0 0 0 0 0 0 0 0 0 0 0 0 0 0 0 0 127 0" result="hardAlpha"/>
<feOffset dx="0.408365" dy="0.81673"/>
<feGaussianBlur stdDeviation="0.70443"/>
<feComposite in2="hardAlpha" operator="out"/>
<feColorMatrix type="matrix" values="0 0 0 0 0.937489 0 0 0 0 0.362932 0 0 0 0 0.53654 0 0 0 0.6 0"/>
<feBlend mode="normal" in2="BackgroundImageFix" result="effect1_dropShadow_62255_11157"/>
<feBlend mode="normal" in="SourceGraphic" in2="effect1_dropShadow_62255_11157" result="shape"/>
<feColorMatrix in="SourceAlpha" type="matrix" values="0 0 0 0 0 0 0 0 0 0 0 0 0 0 0 0 0 0 127 0" result="hardAlpha"/>
<feOffset dx="0.204183" dy="-0.204183"/>
<feGaussianBlur stdDeviation="1.32719"/>
<feComposite in2="hardAlpha" operator="arithmetic" k2="-1" k3="1"/>
<feColorMatrix type="matrix" values="0 0 0 0 1 0 0 0 0 1 0 0 0 0 1 0 0 0 0.5 0"/>
<feBlend mode="normal" in2="shape" result="effect2_innerShadow_62255_11157"/>
</filter>
<clipPath id="clip0_62255_11157">
<rect width="220" height="220" fill="white"/>
</clipPath>
</defs>
</svg>
