<svg width="220" height="220" viewBox="0 0 220 220" fill="none" xmlns="http://www.w3.org/2000/svg">
<rect width="220" height="220" fill="#F24F7A"/>
<g filter="url(#filter0_di_1_17)">
<path d="M94.5938 76.1415C93.177 75.6943 91.1524 76.3548 89.5165 77.4528C88.7593 77.9642 88.0889 78.5669 87.5986 79.1948C86.6741 77.9844 85.4802 77.032 84.5309 76.7179C81.9428 75.8616 80.519 77.5221 79.9808 78.5143C77.9906 82.1839 83.2835 88.7375 85.5745 89.4956C87.4342 90.083 93.7053 86.0344 95.9789 81.6877C96.9127 79.9059 97.2455 76.975 94.5938 76.1415Z" fill="white"/>
</g>
<path d="M144.418 120.481C144.788 120.665 144.903 120.849 144.812 121.217C144.608 122.26 141.52 126 136.913 126C132.881 126 130.688 123.609 131.581 119.255L134.331 105.213C135.119 101.411 134.13 100.062 132.137 100.185C129.312 100.307 125.641 105.029 124.436 111.038L121.708 124.774C121.622 125.08 121.366 125.08 121.298 125.142C119.867 125.448 118.259 125.571 116.595 125.571C114.931 125.571 113.409 125.387 112.019 125.142C111.959 125.08 111.772 125.019 111.785 124.835L115.709 105.213C116.498 101.411 115.444 100.062 113.515 100.185C110.691 100.307 107.033 104.845 105.819 110.977L103.023 124.774C102.936 125.08 102.68 125.08 102.612 125.142C101.246 125.448 99.6371 125.571 97.9733 125.571C96.3095 125.571 94.6592 125.387 93.2053 125.142C93.1458 125.08 92.9581 125.019 92.9716 124.835C93.6293 121.953 96.2544 109.628 97.2825 104.293C98.0801 100.369 96.8495 99.6943 95.2348 99.0198C94.9282 98.8358 94.8137 98.6519 94.8404 98.284C95.0443 97.2416 98.1322 93.5011 102.74 93.5011C106.387 93.5011 108.018 95.7086 107.914 98.8971C107.86 99.633 107.747 100.307 107.625 101.105H107.817C111.072 95.9538 115.149 93.5624 119.057 93.5011C123.669 93.4397 126.553 96.0151 126.251 101.043H126.443C129.552 96.1378 133.703 93.6238 137.743 93.5011C142.867 93.4397 145.962 96.6283 144.73 103.005C144.041 106.317 143.17 110.364 142.187 115.085C141.376 119.194 142.803 119.807 144.418 120.481Z" fill="white"/>
<g filter="url(#filter1_di_1_17)">
<path d="M80.582 125.649C76.5417 125.649 74.3433 123.291 75.1741 118.999L80.1745 94.7557C80.1835 94.6349 80.2567 94.5139 80.4534 94.4534C81.8182 94.2116 83.563 94.0302 85.1022 94.0302C86.7697 94.0302 88.4922 94.1512 89.8168 94.4534C89.8764 94.5139 90.0642 94.5744 89.9867 94.7557L85.8677 114.888C85.0548 118.938 86.4851 119.543 88.1034 120.208C88.4747 120.389 88.5896 120.57 88.4985 120.933C88.2943 121.961 85.1996 125.649 80.582 125.649Z" fill="white"/>
</g>
<defs>
<filter id="filter0_di_1_17" x="78.5414" y="75.4079" width="19.9367" height="16.3703" filterUnits="userSpaceOnUse" color-interpolation-filters="sRGB">
<feFlood flood-opacity="0" result="BackgroundImageFix"/>
<feColorMatrix in="SourceAlpha" type="matrix" values="0 0 0 0 0 0 0 0 0 0 0 0 0 0 0 0 0 0 127 0" result="hardAlpha"/>
<feOffset dx="0.408365" dy="0.81673"/>
<feGaussianBlur stdDeviation="0.70443"/>
<feComposite in2="hardAlpha" operator="out"/>
<feColorMatrix type="matrix" values="0 0 0 0 0.937489 0 0 0 0 0.362932 0 0 0 0 0.53654 0 0 0 0.6 0"/>
<feBlend mode="normal" in2="BackgroundImageFix" result="effect1_dropShadow_1_17"/>
<feBlend mode="normal" in="SourceGraphic" in2="effect1_dropShadow_1_17" result="shape"/>
<feColorMatrix in="SourceAlpha" type="matrix" values="0 0 0 0 0 0 0 0 0 0 0 0 0 0 0 0 0 0 127 0" result="hardAlpha"/>
<feOffset dx="0.204183" dy="-0.204183"/>
<feGaussianBlur stdDeviation="1.32719"/>
<feComposite in2="hardAlpha" operator="arithmetic" k2="-1" k3="1"/>
<feColorMatrix type="matrix" values="0 0 0 0 1 0 0 0 0 1 0 0 0 0 1 0 0 0 0.5 0"/>
<feBlend mode="normal" in2="shape" result="effect2_innerShadow_1_17"/>
</filter>
<filter id="filter1_di_1_17" x="73.9995" y="93.4381" width="17.8229" height="34.4364" filterUnits="userSpaceOnUse" color-interpolation-filters="sRGB">
<feFlood flood-opacity="0" result="BackgroundImageFix"/>
<feColorMatrix in="SourceAlpha" type="matrix" values="0 0 0 0 0 0 0 0 0 0 0 0 0 0 0 0 0 0 127 0" result="hardAlpha"/>
<feOffset dx="0.408365" dy="0.81673"/>
<feGaussianBlur stdDeviation="0.70443"/>
<feComposite in2="hardAlpha" operator="out"/>
<feColorMatrix type="matrix" values="0 0 0 0 0.937489 0 0 0 0 0.362932 0 0 0 0 0.53654 0 0 0 0.6 0"/>
<feBlend mode="normal" in2="BackgroundImageFix" result="effect1_dropShadow_1_17"/>
<feBlend mode="normal" in="SourceGraphic" in2="effect1_dropShadow_1_17" result="shape"/>
<feColorMatrix in="SourceAlpha" type="matrix" values="0 0 0 0 0 0 0 0 0 0 0 0 0 0 0 0 0 0 127 0" result="hardAlpha"/>
<feOffset dx="0.204183" dy="-0.204183"/>
<feGaussianBlur stdDeviation="1.32719"/>
<feComposite in2="hardAlpha" operator="arithmetic" k2="-1" k3="1"/>
<feColorMatrix type="matrix" values="0 0 0 0 1 0 0 0 0 1 0 0 0 0 1 0 0 0 0.5 0"/>
<feBlend mode="normal" in2="shape" result="effect2_innerShadow_1_17"/>
</filter>
</defs>
</svg>
