<svg viewBox="0 0 28 28" fill="none" xmlns="http://www.w3.org/2000/svg">
<path fill-rule="evenodd" clip-rule="evenodd" d="M13.1197 4.04102H14.8803C16.4118 4.041 17.6248 4.04099 18.5742 4.16863C19.5512 4.29999 20.342 4.57675 20.9656 5.20039C21.5893 5.82402 21.866 6.61481 21.9974 7.59183C22.125 8.54118 22.125 9.75421 22.125 11.2857V14.713C22.125 16.2445 22.125 17.4575 21.9974 18.4069C21.866 19.3839 21.5893 20.1747 20.9656 20.7983C20.342 21.4219 19.5512 21.6987 18.5742 21.8301C17.6248 21.9577 16.4118 21.9577 14.8803 21.9577H13.1197C11.5882 21.9577 10.3752 21.9577 9.42581 21.8301C8.4488 21.6987 7.65801 21.4219 7.03437 20.7983C6.41073 20.1747 6.13397 19.3839 6.00261 18.4069C5.87498 17.4575 5.87499 16.2445 5.875 14.713V11.2857C5.87499 9.7542 5.87498 8.54117 6.00261 7.59183C6.13397 6.61481 6.41073 5.82402 7.03437 5.20039C7.65801 4.57675 8.4488 4.29999 9.42581 4.16863C10.3752 4.04099 11.5882 4.041 13.1197 4.04102ZM9.59237 5.40748C8.75397 5.5202 8.27093 5.73159 7.91825 6.08427C7.56558 6.43694 7.35419 6.91998 7.24147 7.75839C7.12633 8.61478 7.125 9.74367 7.125 11.3327V14.666C7.125 16.255 7.12633 17.3839 7.24147 18.2403C7.35419 19.0787 7.56558 19.5618 7.91825 19.9144C8.27093 20.2671 8.75397 20.4785 9.59237 20.5912C10.4488 20.7064 11.5777 20.7077 13.1667 20.7077H14.8333C16.4224 20.7077 17.5512 20.7064 18.4076 20.5912C19.246 20.4785 19.7291 20.2671 20.0817 19.9144C20.4344 19.5618 20.6458 19.0787 20.7585 18.2403C20.8737 17.3839 20.875 16.255 20.875 14.666V11.3327C20.875 9.74367 20.8737 8.61478 20.7585 7.75839C20.6458 6.91998 20.4344 6.43694 20.0817 6.08427C19.7291 5.73159 19.246 5.5202 18.4076 5.40748C17.5512 5.29234 16.4224 5.29102 14.8333 5.29102H13.1667C11.5777 5.29102 10.4488 5.29234 9.59237 5.40748ZM10.0417 11.3327C10.0417 10.9875 10.3215 10.7077 10.6667 10.7077H17.3333C17.6785 10.7077 17.9583 10.9875 17.9583 11.3327C17.9583 11.6779 17.6785 11.9577 17.3333 11.9577H10.6667C10.3215 11.9577 10.0417 11.6779 10.0417 11.3327ZM10.0417 14.666C10.0417 14.3208 10.3215 14.041 10.6667 14.041H14.8333C15.1785 14.041 15.4583 14.3208 15.4583 14.666C15.4583 15.0112 15.1785 15.291 14.8333 15.291H10.6667C10.3215 15.291 10.0417 15.0112 10.0417 14.666Z" fill="#202020" stroke="#202020" stroke-width="0.25" stroke-linecap="round"/>
</svg>
