<svg viewBox="0 0 28 28" fill="none" xmlns="http://www.w3.org/2000/svg">
<circle cx="14" cy="14" r="10" stroke="#202020" stroke-width="1.5"/>
<mask id="mask0_51456_89964" style="mask-type:alpha" maskUnits="userSpaceOnUse" x="4" y="4" width="20" height="20">
<circle cx="14" cy="14" r="10" fill="#D9D9D9"/>
</mask>
<g mask="url(#mask0_51456_89964)">
<path d="M-8.25781 14.4609C-3.7583 14.4609 -3.7583 18.6631 0.741214 18.6631C5.24073 18.6631 5.24073 14.4609 9.74024 14.4609C14.2397 14.4609 14.2397 18.6631 18.7393 18.6631C23.2388 18.6631 23.2388 14.4609 27.7383 14.4609C32.2378 14.4609 32.2378 18.6631 36.7373 18.6631" stroke="#202020" stroke-width="1.5"/>
<path d="M14.9453 17.4362C16.5084 16.1959 17.5418 14.4609 20.433 14.4609C21.8439 14.4609 22.8124 14.8741 23.6159 15.4414C23.7747 15.5534 23.927 15.6715 24.075 15.7936" stroke="#202020" stroke-width="1.5"/>
</g>
</svg>
