<svg viewBox="0 0 28 28" fill="none" xmlns="http://www.w3.org/2000/svg">
<path d="M11.8712 17.3826C11.5087 17.3826 11.2149 17.6764 11.2149 18.0389C11.2149 18.4013 11.5087 18.6951 11.8712 18.6951H17.1212C17.4836 18.6951 17.7774 18.4013 17.7774 18.0389C17.7774 17.6764 17.4836 17.3826 17.1212 17.3826H11.8712Z" fill="#202020"/>
<path fill-rule="evenodd" clip-rule="evenodd" d="M14.4961 3.38281C13.8617 3.38281 13.2828 3.55704 12.6492 3.85278C12.0359 4.13906 11.3266 4.56158 10.4377 5.0911L9.16404 5.84981C8.18481 6.43312 7.40453 6.89792 6.81373 7.3424C6.20384 7.80124 5.74608 8.27372 5.44778 8.89594C5.14933 9.51848 5.06844 10.17 5.09439 10.9304C5.1195 11.6665 5.24826 12.5613 5.40971 13.6832L5.66552 15.461C5.87324 16.9047 6.03807 18.0503 6.28432 18.9422C6.53817 19.8616 6.89834 20.5914 7.54829 21.151C8.1977 21.7102 8.97471 21.9603 9.9254 22.0795C10.8487 22.1953 12.0135 22.1953 13.4831 22.1953H15.5091C16.9786 22.1953 18.1435 22.1953 19.0668 22.0795C20.0175 21.9603 20.7945 21.7102 21.4439 21.151C22.0939 20.5914 22.454 19.8616 22.7079 18.9422C22.9541 18.0503 23.119 16.9047 23.3267 15.4611L23.5825 13.6832C23.7439 12.5612 23.8727 11.6664 23.8978 10.9304C23.9238 10.17 23.8429 9.51848 23.5444 8.89594C23.2461 8.27372 22.7884 7.80124 22.1785 7.3424C21.5877 6.89792 20.8074 6.43312 19.8282 5.84981L18.5545 5.0911C17.6656 4.56158 16.9563 4.13906 16.343 3.85278C15.7094 3.55704 15.1305 3.38281 14.4961 3.38281ZM11.0797 6.23637C12.005 5.68517 12.6579 5.29715 13.2043 5.0421C13.7373 4.79334 14.1205 4.69531 14.4961 4.69531C14.8717 4.69531 15.2549 4.79334 15.7879 5.0421C16.3343 5.29715 16.9871 5.68517 17.9125 6.23637L19.1242 6.95819C20.143 7.56507 20.8619 7.99436 21.3894 8.39123C21.9043 8.7786 22.1863 9.09914 22.3609 9.46334C22.5353 9.82723 22.6079 10.2458 22.5861 10.8857C22.5637 11.5418 22.446 12.3658 22.278 13.5337L22.0341 15.2289C21.8184 16.728 21.6642 17.7908 21.4427 18.5929C21.2263 19.3768 20.9657 19.8307 20.5875 20.1564C20.2087 20.4826 19.7177 20.6751 18.9035 20.7772C18.0713 20.8816 16.9888 20.8828 15.4639 20.8828H13.5283C12.0034 20.8828 10.9209 20.8816 10.0887 20.7772C9.27449 20.6751 8.78347 20.4826 8.4047 20.1564C8.02647 19.8307 7.76593 19.3768 7.54948 18.5929C7.32801 17.7908 7.17383 16.7279 6.95814 15.2289L6.71422 13.5337C6.54617 12.3658 6.42851 11.5418 6.40612 10.8857C6.38429 10.2458 6.45685 9.82723 6.6313 9.46334C6.8059 9.09914 7.08788 8.7786 7.60279 8.39123C8.13031 7.99436 8.84922 7.56507 9.868 6.95819L11.0797 6.23637Z" fill="#202020"/>
<path d="M11.8712 17.3826C11.5087 17.3826 11.2149 17.6764 11.2149 18.0389C11.2149 18.4013 11.5087 18.6951 11.8712 18.6951H17.1212C17.4836 18.6951 17.7774 18.4013 17.7774 18.0389C17.7774 17.6764 17.4836 17.3826 17.1212 17.3826H11.8712Z" stroke="#202020" stroke-width="0.2625"/>
<path fill-rule="evenodd" clip-rule="evenodd" d="M14.4961 3.38281C13.8617 3.38281 13.2828 3.55704 12.6492 3.85278C12.0359 4.13906 11.3266 4.56158 10.4377 5.0911L9.16404 5.84981C8.18481 6.43312 7.40453 6.89792 6.81373 7.3424C6.20384 7.80124 5.74608 8.27372 5.44778 8.89594C5.14933 9.51848 5.06844 10.17 5.09439 10.9304C5.1195 11.6665 5.24826 12.5613 5.40971 13.6832L5.66552 15.461C5.87324 16.9047 6.03807 18.0503 6.28432 18.9422C6.53817 19.8616 6.89834 20.5914 7.54829 21.151C8.1977 21.7102 8.97471 21.9603 9.9254 22.0795C10.8487 22.1953 12.0135 22.1953 13.4831 22.1953H15.5091C16.9786 22.1953 18.1435 22.1953 19.0668 22.0795C20.0175 21.9603 20.7945 21.7102 21.4439 21.151C22.0939 20.5914 22.454 19.8616 22.7079 18.9422C22.9541 18.0503 23.119 16.9047 23.3267 15.4611L23.5825 13.6832C23.7439 12.5612 23.8727 11.6664 23.8978 10.9304C23.9238 10.17 23.8429 9.51848 23.5444 8.89594C23.2461 8.27372 22.7884 7.80124 22.1785 7.3424C21.5877 6.89792 20.8074 6.43312 19.8282 5.84981L18.5545 5.0911C17.6656 4.56158 16.9563 4.13906 16.343 3.85278C15.7094 3.55704 15.1305 3.38281 14.4961 3.38281ZM11.0797 6.23637C12.005 5.68517 12.6579 5.29715 13.2043 5.0421C13.7373 4.79334 14.1205 4.69531 14.4961 4.69531C14.8717 4.69531 15.2549 4.79334 15.7879 5.0421C16.3343 5.29715 16.9871 5.68517 17.9125 6.23637L19.1242 6.95819C20.143 7.56507 20.8619 7.99436 21.3894 8.39123C21.9043 8.7786 22.1863 9.09914 22.3609 9.46334C22.5353 9.82723 22.6079 10.2458 22.5861 10.8857C22.5637 11.5418 22.446 12.3658 22.278 13.5337L22.0341 15.2289C21.8184 16.728 21.6642 17.7908 21.4427 18.5929C21.2263 19.3768 20.9657 19.8307 20.5875 20.1564C20.2087 20.4826 19.7177 20.6751 18.9035 20.7772C18.0713 20.8816 16.9888 20.8828 15.4639 20.8828H13.5283C12.0034 20.8828 10.9209 20.8816 10.0887 20.7772C9.27449 20.6751 8.78347 20.4826 8.4047 20.1564C8.02647 19.8307 7.76593 19.3768 7.54948 18.5929C7.32801 17.7908 7.17383 16.7279 6.95814 15.2289L6.71422 13.5337C6.54617 12.3658 6.42851 11.5418 6.40612 10.8857C6.38429 10.2458 6.45685 9.82723 6.6313 9.46334C6.8059 9.09914 7.08788 8.7786 7.60279 8.39123C8.13031 7.99436 8.84922 7.56507 9.868 6.95819L11.0797 6.23637Z" stroke="#202020" stroke-width="0.2625"/>
</svg>
