<svg viewBox="0 0 28 28" fill="none" xmlns="http://www.w3.org/2000/svg">
<path fill-rule="evenodd" clip-rule="evenodd" d="M14.0013 4.04102C11.8152 4.04102 10.043 5.81322 10.043 7.99935C10.043 10.1855 11.8152 11.9577 14.0013 11.9577C16.1874 11.9577 17.9596 10.1855 17.9596 7.99935C17.9596 5.81322 16.1874 4.04102 14.0013 4.04102ZM11.293 7.99935C11.293 6.50358 12.5055 5.29102 14.0013 5.29102C15.4971 5.29102 16.7096 6.50358 16.7096 7.99935C16.7096 9.49512 15.4971 10.7077 14.0013 10.7077C12.5055 10.7077 11.293 9.49512 11.293 7.99935Z" fill="#202020"/>
<path fill-rule="evenodd" clip-rule="evenodd" d="M14.0013 13.2077C12.3019 13.2077 10.7326 13.6 9.56643 14.2663C8.41797 14.9226 7.54297 15.9245 7.54297 17.166C7.54297 18.4076 8.41797 19.4094 9.56643 20.0657C10.7326 20.7321 12.3019 21.1243 14.0013 21.1243C15.7007 21.1243 17.27 20.7321 18.4362 20.0657C19.5846 19.4094 20.4596 18.4076 20.4596 17.166C20.4596 15.9245 19.5846 14.9226 18.4362 14.2663C17.27 13.6 15.7007 13.2077 14.0013 13.2077ZM8.79297 17.166C8.79297 16.5666 9.22381 15.9018 10.1866 15.3516C11.1317 14.8116 12.4791 14.4577 14.0013 14.4577C15.5235 14.4577 16.8709 14.8116 17.816 15.3516C18.7788 15.9018 19.2096 16.5666 19.2096 17.166C19.2096 17.7654 18.7788 18.4302 17.816 18.9804C16.8709 19.5205 15.5235 19.8743 14.0013 19.8743C12.4791 19.8743 11.1317 19.5205 10.1866 18.9804C9.22381 18.4302 8.79297 17.7654 8.79297 17.166Z" fill="#202020"/>
<path fill-rule="evenodd" clip-rule="evenodd" d="M14.0013 4.04102C11.8152 4.04102 10.043 5.81322 10.043 7.99935C10.043 10.1855 11.8152 11.9577 14.0013 11.9577C16.1874 11.9577 17.9596 10.1855 17.9596 7.99935C17.9596 5.81322 16.1874 4.04102 14.0013 4.04102ZM11.293 7.99935C11.293 6.50358 12.5055 5.29102 14.0013 5.29102C15.4971 5.29102 16.7096 6.50358 16.7096 7.99935C16.7096 9.49512 15.4971 10.7077 14.0013 10.7077C12.5055 10.7077 11.293 9.49512 11.293 7.99935Z" stroke="#202020" stroke-width="0.26"/>
<path fill-rule="evenodd" clip-rule="evenodd" d="M14.0013 13.2077C12.3019 13.2077 10.7326 13.6 9.56643 14.2663C8.41797 14.9226 7.54297 15.9245 7.54297 17.166C7.54297 18.4076 8.41797 19.4094 9.56643 20.0657C10.7326 20.7321 12.3019 21.1243 14.0013 21.1243C15.7007 21.1243 17.27 20.7321 18.4362 20.0657C19.5846 19.4094 20.4596 18.4076 20.4596 17.166C20.4596 15.9245 19.5846 14.9226 18.4362 14.2663C17.27 13.6 15.7007 13.2077 14.0013 13.2077ZM8.79297 17.166C8.79297 16.5666 9.22381 15.9018 10.1866 15.3516C11.1317 14.8116 12.4791 14.4577 14.0013 14.4577C15.5235 14.4577 16.8709 14.8116 17.816 15.3516C18.7788 15.9018 19.2096 16.5666 19.2096 17.166C19.2096 17.7654 18.7788 18.4302 17.816 18.9804C16.8709 19.5205 15.5235 19.8743 14.0013 19.8743C12.4791 19.8743 11.1317 19.5205 10.1866 18.9804C9.22381 18.4302 8.79297 17.7654 8.79297 17.166Z" stroke="#202020" stroke-width="0.26"/>
</svg>
