<svg viewBox="0 0 252 108" fill="none" xmlns="http://www.w3.org/2000/svg">
<path d="M251.464 66.539C240.523 71.0106 230.01 73.2463 219.925 73.2463C212.314 73.2463 205.227 72.0095 198.662 69.5359L199.518 107.924H175.543C175.068 86.7085 174.592 71.7241 174.116 62.9713C173.736 54.2186 173.022 46.0366 171.976 38.4255C170.929 30.8144 169.169 21.4432 166.695 10.312L190.813 1.74948C191.955 7.26753 192.811 11.5963 193.382 14.7359C201.564 5.03177 210.792 0.179688 221.067 0.179688C228.869 0.179688 237.716 2.98629 247.611 8.59948L240.19 28.4359C233.721 25.6769 227.917 24.2974 222.78 24.2974C217.452 24.2974 212.79 25.8196 208.794 28.864C204.798 31.8134 201.088 36.2849 197.663 42.2786C204.037 45.3231 211.268 46.8453 219.355 46.8453C227.061 46.8453 236.48 45.3706 247.611 42.4213L251.464 66.539Z" fill="#FACCD4"/>
<path d="M129.731 105.499C125.355 105.499 121.311 104.404 117.601 102.216C113.986 99.9329 111.084 96.8885 108.896 93.0829C106.707 89.2774 105.613 85.0913 105.613 80.5246C105.613 75.9579 106.66 71.7718 108.753 67.9663C110.941 64.1607 113.89 61.1638 117.601 58.9756C121.311 56.7875 125.355 55.6934 129.731 55.6934C134.107 55.6934 138.103 56.835 141.718 59.1184C145.429 61.3066 148.378 64.3034 150.566 68.109C152.755 71.8194 153.849 75.9579 153.849 80.5246C153.849 85.0913 152.755 89.2774 150.566 93.0829C148.378 96.8885 145.429 99.9329 141.718 102.216C138.103 104.404 134.107 105.499 129.731 105.499ZM129.731 86.9465C131.634 86.9465 133.204 86.3281 134.44 85.0913C135.772 83.8545 136.438 82.3322 136.438 80.5246C136.438 78.717 135.772 77.2423 134.44 76.1006C133.204 74.8638 131.634 74.2454 129.731 74.2454C127.733 74.2454 126.116 74.8638 124.879 76.1006C123.737 77.3374 123.166 78.9072 123.166 80.81C123.166 82.6177 123.785 84.0923 125.022 85.234C126.258 86.3756 127.828 86.9465 129.731 86.9465Z" fill="#FACCD4"/>
<path d="M85.6203 66.539C74.6793 71.0106 64.1665 73.2463 54.0817 73.2463C46.4706 73.2463 39.3828 72.0095 32.8182 69.5359L33.6745 107.924H9.69947C9.22378 86.7085 8.74809 71.7241 8.27239 62.9713C7.89184 54.2186 7.1783 46.0366 6.13177 38.4255C5.08524 30.8144 3.32517 21.4432 0.851562 10.312L24.9693 1.74948C26.1109 7.26753 26.9672 11.5963 27.538 14.7359C35.7199 5.03177 44.9484 0.179688 55.2234 0.179688C63.0248 0.179688 71.8727 2.98629 81.7671 8.59948L74.3463 28.4359C67.8769 25.6769 62.0734 24.2974 56.9359 24.2974C51.6081 24.2974 46.9463 25.8196 42.9505 28.864C38.9547 31.8134 35.2443 36.2849 31.8193 42.2786C38.1936 45.3231 45.4241 46.8453 53.5109 46.8453C61.2172 46.8453 70.6359 45.3706 81.7671 42.4213L85.6203 66.539Z" fill="#FACCD4"/>
</svg>
