<svg width="18" height="30" viewBox="0 0 18 30" fill="none" xmlns="http://www.w3.org/2000/svg">
<path d="M8.45087 0.0903812C8.76852 -0.197907 9.0642 0.272183 9.16663 0.540291C9.48393 1.31885 9.57132 2.1929 9.43474 3.02137C9.36015 3.37984 9.23753 3.81128 8.86952 3.96885C8.87024 3.92371 8.87024 3.87849 8.86988 3.83335C9.24339 3.49002 9.19375 2.84471 8.98042 2.41759C8.89519 2.17669 8.54961 2.08777 8.39645 2.31516C8.02925 2.80687 8.1978 3.48957 8.49303 3.97516L8.49267 4.01002C7.93006 3.79155 7.86979 3.08642 7.84375 2.56561C7.86907 1.72317 7.896 0.774525 8.45087 0.0903812Z" fill="#FF8800"/>
<path d="M8.38942 2.31535C8.54258 2.08806 8.88816 2.17689 8.97339 2.41779C9.18672 2.8449 9.23636 3.49013 8.86285 3.83355C8.85294 3.55112 8.84636 3.26247 8.73834 2.99662C8.2969 3.06121 8.59582 3.67157 8.486 3.97535C8.19077 3.48986 8.02213 2.80716 8.38942 2.31535Z" fill="#FFC27C"/>
<path d="M8.48056 4.50715C8.4839 4.34156 8.48273 4.17553 8.48534 4.00994L8.4857 3.97508C8.59552 3.67138 8.2966 3.06102 8.73804 2.99634C8.84597 3.26219 8.85264 3.55084 8.86255 3.83327C8.86291 3.87841 8.86291 3.92364 8.86219 3.96877C8.84714 4.18616 8.85957 4.40318 8.86957 4.62066C8.91363 5.09075 8.29336 4.91553 8.48065 4.50715H8.48056Z" fill="#5B3822"/>
<path d="M9.37719 9.92005C9.36584 9.92744 9.34268 9.94131 9.33124 9.94834C9.16124 10.1165 9.03638 10.3263 8.84647 10.475C8.84575 10.4728 8.84503 10.4702 8.84467 10.4681C8.82818 10.4027 8.8171 10.2323 8.81016 9.99032C8.8098 9.9896 8.8098 9.98888 8.81016 9.98816C8.81386 9.87357 8.81755 9.75861 8.80277 9.64555C8.79692 9.25735 8.7962 8.77149 8.79692 8.26357C8.79872 7.17537 8.80683 5.98663 8.78593 5.44528C8.78557 5.43609 8.78521 5.4269 8.78485 5.41807V5.4151C8.78413 5.3978 8.78304 5.38095 8.78223 5.36366C8.72314 5.36104 8.66476 5.3596 8.60593 5.35888C8.48989 5.15249 8.11746 5.11285 8.10314 5.40735C8.10277 5.42609 8.10241 5.44519 8.10205 5.46393C8.10133 5.50213 8.10061 5.54176 8.10025 5.5833C8.09953 5.61122 8.09917 5.63951 8.09881 5.6678C8.09845 5.68762 8.09845 5.70744 8.09809 5.72762C8.09737 5.76951 8.09701 5.81095 8.09665 5.85285C8.09629 5.87411 8.09629 5.89582 8.09593 5.91744C8.09449 6.01699 8.09377 6.11645 8.09295 6.21636C8.0871 7.12636 8.09629 8.03825 8.09331 8.94834C8.08926 9.15843 8.08449 9.36843 8.08232 9.57888C8.08052 9.7287 8.08016 9.87852 8.08196 10.028V10.0482C8.08196 10.1117 8.0816 10.1734 8.0816 10.2325C8.0662 10.1789 8.01368 10.1311 7.93178 10.09C7.91124 8.5887 7.95124 6.12843 7.9362 4.91104C7.90899 4.63672 8.25935 4.65213 8.44377 4.5996C8.45845 4.56879 8.47313 4.53789 8.48818 4.50708C8.30088 4.91546 8.92115 5.09059 8.8771 4.62059C9.03755 4.6478 9.2943 4.61654 9.36557 4.79393C9.40232 6.50122 9.36854 8.21375 9.37728 9.91996L9.37719 9.92005Z" fill="#BB3D5F"/>
<path d="M8.07951 10.2325C8.07915 10.3401 8.07915 10.44 8.07879 10.5304L7.94104 10.6196C7.9359 10.4624 7.93221 10.2843 7.92969 10.0901C8.01158 10.1313 8.0641 10.1789 8.07951 10.2326V10.2325Z" fill="#F24F7A"/>
<path d="M8.83858 10.468C8.7938 10.3111 8.79894 10.1507 8.80408 9.99023C8.81101 10.2322 8.82209 10.4027 8.83858 10.468Z" fill="#F24F7A"/>
<path d="M8.84272 10.475C8.59957 10.8573 8.2584 10.519 8.08254 10.2634C8.08074 10.1918 8.07921 10.1202 8.07812 10.0482V10.028C8.07849 9.88776 8.07848 9.73713 8.07848 9.57893C8.08065 9.36848 8.08542 9.15839 8.08948 8.94839C8.09245 8.03839 8.08326 7.1265 8.08912 6.21641C8.08984 6.1165 8.09056 6.01695 8.09209 5.91749C8.09245 5.89578 8.09245 5.87416 8.09281 5.85289C8.09317 5.811 8.09353 5.76956 8.09425 5.72767C8.09461 5.70749 8.09461 5.68767 8.09497 5.66785C8.09533 5.63956 8.09569 5.61127 8.09641 5.58335C8.09677 5.54371 8.09749 5.50362 8.09821 5.46398C8.09858 5.44524 8.09894 5.42614 8.0993 5.4074C8.11362 5.11289 8.48596 5.15253 8.60209 5.35893C8.66083 5.35965 8.71921 5.36109 8.7784 5.36371C8.77912 5.381 8.7802 5.39785 8.78101 5.41515V5.41812C8.78137 5.42695 8.78173 5.43614 8.78209 5.44533C8.80299 5.98668 8.79497 7.17542 8.79308 8.26361C8.79236 8.77154 8.79308 9.2574 8.79893 9.6456C8.80038 9.77082 8.80299 9.88578 8.80632 9.98821C8.80596 9.98893 8.80596 9.98965 8.80632 9.99037C8.80119 10.1508 8.79605 10.3114 8.84083 10.4681C8.84119 10.4703 8.84191 10.4729 8.84263 10.4751L8.84272 10.475Z" fill="#D8476D"/>
<path d="M8.83858 10.468C8.7938 10.3111 8.79894 10.1507 8.80408 9.99023C8.81101 10.2322 8.82209 10.4027 8.83858 10.468Z" fill="#D8476D"/>
<path d="M15.8879 16.1274C15.496 16.8752 14.6165 17.1553 13.8354 17.2707C12.004 17.5616 10.2518 16.848 8.50407 16.4337C7.08064 16.181 5.55289 16.0936 4.31749 15.26C3.45154 14.7011 2.92154 13.682 3.02443 12.6471C3.43722 14.3823 5.26208 15.2068 6.83794 15.5971C8.87767 16.0335 10.8879 16.8718 13.0128 16.6599C13.6819 16.6155 14.4344 16.3746 14.7595 15.7374C14.8726 15.5098 14.9696 15.1333 14.7069 14.975C14.2167 14.8747 13.7323 15.0862 13.2427 15.1105C11.0613 15.2882 8.70019 14.8178 6.96974 13.416C6.10308 12.7535 6.27307 11.3693 7.12695 10.7744C6.88271 11.3711 6.5228 12.052 6.88713 12.6899C7.23929 13.3635 7.93668 13.7678 8.61983 14.0421C10.3308 14.7388 12.3018 14.9521 14.0713 14.3462C14.4132 14.1934 14.8102 14.0814 15.0544 13.7813C13.3507 13.9763 11.617 14.3255 9.90451 13.97C9.03452 13.8169 8.16343 13.4879 7.5156 12.8694C6.99226 12.3791 6.85452 11.5168 7.20857 10.8936C7.03524 11.7559 7.43515 12.6994 8.22479 13.1118C9.54316 13.8386 11.1551 14.031 12.6167 13.6928C13.1771 13.5735 13.7159 13.0432 13.5275 12.4313C13.3942 11.9249 12.782 11.8848 12.3501 11.8705C11.306 11.8742 10.166 11.88 9.26632 11.2715C9.39965 10.8403 9.3137 10.3893 9.32542 9.94796C9.33677 9.94102 9.35992 9.92706 9.37136 9.91967C9.70812 9.76174 10.0089 9.54435 10.3045 9.32102C10.1142 9.68904 9.67244 10.018 9.83407 10.4819C10.154 11.1812 11.2578 11.1481 11.6497 10.5311C12.1669 9.59165 11.4768 8.52814 10.92 7.76976C10.8657 7.63354 10.8877 7.48039 10.8818 7.33643C12.0353 8.17048 13.2297 9.62147 12.6916 11.1268C13.406 11.2105 14.1863 11.3427 14.7089 11.8837C15.1985 12.3733 15.2998 13.1434 15.0722 13.7802C15.3487 13.8066 15.6176 13.8959 15.847 14.0538L15.8504 14.0817C16.0101 14.7453 16.2411 15.4765 15.8882 16.1273L15.8879 16.1274Z" fill="#F24F7A"/>
<path d="M2.86814 12.5133L2.9085 12.514C2.93643 12.5144 2.99265 12.5147 3.02049 12.5147C3.02049 12.5389 3.02085 12.5874 3.02121 12.6117C2.68625 13.7567 3.32121 14.9617 4.27832 15.5926C5.41021 16.5048 6.91625 16.5324 8.26886 16.8515C8.64238 16.9576 9.05445 17.0953 9.27364 17.4406C8.22184 17.4498 7.30229 17.9903 6.36688 18.3983C4.53544 19.2305 2.08328 18.7876 0.931657 17.0575C0.539765 16.3671 0.35616 15.5165 0.551206 14.7372C0.79544 17.4178 4.13778 19.0821 6.45913 17.8244C6.8176 17.6822 6.77607 17.1975 6.40625 17.1053C5.00373 16.5702 3.61661 15.7439 2.8476 14.4108C2.49472 13.8526 2.41715 13.039 2.86814 12.5132V12.5133Z" fill="#F24F7A"/>
<path d="M10.31 9.32153C10.6689 8.87972 10.8701 8.33441 10.9255 7.77026C11.4823 8.52864 12.1724 9.59216 11.6552 10.5316C11.2634 11.1486 10.1595 11.1816 9.83957 10.4824C9.67795 10.0186 10.1198 9.68954 10.31 9.32153ZM11.1352 8.6172C11.0615 9.1736 10.7386 9.64477 10.364 10.0443C10.2046 10.2085 10.4055 10.3924 10.5891 10.3392C11.3585 10.2368 11.4892 9.16477 11.1352 8.6172Z" fill="#F5869E"/>
<path d="M14.7112 14.9754C14.2209 14.8751 13.7365 15.0867 13.2469 15.1109C11.0655 15.2886 8.70442 14.8182 6.97397 13.4164C6.10731 12.7539 6.2773 11.3697 7.13118 10.7748C7.19253 10.7219 7.2564 10.6723 7.31776 10.6198C7.28541 10.7123 7.25199 10.8045 7.21271 10.8941C7.03938 11.7564 7.43929 12.6999 8.22893 13.1123C9.5473 13.8391 11.1592 14.0315 12.6208 13.6933C13.1813 13.574 13.72 13.0437 13.5316 12.4318C13.3983 11.9254 12.7861 11.8853 12.3542 11.871C11.3102 11.8747 10.1702 11.8805 9.27046 11.272C9.40379 10.8408 9.31785 10.3898 9.32956 9.94846C9.15956 10.1167 9.03469 10.3264 8.84478 10.4751C8.60163 10.8575 8.26046 10.5192 8.0846 10.2636C8.08424 10.2533 8.0828 10.2431 8.07983 10.2328C8.06442 10.1792 8.0119 10.1314 7.93001 10.0903C7.39127 9.81999 5.58406 9.83539 4.73199 10.2225C3.931 10.5828 3.29604 11.3129 3.09586 12.1726C3.0628 12.2982 3.06649 12.4715 2.91406 12.5141C2.94199 12.5145 2.99812 12.5149 3.02604 12.5149C3.02604 12.5391 3.0264 12.5876 3.02677 12.6118L3.02857 12.6474C3.44136 14.3826 5.26622 15.2071 6.84208 15.5975C8.88181 16.0338 10.8921 16.8721 13.0169 16.6603C13.686 16.6158 14.4386 16.3749 14.7636 15.7377C14.8768 15.5101 14.9737 15.1336 14.7111 14.9753L14.7112 14.9754ZM7.7746 10.7176C8.99091 12.3603 11.1099 12.8994 13.0549 12.9637C11.4331 13.3794 9.51091 13.2476 8.1892 12.1271C7.83262 11.7889 7.41577 11.1876 7.7746 10.7176V10.7176ZM7.29127 14.8311C6.27109 15.1065 5.19352 14.6056 4.43406 13.9354C3.93568 13.4914 3.52478 12.8473 3.62947 12.1517C3.82415 10.9526 5.12893 10.3162 6.24019 10.2681C6.39262 10.2306 6.80388 10.3192 6.57073 10.5127C6.13478 10.7158 5.63172 10.9545 5.48956 11.4609C5.20163 12.625 6.18839 13.5766 7.05803 14.1782C7.27613 14.2972 7.67136 14.6549 7.29127 14.8312V14.8311ZM13.778 15.9559C13.049 16.3335 12.2014 16.3019 11.4042 16.2803C10.4695 16.1958 9.52532 15.9798 8.70307 15.5138C10.3873 15.8638 12.1155 15.8505 13.8185 15.6841C13.8827 15.7749 13.8993 15.903 13.7781 15.9559H13.778Z" fill="#F5869E"/>
<path d="M0.550781 14.7372C0.677448 13.5687 1.73114 12.6685 2.86772 12.5132C2.41673 13.039 2.4942 13.8526 2.84718 14.4108C3.61619 15.7438 5.0033 16.5701 6.40583 17.1053C6.77565 17.1974 6.81718 17.6822 6.45871 17.8244C4.13736 19.0822 0.795015 17.4178 0.550781 14.7372ZM1.07664 14.1646C0.751952 15.3728 1.5915 16.7269 2.78835 17.0387C2.97384 17.0923 3.28231 17.0596 3.29078 16.8135C3.20925 16.5289 2.89745 16.4114 2.72303 16.1918C2.08141 15.6252 1.68258 14.7309 1.87033 13.8723C1.8997 13.6383 2.05249 13.4154 1.98601 13.1756C1.51412 13.2626 1.22141 13.7393 1.07673 14.1646H1.07664Z" fill="#F5869E"/>
<path d="M11.1299 8.61719C11.484 9.16475 11.3532 10.2367 10.5838 10.3392C10.4002 10.3924 10.1993 10.2084 10.3587 10.0443C10.7333 9.64476 11.0561 9.17358 11.1299 8.61719Z" fill="#F7ACBB"/>
<path d="M6.24042 10.268C6.39285 10.2305 6.80412 10.319 6.57096 10.5125C6.13502 10.7156 5.63195 10.9543 5.48979 11.4607C5.20186 12.6249 6.18862 13.5764 7.05826 14.178C7.27637 14.297 7.67159 14.6547 7.2915 14.831C6.27132 15.1064 5.19376 14.6055 4.4343 13.9353C3.93592 13.4914 3.52502 12.8471 3.6297 12.1516C3.82439 10.9525 5.12916 10.3161 6.24042 10.268V10.268Z" fill="#F7ACBB"/>
<path d="M7.77418 10.7175C8.99049 12.3602 11.1095 12.8993 13.0545 12.9637C11.4327 13.3794 9.51049 13.2475 8.18878 12.1271C7.8322 11.7889 7.41536 11.1876 7.77418 10.7176V10.7175Z" fill="#F7ACBB"/>
<path d="M1.08208 14.1645C1.22677 13.7392 1.51947 13.2626 1.99136 13.1755C2.05785 13.4154 1.90506 13.6382 1.87569 13.8722C1.68803 14.7309 2.08686 15.6251 2.72839 16.1918C2.9028 16.4114 3.21461 16.5289 3.29614 16.8135C3.28767 17.0595 2.9792 17.0922 2.79371 17.0386C1.59686 16.7268 0.757309 15.3727 1.08199 14.1645H1.08208Z" fill="#F7ACBB"/>
<path d="M8.70312 15.5137C10.3874 15.8637 12.1156 15.8504 13.8185 15.684C13.8828 15.7748 13.8993 15.9029 13.7782 15.9558C13.0492 16.3334 12.2016 16.3018 11.4043 16.2802C10.4696 16.1957 9.52547 15.9797 8.70321 15.5137H8.70312Z" fill="#F7ACBB"/>
<path d="M7.12936 10.7746C7.19071 10.7217 7.25458 10.6722 7.31593 10.6196C7.28359 10.7122 7.25017 10.8043 7.21089 10.894C6.85684 11.5172 6.99458 12.3794 7.51792 12.8697C8.16575 13.4882 9.03683 13.8172 9.90683 13.9703C11.6193 14.3258 13.3531 13.9766 15.0567 13.7816C14.8125 14.0816 14.4156 14.1937 14.0736 14.3465C12.3042 14.9524 10.3331 14.7391 8.62215 14.0424C7.93909 13.7681 7.2417 13.3638 6.88945 12.6903C6.52512 12.0523 6.88503 11.3714 7.12927 10.7747L7.12936 10.7746Z" fill="#D8476D"/>
<path d="M4.28109 15.5925C3.32406 14.9616 2.68911 13.7566 3.02397 12.6116L3.02577 12.6472C2.92298 13.682 3.45289 14.7012 4.31884 15.2601C5.55424 16.0938 7.08199 16.1812 8.50541 16.4338C10.2532 16.8481 12.0052 17.5617 13.8368 17.2708C14.6179 17.1554 15.4975 16.8753 15.8893 16.1275C16.2422 15.4768 16.0112 14.7455 15.8514 14.0819C16.875 14.7569 17.1864 16.3453 16.3696 17.3016C15.6142 18.0485 14.4735 18.2851 13.4449 18.1944C12.0225 18.1254 10.7129 17.3879 9.27622 17.4404C9.05694 17.0952 8.64496 16.9574 8.27145 16.8513C6.91884 16.5322 5.4128 16.5046 4.28091 15.5924L4.28109 15.5925Z" fill="#D8476D"/>
<path d="M0.703092 17.2416C0.777687 17.1773 0.853633 17.1146 0.934083 17.0576C2.08579 18.7877 4.53787 19.2306 6.36931 18.3984C7.30471 17.9904 8.22426 17.4499 9.27606 17.4407C10.7127 17.3882 12.0224 18.1256 13.4447 18.1946C14.4734 18.2854 15.6141 18.0489 16.3695 17.3019C16.9259 17.7573 17.4933 18.4767 17.2432 19.2387C16.8569 19.4796 16.4466 19.715 16.187 20.1028C16.0834 20.1113 15.9798 20.1182 15.8759 20.1142C15.5002 19.7983 14.9802 19.993 14.7371 20.3728C14.5406 20.6441 14.2784 20.3595 14.0595 20.2901C13.5975 20.1363 13.3471 20.6071 13.0062 20.7855C12.6992 20.7213 12.4553 20.3646 12.0995 20.4928C11.813 20.5328 11.6577 20.7995 11.4244 20.9328C11.134 20.9703 10.9904 20.6085 10.7039 20.5928C10.3025 20.4939 9.9694 20.7827 9.71561 21.0526C9.26462 20.7437 8.61868 20.3419 8.14453 20.8679C7.81255 21.3075 7.56282 20.6307 7.2066 20.6035C6.80003 20.4845 6.46994 20.7955 6.14859 20.9664C5.81841 20.7614 5.52462 20.341 5.0667 20.4786C4.79489 20.4995 4.57498 20.9664 4.31345 20.6997C4.08796 20.4434 3.77985 20.1837 3.41183 20.2549C3.17498 20.277 2.99318 20.5649 2.75003 20.4767C2.54255 20.256 2.37327 19.9255 2.02507 19.92C1.71327 19.8641 1.393 20.3144 1.1385 19.9824C0.862371 19.6419 0.507597 19.3977 0.0826418 19.2836C-0.0477186 18.8579 -0.0293404 18.3842 0.177056 17.9854C0.0338128 18.8851 0.986425 19.6284 1.81201 19.6016C2.25201 19.5101 2.57886 19.8248 2.91633 20.0317C3.35669 19.8642 3.90093 19.7952 4.27219 20.1539C4.55273 20.4378 4.87922 20.0264 5.19985 20.05C5.60823 19.9769 5.88994 20.3544 6.2439 20.4323C6.74336 20.1271 7.38714 20.0874 7.87669 20.4323C8.26859 20.2928 8.67507 20.025 9.10994 20.2002C9.37066 20.2542 9.62111 20.5957 9.8848 20.3702C10.2532 20.0926 10.7691 20.0834 11.1632 20.3133C11.4599 20.5164 11.7203 20.1458 12.0141 20.108C12.2935 19.9857 12.6535 20.2498 12.8698 19.9743C13.4614 19.4256 14.389 20.1146 14.9675 19.5399C15.1665 19.3904 15.2349 18.9185 14.8856 18.9442C13.7152 19.0565 12.507 18.9725 11.4067 18.531C10.7581 18.2923 10.1151 17.9805 9.41291 17.9519C8.78606 17.9508 8.2039 18.2276 7.66147 18.5145C5.86237 19.5336 3.52183 19.6066 1.72273 18.5545C1.22255 18.2761 0.789218 17.8284 0.702912 17.2416H0.703092Z" fill="#C07532"/>
<path d="M0.174561 17.9856C0.269696 17.6922 0.481227 17.4524 0.700416 17.2419C0.786723 17.8288 1.22006 18.2764 1.72024 18.5548C3.51933 19.607 5.85988 19.5339 7.65897 18.5148C8.20141 18.228 8.78348 17.9511 9.41041 17.9522C10.1126 17.9809 10.7556 18.2927 11.4042 18.5314C12.5045 18.9728 13.7128 19.0569 14.8831 18.9446C15.2324 18.9189 15.164 19.3908 14.965 19.5402C14.3866 20.115 13.459 19.426 12.8673 19.9746C12.651 20.2501 12.291 19.986 12.0116 20.1083C11.7178 20.1462 11.4574 20.5167 11.1607 20.3137C10.7666 20.0837 10.2507 20.0929 9.88231 20.3706C9.61861 20.5961 9.36816 20.2546 9.10744 20.2006C8.67267 20.0255 8.26609 20.2931 7.8742 20.4327C7.38465 20.0878 6.74086 20.1274 6.24141 20.4327C5.88735 20.3548 5.60573 19.9773 5.19735 20.0503C4.87672 20.0268 4.55024 20.4382 4.26969 20.1543C3.89843 19.7955 3.35411 19.8646 2.91384 20.032C2.57636 19.8253 2.24952 19.5105 1.80952 19.6019C0.98393 19.6288 0.0313175 18.8855 0.174561 17.9857V17.9856ZM9.46447 18.491C9.09537 18.5534 8.62969 18.6346 8.44645 19.0033C8.43762 19.2619 8.58672 19.5171 8.76672 19.6963C9.14609 19.9526 9.63564 19.8777 10.069 19.8825C10.4075 19.8612 10.903 19.7026 10.8677 19.2802C10.7711 18.6438 10.0285 18.3919 9.46447 18.491V18.491Z" fill="#D38B42"/>
<path d="M9.4637 18.4906C10.0278 18.3915 10.7704 18.6434 10.8669 19.2798C10.9022 19.7022 10.4068 19.8608 10.0682 19.8821C9.63487 19.8773 9.14532 19.9523 8.76595 19.6959C8.58604 19.5167 8.43694 19.2615 8.44568 19.0029C8.62892 18.6342 9.0946 18.553 9.4637 18.4906V18.4906Z" fill="#DF9A47"/>
<path d="M2.55414 24.9272C2.74765 25.5222 2.85161 26.1454 3.04918 26.7389C3.13513 27.0272 3.6199 27.2923 3.77594 26.9236C3.88828 26.2882 3.67053 25.6521 3.64297 25.0168C3.79828 25.6613 3.86774 26.3297 4.07522 26.9607C4.18576 27.3224 4.80089 27.5622 4.98044 27.1358C5.09873 26.4906 4.92612 25.8309 4.9463 25.1795C5.06053 25.8318 5.06495 26.506 5.25225 27.1432C5.39216 27.6158 6.19207 27.7238 6.32792 27.1961C6.43297 26.5754 6.37198 25.9361 6.35837 25.3091C6.43297 25.8593 6.46152 26.4204 6.51882 26.9754C6.46486 27.6526 7.50558 27.9354 7.80855 27.3562C7.96756 26.7113 7.90225 26.026 7.92648 25.3635C8.04657 26.0062 7.93387 26.6797 8.09134 27.3165C8.25179 27.8388 9.06819 27.8285 9.23756 27.3165C9.40792 26.6863 9.31693 26.0136 9.45017 25.3749C9.44756 25.9808 9.46342 26.5879 9.49936 27.1917C9.57684 27.7334 10.358 27.8123 10.6606 27.4216C10.9599 26.8814 10.856 26.2129 10.982 25.6191C11.0176 26.152 10.9416 26.6922 11.0136 27.2218C11.1664 27.7081 11.9057 27.5887 12.0562 27.1605C12.2435 26.6302 12.2497 26.0558 12.3823 25.5108C12.4131 26.039 12.2494 26.5747 12.3515 27.0952C12.4863 27.5117 13.0632 27.3552 13.2035 27.0239C13.4341 26.4984 13.458 25.9093 13.6347 25.3658C13.6387 25.8785 13.4396 26.3853 13.541 26.8972C13.5935 27.1169 13.8804 27.1528 14.0323 27.0118C14.5113 26.5546 14.4216 25.7945 14.7 25.2227C14.6982 25.7115 14.2571 26.4478 14.8238 26.7537C14.715 27.2774 14.1903 27.5455 13.729 27.7049C11.5219 28.3744 9.17333 28.3752 6.88936 28.2701C5.72297 28.1761 4.54224 28.0439 3.43396 27.6491C3.03107 27.5081 2.61504 27.2514 2.48828 26.8173C3.07225 26.3145 2.59261 25.5485 2.55405 24.9275L2.55414 24.9272Z" fill="#DF9A47"/>
<path d="M16.1853 20.1027C16.445 19.7148 16.8551 19.4794 17.2415 19.2385C16.5232 21.6154 15.6954 23.958 14.9525 26.3275C14.9088 26.4697 14.8629 26.611 14.8192 26.7536C14.2525 26.4476 14.6936 25.7113 14.6954 25.2225C14.417 25.7943 14.5067 26.5545 14.0278 27.0117C13.8757 27.1527 13.5889 27.1167 13.5364 26.8971C13.435 26.3851 13.6341 25.8783 13.6301 25.3656C13.4534 25.9092 13.4296 26.4983 13.1989 27.0237C13.0587 27.355 12.4817 27.5115 12.3469 27.095C12.2449 26.5747 12.4087 26.0388 12.3778 25.5107C12.2451 26.0556 12.2389 26.6301 12.0516 27.1603C11.9011 27.5885 11.1618 27.7079 11.009 27.2217C10.937 26.6921 11.0131 26.1519 10.9774 25.619C10.8514 26.2128 10.9553 26.8812 10.656 27.4214C10.3534 27.8121 9.57226 27.7332 9.49478 27.1915C9.45883 26.5877 9.44298 25.9807 9.44559 25.3747C9.54802 23.9366 9.69712 22.4904 9.71406 21.0522C9.96784 20.7823 10.3009 20.4937 10.7023 20.5924C10.9888 20.6082 11.1324 20.97 11.4229 20.9325C11.6561 20.7992 11.8114 20.5326 12.0979 20.4925C12.4538 20.3643 12.6977 20.721 13.0047 20.7852C13.3455 20.6067 13.5959 20.1359 14.0579 20.2898C14.2769 20.3592 14.539 20.6438 14.7355 20.3724C14.9787 19.9927 15.4987 19.798 15.8743 20.1138C15.4626 21.6467 15.0958 23.2031 14.8096 24.7636C15.3205 23.231 15.712 21.6501 16.1853 20.1025V20.1027Z" fill="#F1AF52"/>
<path d="M0.0859375 19.2834C0.510802 19.3977 0.865578 19.6419 1.14179 19.9823C1.3963 20.3143 1.71657 19.864 2.02837 19.9198C2.37648 19.9253 2.54585 20.2559 2.75333 20.4766C2.99648 20.5647 3.17819 20.2768 3.41513 20.2548C3.78314 20.1835 4.09125 20.4432 4.31675 20.6996C4.57819 20.9661 4.79819 20.4994 5.06999 20.4785C5.52792 20.3407 5.8217 20.7613 6.15188 20.9662C6.47323 20.7954 6.80341 20.4844 7.2099 20.6034C7.56612 20.6306 7.81585 21.3074 8.14783 20.8678C8.62197 20.3419 9.26792 20.7436 9.71891 21.0525C9.70197 22.4906 9.55287 23.9368 9.45044 25.375C9.31711 26.0136 9.40819 26.6864 9.23783 27.3166C9.06855 27.8286 8.25215 27.8389 8.09161 27.3166C7.93404 26.6798 8.04684 26.0062 7.92675 25.3635C7.90251 26.0261 7.96792 26.7114 7.80882 27.3562C7.50585 27.9354 6.46504 27.6526 6.51909 26.9754C6.46179 26.4206 6.43314 25.8594 6.35864 25.3092C6.37224 25.9361 6.43323 26.5755 6.32819 27.1961C6.19233 27.7239 5.39242 27.6159 5.25251 27.1433C5.06522 26.5061 5.0608 25.8318 4.94657 25.1796C4.92639 25.8311 5.099 26.4907 4.98071 27.1359C4.80116 27.5623 4.18603 27.3225 4.07549 26.9607C3.86801 26.3298 3.79855 25.6615 3.64324 25.0169C3.6708 25.6522 3.88855 26.2883 3.77621 26.9236C3.62017 27.2924 3.1354 27.0272 3.04945 26.7389C2.85188 26.1454 2.74792 25.5223 2.55441 24.9273C2.59296 25.5483 3.0726 26.3144 2.48864 26.8171C2.42765 26.6571 2.37666 26.4933 2.33549 26.3272C1.62711 23.9673 0.812514 21.6386 0.0861179 19.2834H0.0859375Z" fill="#F7C474"/>
<path d="M15.8732 20.1141C15.9772 20.1182 16.0807 20.1112 16.1843 20.1028C15.7108 21.6504 15.3194 23.2313 14.8086 24.7639C15.0947 23.2034 15.4615 21.647 15.8732 20.1141Z" fill="#F1AF52"/>
<g style="mix-blend-mode:color-burn">
<path d="M0.177146 27.2248C0.745975 26.6619 1.5885 26.5366 2.32994 26.3269C2.37111 26.4929 2.4221 26.6567 2.48309 26.8168C2.60976 27.2509 3.02588 27.5076 3.42877 27.6486C4.53715 28.0434 5.71778 28.1756 6.88417 28.2696C9.16805 28.3747 11.5166 28.3739 13.7238 27.7044C14.1851 27.545 14.7098 27.2769 14.8186 26.7532C14.8623 26.6107 14.9082 26.4693 14.9519 26.3272C15.6893 26.5365 16.5127 26.6588 17.1026 27.1883C17.3471 27.4109 17.1613 27.748 16.9278 27.8901C16.2407 28.3364 15.4188 28.5009 14.6288 28.6683C11.3658 29.2497 8.02642 29.2883 4.73444 28.9728C3.31904 28.7947 1.85264 28.6503 0.554803 28.0154C0.274984 27.8894 -0.122854 27.5283 0.177146 27.2248Z" fill="#D3CEC7"/>
</g>
</svg>
