<svg width="" height="" viewBox="0 0 20 20" fill="none" xmlns="http://www.w3.org/2000/svg">
<path fill-rule="evenodd" clip-rule="evenodd" d="M12.5 1.03906H9.11965C7.58819 1.03905 6.37516 1.03904 5.42582 1.16668C4.4488 1.29803 3.65801 1.5748 3.03437 2.19843C2.41073 2.82207 2.13397 3.61286 2.00261 4.58988C1.87498 5.53922 1.87499 6.75225 1.875 8.28371V13.3307C1.875 14.8909 3.01838 16.1841 4.51293 16.418C4.6279 17.0547 4.84794 17.5981 5.29029 18.0404C5.79189 18.542 6.42345 18.7578 7.17354 18.8586C7.89602 18.9558 8.81462 18.9557 9.95428 18.9557H12.5457C13.6854 18.9557 14.604 18.9558 15.3265 18.8586C16.0766 18.7578 16.7081 18.542 17.2097 18.0404C17.7113 17.5388 17.9271 16.9073 18.0279 16.1572C18.125 15.4347 18.125 14.5161 18.125 13.3765V9.11834C18.125 7.97868 18.125 7.06008 18.0279 6.3376C17.9271 5.58751 17.7113 4.95595 17.2097 4.45436C16.7674 4.012 16.2239 3.79197 15.5873 3.67699C15.3534 2.18244 14.0602 1.03906 12.5 1.03906ZM14.2744 3.5567C14.0221 2.81926 13.323 2.28906 12.5 2.28906H9.16667C7.57765 2.28906 6.44876 2.29039 5.59238 2.40553C4.75397 2.51825 4.27093 2.72964 3.91825 3.08232C3.56558 3.43499 3.35419 3.91803 3.24147 4.75644C3.12633 5.61282 3.125 6.74171 3.125 8.33073V13.3307C3.125 14.1537 3.6552 14.8528 4.39264 15.1052C4.37498 14.5969 4.37499 14.0221 4.375 13.3765V9.11833C4.37498 7.97868 4.37497 7.06008 4.4721 6.3376C4.57295 5.58751 4.7887 4.95595 5.29029 4.45436C5.79189 3.95276 6.42345 3.73701 7.17354 3.63617C7.89601 3.53903 8.81461 3.53905 9.95427 3.53906H12.5457C13.1914 3.53905 13.7661 3.53904 14.2744 3.5567ZM6.17418 5.33824C6.40481 5.1076 6.72862 4.95723 7.3401 4.87502C7.96956 4.79039 8.80382 4.78906 10 4.78906H12.5C13.6962 4.78906 14.5304 4.79039 15.1599 4.87502C15.7714 4.95723 16.0952 5.1076 16.3258 5.33824C16.5565 5.56887 16.7068 5.89268 16.789 6.50416C16.8737 7.13362 16.875 7.96788 16.875 9.16406V13.3307C16.875 14.5269 16.8737 15.3612 16.789 15.9906C16.7068 16.6021 16.5565 16.9259 16.3258 17.1566C16.0952 17.3872 15.7714 17.5376 15.1599 17.6198C14.5304 17.7044 13.6962 17.7057 12.5 17.7057H10C8.80382 17.7057 7.96956 17.7044 7.3401 17.6198C6.72862 17.5376 6.40481 17.3872 6.17418 17.1566C5.94354 16.9259 5.79317 16.6021 5.71096 15.9906C5.62633 15.3612 5.625 14.5269 5.625 13.3307V9.16406C5.625 7.96788 5.62633 7.13362 5.71096 6.50416C5.79317 5.89268 5.94354 5.56887 6.17418 5.33824Z" fill=""/>
</svg>
