<svg viewBox="0 0 27 28" fill="none" xmlns="http://www.w3.org/2000/svg">
<path d="M17.7695 1.44141C20.2771 2.43418 22.3872 4.2263 23.7728 6.54005C25.1584 8.8538 25.7422 11.56 25.4337 14.2392" stroke="#F24F7A" stroke-width="2" stroke-linecap="round" stroke-linejoin="round"/>
<path d="M1 12.837C1 10.1401 1.88953 7.51848 3.53075 5.37843C5.17196 3.23838 7.47321 1.6994 10.0779 1" stroke="#F24F7A" stroke-width="2" stroke-linecap="round" stroke-linejoin="round"/>
<path d="M18.88 23.7284L19.3386 24.617L19.3386 24.617L18.88 23.7284ZM12.7454 25.0828L12.7872 24.0836L12.7872 24.0836L12.7454 25.0828ZM24.3763 20.0571C24.6771 19.5939 24.5455 18.9746 24.0823 18.6738C23.6191 18.373 22.9998 18.5046 22.699 18.9678L23.5376 19.5124L24.3763 20.0571ZM22.7845 20.5491L22.0073 19.9199L22.0073 19.9199L22.7845 20.5491ZM3.33833 18.1564C3.07735 17.6696 2.47121 17.4866 1.98448 17.7476C1.49775 18.0086 1.31475 18.6147 1.57573 19.1015L2.45703 18.6289L3.33833 18.1564ZM18.88 23.7284L18.4213 22.8397C16.6832 23.7368 14.7414 24.1655 12.7872 24.0836L12.7454 25.0828L12.7035 26.0819C15.0049 26.1783 17.2917 25.6735 19.3386 24.617L18.88 23.7284ZM23.5376 19.5124L22.699 18.9678C22.4846 19.2979 22.2536 19.6157 22.0073 19.9199L22.7845 20.5491L23.5618 21.1784C23.8519 20.82 24.1238 20.4458 24.3763 20.0571L23.5376 19.5124ZM22.7845 20.5491L22.0073 19.9199C21.0296 21.1276 19.8096 22.1232 18.4213 22.8397L18.88 23.7284L19.3386 24.617C20.9736 23.7731 22.4104 22.6006 23.5618 21.1784L22.7845 20.5491ZM12.7454 25.0828L12.7872 24.0836C12.4057 24.0676 12.0262 24.0323 11.6502 23.978L11.5074 24.9678L11.3645 25.9575C11.8072 26.0214 12.2541 26.063 12.7035 26.0819L12.7454 25.0828ZM6.39375 22.9906L6.95385 22.1622C5.44332 21.1409 4.20179 19.7667 3.33833 18.1564L2.45703 18.6289L1.57573 19.1015C2.5926 20.9979 4.05473 22.6163 5.83365 23.819L6.39375 22.9906Z" fill="#F24F7A"/>
<circle cx="8.84068" cy="23.5028" r="3.11216" stroke="#F24F7A" stroke-width="2" stroke-linecap="round" stroke-linejoin="round"/>
</svg>
