<svg width="" height="" viewBox="0 0 18 18" fill="none" xmlns="http://www.w3.org/2000/svg">

<path d="M8.15199 16.1327L8.63605 16.4192V16.4192L8.15199 16.1327ZM8.34657 15.8039L7.86251 15.5174L7.86251 15.5174L8.34657 15.8039ZM6.65341 15.8039L7.13747 15.5174L7.13747 15.5174L6.65341 15.8039ZM6.84798 16.1327L6.36392 16.4192L6.36392 16.4192L6.84798 16.1327ZM1.72836 12.8481L2.24804 12.6328H2.24804L1.72836 12.8481ZM4.71698 14.6887L4.73496 14.1265H4.73496L4.71698 14.6887ZM3.35195 14.4717L3.13669 14.9914H3.13669L3.35195 14.4717ZM13.2716 12.8481L13.7913 13.0633L13.2716 12.8481ZM10.283 14.6887L10.265 14.1265L10.283 14.6887ZM11.6481 14.4717L11.8633 14.9914L11.6481 14.4717ZM12.0675 4.94208L12.3614 4.46247L12.3614 4.46247L12.0675 4.94208ZM13.0579 5.93251L13.5375 5.63861V5.63861L13.0579 5.93251ZM2.9325 4.94208L2.6386 4.46247V4.46247L2.9325 4.94208ZM1.94208 5.93251L1.46247 5.63861H1.46247L1.94208 5.93251ZM5.93728 14.8668L5.6509 15.3509L5.93728 14.8668ZM8.15199 16.1327L8.63605 16.4192L8.83063 16.0904L8.34657 15.8039L7.86251 15.5174L7.66793 15.8462L8.15199 16.1327ZM6.65341 15.8039L6.16935 16.0904L6.36392 16.4192L6.84798 16.1327L7.33204 15.8462L7.13747 15.5174L6.65341 15.8039ZM8.15199 16.1327L7.66793 15.8461C7.63388 15.9037 7.57442 15.9375 7.49999 15.9375C7.42556 15.9375 7.3661 15.9037 7.33204 15.8461L6.84798 16.1327L6.36392 16.4192C6.87163 17.2769 8.12835 17.2769 8.63605 16.4192L8.15199 16.1327ZM6.6 4.5V5.0625H8.4V4.5V3.9375H6.6V4.5ZM13.5 9.60002H12.9375V10.2H13.5H14.0625V9.60002H13.5ZM1.5 10.2H2.0625V9.60002H1.5H0.9375V10.2H1.5ZM1.5 10.2H0.9375C0.9375 10.8912 0.937195 11.4378 0.96735 11.8798C0.997849 12.3268 1.06138 12.7077 1.20868 13.0633L1.72836 12.8481L2.24804 12.6328C2.16698 12.4371 2.11633 12.1929 2.08974 11.8032C2.0628 11.4084 2.0625 10.9066 2.0625 10.2H1.5ZM4.71698 14.6887L4.73496 14.1265C4.14076 14.1075 3.81785 14.0558 3.56721 13.952L3.35195 14.4717L3.13669 14.9914C3.58434 15.1768 4.07808 15.2311 4.699 15.251L4.71698 14.6887ZM1.72836 12.8481L1.20868 13.0633C1.57025 13.9363 2.26378 14.6298 3.13669 14.9914L3.35195 14.4717L3.56721 13.952C2.96995 13.7046 2.49544 13.2301 2.24804 12.6328L1.72836 12.8481ZM13.5 10.2H12.9375C12.9375 10.9066 12.9372 11.4084 12.9103 11.8032C12.8837 12.1929 12.833 12.4371 12.752 12.6328L13.2716 12.8481L13.7913 13.0633C13.9386 12.7077 14.0022 12.3268 14.0326 11.8798C14.0628 11.4378 14.0625 10.8912 14.0625 10.2H13.5ZM10.283 14.6887L10.301 15.251C10.9219 15.2311 11.4157 15.1768 11.8633 14.9914L11.6481 14.4717L11.4328 13.952C11.1822 14.0558 10.8592 14.1075 10.265 14.1265L10.283 14.6887ZM13.2716 12.8481L12.752 12.6328C12.5046 13.2301 12.03 13.7046 11.4328 13.952L11.6481 14.4717L11.8633 14.9914C12.7362 14.6298 13.4297 13.9363 13.7913 13.0633L13.2716 12.8481ZM8.4 4.5V5.0625C9.39292 5.0625 10.0981 5.06309 10.6465 5.11523C11.1865 5.16658 11.5161 5.26391 11.7736 5.42169L12.0675 4.94208L12.3614 4.46247C11.8975 4.17817 11.3753 4.05446 10.753 3.99529C10.139 3.93691 9.37114 3.9375 8.4 3.9375V4.5ZM13.5 9.60002H14.0625C14.0625 8.62888 14.0631 7.86102 14.0047 7.24703C13.9455 6.62466 13.8218 6.10255 13.5375 5.63861L13.0579 5.93251L12.5783 6.22641C12.7361 6.48388 12.8334 6.81349 12.8848 7.35351C12.9369 7.9019 12.9375 8.6071 12.9375 9.60002H13.5ZM12.0675 4.94208L11.7736 5.42169C12.1016 5.62268 12.3773 5.89843 12.5783 6.22642L13.0579 5.93251L13.5375 5.63861C13.2438 5.15925 12.8408 4.75622 12.3614 4.46247L12.0675 4.94208ZM6.6 4.5V3.9375C5.62886 3.9375 4.86101 3.93691 4.24702 3.99529C3.62465 4.05446 3.10254 4.17817 2.6386 4.46247L2.9325 4.94208L3.22641 5.42169C3.48388 5.26391 3.81348 5.16658 4.3535 5.11523C4.90189 5.06309 5.60708 5.0625 6.6 5.0625V4.5ZM1.5 9.60002H2.0625C2.0625 8.6071 2.06309 7.9019 2.11523 7.35351C2.16658 6.81349 2.26391 6.48388 2.42169 6.22641L1.94208 5.93251L1.46247 5.63861C1.17817 6.10255 1.05446 6.62466 0.995285 7.24703C0.936907 7.86102 0.9375 8.62888 0.9375 9.60002H1.5ZM2.9325 4.94208L2.6386 4.46247C2.15924 4.75622 1.75622 5.15925 1.46247 5.63861L1.94208 5.93251L2.42169 6.22641C2.62268 5.89843 2.89843 5.62268 3.22641 5.42169L2.9325 4.94208ZM6.65341 15.8039L7.13747 15.5174C6.98687 15.263 6.85477 15.0387 6.72666 14.8623C6.59187 14.6767 6.43746 14.5091 6.22366 14.3826L5.93728 14.8668L5.6509 15.3509C5.68548 15.3713 5.7332 15.4089 5.81643 15.5234C5.90633 15.6472 6.00812 15.8181 6.16935 16.0904L6.65341 15.8039ZM4.71698 14.6887L4.699 15.251C5.03308 15.2616 5.24664 15.269 5.40886 15.2888C5.56223 15.3075 5.61979 15.3325 5.6509 15.3509L5.93728 14.8668L6.22366 14.3826C6.0064 14.2541 5.77778 14.2004 5.54508 14.1721C5.32124 14.1448 5.04883 14.1366 4.73496 14.1265L4.71698 14.6887ZM8.34657 15.8039L8.83063 16.0904C8.99186 15.8181 9.09364 15.6472 9.18355 15.5234C9.26677 15.4089 9.3145 15.3713 9.34908 15.3509L9.0627 14.8668L8.77631 14.3826C8.56252 14.5091 8.4081 14.6767 8.27331 14.8623C8.14521 15.0387 8.01311 15.263 7.86251 15.5174L8.34657 15.8039ZM10.283 14.6887L10.265 14.1265C9.95115 14.1366 9.67874 14.1448 9.4549 14.1721C9.2222 14.2004 8.99358 14.2541 8.77631 14.3826L9.0627 14.8668L9.34908 15.3509C9.38019 15.3325 9.43774 15.3075 9.59111 15.2888C9.75334 15.269 9.96689 15.2616 10.301 15.251L10.283 14.6887Z" fill=""/>
<path d="M16.2844 9.32633L16.8041 9.54159V9.54159L16.2844 9.32633ZM14.7623 10.8485L14.9776 11.3681H14.9776L14.7623 10.8485ZM15.1555 1.91445L14.8616 2.39406L15.1555 1.91445ZM16.084 2.84298L16.5637 2.54907L16.5637 2.54907L16.084 2.84298ZM6.59147 1.91445L6.29756 1.43484V1.43484L6.59147 1.91445ZM5.66294 2.84298L5.18333 2.54907H5.18333L5.66294 2.84298ZM10.0297 1.5V2.0625H11.7172V1.5V0.9375H10.0297V1.5ZM16.4985 6.28127H15.936V6.84377H16.4985H17.061V6.28127H16.4985ZM16.4985 6.84377H15.936C15.936 7.5067 15.9357 7.97573 15.9105 8.34436C15.8857 8.70795 15.8386 8.93261 15.7647 9.11107L16.2844 9.32633L16.8041 9.54159C16.9443 9.2032 17.0042 8.84181 17.0329 8.42094C17.0613 8.00513 17.061 7.49131 17.061 6.84377H16.4985ZM16.2844 9.32633L15.7647 9.11107C15.5364 9.66239 15.0983 10.1004 14.547 10.3288L14.7623 10.8485L14.9776 11.3681C15.8045 11.0256 16.4615 10.3686 16.8041 9.54159L16.2844 9.32633ZM11.7172 1.5V2.0625C12.6488 2.0625 13.3079 2.06309 13.82 2.11178C14.3237 2.15967 14.6267 2.2501 14.8616 2.39406L15.1555 1.91445L15.4494 1.43484C15.008 1.16435 14.5125 1.04755 13.9265 0.991832C13.3488 0.936907 12.627 0.9375 11.7172 0.9375V1.5ZM16.4985 6.28127H17.061C17.061 5.37151 17.0616 4.64968 17.0067 4.07201C16.9509 3.48597 16.8341 2.99047 16.5637 2.54907L16.084 2.84298L15.6044 3.13688C15.7484 3.37181 15.8388 3.6748 15.8867 4.1785C15.9354 4.69056 15.936 5.34972 15.936 6.28127H16.4985ZM15.1555 1.91445L14.8616 2.39406C15.1644 2.57959 15.4189 2.83413 15.6044 3.13688L16.084 2.84298L16.5637 2.54907C16.2854 2.09495 15.9036 1.71313 15.4494 1.43484L15.1555 1.91445ZM10.0297 1.5V0.9375C9.11998 0.9375 8.39816 0.936907 7.82049 0.991832C7.23445 1.04755 6.73896 1.16435 6.29756 1.43484L6.59147 1.91445L6.88537 2.39406C7.1203 2.2501 7.42329 2.15967 7.92698 2.11178C8.43904 2.06309 9.0982 2.0625 10.0297 2.0625V1.5ZM6.59147 1.91445L6.29756 1.43484C5.84344 1.71313 5.46162 2.09495 5.18333 2.54907L5.66294 2.84298L6.14256 3.13688C6.32808 2.83413 6.58262 2.57959 6.88537 2.39406L6.59147 1.91445ZM5.27344 4.5L5.83518 4.52922C5.87264 3.80893 5.96633 3.42446 6.14256 3.13688L5.66294 2.84298L5.18333 2.54907C4.85549 3.08407 4.75164 3.70288 4.7117 4.47078L5.27344 4.5ZM13.4985 11.0514L13.5172 11.6136C14.0922 11.5945 14.5555 11.5429 14.9776 11.3681L14.7623 10.8485L14.547 10.3288C14.3205 10.4226 14.0264 10.4711 13.4799 10.4892L13.4985 11.0514Z" fill="#202020"/>
<path d="M4.88281 9.75H4.88956M7.50085 9.75H7.5076M10.1191 9.75H10.1259" stroke="#202020" stroke-width="1.5" stroke-linecap="round" stroke-linejoin="round"/>
</svg>
