<svg width="18" height="18" viewBox="0 0 18 18" fill="none" xmlns="http://www.w3.org/2000/svg">
<path d="M1.5 9C1.5 5.46447 1.5 3.6967 2.59835 2.59835C3.6967 1.5 5.46447 1.5 9 1.5C12.5355 1.5 14.3033 1.5 15.4017 2.59835C16.5 3.6967 16.5 5.46447 16.5 9C16.5 12.5355 16.5 14.3033 15.4017 15.4017C14.3033 16.5 12.5355 16.5 9 16.5C5.46447 16.5 3.6967 16.5 2.59835 15.4017C1.5 14.3033 1.5 12.5355 1.5 9Z" stroke="#202020" stroke-width="1.125"/>
<circle cx="12" cy="6" r="1.5" stroke="#202020" stroke-width="1.125"/>
<path d="M1.5 9.37315L2.81369 8.22368C3.49714 7.62566 4.52721 7.65996 5.16936 8.30212L8.38666 11.5194C8.90208 12.0348 9.71343 12.1051 10.3098 11.686L10.5335 11.5288C11.3916 10.9257 12.5527 10.9956 13.3324 11.6973L15.75 13.8731" stroke="#202020" stroke-width="1.125" stroke-linecap="round"/>
</svg>
