<svg width="32" height="32" viewBox="0 0 32 32" fill="none" xmlns="http://www.w3.org/2000/svg">
<path d="M8.58859 5.11211C8.94815 3.6293 11.0571 3.6293 11.4166 5.11211L12.406 9.19217C12.5343 9.72158 12.9477 10.1349 13.4771 10.2633L17.5572 11.2527C19.04 11.6122 19.04 13.7211 17.5572 14.0807L13.4771 15.07C12.9477 15.1984 12.5343 15.6118 12.406 16.1412L11.4166 20.2212C11.0571 21.704 8.94815 21.704 8.58859 20.2212L7.59924 16.1412C7.47087 15.6118 7.05752 15.1984 6.52811 15.07L2.44805 14.0807C0.965235 13.7211 0.965233 11.6122 2.44805 11.2527L6.52811 10.2633C7.05752 10.1349 7.47087 9.72158 7.59924 9.19217L8.58859 5.11211Z" fill="#C24CFF"/>
<path d="M20.4658 19.351C20.687 18.4385 21.9848 18.4385 22.2061 19.351L22.8149 21.8618C22.8939 22.1876 23.1483 22.442 23.4741 22.521L25.9849 23.1298C26.8974 23.3511 26.8974 24.6489 25.9849 24.8702L23.4741 25.479C23.1483 25.558 22.8939 25.8124 22.8149 26.1382L22.2061 28.649C21.9848 29.5615 20.687 29.5615 20.4658 28.649L19.8569 26.1382C19.7779 25.8124 19.5236 25.558 19.1978 25.479L16.687 24.8702C15.7745 24.6489 15.7745 23.3511 16.687 23.1298L19.1978 22.521C19.5236 22.442 19.7779 22.1876 19.8569 21.8618L20.4658 19.351Z" fill="#C24CFF"/>
<path d="M24.7649 4.94912C24.9101 4.35029 25.7618 4.35029 25.907 4.94912L26.3065 6.59684C26.3584 6.81064 26.5253 6.97757 26.7391 7.02941L28.3868 7.42896C28.9856 7.57416 28.9856 8.42584 28.3868 8.57104L26.7391 8.97059C26.5253 9.02243 26.3584 9.18936 26.3065 9.40316L25.907 11.0509C25.7618 11.6497 24.9101 11.6497 24.7649 11.0509L24.3653 9.40316C24.3135 9.18936 24.1466 9.02243 23.9328 8.97059L22.2851 8.57104C21.6862 8.42584 21.6862 7.57416 22.2851 7.42896L23.9328 7.02941C24.1466 6.97757 24.3135 6.81064 24.3653 6.59684L24.7649 4.94912Z" fill="#C24CFF"/>
<path fill-rule="evenodd" clip-rule="evenodd" d="M25.3359 5.24146L25.0098 6.58629C24.8795 7.12384 24.4598 7.54355 23.9222 7.6739L22.5774 8L23.9222 8.3261C24.4598 8.45645 24.8795 8.87616 25.0098 9.41371L25.3359 10.7585L25.662 9.41371C25.7924 8.87616 26.2121 8.45645 26.7497 8.3261L28.0945 8L26.7497 7.6739C26.2121 7.54355 25.7924 7.12384 25.662 6.58629L25.3359 5.24146ZM25.9886 4.51328C25.8226 3.82891 24.8493 3.82891 24.6833 4.51328L24.2267 6.39639C24.1674 6.64073 23.9767 6.83151 23.7323 6.89076L21.8492 7.34738C21.1648 7.51333 21.1648 8.48667 21.8492 8.65262L23.7323 9.10925C23.9767 9.1685 24.1674 9.35927 24.2267 9.60361L24.6833 11.4867C24.8493 12.1711 25.8226 12.1711 25.9886 11.4867L26.4452 9.60361C26.5044 9.35927 26.6952 9.1685 26.9396 9.10925L28.8227 8.65262C29.507 8.48667 29.507 7.51333 28.8227 7.34738L26.9396 6.89075C26.6952 6.83151 26.5044 6.64073 26.4452 6.39639L25.9886 4.51328Z" fill="#C24CFF"/>
</svg>
