<svg viewBox="0 0 150 69" fill="none" xmlns="http://www.w3.org/2000/svg">
<path fill-rule="evenodd" clip-rule="evenodd" d="M41.4086 37.378C41.4525 37.3563 41.4844 37.3403 41.5062 37.3291C41.4737 37.3456 41.4411 37.3619 41.4086 37.378Z" fill=""/>
<path fill-rule="evenodd" clip-rule="evenodd" d="M78.7453 27.8495C78.762 27.7668 78.7792 27.6844 78.7969 27.6025C78.7961 27.6302 78.7932 27.6583 78.7882 27.6867C78.7318 27.9997 78.671 28.3097 78.6053 28.6163C78.6461 28.3649 78.6927 28.1093 78.7453 27.8495ZM84.3277 14.7395C85.3815 14.5657 86.4446 14.5574 86.9296 14.566C86.0757 14.58 85.2044 14.6361 84.3277 14.7395ZM88.6672 14.6589C88.0829 14.606 87.5017 14.5757 86.9296 14.566C87.1829 14.5595 87.873 14.5712 88.6672 14.6589Z" fill=""/>
<path fill-rule="evenodd" clip-rule="evenodd" d="M59.494 21.656C59.5644 20.6447 57.5505 19.2721 55.0645 19.2721C51.684 19.2721 49.6596 21.2779 48.7839 23.6051C48.7305 23.747 48.6814 23.8901 48.6365 24.034C48.5897 24.3028 48.5437 24.5719 48.4979 24.8411L48.428 25.2529L48.4253 25.2691C48.2026 26.5818 47.9664 27.968 47.6865 29.2686C47.6789 29.3026 47.6944 29.2346 47.6865 29.2686C47.2497 31.1473 46.3447 33.0011 45.1109 34.4394C44.5522 35.1219 43.9247 35.732 43.2424 36.256C42.8484 36.5482 42.4399 36.8137 42.0192 37.0511C41.8516 37.147 41.6791 37.2411 41.5062 37.3291C41.4844 37.3403 41.4525 37.3563 41.4086 37.378L41.3829 37.3906C41.2843 37.4399 40.9793 37.5385 40.8391 37.5816L39.2784 37.6222C39.0241 37.6238 38.7698 37.6253 38.5155 37.6253H31.1283L32.6594 29.1058C33.2858 25.619 33.0627 22.1625 31.0521 19.4432C27.2252 14.2613 19.3936 13.6788 13.5762 15.1034C8.3218 16.3871 3.44782 19.7331 1.22206 25.4395C-0.662984 30.2791 0.546236 35.3588 4.0255 38.3625C7.59671 41.4435 12.4983 41.46 16.9923 41.46H18.7973C15.5215 45.4379 10.1797 48.4983 10.1797 48.4983C10.1797 48.4983 6.86309 50.0767 6.13907 50.3415C5.96163 50.4063 5.80825 50.4624 5.67607 50.5213C5.30917 50.7637 5.1851 51.0769 5.18239 51.4256C5.16202 54.0403 8.17789 57.3659 12.93 56.4808C20.892 54.9977 26.5885 46.6078 29.0893 41.4406H38.3628C41.2241 41.4406 44.0541 41.4268 46.9096 40.6345C48.4868 40.1973 50.0213 39.5324 51.4325 38.6426C54.1942 40.763 57.8597 41.4521 61.2901 41.4269C65.064 41.4011 68.8686 40.581 72.2105 38.4271C72.1063 38.341 72.0036 38.2526 71.9024 38.162C68.9021 35.4701 67.9306 31.4185 68.8005 27.3808C68.7552 27.4744 68.7214 27.5761 68.7018 27.6867L68.6958 27.7005C68.1012 31.0134 66.6331 34.0143 64.0219 36.049L63.779 36.2213C63.1178 36.6902 62.4099 37.091 61.6664 37.4174C61.5842 37.3685 61.135 37.1067 61.0278 37.0456C58.8552 35.5251 57.835 32.4924 58.1123 29.4518C58.1295 29.2627 58.1518 29.0736 58.1791 28.8849C58.3505 27.7017 58.5711 26.5206 58.795 25.3404C58.9274 24.6426 59.061 23.945 59.1863 23.2475C59.1863 23.2475 59.4677 22.0344 59.494 21.656ZM20.6797 37.5905H16.666C15.5999 37.5905 14.552 37.427 13.7989 36.8519C9.59328 33.6403 9.1838 24.9266 16.2786 19.816C17.6783 18.8078 19.5666 18.2401 20.6667 19.1203C22.6382 20.6977 23.2982 25.4751 20.6797 37.5905Z" fill=""/>
<path d="M80.4377 41.3672C84.451 41.6902 88.5926 41.1187 92.403 39.1889C92.9478 38.913 93.4834 38.5968 94.0046 38.2444C97.5042 35.8783 100.353 31.881 100.933 27.4916C101.021 26.8247 101.057 26.1488 101.035 25.4681C100.789 18.0522 94.572 15.1946 88.6672 14.6589C88.0829 14.606 87.5017 14.5757 86.9296 14.566C86.0757 14.58 85.2044 14.6361 84.3277 14.7395C78.8327 15.3874 73.1261 17.8958 70.1758 23.5908C69.5365 24.8236 69.0761 26.1015 68.8005 27.3808C67.9306 31.4185 68.9021 35.4701 71.9024 38.162C72.0036 38.2526 72.1063 38.341 72.2105 38.4271C72.7993 38.0476 73.3737 37.6268 73.9311 37.1616C76.5574 34.9698 77.8811 31.9937 78.6053 28.6163C78.6461 28.3649 78.6927 28.1093 78.7453 27.8495C78.762 27.7668 78.7792 27.6844 78.7969 27.6025C79.9284 22.3481 82.9132 18.6123 86.5987 18.6123C90.8922 18.6123 91.791 23.0989 90.7816 28.1134C89.7502 33.4446 86.9978 37.4034 82.9796 37.4034C79.5092 37.4034 77.7334 33.9836 78.6053 28.6163C77.8811 31.9937 76.5574 34.9698 73.9311 37.1616C73.3737 37.6268 72.7993 38.0476 72.2105 38.4271C74.5091 40.3261 77.5281 41.1321 80.4377 41.3672Z" fill=""/>
<path d="M116.434 40.1466C120.464 38.5757 123.913 35.5196 125.591 31.0831C126.276 29.2751 126.581 27.2741 126.878 25.3208L126.91 25.1116L126.935 24.951L126.967 24.7401C127.043 24.2479 127.121 23.7603 127.207 23.2813L127.254 23.0442C127.372 22.5092 127.477 22.0344 127.504 21.656C127.574 20.6447 125.56 19.2721 123.074 19.2721C119.147 19.2721 117.067 21.979 116.477 24.752L116.447 24.9242L116.378 25.3162C116.176 26.4608 115.972 27.6052 115.755 28.7475C115.744 28.8112 115.732 28.8747 115.72 28.9381C115.404 30.5856 114.752 32.1593 113.812 33.5354C113.088 34.5959 112.207 35.85 111.216 36.7613C110.574 37.3516 109.661 37.5648 108.814 37.5648H105.169C104.194 37.5648 103.201 37.2926 102.632 36.57C100.918 34.3968 100.943 27.9328 100.938 27.7122C100.933 27.4916 100.948 27.5626 100.933 27.4916C100.353 31.881 97.5042 35.8783 94.0046 38.2444C97.1388 40.956 101.46 41.4413 105.466 41.4413C105.705 41.4413 105.943 41.4418 106.182 41.4422C109.61 41.4486 113.071 41.4551 116.434 40.1466Z" fill=""/>
<path d="M149.894 1.72257C150.019 1.29493 149.989 1.02765 149.722 0.706922C148.859 -0.0949109 143.854 -1.00365 140.117 2.84514C138.903 4.09489 137.993 5.57585 137.826 7.01944L133.939 28.1029C132.961 33.1186 131.177 33.8672 129.173 34.6907C128.72 34.9153 128.471 35.1399 128.384 35.589C128.136 36.8617 129.77 41.4283 134.685 41.4283C138.984 41.4283 142.42 38.5087 143.457 33.1935L148.343 6.98513C148.349 6.94482 148.358 6.89696 148.369 6.84231C148.562 5.88799 149.399 2.86113 149.894 1.72257Z" fill=""/>
<path d="M95.0007 49.1585C99.5127 49.5649 109.965 49.8836 115.677 47.9063C115.927 50.4369 115.426 55.8628 111.417 57.3222C107.409 58.7817 99.9765 58.4794 96.7615 58.1458C94.4725 57.5901 94.0041 52.4085 95.0007 49.1585Z" fill=""/>
<path d="M54.7605 49.1249C41.7651 50.7713 36.0248 49.6151 30.9373 49.6619C29.5057 50.9117 29.7644 54.7763 33.6408 57.2502C38.4864 60.3425 56.3225 58.6036 54.7605 49.1249Z" fill=""/>
<path d="M37.5748 61.9269C37.5748 61.9269 39.7009 62.5136 45.6067 61.1212C45.7588 63.2689 45.4072 69.2044 40.9874 68.9946C36.0105 68.7583 36.7493 64.2962 37.5748 61.9269Z" fill=""/>
</svg>
