<svg viewBox="0 0 36 36" fill="none" xmlns="http://www.w3.org/2000/svg">
<rect width="36" height="36" rx="8" fill="#FCE7EB"/>
<path d="M14.9184 18.1498C14.9184 12.3566 20.2404 5.83935 20.2404 5.83935C20.2404 5.83935 25.5623 12.3566 25.5623 18.1498C25.5623 21.2402 23.1796 23.7455 20.2404 23.7455C17.3011 23.7455 14.9184 21.2402 14.9184 18.1498Z" fill="#FACCD4"/>
<path fill-rule="evenodd" clip-rule="evenodd" d="M20.846 5.29258L20.2404 5.83935L19.6347 5.29258C19.7864 5.10686 20.0076 5 20.2404 5C20.4732 5 20.6944 5.10686 20.846 5.29258ZM20.2404 7.18363C20.1798 7.26692 20.1155 7.35609 20.0481 7.45086C19.5617 8.13485 18.9131 9.1056 18.2656 10.251C16.9536 12.5718 15.7167 15.487 15.7167 18.1498C15.7167 20.7766 17.742 22.9061 20.2404 22.9061C22.7387 22.9061 24.764 20.7766 24.764 18.1498C24.764 15.487 23.5271 12.5718 22.2151 10.251C21.5676 9.1056 20.9191 8.13485 20.4326 7.45086C20.3652 7.35609 20.301 7.26692 20.2404 7.18363ZM20.2404 5.83935C19.6347 5.29258 19.6348 5.29239 19.6347 5.29258L19.6328 5.29487L19.629 5.29954L19.6158 5.31594C19.6045 5.32998 19.5883 5.35021 19.5675 5.37641C19.526 5.4288 19.4661 5.50507 19.3906 5.60345C19.2395 5.80017 19.0255 6.0856 18.7695 6.44553C18.2581 7.16457 17.5761 8.18521 16.8932 9.39327C15.5442 11.7794 14.1201 15.0194 14.1201 18.1498C14.1201 21.7038 16.8602 24.5848 20.2404 24.5848C23.6205 24.5848 26.3606 21.7038 26.3606 18.1498C26.3606 15.0194 24.9365 11.7794 23.5876 9.39327C22.9046 8.18521 22.2226 7.16457 21.7112 6.44553C21.4552 6.0856 21.2412 5.80017 21.0902 5.60345C21.0146 5.50507 20.9548 5.4288 20.9132 5.37641C20.8925 5.35021 20.8763 5.32998 20.865 5.31594L20.8517 5.29954L20.8479 5.29487L20.846 5.29258C20.8459 5.29239 20.846 5.29258 20.2404 5.83935Z" fill="#FACCD4"/>
<path d="M22.25 22.8584C22.2498 26.4205 19.3619 29.3084 15.7998 29.3086C12.2376 29.3086 9.34978 26.4206 9.34961 22.8584C9.34961 19.4401 11.0065 15.7741 12.6943 12.9346C13.5347 11.5208 14.3752 10.3238 15.0059 9.48047C15.3211 9.05896 15.5834 8.72589 15.7666 8.49902C15.778 8.48494 15.7891 8.47127 15.7998 8.45801C15.8105 8.4712 15.8217 8.48502 15.833 8.49902C16.0162 8.72588 16.2787 9.05911 16.5938 9.48047C17.2244 10.3238 18.065 11.521 18.9053 12.9346C20.5931 15.7741 22.25 19.4402 22.25 22.8584ZM21.2324 22.8584C21.2322 25.8586 18.8 28.2909 15.7998 28.291C12.7995 28.291 10.3674 25.8587 10.3672 22.8584C10.3672 19.7235 11.904 16.2541 13.5684 13.4541C14.3769 12.0939 15.1865 10.9377 15.7988 10.1172C16.4112 10.9377 17.2216 12.0936 18.0303 13.4541C19.6946 16.2541 21.2324 19.7235 21.2324 22.8584ZM15.7998 7.25195C15.8818 7.25199 15.9619 7.26711 16.0371 7.29492L15.8018 7.49805L15.7988 7.49902C15.7043 7.41784 15.6256 7.3508 15.5605 7.29492C15.6362 7.26679 15.7173 7.25195 15.7998 7.25195ZM21.8965 22.8584C21.8965 19.5385 20.2812 15.94 18.6016 13.1143C17.7691 11.7137 16.9356 10.5273 16.3105 9.69141C16.224 9.57572 16.1413 9.46699 16.0635 9.36523C16.0007 9.2832 15.9031 9.23446 15.7998 9.23438C15.7223 9.23438 15.6476 9.2614 15.5889 9.30957L15.5361 9.36523C15.4583 9.46699 15.3756 9.57572 15.2891 9.69141C14.664 10.5273 13.8296 11.7136 12.9971 13.1143C11.3174 15.94 9.70215 19.5385 9.70215 22.8584C9.70232 26.2255 12.4327 28.9551 15.7998 28.9551C19.1668 28.9549 21.8963 26.2254 21.8965 22.8584ZM22.9141 22.8584C22.9141 19.2551 21.1788 15.4602 19.4756 12.5947C18.6205 11.1562 17.766 9.93916 17.125 9.08203C16.8046 8.65358 16.5373 8.31453 16.3496 8.08203C16.3188 8.04386 16.2891 8.00892 16.2627 7.97656C16.3742 7.8808 16.4621 7.80549 16.5312 7.74609C16.5596 7.78076 16.5906 7.81901 16.624 7.86035C16.8142 8.09593 17.0848 8.43859 17.4082 8.87109C18.0546 9.73556 18.9165 10.9626 19.7793 12.4141C21.4907 15.2932 23.2666 19.1567 23.2666 22.8584C23.2664 26.9823 19.9237 30.325 15.7998 30.3252C11.6757 30.3252 8.3322 26.9824 8.33203 22.8584C8.33203 19.1567 10.108 15.2932 11.8193 12.4141C12.6823 10.9623 13.5449 9.73561 14.1914 8.87109C14.5147 8.43873 14.7844 8.09592 14.9746 7.86035C15.0079 7.81909 15.0391 7.78071 15.0674 7.74609L15.3359 7.97656C15.3096 8.00886 15.2808 8.04394 15.25 8.08203C15.0623 8.31457 14.7942 8.65332 14.4736 9.08203C13.8326 9.9392 12.9782 11.1561 12.123 12.5947C10.4198 15.4602 8.68555 19.2551 8.68555 22.8584C8.68572 26.7874 11.8708 29.9727 15.7998 29.9727C19.7287 29.9725 22.9139 26.7873 22.9141 22.8584Z" fill="#F24F7A" stroke="#FCE7EB" stroke-width="0.66414" stroke-linecap="round" stroke-linejoin="round"/>
</svg>
