<svg width="16" height="16" viewBox="0 0 16 16" fill="none" xmlns="http://www.w3.org/2000/svg">
<circle cx="8" cy="8" r="7.5" stroke="#34B288"/>
<circle cx="8" cy="8" r="7.5" fill="white" stroke="#34B288"/>
<path d="M7.02 9.26L5.515 7.755C5.38667 7.62667 5.22333 7.5625 5.025 7.5625C4.82667 7.5625 4.66333 7.62667 4.535 7.755C4.40667 7.88333 4.3425 8.04667 4.3425 8.245C4.3425 8.44333 4.40667 8.60667 4.535 8.735L6.53 10.73C6.67 10.87 6.83333 10.94 7.02 10.94C7.20667 10.94 7.37 10.87 7.51 10.73L11.465 6.775C11.5933 6.64667 11.6575 6.48333 11.6575 6.285C11.6575 6.08667 11.5933 5.92333 11.465 5.795C11.3367 5.66667 11.1733 5.6025 10.975 5.6025C10.7767 5.6025 10.6133 5.66667 10.485 5.795L7.02 9.26ZM8 15C7.03167 15 6.12167 14.8162 5.27 14.4487C4.41833 14.0812 3.6775 13.5825 3.0475 12.9525C2.4175 12.3225 1.91875 11.5817 1.55125 10.73C1.18375 9.87833 1 8.96833 1 8C1 7.03167 1.18375 6.12167 1.55125 5.27C1.91875 4.41833 2.4175 3.6775 3.0475 3.0475C3.6775 2.4175 4.41833 1.91875 5.27 1.55125C6.12167 1.18375 7.03167 1 8 1C8.96833 1 9.87833 1.18375 10.73 1.55125C11.5817 1.91875 12.3225 2.4175 12.9525 3.0475C13.5825 3.6775 14.0812 4.41833 14.4487 5.27C14.8162 6.12167 15 7.03167 15 8C15 8.96833 14.8162 9.87833 14.4487 10.73C14.0812 11.5817 13.5825 12.3225 12.9525 12.9525C12.3225 13.5825 11.5817 14.0812 10.73 14.4487C9.87833 14.8162 8.96833 15 8 15Z" fill="#34B288"/>
</svg>
