<svg viewBox="0 0 23 131" fill="none" xmlns="http://www.w3.org/2000/svg">
<path d="M22.4874 130.584H7.3108C7.18019 130.584 7.05494 130.533 6.96259 130.44C6.87024 130.348 6.81836 130.223 6.81836 130.092C6.81836 129.961 6.87024 129.836 6.96259 129.744C7.05494 129.651 7.18019 129.6 7.3108 129.6H22.4874C22.618 129.6 22.7433 129.651 22.8356 129.744C22.928 129.836 22.9799 129.961 22.9799 130.092C22.9799 130.223 22.928 130.348 22.8356 130.44C22.7433 130.533 22.618 130.584 22.4874 130.584Z" fill=""/>
<path d="M22.4874 114.989H7.3108C7.18019 114.989 7.05494 114.937 6.96259 114.845C6.87024 114.752 6.81836 114.627 6.81836 114.496C6.81836 114.366 6.87024 114.24 6.96259 114.148C7.05494 114.056 7.18019 114.004 7.3108 114.004H22.4874C22.618 114.004 22.7433 114.056 22.8356 114.148C22.928 114.24 22.9799 114.366 22.9799 114.496C22.9799 114.627 22.928 114.752 22.8356 114.845C22.7433 114.937 22.618 114.989 22.4874 114.989Z" fill=""/>
<path d="M22.4887 126.684H13.344C13.2134 126.684 13.0881 126.632 12.9958 126.54C12.9034 126.448 12.8516 126.322 12.8516 126.192C12.8516 126.061 12.9034 125.936 12.9958 125.843C13.0881 125.751 13.2134 125.699 13.344 125.699H22.4887C22.6193 125.699 22.7446 125.751 22.8369 125.843C22.9293 125.936 22.9812 126.061 22.9812 126.192C22.9812 126.322 22.9293 126.448 22.8369 126.54C22.7446 126.632 22.6193 126.684 22.4887 126.684Z" fill=""/>
<path d="M22.4887 118.887H13.344C13.2134 118.887 13.0881 118.835 12.9958 118.743C12.9034 118.651 12.8516 118.525 12.8516 118.395C12.8516 118.264 12.9034 118.139 12.9958 118.047C13.0881 117.954 13.2134 117.902 13.344 117.902H22.4887C22.6193 117.902 22.7446 117.954 22.8369 118.047C22.9293 118.139 22.9812 118.264 22.9812 118.395C22.9812 118.525 22.9293 118.651 22.8369 118.743C22.7446 118.835 22.6193 118.887 22.4887 118.887Z" fill=""/>
<path d="M22.4887 122.788H13.344C13.2134 122.788 13.0881 122.736 12.9958 122.643C12.9034 122.551 12.8516 122.426 12.8516 122.295C12.8516 122.165 12.9034 122.039 12.9958 121.947C13.0881 121.855 13.2134 121.803 13.344 121.803H22.4887C22.6193 121.803 22.7446 121.855 22.8369 121.947C22.9293 122.039 22.9812 122.165 22.9812 122.295C22.9812 122.426 22.9293 122.551 22.8369 122.643C22.7446 122.736 22.6193 122.788 22.4887 122.788Z" fill=""/>
<path d="M22.4874 99.395H7.3108C7.18019 99.395 7.05494 99.3431 6.96259 99.2508C6.87024 99.1584 6.81836 99.0332 6.81836 98.9026C6.81836 98.772 6.87024 98.6467 6.96259 98.5544C7.05494 98.462 7.18019 98.4102 7.3108 98.4102H22.4874C22.618 98.4102 22.7433 98.462 22.8356 98.5544C22.928 98.6467 22.9799 98.772 22.9799 98.9026C22.9799 99.0332 22.928 99.1584 22.8356 99.2508C22.7433 99.3431 22.618 99.395 22.4874 99.395Z" fill=""/>
<path d="M22.4887 111.09H13.344C13.2134 111.09 13.0881 111.038 12.9958 110.946C12.9034 110.854 12.8516 110.729 12.8516 110.598C12.8516 110.467 12.9034 110.342 12.9958 110.25C13.0881 110.157 13.2134 110.105 13.344 110.105H22.4887C22.6193 110.105 22.7446 110.157 22.8369 110.25C22.9293 110.342 22.9812 110.467 22.9812 110.598C22.9812 110.729 22.9293 110.854 22.8369 110.946C22.7446 111.038 22.6193 111.09 22.4887 111.09Z" fill=""/>
<path d="M22.4887 103.293H13.344C13.2134 103.293 13.0881 103.242 12.9958 103.149C12.9034 103.057 12.8516 102.932 12.8516 102.801C12.8516 102.67 12.9034 102.545 12.9958 102.453C13.0881 102.36 13.2134 102.309 13.344 102.309H22.4887C22.6193 102.309 22.7446 102.36 22.8369 102.453C22.9293 102.545 22.9812 102.67 22.9812 102.801C22.9812 102.932 22.9293 103.057 22.8369 103.149C22.7446 103.242 22.6193 103.293 22.4887 103.293Z" fill=""/>
<path d="M22.4887 107.192H13.344C13.2134 107.192 13.0881 107.14 12.9958 107.048C12.9034 106.955 12.8516 106.83 12.8516 106.699C12.8516 106.569 12.9034 106.444 12.9958 106.351C13.0881 106.259 13.2134 106.207 13.344 106.207H22.4887C22.6193 106.207 22.7446 106.259 22.8369 106.351C22.9293 106.444 22.9812 106.569 22.9812 106.699C22.9812 106.83 22.9293 106.955 22.8369 107.048C22.7446 107.14 22.6193 107.192 22.4887 107.192Z" fill=""/>
<path d="M22.4874 83.7993H7.3108C7.18019 83.7993 7.05494 83.7474 6.96259 83.6551C6.87024 83.5627 6.81836 83.4375 6.81836 83.3069C6.81836 83.1763 6.87024 83.051 6.96259 82.9587C7.05494 82.8663 7.18019 82.8145 7.3108 82.8145H22.4874C22.618 82.8145 22.7433 82.8663 22.8356 82.9587C22.928 83.051 22.9799 83.1763 22.9799 83.3069C22.9799 83.4375 22.928 83.5627 22.8356 83.6551C22.7433 83.7474 22.618 83.7993 22.4874 83.7993Z" fill=""/>
<path d="M22.4887 95.4946H13.344C13.2134 95.4946 13.0881 95.4427 12.9958 95.3504C12.9034 95.2581 12.8516 95.1328 12.8516 95.0022C12.8516 94.8716 12.9034 94.7463 12.9958 94.654C13.0881 94.5616 13.2134 94.5098 13.344 94.5098H22.4887C22.6193 94.5098 22.7446 94.5616 22.8369 94.654C22.9293 94.7463 22.9812 94.8716 22.9812 95.0022C22.9812 95.1328 22.9293 95.2581 22.8369 95.3504C22.7446 95.4427 22.6193 95.4946 22.4887 95.4946Z" fill=""/>
<path d="M22.4887 87.6997H13.344C13.2134 87.6997 13.0881 87.6478 12.9958 87.5555C12.9034 87.4631 12.8516 87.3379 12.8516 87.2073C12.8516 87.0767 12.9034 86.9514 12.9958 86.8591C13.0881 86.7667 13.2134 86.7148 13.344 86.7148H22.4887C22.6193 86.7148 22.7446 86.7667 22.8369 86.8591C22.9293 86.9514 22.9812 87.0767 22.9812 87.2073C22.9812 87.3379 22.9293 87.4631 22.8369 87.5555C22.7446 87.6478 22.6193 87.6997 22.4887 87.6997Z" fill=""/>
<path d="M22.4887 91.5962H13.344C13.2134 91.5962 13.0881 91.5443 12.9958 91.452C12.9034 91.3596 12.8516 91.2344 12.8516 91.1038C12.8516 90.9732 12.9034 90.8479 12.9958 90.7556C13.0881 90.6632 13.2134 90.6113 13.344 90.6113H22.4887C22.6193 90.6113 22.7446 90.6632 22.8369 90.7556C22.9293 90.8479 22.9812 90.9732 22.9812 91.1038C22.9812 91.2344 22.9293 91.3596 22.8369 91.452C22.7446 91.5443 22.6193 91.5962 22.4887 91.5962Z" fill=""/>
<path d="M22.4874 68.2095H7.3108C7.18019 68.2095 7.05494 68.1576 6.96259 68.0652C6.87024 67.9729 6.81836 67.8476 6.81836 67.717C6.81836 67.5864 6.87024 67.4612 6.96259 67.3688C7.05494 67.2765 7.18019 67.2246 7.3108 67.2246H22.4874C22.618 67.2246 22.7433 67.2765 22.8356 67.3688C22.928 67.4612 22.9799 67.5864 22.9799 67.717C22.9799 67.8476 22.928 67.9729 22.8356 68.0652C22.7433 68.1576 22.618 68.2095 22.4874 68.2095Z" fill=""/>
<path d="M22.4887 79.9009H13.344C13.2134 79.9009 13.0881 79.849 12.9958 79.7566C12.9034 79.6643 12.8516 79.539 12.8516 79.4084C12.8516 79.2778 12.9034 79.1526 12.9958 79.0602C13.0881 78.9679 13.2134 78.916 13.344 78.916H22.4887C22.6193 78.916 22.7446 78.9679 22.8369 79.0602C22.9293 79.1526 22.9812 79.2778 22.9812 79.4084C22.9812 79.539 22.9293 79.6643 22.8369 79.7566C22.7446 79.849 22.6193 79.9009 22.4887 79.9009Z" fill=""/>
<path d="M22.4887 72.104H13.344C13.2134 72.104 13.0881 72.0521 12.9958 71.9598C12.9034 71.8674 12.8516 71.7422 12.8516 71.6116C12.8516 71.481 12.9034 71.3557 12.9958 71.2634C13.0881 71.171 13.2134 71.1191 13.344 71.1191H22.4887C22.6193 71.1191 22.7446 71.171 22.8369 71.2634C22.9293 71.3557 22.9812 71.481 22.9812 71.6116C22.9812 71.7422 22.9293 71.8674 22.8369 71.9598C22.7446 72.0521 22.6193 72.104 22.4887 72.104Z" fill=""/>
<path d="M22.4887 76.0044H13.344C13.2134 76.0044 13.0881 75.9525 12.9958 75.8602C12.9034 75.7678 12.8516 75.6426 12.8516 75.512C12.8516 75.3814 12.9034 75.2561 12.9958 75.1638C13.0881 75.0714 13.2134 75.0195 13.344 75.0195H22.4887C22.6193 75.0195 22.7446 75.0714 22.8369 75.1638C22.9293 75.2561 22.9812 75.3814 22.9812 75.512C22.9812 75.6426 22.9293 75.7678 22.8369 75.8602C22.7446 75.9525 22.6193 76.0044 22.4887 76.0044Z" fill=""/>
<path d="M22.4874 52.6118H7.3108C7.18019 52.6118 7.05494 52.5599 6.96259 52.4676C6.87024 52.3752 6.81836 52.25 6.81836 52.1194C6.81836 51.9888 6.87024 51.8635 6.96259 51.7712C7.05494 51.6788 7.18019 51.627 7.3108 51.627H22.4874C22.618 51.627 22.7433 51.6788 22.8356 51.7712C22.928 51.8635 22.9799 51.9888 22.9799 52.1194C22.9799 52.25 22.928 52.3752 22.8356 52.4676C22.7433 52.5599 22.618 52.6118 22.4874 52.6118Z" fill=""/>
<path d="M22.4887 64.3071H13.344C13.2134 64.3071 13.0881 64.2553 12.9958 64.1629C12.9034 64.0706 12.8516 63.9453 12.8516 63.8147C12.8516 63.6841 12.9034 63.5588 12.9958 63.4665C13.0881 63.3741 13.2134 63.3223 13.344 63.3223H22.4887C22.6193 63.3223 22.7446 63.3741 22.8369 63.4665C22.9293 63.5588 22.9812 63.6841 22.9812 63.8147C22.9812 63.9453 22.9293 64.0706 22.8369 64.1629C22.7446 64.2553 22.6193 64.3071 22.4887 64.3071Z" fill=""/>
<path d="M22.4887 56.5083H13.344C13.2134 56.5083 13.0881 56.4564 12.9958 56.3641C12.9034 56.2717 12.8516 56.1465 12.8516 56.0159C12.8516 55.8853 12.9034 55.76 12.9958 55.6677C13.0881 55.5753 13.2134 55.5234 13.344 55.5234H22.4887C22.6193 55.5234 22.7446 55.5753 22.8369 55.6677C22.9293 55.76 22.9812 55.8853 22.9812 56.0159C22.9812 56.1465 22.9293 56.2717 22.8369 56.3641C22.7446 56.4564 22.6193 56.5083 22.4887 56.5083Z" fill=""/>
<path d="M22.4872 60.4095H13.3424C13.2152 60.4044 13.0948 60.3502 13.0066 60.2583C12.9184 60.1665 12.8691 60.044 12.8691 59.9167C12.8691 59.7893 12.9184 59.6669 13.0066 59.575C13.0948 59.4832 13.2152 59.429 13.3424 59.4238H22.4872C22.6144 59.429 22.7347 59.4832 22.823 59.575C22.9112 59.6669 22.9604 59.7893 22.9604 59.9167C22.9604 60.044 22.9112 60.1665 22.823 60.2583C22.7347 60.3502 22.6144 60.4044 22.4872 60.4095Z" fill=""/>
<path d="M22.4874 36.9224H7.3108C7.18019 36.9224 7.05494 36.8705 6.96259 36.7781C6.87024 36.6858 6.81836 36.5605 6.81836 36.4299C6.81836 36.2993 6.87024 36.1741 6.96259 36.0817C7.05494 35.9894 7.18019 35.9375 7.3108 35.9375H22.4874C22.618 35.9375 22.7433 35.9894 22.8356 36.0817C22.928 36.1741 22.9799 36.2993 22.9799 36.4299C22.9799 36.5605 22.928 36.6858 22.8356 36.7781C22.7433 36.8705 22.618 36.9224 22.4874 36.9224Z" fill=""/>
<path d="M22.4872 48.6173H13.3424C13.2762 48.62 13.21 48.6092 13.148 48.5857C13.0859 48.5622 13.0293 48.5264 12.9814 48.4804C12.9336 48.4345 12.8955 48.3793 12.8695 48.3183C12.8435 48.2572 12.8301 48.1916 12.8301 48.1252C12.8301 48.0589 12.8435 47.9932 12.8695 47.9322C12.8955 47.8712 12.9336 47.816 12.9814 47.7701C13.0293 47.7241 13.0859 47.6883 13.148 47.6648C13.21 47.6413 13.2762 47.6305 13.3424 47.6332H22.4872C22.5535 47.6305 22.6196 47.6413 22.6817 47.6648C22.7437 47.6883 22.8003 47.7241 22.8482 47.7701C22.896 47.816 22.9341 47.8712 22.9601 47.9322C22.9861 47.9932 22.9995 48.0589 22.9995 48.1252C22.9995 48.1916 22.9861 48.2572 22.9601 48.3183C22.9341 48.3793 22.896 48.4345 22.8482 48.4804C22.8003 48.5264 22.7437 48.5622 22.6817 48.5857C22.6196 48.6092 22.5535 48.62 22.4872 48.6173Z" fill=""/>
<path d="M22.4887 40.8208H13.344C13.2134 40.8208 13.0881 40.7689 12.9958 40.6766C12.9034 40.5842 12.8516 40.459 12.8516 40.3284C12.8516 40.1978 12.9034 40.0725 12.9958 39.9802C13.0881 39.8878 13.2134 39.8359 13.344 39.8359H22.4887C22.6193 39.8359 22.7446 39.8878 22.8369 39.9802C22.9293 40.0725 22.9812 40.1978 22.9812 40.3284C22.9812 40.459 22.9293 40.5842 22.8369 40.6766C22.7446 40.7689 22.6193 40.8208 22.4887 40.8208Z" fill=""/>
<path d="M22.4887 44.7173H13.344C13.2134 44.7173 13.0881 44.6654 12.9958 44.5731C12.9034 44.4807 12.8516 44.3555 12.8516 44.2249C12.8516 44.0943 12.9034 43.969 12.9958 43.8767C13.0881 43.7843 13.2134 43.7324 13.344 43.7324H22.4887C22.6193 43.7324 22.7446 43.7843 22.8369 43.8767C22.9293 43.969 22.9812 44.0943 22.9812 44.2249C22.9812 44.3555 22.9293 44.4807 22.8369 44.5731C22.7446 44.6654 22.6193 44.7173 22.4887 44.7173Z" fill=""/>
<path d="M22.4874 21.3267H7.3108C7.18019 21.3267 7.05494 21.2748 6.96259 21.1824C6.87024 21.0901 6.81836 20.9648 6.81836 20.8342C6.81836 20.7036 6.87024 20.5784 6.96259 20.486C7.05494 20.3937 7.18019 20.3418 7.3108 20.3418H22.4874C22.5521 20.3418 22.6161 20.3545 22.6759 20.3793C22.7356 20.404 22.7899 20.4403 22.8356 20.486C22.8814 20.5318 22.9176 20.586 22.9424 20.6458C22.9671 20.7055 22.9799 20.7696 22.9799 20.8342C22.9799 20.8989 22.9671 20.9629 22.9424 21.0227C22.9176 21.0824 22.8814 21.1367 22.8356 21.1824C22.7899 21.2282 22.7356 21.2644 22.6759 21.2892C22.6161 21.3139 22.5521 21.3267 22.4874 21.3267Z" fill=""/>
<path d="M22.4887 33.022H13.344C13.2134 33.022 13.0881 32.9701 12.9958 32.8777C12.9034 32.7854 12.8516 32.6601 12.8516 32.5295C12.8516 32.3989 12.9034 32.2737 12.9958 32.1813C13.0881 32.089 13.2134 32.0371 13.344 32.0371H22.4887C22.6193 32.0371 22.7446 32.089 22.8369 32.1813C22.9293 32.2737 22.9812 32.3989 22.9812 32.5295C22.9812 32.6601 22.9293 32.7854 22.8369 32.8777C22.7446 32.9701 22.6193 33.022 22.4887 33.022Z" fill=""/>
<path d="M22.4887 25.2271H13.344C13.2134 25.2271 13.0881 25.1752 12.9958 25.0828C12.9034 24.9905 12.8516 24.8652 12.8516 24.7346C12.8516 24.604 12.9034 24.4788 12.9958 24.3864C13.0881 24.2941 13.2134 24.2422 13.344 24.2422H22.4887C22.5534 24.2422 22.6174 24.2549 22.6772 24.2797C22.7369 24.3044 22.7912 24.3407 22.8369 24.3864C22.8827 24.4321 22.9189 24.4864 22.9437 24.5462C22.9684 24.6059 22.9812 24.67 22.9812 24.7346C22.9812 24.7993 22.9684 24.8633 22.9437 24.9231C22.9189 24.9828 22.8827 25.0371 22.8369 25.0828C22.7912 25.1286 22.7369 25.1648 22.6772 25.1896C22.6174 25.2143 22.5534 25.2271 22.4887 25.2271Z" fill=""/>
<path d="M22.4887 29.1255H13.344C13.2134 29.1255 13.0881 29.0736 12.9958 28.9813C12.9034 28.8889 12.8516 28.7637 12.8516 28.6331C12.8516 28.5025 12.9034 28.3772 12.9958 28.2849C13.0881 28.1925 13.2134 28.1406 13.344 28.1406H22.4887C22.6193 28.1406 22.7446 28.1925 22.8369 28.2849C22.9293 28.3772 22.9812 28.5025 22.9812 28.6331C22.9812 28.7637 22.9293 28.8889 22.8369 28.9813C22.7446 29.0736 22.6193 29.1255 22.4887 29.1255Z" fill=""/>
<path d="M22.4874 5.73291H7.3108C7.18019 5.73291 7.05494 5.68103 6.96259 5.58868C6.87024 5.49633 6.81836 5.37108 6.81836 5.24048C6.81836 5.10988 6.87024 4.98463 6.96259 4.89228C7.05494 4.79993 7.18019 4.74805 7.3108 4.74805H22.4874C22.618 4.74805 22.7433 4.79993 22.8356 4.89228C22.928 4.98463 22.9799 5.10988 22.9799 5.24048C22.9799 5.37108 22.928 5.49633 22.8356 5.58868C22.7433 5.68103 22.618 5.73291 22.4874 5.73291Z" fill=""/>
<path d="M22.4887 17.4302H13.344C13.2134 17.4302 13.0881 17.3783 12.9958 17.2859C12.9034 17.1936 12.8516 17.0683 12.8516 16.9377C12.8516 16.8071 12.9034 16.6819 12.9958 16.5895C13.0881 16.4972 13.2134 16.4453 13.344 16.4453H22.4887C22.6193 16.4453 22.7446 16.4972 22.8369 16.5895C22.9293 16.6819 22.9812 16.8071 22.9812 16.9377C22.9812 17.0683 22.9293 17.1936 22.8369 17.2859C22.7446 17.3783 22.6193 17.4302 22.4887 17.4302Z" fill=""/>
<path d="M22.4887 9.63135H13.344C13.2134 9.63135 13.0881 9.57947 12.9958 9.48712C12.9034 9.39477 12.8516 9.26952 12.8516 9.13892C12.8516 9.00832 12.9034 8.88306 12.9958 8.79071C13.0881 8.69837 13.2134 8.64648 13.344 8.64648H22.4887C22.6193 8.64648 22.7446 8.69837 22.8369 8.79071C22.9293 8.88306 22.9812 9.00832 22.9812 9.13892C22.9812 9.26952 22.9293 9.39477 22.8369 9.48712C22.7446 9.57947 22.6193 9.63135 22.4887 9.63135Z" fill=""/>
<path d="M22.4887 13.5298H13.344C13.2134 13.5298 13.0881 13.4779 12.9958 13.3856C12.9034 13.2932 12.8516 13.168 12.8516 13.0374C12.8516 12.9068 12.9034 12.7815 12.9958 12.6892C13.0881 12.5968 13.2134 12.5449 13.344 12.5449H22.4887C22.6193 12.5449 22.7446 12.5968 22.8369 12.6892C22.9293 12.7815 22.9812 12.9068 22.9812 13.0374C22.9812 13.168 22.9293 13.2932 22.8369 13.3856C22.7446 13.4779 22.6193 13.5298 22.4887 13.5298Z" fill=""/>
<path d="M0.932495 0.0332031H1.42897V3.67721H2.09577V4.18256H0.0509606V3.67721H0.763779V0.866303C0.559651 1.10454 0.311625 1.30132 0.0332031 1.44592V0.814637C0.385956 0.622264 0.692774 0.355656 0.932495 0.0332031Z" fill=""/>
<path d="M4.55012 1.96408C5.06085 2.2111 5.31649 2.57599 5.31702 3.05874C5.32028 3.21968 5.28879 3.37943 5.22471 3.5271C5.16062 3.67477 5.06545 3.80688 4.94568 3.91444C4.69758 4.1437 4.35422 4.25834 3.91561 4.25834C3.47699 4.25834 3.14682 4.15554 2.92509 3.94996C2.81292 3.84831 2.72426 3.72342 2.66528 3.584C2.60631 3.44458 2.57844 3.29398 2.58362 3.14269C2.58362 2.67932 2.83818 2.33139 3.34729 2.0989C2.93236 1.85833 2.72489 1.53542 2.72489 1.13017C2.72048 0.98009 2.7475 0.83074 2.80422 0.691717C2.86094 0.552693 2.94611 0.427069 3.05426 0.322907C3.27383 0.107636 3.58409 0 3.98503 0C4.36983 0 4.66583 0.0979484 4.87303 0.293845C4.97628 0.389556 5.05776 0.50634 5.11194 0.636289C5.16612 0.766237 5.19174 0.906312 5.18705 1.04702C5.18921 1.44958 4.97689 1.75527 4.55012 1.96408ZM3.83004 2.34915C3.40811 2.52782 3.19714 2.77727 3.19714 3.09749C3.1919 3.19077 3.20809 3.28402 3.24447 3.37007C3.28086 3.45613 3.33646 3.53272 3.40703 3.59395C3.55843 3.71646 3.74928 3.7796 3.94387 3.77155C4.12805 3.77766 4.30847 3.71847 4.45325 3.60445C4.51985 3.55116 4.57307 3.48305 4.60867 3.40554C4.64427 3.32803 4.66127 3.24327 4.6583 3.15803C4.65967 2.99884 4.59951 2.84528 4.49038 2.72937C4.37844 2.60559 4.15833 2.47885 3.83004 2.34915ZM4.03912 1.74773C4.41208 1.56099 4.59856 1.33145 4.59856 1.05913C4.60063 0.981971 4.58688 0.9052 4.55814 0.833558C4.5294 0.761916 4.48628 0.696922 4.43145 0.642584C4.37204 0.586436 4.30182 0.542955 4.22508 0.514783C4.14834 0.486612 4.06667 0.474339 3.98503 0.478709C3.82523 0.472608 3.66919 0.528091 3.54911 0.633704C3.49254 0.684209 3.44781 0.746564 3.41809 0.81633C3.38837 0.886096 3.37439 0.961556 3.37716 1.03734C3.37716 1.34679 3.59782 1.58359 4.03912 1.74773Z" fill=""/>
<path d="M8.43488 2.07986C8.43488 2.84623 8.32106 3.40055 8.09341 3.74283C7.86576 4.08511 7.53343 4.25652 7.09643 4.25706C6.20413 4.25706 5.75825 3.56443 5.75879 2.17915C5.75879 1.41117 5.87289 0.856581 6.10108 0.515375C6.32926 0.17417 6.66105 0.00302948 7.09643 0.00195312C7.98873 0.00195313 8.43488 0.694589 8.43488 2.07986ZM7.73418 2.12668C7.73418 1.52446 7.6809 1.10387 7.57272 0.862501C7.46455 0.621128 7.30632 0.501652 7.09562 0.501652C6.88493 0.501652 6.72912 0.62032 6.62095 0.858464C6.51278 1.09661 6.4595 1.51881 6.4595 2.12668C6.4595 2.78057 6.51843 3.21515 6.63629 3.43042C6.75496 3.64515 6.90834 3.75333 7.09643 3.75333C7.31117 3.75333 7.471 3.63224 7.57595 3.38763C7.68089 3.14303 7.73337 2.72244 7.73337 2.12668H7.73418Z" fill=""/>
<path d="M1.10394 15.6973H1.59799V19.3421H2.2656V19.8474H0.225636V19.3421H0.938455V16.5304C0.735605 16.7685 0.488971 16.9655 0.211914 17.1108V16.4795C0.562254 16.2862 0.866574 16.0194 1.10394 15.6973Z" fill=""/>
<path d="M2.69751 15.7422H5.06926V16.2201C4.70258 16.7082 4.42618 17.258 4.25312 17.8435C4.04935 18.4915 3.94643 19.167 3.94797 19.8463H3.22869C3.22869 18.5935 3.63986 17.4237 4.4622 16.3371H2.64746L2.69751 15.7422Z" fill=""/>
<path d="M8.26445 17.7439C8.26445 18.5103 8.1509 19.0646 7.92379 19.4069C7.69668 19.7492 7.36354 19.9206 6.92439 19.9211C6.03263 19.9211 5.58648 19.2285 5.58594 17.8432C5.58594 17.0758 5.7003 16.5209 5.92903 16.1786C6.15775 15.8364 6.48954 15.6655 6.92439 15.666C7.8183 15.666 8.26499 16.3587 8.26445 17.7439ZM7.56374 17.7907C7.56374 17.1885 7.50993 16.7671 7.40229 16.5266C7.29492 16.2844 7.1367 16.1657 6.926 16.1657C6.71531 16.1657 6.5587 16.2844 6.45052 16.5217C6.34235 16.7591 6.28907 17.1829 6.28907 17.7907C6.28907 18.4446 6.34827 18.8789 6.46667 19.0937C6.58507 19.3084 6.73845 19.416 6.92681 19.4166C7.14208 19.4166 7.30192 19.2947 7.40633 19.0509C7.51073 18.8071 7.56321 18.387 7.56374 17.7907Z" fill=""/>
<path d="M1.01049 31.2852H1.50696V34.9292H2.17377V35.4337H0.128957V34.9284H0.841775V32.1183C0.638661 32.3561 0.392084 32.5531 0.115234 32.6987V32.0666C0.466691 31.874 0.772141 31.6074 1.01049 31.2852Z" fill=""/>
<path d="M5.22024 32.2495L4.65515 32.4263C4.55936 31.9958 4.35108 31.7805 4.03033 31.7805C3.77362 31.7805 3.5831 31.9137 3.4604 32.1793C3.33769 32.4449 3.26907 32.8501 3.25696 33.3958C3.43564 32.9906 3.72733 32.788 4.13204 32.788C4.28327 32.7864 4.433 32.8181 4.57067 32.8807C4.70834 32.9434 4.83059 33.0354 4.92882 33.1504C5.14786 33.3921 5.25737 33.7174 5.25737 34.1264C5.25737 34.5354 5.14032 34.8699 4.90621 35.1299C4.77992 35.2588 4.6274 35.3592 4.45896 35.4241C4.29052 35.489 4.11009 35.517 3.9299 35.5061C3.74971 35.4953 3.57396 35.4458 3.41455 35.3611C3.25513 35.2764 3.11577 35.1585 3.00591 35.0152C2.75404 34.6864 2.62837 34.1732 2.62891 33.4758C2.62891 32.7562 2.75511 32.2059 3.00752 31.8249C3.25992 31.4439 3.60274 31.2536 4.03597 31.2542C4.30302 31.2486 4.56432 31.3321 4.77866 31.4915C4.9907 31.6497 5.1379 31.9024 5.22024 32.2495ZM4.59783 34.141C4.59783 33.8657 4.54375 33.6566 4.43638 33.521C4.38579 33.4542 4.31997 33.4006 4.24442 33.3645C4.16886 33.3284 4.08576 33.3109 4.00207 33.3135C3.90552 33.3089 3.80938 33.3287 3.72248 33.3711C3.63559 33.4134 3.56073 33.4769 3.5048 33.5557C3.38592 33.7304 3.32596 33.9386 3.33366 34.1498C3.3249 34.3639 3.38735 34.5748 3.51125 34.7496C3.56574 34.8253 3.63795 34.8864 3.72155 34.9276C3.80515 34.9689 3.89759 34.989 3.99077 34.9862C4.39494 34.984 4.5973 34.7023 4.59783 34.141Z" fill=""/>
<path d="M8.35675 33.3349C8.35675 34.1013 8.24293 34.6556 8.01528 34.9979C7.78763 35.3402 7.4553 35.5116 7.0183 35.5121C6.12654 35.5121 5.68066 34.8195 5.68066 33.4342C5.68066 32.6668 5.79476 32.1122 6.02294 31.7704C6.25113 31.4287 6.58292 31.2578 7.0183 31.2578C7.9106 31.2562 8.35675 31.9486 8.35675 33.3349ZM7.65605 33.3817C7.65605 32.7806 7.60223 32.3592 7.49459 32.1176C7.38696 31.8759 7.22793 31.7556 7.0175 31.7567C6.80922 31.7567 6.651 31.8756 6.54283 32.1135C6.43465 32.3514 6.38083 32.7741 6.38137 33.3817C6.38137 34.0362 6.4403 34.4707 6.55816 34.6855C6.67602 34.9002 6.8294 35.0078 7.0183 35.0084C7.23357 35.0084 7.39341 34.8865 7.49782 34.6427C7.60223 34.3989 7.65497 33.9778 7.65605 33.3793V33.3817Z" fill=""/>
<path d="M0.950247 46.9434H1.44672V50.5874H2.11433V51.0943H0.0703234V50.589H0.783142V47.7757C0.578795 48.0142 0.330495 48.2113 0.0517578 48.3561V47.7248C0.40453 47.5328 0.711157 47.2661 0.950247 46.9434Z" fill=""/>
<path d="M2.90649 46.9883H5.0409L4.97794 47.584H3.41749L3.35775 48.7215C3.44264 48.6002 3.55619 48.5018 3.6883 48.4351C3.82042 48.3683 3.96699 48.3352 4.11497 48.3388C4.27069 48.3328 4.42574 48.3622 4.56849 48.4247C4.71124 48.4872 4.83798 48.5812 4.93919 48.6997C5.14531 48.9413 5.24837 49.2777 5.24837 49.7088C5.24837 50.1695 5.12459 50.5281 4.87703 50.7849C4.62947 51.0416 4.30225 51.1694 3.89539 51.1683C3.59455 51.1755 3.30001 51.0814 3.05906 50.9011C2.82496 50.7224 2.67669 50.4587 2.61426 50.11L3.2189 49.9647C3.31308 50.3952 3.54504 50.6105 3.91476 50.6105C4.36522 50.6105 4.59045 50.3196 4.59045 49.7378C4.59045 49.4755 4.53394 49.2712 4.42254 49.1243C4.36485 49.0509 4.29019 48.9925 4.20498 48.9543C4.11978 48.916 4.02656 48.899 3.93334 48.9047C3.6298 48.9047 3.41453 49.0552 3.28752 49.356L2.77571 49.2478L2.90649 46.9883Z" fill=""/>
<path d="M8.41713 48.99C8.41713 49.7558 8.30331 50.3102 8.07566 50.653C7.84801 50.9958 7.51569 51.1672 7.07869 51.1672C6.18692 51.1672 5.74077 50.4746 5.74023 49.0893C5.74023 48.3219 5.8546 47.767 6.08332 47.4247C6.31205 47.0824 6.64384 46.9116 7.07869 46.9121C7.97098 46.9121 8.41713 47.6047 8.41713 48.99ZM7.71642 49.0368C7.71642 48.4346 7.66261 48.0132 7.55497 47.7727C7.44733 47.5321 7.28857 47.4118 7.07869 47.4118C6.87041 47.4118 6.71192 47.5305 6.6032 47.7678C6.49449 48.0051 6.44067 48.4282 6.44175 49.0368C6.44175 49.6907 6.50095 50.125 6.61935 50.3398C6.73721 50.5545 6.8914 50.6627 7.07949 50.6627C7.29476 50.6627 7.4546 50.5408 7.55901 50.297C7.66342 50.0532 7.71589 49.6331 7.71642 49.0368Z" fill=""/>
<path d="M1.00298 62.6875H1.49945V66.3315H2.16706V66.8369H0.12225V66.3315H0.835068V63.5206C0.630585 63.7587 0.382647 63.9557 0.104492 64.101V63.4697C0.45702 63.277 0.763556 63.0101 1.00298 62.6875Z" fill=""/>
<path d="M3.97531 62.6562H4.75432V65.3323H5.26855V65.8555H4.75432V66.8355H4.09963V65.8555H2.49316V65.3566L3.97531 62.6562ZM4.1295 65.3566V63.2512L3.03162 65.3566H4.1295Z" fill=""/>
<path d="M8.36359 64.7361C8.36359 65.5014 8.25004 66.0557 8.02293 66.3991C7.79582 66.7424 7.46349 66.9136 7.02595 66.9125C6.13419 66.9125 5.68804 66.2201 5.6875 64.8354C5.6875 64.0669 5.80186 63.512 6.03059 63.1708C6.25931 62.8296 6.5911 62.6587 7.02595 62.6582C7.91825 62.6566 8.36413 63.3492 8.36359 64.7361ZM7.66289 64.7821C7.66289 64.181 7.60907 63.7596 7.50143 63.5179C7.39407 63.2758 7.23584 63.1571 7.02514 63.1571C6.81445 63.1571 6.65784 63.2758 6.54967 63.5139C6.44149 63.7521 6.38821 64.1743 6.38821 64.7821C6.38821 65.4366 6.44741 65.8711 6.56581 66.0859C6.68421 66.3006 6.83759 66.4082 7.02595 66.4088C7.24122 66.4088 7.40106 66.2869 7.50547 66.0431C7.60987 65.7993 7.66235 65.3782 7.66289 64.7797V64.7821Z" fill=""/>
<path d="M0.925664 78.0938H1.42133V81.7386H2.08894V82.2439H0.0441296V81.7386H0.756948V78.9269C0.552644 79.1651 0.304662 79.3621 0.0263672 79.5073V78.8752C0.37912 78.6828 0.685943 78.4162 0.925664 78.0938Z" fill=""/>
<path d="M3.19224 79.1946L2.6207 79.063C2.80907 78.3973 3.231 78.0645 3.8865 78.0645C4.26322 78.0645 4.55734 78.1632 4.76884 78.3607C4.98034 78.5582 5.08798 78.8273 5.09175 79.168C5.09175 79.6018 4.87836 79.9077 4.45159 80.0859C4.95478 80.222 5.20638 80.5576 5.20638 81.0925C5.20638 81.4727 5.08206 81.773 4.83342 81.991C4.58478 82.209 4.26833 82.3188 3.87439 82.3188C3.55594 82.3284 3.2426 82.2371 2.97913 82.058C2.73372 81.8852 2.57791 81.6051 2.51172 81.2176L3.09538 81.0796C3.19548 81.5467 3.44089 81.7803 3.8316 81.7803C4.00285 81.7829 4.1686 81.7199 4.29498 81.6043C4.42521 81.4865 4.49033 81.3005 4.49033 81.0465C4.49762 80.8657 4.43387 80.6893 4.31273 80.5549C4.19487 80.4273 3.97691 80.3635 3.66046 80.3635H3.40214V79.8647H3.66046C3.7965 79.8694 3.93249 79.8542 4.0641 79.8195C4.16479 79.7831 4.25016 79.7137 4.30628 79.6225C4.38099 79.4887 4.41611 79.3365 4.40754 79.1836C4.39896 79.0306 4.34704 78.8832 4.25784 78.7587C4.20574 78.7 4.14111 78.6538 4.06872 78.6235C3.99633 78.5931 3.91805 78.5795 3.83968 78.5835C3.5087 78.5841 3.29288 78.7878 3.19224 79.1946Z" fill=""/>
<path d="M8.44171 80.1424C8.44171 80.9076 8.32789 81.462 8.10024 81.8053C7.87259 82.1487 7.54053 82.3201 7.10407 82.3196C6.21123 82.3196 5.76509 81.6269 5.76563 80.2417C5.76563 79.4737 5.87999 78.9188 6.10871 78.5771C6.33744 78.2353 6.66922 78.0645 7.10407 78.0645C7.99637 78.0645 8.44225 78.7571 8.44171 80.1424ZM7.74101 80.1884C7.74101 79.5872 7.68719 79.1661 7.57955 78.925C7.47192 78.6839 7.31315 78.5633 7.10326 78.5633C6.89445 78.5633 6.73596 78.6823 6.62779 78.9202C6.51961 79.158 6.46579 79.5808 6.46633 80.1884C6.46633 80.8428 6.52553 81.2774 6.64393 81.4921C6.76233 81.7069 6.91571 81.8145 7.10407 81.815C7.31934 81.815 7.47918 81.6931 7.58359 81.4493C7.688 81.2055 7.74047 80.7852 7.74101 80.1884Z" fill=""/>
<path d="M0.899297 93.7988H1.39577V97.4436H2.06338V97.9482H0.0185705V97.4436H0.731389V94.6319C0.526819 94.8702 0.278563 95.0673 0 95.2124V94.5811C0.352952 94.3886 0.659815 94.1217 0.899297 93.7988Z" fill=""/>
<path d="M3.22778 95.1558L2.61426 95.0266C2.68691 94.6139 2.83679 94.3001 3.0639 94.0854C3.30009 93.8673 3.61284 93.7512 3.93414 93.7625C4.31894 93.7625 4.62085 93.8758 4.83989 94.1023C4.94946 94.2181 5.03487 94.3545 5.09114 94.5037C5.14741 94.6528 5.17342 94.8117 5.16764 94.9709C5.16764 95.38 5.01023 95.7691 4.69539 96.1382C4.38056 96.5074 3.92741 96.9111 3.33596 97.3492H5.19267L5.16199 97.9441H2.61426V97.3548C3.41022 96.6697 3.91799 96.1705 4.13757 95.8573C4.35715 95.5441 4.46693 95.2626 4.46693 95.0129C4.47446 94.8355 4.41963 94.6609 4.31194 94.5197C4.26242 94.4568 4.19871 94.4065 4.12603 94.373C4.05335 94.3395 3.97376 94.3236 3.89378 94.3267C3.51974 94.3262 3.29774 94.6026 3.22778 95.1558Z" fill=""/>
<path d="M8.46809 95.8416C8.46809 96.6074 8.35426 97.1617 8.12661 97.5046C7.89896 97.8474 7.56664 98.0188 7.12964 98.0188C6.23787 98.0188 5.79199 97.3262 5.79199 95.9409C5.79199 95.1729 5.90609 94.618 6.13428 94.2763C6.36247 93.9346 6.69425 93.7637 7.12964 93.7637C8.02193 93.7637 8.46809 94.4563 8.46809 95.8416ZM7.76738 95.8876C7.76738 95.2865 7.71356 94.8653 7.60592 94.6242C7.49829 94.3831 7.33926 94.2626 7.12883 94.2626C6.92056 94.2626 6.76233 94.3815 6.65416 94.6194C6.54598 94.8573 6.49217 95.28 6.4927 95.8876C6.4927 96.542 6.55164 96.9766 6.6695 97.1913C6.78736 97.4061 6.94073 97.5137 7.12964 97.5142C7.34491 97.5142 7.50475 97.3923 7.60915 97.1485C7.71356 96.9048 7.7663 96.4844 7.76738 95.8876Z" fill=""/>
<path d="M1.12963 109.441H1.6261V113.086H2.29291V113.591H0.248905V113.086H0.960916V110.275C0.757802 110.512 0.511225 110.709 0.234375 110.855V110.224C0.58553 110.03 0.890879 109.763 1.12963 109.441Z" fill=""/>
<path d="M3.9823 109.441H4.47877V113.086H5.14961V113.591H3.10157V113.086H3.81439V110.275C3.6096 110.513 3.3614 110.71 3.08301 110.855V110.224C3.43578 110.031 3.74259 109.764 3.9823 109.441Z" fill=""/>
<path d="M8.23566 111.49C8.23566 112.255 8.12184 112.81 7.89419 113.153C7.66654 113.496 7.33421 113.667 6.89721 113.666C6.00545 113.666 5.55957 112.974 5.55957 111.589C5.55957 110.821 5.67367 110.266 5.90186 109.925C6.13004 109.584 6.46183 109.413 6.89721 109.412C7.78951 109.412 8.23566 110.105 8.23566 111.49ZM7.53496 111.536C7.53496 110.934 7.48114 110.513 7.3735 110.272C7.26587 110.031 7.10683 109.91 6.89641 109.911C6.68813 109.911 6.52991 110.03 6.42174 110.268C6.31356 110.506 6.25974 110.928 6.26028 111.536C6.26028 112.19 6.31921 112.625 6.43707 112.84C6.55493 113.054 6.70831 113.162 6.89721 113.163C7.11248 113.163 7.27394 113.041 7.38157 112.797C7.48921 112.553 7.54034 112.133 7.53496 111.536Z" fill=""/>
<path d="M0.984427 125.059H1.48089V128.703H2.1485V129.209H0.103695V128.703H0.816514V125.892C0.612251 126.13 0.364265 126.327 0.0859375 126.472V125.841C0.438642 125.648 0.745234 125.381 0.984427 125.059Z" fill=""/>
<path d="M5.23859 127.107C5.23859 127.873 5.12477 128.427 4.89712 128.77C4.66947 129.113 4.33741 129.284 3.90095 129.284C3.00811 129.284 2.56196 128.592 2.5625 127.206C2.5625 126.439 2.67686 125.884 2.90559 125.542C3.13431 125.2 3.4661 125.029 3.90095 125.029C4.79325 125.029 5.23913 125.722 5.23859 127.107ZM4.53788 127.154C4.53788 126.552 4.48406 126.13 4.37643 125.89C4.26906 125.648 4.11003 125.528 3.90014 125.528C3.69025 125.528 3.53284 125.648 3.42466 125.886C3.31649 126.124 3.26321 126.546 3.26321 127.154C3.26321 127.808 3.32241 128.242 3.44081 128.457C3.55921 128.672 3.71258 128.779 3.90095 128.78C4.11622 128.78 4.27606 128.658 4.38046 128.414C4.48487 128.17 4.53734 127.75 4.53788 127.154Z" fill=""/>
<path d="M8.38215 127.107C8.38215 127.873 8.26859 128.427 8.04148 128.77C7.81437 129.113 7.48204 129.284 7.04451 129.284C6.15274 129.284 5.70659 128.592 5.70605 127.206C5.70605 126.439 5.82042 125.884 6.04914 125.542C6.27787 125.2 6.60966 125.029 7.04451 125.029C7.93681 125.029 8.38269 125.722 8.38215 127.107ZM7.68144 127.154C7.68144 126.552 7.62762 126.13 7.51999 125.89C7.41262 125.648 7.25439 125.528 7.0437 125.528C6.833 125.528 6.67639 125.648 6.56822 125.886C6.46004 126.124 6.40676 126.546 6.40676 127.154C6.40676 127.808 6.46596 128.242 6.58436 128.457C6.70276 128.672 6.85614 128.779 7.04451 128.78C7.25978 128.78 7.41962 128.658 7.52402 128.414C7.62843 128.17 7.6809 127.75 7.68144 127.154Z" fill=""/>
</svg>
