<svg viewBox="0 0 18 18" fill="none" xmlns="http://www.w3.org/2000/svg">
<path d="M7.93452 1.61819C8.4342 0.351227 10.2273 0.35123 10.7269 1.61819L12.2754 5.5444C12.428 5.93121 12.7342 6.23739 13.121 6.38995L17.0472 7.93842C18.3141 8.4381 18.3141 10.2312 17.0472 10.7308L13.121 12.2793C12.7342 12.4319 12.428 12.7381 12.2754 13.1249L10.7269 17.0511C10.2273 18.318 8.4342 18.318 7.93452 17.0511L6.38604 13.1249C6.23349 12.7381 5.9273 12.4319 5.54049 12.2793L1.61428 10.7308C0.347321 10.2312 0.347324 8.4381 1.61428 7.93842L5.54049 6.38995C5.9273 6.23739 6.23349 5.9312 6.38604 5.54439L7.93452 1.61819Z" fill=""/>
</svg>
