<svg width="" height="" viewBox="0 0 36 36" fill="none" xmlns="http://www.w3.org/2000/svg">
<rect width="36" height="36" rx="8" fill="#FCE7EB"/>
<path fill-rule="evenodd" clip-rule="evenodd" d="M18 6C11.3726 6 6 11.3726 6 18C6 24.6274 11.3726 30 18 30C24.6274 30 30 24.6274 30 18C30 11.3726 24.6274 6 18 6Z" fill="#F24F7A"/>
<path d="M24.6908 17.3007C24.6164 16.2507 24.2967 15.2267 23.7499 14.3137C23.0734 13.1841 22.0829 12.2806 20.9043 11.71" stroke="white" stroke-opacity="0.5" stroke-width="2" stroke-linecap="round" stroke-linejoin="round"/>
<path d="M11.3086 16.7365C11.4817 15.6276 11.9301 14.5736 12.6197 13.6743C13.3793 12.6838 14.396 11.9275 15.5529 11.4834" stroke="white" stroke-opacity="0.5" stroke-width="2" stroke-linecap="round" stroke-linejoin="round"/>
<path d="M21.0594 23.7654L21.518 24.654L21.0594 23.7654ZM23.6828 22.9963C24.0553 22.5886 24.0267 21.9561 23.6189 21.5836C23.2112 21.2111 22.5787 21.2397 22.2062 21.6474L23.6828 22.9963ZM13.6323 24.1881L14.4607 24.7482L15.5809 23.0913L14.7525 22.5312L13.6323 24.1881ZM13.0642 20.7603C12.777 20.2886 12.1618 20.1389 11.69 20.4261C11.2183 20.7132 11.0686 21.3284 11.3558 21.8002L13.0642 20.7603ZM20.6007 22.8768C19.7143 23.3343 18.724 23.5529 17.7274 23.5112L17.6437 25.5094C18.9875 25.5657 20.3228 25.2709 21.518 24.654L20.6007 22.8768ZM22.2062 21.6474C21.7496 22.1472 21.2066 22.5641 20.6007 22.8768L21.518 24.654C22.335 24.2324 23.0672 23.6702 23.6828 22.9963L22.2062 21.6474ZM14.7525 22.5312C14.0686 22.0689 13.4929 21.4647 13.0642 20.7603L11.3558 21.8002C11.9338 22.75 12.7102 23.5647 13.6323 24.1881L14.7525 22.5312Z" fill="white" fill-opacity="0.5"/>
<circle cx="16.2277" cy="23.9826" r="1.3498" fill="white" stroke="white" stroke-width="2" stroke-linecap="round" stroke-linejoin="round"/>
</svg>
