<svg viewBox="0 0 36 36" fill="none" xmlns="http://www.w3.org/2000/svg">
<rect width="36" height="36" rx="8" fill="#FCE7EB"/>
<path opacity="0.4" d="M25.9927 24.9531H20.2984C19.7429 24.9531 19.291 25.4121 19.291 25.9765C19.291 26.5419 19.7429 26.9999 20.2984 26.9999H25.9927C26.5483 26.9999 27.0001 26.5419 27.0001 25.9765C27.0001 25.4121 26.5483 24.9531 25.9927 24.9531Z" fill="#F24F7A"/>
<path d="M16.309 12.9041L21.7049 17.2642C21.835 17.3685 21.8573 17.5598 21.7557 17.6931L15.3587 26.0284C14.9566 26.5434 14.364 26.8347 13.7291 26.8454L10.237 26.8884C10.0507 26.8906 9.88775 26.7616 9.84542 26.5767L9.05175 23.126C8.91419 22.4918 9.05175 21.836 9.45388 21.3308L15.8826 12.9557C15.9863 12.8213 16.1778 12.7977 16.309 12.9041Z" fill="#F24F7A"/>
<path opacity="0.4" d="M24.1203 14.6654L23.0801 15.964C22.9753 16.0962 22.7869 16.1177 22.6568 16.0124C21.3922 14.989 18.1541 12.3628 17.2556 11.6351C17.1244 11.5276 17.1064 11.3362 17.2122 11.203L18.2154 9.95706C19.1255 8.78534 20.7128 8.67784 21.9933 9.69906L23.4642 10.8708C24.0674 11.3438 24.4695 11.9673 24.6071 12.623C24.7658 13.3443 24.5965 14.0527 24.1203 14.6654Z" fill="#F24F7A"/>
</svg>
