<svg viewBox="0 0 34 21" fill="none" xmlns="http://www.w3.org/2000/svg">
<ellipse cx="6.41327" cy="7.58819" rx="2.9992" ry="3.29912" fill="#A78BFA"/>
<path d="M6.4183 12.1289C3.50195 12.1289 1.03989 14.074 0.258636 16.7376C-0.0264081 17.7095 0.82102 18.5472 1.8338 18.5472H11.0028C12.0156 18.5472 12.863 17.7095 12.578 16.7376C11.7967 14.074 9.33465 12.1289 6.4183 12.1289Z" fill="#A78BFA"/>
<ellipse cx="26.7961" cy="7.58819" rx="2.9992" ry="3.29912" fill="#A78BFA"/>
<path d="M26.8011 12.1289C23.8848 12.1289 21.4227 14.074 20.6414 16.7376C20.3564 17.7095 21.2038 18.5472 22.2166 18.5472H31.3856C32.3984 18.5472 33.2458 17.7095 32.9608 16.7376C32.1795 14.074 29.7175 12.1289 26.8011 12.1289Z" fill="#A78BFA"/>
<path d="M16.6162 9.17969C20.8753 9.17969 24.4689 12.0202 25.6094 15.9082C25.9052 16.9167 25.6012 17.8686 24.9912 18.5352C24.3963 19.1853 23.5143 19.5693 22.5811 19.5693H10.6514C9.71821 19.5693 8.83611 19.1852 8.24121 18.5352C7.63138 17.8686 7.32827 16.9166 7.62402 15.9082C8.76455 12.0204 12.3572 9.17978 16.6162 9.17969Z" fill="#8B5CF6" stroke="#EDE9FE" stroke-width="2.03928"/>
<ellipse cx="16.6054" cy="4.29247" rx="3.90224" ry="4.29247" fill="#8B5CF6"/>
</svg>
