<svg viewBox="0 0 26 36" fill="none" xmlns="http://www.w3.org/2000/svg">
<path fill-rule="evenodd" clip-rule="evenodd" d="M17.7672 0.407207L16.9244 1.16819L16.0814 0.407207C16.2925 0.148726 16.6004 0 16.9244 0C17.2484 0 17.5562 0.148726 17.7672 0.407207ZM16.9244 3.03913C16.84 3.15506 16.7505 3.27916 16.6567 3.41106C15.9798 4.36302 15.0771 5.7141 14.1759 7.30824C12.3499 10.5383 10.6284 14.5956 10.6284 18.3016C10.6284 21.9576 13.4471 24.9214 16.9244 24.9214C20.4015 24.9214 23.2202 21.9576 23.2202 18.3016C23.2202 14.5956 21.4987 10.5383 19.6727 7.30824C18.7715 5.7141 17.869 4.36302 17.1919 3.41106C17.0981 3.27916 17.0087 3.15506 16.9244 3.03913ZM16.9244 1.16819C16.0814 0.407208 16.0815 0.406943 16.0814 0.407207L16.0787 0.410394L16.0734 0.416894L16.0551 0.439719C16.0393 0.45926 16.0168 0.487416 15.9878 0.52388C15.9301 0.596796 15.8467 0.702946 15.7416 0.83987C15.5313 1.11366 15.2335 1.51092 14.8772 2.01186C14.1654 3.01261 13.2162 4.43311 12.2658 6.11447C10.3883 9.43544 8.40625 13.9448 8.40625 18.3016C8.40625 23.248 12.2199 27.2578 16.9244 27.2578C21.6287 27.2578 25.4423 23.248 25.4423 18.3016C25.4423 13.9448 23.4603 9.43544 21.5829 6.11447C20.6323 4.43311 19.6832 3.01261 18.9714 2.01186C18.6151 1.51092 18.3173 1.11366 18.1071 0.83987C18.0019 0.702946 17.9187 0.596796 17.8608 0.52388C17.8319 0.487416 17.8094 0.45926 17.7937 0.439719L17.7752 0.416894L17.7699 0.410394L17.7672 0.407207C17.7671 0.406943 17.7672 0.407208 16.9244 1.16819Z" fill="#FACCD4"/>
<path d="M19.738 24.8536C19.7377 29.8112 15.7183 33.8306 10.7607 33.8308C5.80288 33.8308 1.78367 29.8114 1.78344 24.8536C1.78344 20.0961 4.08946 14.9938 6.43851 11.0418C7.60816 9.07412 8.77796 7.40815 9.65575 6.23442C10.0944 5.64777 10.4595 5.18421 10.7145 4.86846C10.7303 4.84886 10.7458 4.82984 10.7607 4.81138C10.7756 4.82974 10.7912 4.84898 10.8069 4.86846C11.0619 5.1842 11.4272 5.64798 11.8658 6.23442C12.7434 7.40815 13.9133 9.0744 15.0829 11.0418C17.4319 14.9938 19.738 20.0962 19.738 24.8536ZM18.3217 24.8536C18.3214 29.0292 14.9363 32.4144 10.7607 32.4146C6.58493 32.4146 3.19998 29.0293 3.1997 24.8536C3.1997 20.4905 5.33859 15.6618 7.65507 11.7648C8.78032 9.87175 9.90711 8.26257 10.7593 7.12061C11.6116 8.26257 12.7395 9.87133 13.8651 11.7648C16.1814 15.6618 18.3217 20.4905 18.3217 24.8536ZM10.7607 3.13281C10.8748 3.13287 10.9863 3.15391 11.091 3.19262L10.7635 3.47533L10.7593 3.47668C10.6278 3.3637 10.5182 3.27039 10.4276 3.19262C10.533 3.15347 10.6459 3.13281 10.7607 3.13281ZM19.246 24.8536C19.246 20.233 16.9978 15.2247 14.6602 11.2919C13.5015 9.34259 12.3415 7.69138 11.4715 6.52801C11.3511 6.36699 11.236 6.21566 11.1277 6.07404C11.0403 5.95987 10.9045 5.89203 10.7607 5.89192C10.6528 5.89192 10.5489 5.92953 10.4672 5.99657L10.3937 6.07404C10.2854 6.21566 10.1703 6.36699 10.0499 6.52801C9.1799 7.69138 8.0186 9.34245 6.85994 11.2919C4.52217 15.2247 2.27409 20.233 2.27409 24.8536C2.27433 29.5398 6.07442 33.3388 10.7607 33.3388C15.4468 33.3386 19.2457 29.5397 19.246 24.8536ZM20.6622 24.8536C20.6622 19.8386 18.2471 14.5569 15.8766 10.5688C14.6865 8.56667 13.4972 6.87282 12.6051 5.67988C12.1591 5.08358 11.7871 4.61169 11.5259 4.2881C11.483 4.23498 11.4417 4.18635 11.4049 4.14131C11.5601 4.00803 11.6825 3.90322 11.7786 3.82055C11.8182 3.8688 11.8613 3.92204 11.9078 3.97957C12.1725 4.30745 12.5491 4.78436 12.9992 5.3863C13.8989 6.58945 15.0985 8.29722 16.2993 10.3174C18.6812 14.3245 21.1528 19.7016 21.1528 24.8536C21.1526 30.5931 16.5003 35.2454 10.7607 35.2457C5.02084 35.2457 0.367424 30.5933 0.367188 24.8536C0.367188 19.7016 2.83895 14.3245 5.2207 10.3174C6.42181 8.29681 7.62236 6.58952 8.52215 5.3863C8.97211 4.78455 9.34747 4.30743 9.61219 3.97957C9.65854 3.92215 9.70196 3.86873 9.74135 3.82055L10.115 4.14131C10.0784 4.18627 10.0384 4.23509 9.99549 4.2881C9.73425 4.61175 9.36111 5.08321 8.91491 5.67988C8.02278 6.87288 6.83364 8.56653 5.64339 10.5688C3.27291 14.5569 0.859209 19.8386 0.859209 24.8536C0.859446 30.3219 5.29238 34.7551 10.7607 34.7551C16.2289 34.7548 20.662 30.3217 20.6622 24.8536Z" fill="#F24F7A" stroke="#FDEFF1" stroke-width="0.739996" stroke-linecap="round" stroke-linejoin="round"/>
</svg>
