<svg viewBox="0 0 32 29" fill="none" xmlns="http://www.w3.org/2000/svg">
<path d="M9.45551 7.10892C11.5864 4.2645 14.0345 0.932554 17.0297 0.512699C31.6283 -3.70184 39.4244 19.2349 22.0771 26.6258C4.72985 34.0167 -1.56351 22.2748 0.321614 14.869C2.03191 8.15002 6.83671 10.6046 9.45551 7.10892Z" fill="white"/>
<path d="M25.0121 9.37467C26.7658 10.3392 27.3592 12.6272 26.3374 14.485C24.4873 17.849 19.0526 18.8431 16.6407 18.4431C15.0112 16.6204 12.9403 11.4983 14.7903 8.13441C15.8121 6.2766 18.0622 5.55239 19.8159 6.51689C20.8898 7.1075 21.5289 8.19468 21.6278 9.37515C22.1637 9.09435 22.751 8.9477 23.3401 8.94762C23.9291 8.94754 24.5027 9.09402 25.0121 9.37467Z" fill="#ED648D"/>
</svg>
