<svg viewBox="0 0 37 36" fill="none" xmlns="http://www.w3.org/2000/svg">
<rect x="0.0273438" width="36" height="36" rx="8" fill="#FDE6EC"/>
<path d="M13.1483 12.4982C14.7373 10.3772 16.5627 7.89264 18.7962 7.57957C29.6819 4.43692 35.4952 21.5401 22.5599 27.0513C9.62456 32.5624 4.9318 23.8069 6.33747 18.2846C7.61279 13.2745 11.1956 15.1048 13.1483 12.4982Z" fill="white"/>
<path d="M24.7494 14.1821C26.057 14.9013 26.4995 16.6074 25.7376 17.9928C24.3581 20.5011 20.3056 21.2425 18.5071 20.9442C17.292 19.5851 15.7478 15.7657 17.1274 13.2573C17.8892 11.872 19.5671 11.332 20.8747 12.0512C21.6755 12.4916 22.152 13.3022 22.2259 14.1825C22.6254 13.9731 23.0633 13.8637 23.5026 13.8637C23.9419 13.8636 24.3695 13.9729 24.7494 14.1821Z" fill="#ED648D"/>
</svg>
