<svg width="" height="" viewBox="0 0 36 36" fill="none" xmlns="http://www.w3.org/2000/svg">
<rect width="36" height="36" rx="8" fill="#E4F0F1"/>
<path opacity="0.5" d="M27 17.0975V22.0909C27 25.1875 27 26.7358 26.2659 27.4123C25.9158 27.735 25.4739 27.9377 25.0031 27.9915C24.016 28.1045 22.8633 27.0849 20.5578 25.0458C19.5388 24.1445 19.0292 23.6938 18.4397 23.5751C18.1494 23.5166 17.8506 23.5166 17.5603 23.5751C16.9708 23.6938 16.4612 24.1445 15.4422 25.0458C13.1367 27.0849 11.984 28.1045 10.9969 27.9915C10.5261 27.9377 10.0842 27.735 9.73411 27.4123C9 26.7358 9 25.1875 9 22.0909V17.0975C9 12.8089 9 10.6646 10.318 9.3323C11.636 8 13.7574 8 18 8C22.2426 8 24.364 8 25.682 9.3323C27 10.6646 27 12.8089 27 17.0975Z" fill="#187F86"/>
<path d="M15 11.25C14.5858 11.25 14.25 11.5858 14.25 12C14.25 12.4142 14.5858 12.75 15 12.75H21C21.4142 12.75 21.75 12.4142 21.75 12C21.75 11.5858 21.4142 11.25 21 11.25H15Z" fill="#187F86"/>
</svg>
