<svg viewBox="0 0 33 35" fill="none" xmlns="http://www.w3.org/2000/svg">
<path fill-rule="evenodd" clip-rule="evenodd" d="M32.5 28.7495V16.2495C32.5081 14.1238 32.0968 12.0174 31.2895 10.051C30.4821 8.08462 29.2947 6.29684 27.7953 4.79011C25.5243 2.50895 22.6275 0.952843 19.4716 0.318752C16.3158 -0.315339 13.0428 0.00109404 10.0669 1.228C7.09094 2.4549 4.54591 4.53712 2.75391 7.21109C0.961912 9.88506 0.00350459 13.0306 0 16.2495V24.9995C0 25.994 0.395088 26.9479 1.09835 27.6511C1.80161 28.3544 2.75544 28.7495 3.75 28.7495H6.25C7.24456 28.7495 8.19839 28.3544 8.90165 27.6511C9.60491 26.9479 10 25.994 10 24.9995V18.7495C10 17.7549 9.60491 16.8011 8.90165 16.0978C8.19839 15.3946 7.24456 14.9995 6.25 14.9995H2.55625C2.8405 11.7777 4.2604 8.76184 6.5625 6.49011C8.41383 4.65139 10.7501 3.37739 13.2985 2.81694C15.8469 2.25648 18.5021 2.43269 20.9541 3.325C23.4061 4.21731 25.5535 5.78887 27.1456 7.85612C28.7377 9.92336 29.7088 12.4009 29.9453 14.9995H26.25C25.2554 14.9995 24.3016 15.3946 23.5984 16.0978C22.8951 16.8011 22.5 17.7549 22.5 18.7495V24.9995C22.5 25.994 22.8951 26.9479 23.5984 27.6511C24.3016 28.3544 25.2554 28.7495 26.25 28.7495H30H32.5Z" fill="#F97316"/>
<path d="M30.6694 33.1689C31.8415 31.9968 32.5 30.4071 32.5 28.7495H30C30 29.744 29.6049 30.6979 28.9017 31.4011C28.1984 32.1044 27.2446 32.4995 26.25 32.4995H17.5C17.1685 32.4995 16.8505 32.6312 16.6161 32.8656C16.3817 33.1 16.25 33.418 16.25 33.7495C16.25 34.081 16.3817 34.3989 16.6161 34.6334C16.8505 34.8678 17.1685 34.9995 17.5 34.9995H26.25C27.9076 34.9995 29.4973 34.341 30.6694 33.1689Z" fill="#FFC9A3"/>
</svg>
