<svg viewBox="0 0 36 36" fill="none" xmlns="http://www.w3.org/2000/svg">
<rect width="36" height="36" rx="8" fill="#FCEFE7"/>
<g opacity="0.5">
<path d="M25.9001 8.30719C25.7392 7.8976 25.1616 7.8976 25.0007 8.30719L24.5703 9.40247C24.5212 9.52752 24.4226 9.62651 24.298 9.67583L23.2067 10.1078C22.7986 10.2693 22.7986 10.849 23.2067 11.0105L24.298 11.4425C24.4226 11.4918 24.5212 11.5908 24.5703 11.7159L25.0007 12.8112C25.1616 13.2207 25.7392 13.2207 25.9001 12.8112L26.3305 11.7159C26.3796 11.5908 26.4782 11.4918 26.6028 11.4425L27.6941 11.0105C28.1022 10.849 28.1022 10.2693 27.6941 10.1078L26.6028 9.67583C26.4782 9.62651 26.3796 9.52752 26.3305 9.40247L25.9001 8.30719Z" fill="#F2A050"/>
<path d="M22.0328 14.1297C21.8718 13.7201 21.2943 13.7201 21.1333 14.1297L20.9764 14.529C20.9273 14.6541 20.8287 14.7531 20.7041 14.8024L20.3062 14.9599C19.8981 15.1214 19.8981 15.7011 20.3062 15.8626L20.7041 16.0201C20.8287 16.0694 20.9273 16.1684 20.9764 16.2935L21.1333 16.6928C21.2943 17.1024 21.8718 17.1024 22.0328 16.6928L22.1897 16.2935C22.2388 16.1684 22.3374 16.0694 22.462 16.0201L22.8599 15.8626C23.268 15.7011 23.268 15.1214 22.8599 14.9599L22.462 14.8024C22.3374 14.7531 22.2388 14.6541 22.1897 14.529L22.0328 14.1297Z" fill="#F2A050"/>
</g>
<path d="M18 28C23.5228 28 28 23.5228 28 18C28 17.5373 27.3065 17.4608 27.0672 17.8568C25.9289 19.7406 23.8615 21 21.5 21C17.9101 21 15 18.0899 15 14.5C15 12.1385 16.2594 10.0711 18.1432 8.93276C18.5392 8.69347 18.4627 8 18 8C12.4772 8 8 12.4772 8 18C8 23.5228 12.4772 28 18 28Z" fill="#F2A050"/>
</svg>
