<svg viewBox="0 0 48 48" fill="none" xmlns="http://www.w3.org/2000/svg">
<path fill-rule="evenodd" clip-rule="evenodd" d="M24 13.25C24.4142 13.25 24.75 13.5858 24.75 14V15C24.75 15.4142 24.4142 15.75 24 15.75C23.5858 15.75 23.25 15.4142 23.25 15V14C23.25 13.5858 23.5858 13.25 24 13.25ZM16.3986 16.3986C16.6915 16.1057 17.1664 16.1057 17.4593 16.3986L17.8521 16.7914C18.145 17.0843 18.145 17.5592 17.8521 17.8521C17.5592 18.145 17.0843 18.145 16.7914 17.8521L16.3986 17.4593C16.1057 17.1664 16.1057 16.6915 16.3986 16.3986ZM31.6011 16.3989C31.894 16.6918 31.894 17.1666 31.6011 17.4595L31.2083 17.8524C30.9154 18.1453 30.4405 18.1453 30.1476 17.8524C29.8547 17.5595 29.8547 17.0846 30.1476 16.7917L30.5405 16.3989C30.8334 16.106 31.3082 16.106 31.6011 16.3989ZM24 18.75C21.1005 18.75 18.75 21.1005 18.75 24C18.75 26.8995 21.1005 29.25 24 29.25C26.8995 29.25 29.25 26.8995 29.25 24C29.25 21.1005 26.8995 18.75 24 18.75ZM17.25 24C17.25 20.2721 20.2721 17.25 24 17.25C27.7279 17.25 30.75 20.2721 30.75 24C30.75 27.7279 27.7279 30.75 24 30.75C20.2721 30.75 17.25 27.7279 17.25 24ZM13.25 24C13.25 23.5858 13.5858 23.25 14 23.25H15C15.4142 23.25 15.75 23.5858 15.75 24C15.75 24.4142 15.4142 24.75 15 24.75H14C13.5858 24.75 13.25 24.4142 13.25 24ZM32.25 24C32.25 23.5858 32.5858 23.25 33 23.25H34C34.4142 23.25 34.75 23.5858 34.75 24C34.75 24.4142 34.4142 24.75 34 24.75H33C32.5858 24.75 32.25 24.4142 32.25 24ZM30.1476 30.1476C30.4405 29.8547 30.9154 29.8547 31.2083 30.1476L31.6011 30.5405C31.894 30.8334 31.894 31.3082 31.6011 31.6011C31.3082 31.894 30.8334 31.894 30.5405 31.6011L30.1476 31.2083C29.8547 30.9154 29.8547 30.4405 30.1476 30.1476ZM17.8521 30.1479C18.145 30.4408 18.145 30.9157 17.8521 31.2086L17.4593 31.6014C17.1664 31.8943 16.6915 31.8943 16.3986 31.6014C16.1057 31.3085 16.1057 30.8336 16.3986 30.5407L16.7914 30.1479C17.0843 29.855 17.5592 29.855 17.8521 30.1479ZM24 32.25C24.4142 32.25 24.75 32.5858 24.75 33V34C24.75 34.4142 24.4142 34.75 24 34.75C23.5858 34.75 23.25 34.4142 23.25 34V33C23.25 32.5858 23.5858 32.25 24 32.25Z" fill=""/>
</svg>
