<svg viewBox="0 0 33 33" fill="none" xmlns="http://www.w3.org/2000/svg">
<rect x="0.585938" y="0.199219" width="32" height="32" rx="8" fill="#FFE4E6"/>
<path d="M22.6103 8.20117C24.7154 8.20117 26.4219 10.009 26.4219 12.239C26.4219 16.2767 21.9173 19.9475 19.4918 20.8013C17.0663 19.9475 12.5618 16.2767 12.5618 12.239C12.5618 10.009 14.2683 8.20117 16.3733 8.20117C17.6623 8.20117 18.8023 8.87915 19.4918 9.91686C19.8433 9.38652 20.3102 8.9537 20.853 8.65505C21.3959 8.3564 21.9987 8.20071 22.6103 8.20117Z" fill="#FDA4AF"/>
<path fill-rule="evenodd" clip-rule="evenodd" d="M17.8795 12.668C17.1187 12.6675 16.37 12.8559 15.6971 13.2159C15.3229 13.4162 14.9785 13.666 14.6721 13.9575C13.8339 13.1603 12.7083 12.668 11.4661 12.668C8.84021 12.668 6.75159 14.8544 6.75159 17.5012C6.75159 19.8168 8.06816 21.9325 9.60112 23.5275C11.1395 25.1281 13.0247 26.34 14.415 26.816C14.582 26.8732 14.7633 26.8732 14.9303 26.816C16.3206 26.34 18.2058 25.1281 19.7442 23.5275C21.2772 21.9325 22.5938 19.8168 22.5938 17.5012C22.5938 14.8546 20.5052 12.6683 17.8795 12.668ZM16.4476 14.6186C16.8909 14.3814 17.3817 14.2584 17.8786 14.2588C19.5816 14.2588 21.0029 15.688 21.0029 17.5012C21.0029 19.2233 20.0037 20.9618 18.5973 22.4251C17.3014 23.7734 15.7688 24.7733 14.6727 25.2147C13.5766 24.7733 12.044 23.7734 10.7481 22.4251C9.34168 20.9618 8.3424 19.2233 8.3424 17.5012C8.3424 15.688 9.76318 14.2588 11.4661 14.2588C12.5115 14.2588 13.4451 14.7924 14.0159 15.6278C14.0953 15.744 14.2781 15.8352 14.4308 15.8948C14.5868 15.9557 14.7595 15.9556 14.9154 15.8945C15.0681 15.8347 15.2507 15.7433 15.33 15.627C15.6202 15.2011 16.0041 14.8559 16.4476 14.6186Z" fill="#FFE4E6"/>
<path d="M17.8786 14.2588C17.3817 14.2584 16.8909 14.3814 16.4476 14.6186C16.0041 14.8559 15.6202 15.2011 15.33 15.627C15.2507 15.7433 15.0681 15.8347 14.9154 15.8945C14.7595 15.9556 14.5868 15.9557 14.4308 15.8948C14.2781 15.8352 14.0953 15.744 14.0159 15.6278C13.4451 14.7924 12.5115 14.2588 11.4661 14.2588C9.76318 14.2588 8.3424 15.688 8.3424 17.5012C8.3424 19.2233 9.34168 20.9618 10.7481 22.4251C12.044 23.7734 13.5766 24.7733 14.6727 25.2147C15.7688 24.7733 17.3014 23.7734 18.5973 22.4251C20.0037 20.9618 21.0029 19.2233 21.0029 17.5012C21.0029 15.688 19.5816 14.2588 17.8786 14.2588Z" fill="#F43F5E"/>
</svg>
