<svg width="64" height="64" viewBox="0 0 64 64" fill="none" xmlns="http://www.w3.org/2000/svg">
<rect width="64" height="64" rx="32" fill="white"/>
<path d="M26.2969 45.1523H37.6857V46.6278C37.6857 48.4043 36.2455 49.8444 34.469 49.8444H29.5135C27.737 49.8444 26.2969 48.4043 26.2969 46.6278V45.1523Z" fill="white"/>
<path d="M32.098 45.1509H31.9125H26.3111V42.1016C26.3111 40.6907 25.8716 39.3196 25.0615 38.2035C22.2617 34.3459 20.5342 30.3205 22.52 25.927C24.0572 22.5261 26.7009 19.6526 32.0052 19.6194C37.3095 19.6526 39.9533 22.5261 41.4904 25.927C43.4763 30.3205 41.7488 34.3459 38.949 38.2035C38.1389 39.3196 37.6994 40.6907 37.6994 42.1016V45.1509H32.098Z" fill="url(#paint0_radial_43075_57938)"/>
<path d="M32 10.6973L32 14.7359" stroke="#FACCD4" stroke-width="3.2" stroke-linecap="round"/>
<path d="M45.2344 14.5938L42.3786 17.4495" stroke="#FACCD4" stroke-width="3.2" stroke-linecap="round"/>
<path d="M18.7656 14.5938L21.6214 17.4495" stroke="#FACCD4" stroke-width="3.2" stroke-linecap="round"/>
<path d="M51.8359 27.2148L47.7973 27.2148" stroke="#FACCD4" stroke-width="3.2" stroke-linecap="round"/>
<path d="M12.1641 26.207L16.2027 26.207" stroke="#FACCD4" stroke-width="3.2" stroke-linecap="round"/>
<path d="M29.9766 49.8438H34.0357V51.2738C34.0357 52.3947 33.1271 53.3033 32.0062 53.3033C30.8852 53.3033 29.9766 52.3947 29.9766 51.2738V49.8438Z" fill="url(#paint1_radial_43075_57938)"/>
<defs>
<radialGradient id="paint0_radial_43075_57938" cx="0" cy="0" r="1" gradientUnits="userSpaceOnUse" gradientTransform="translate(25.3933 23.761) rotate(51.6005) scale(27.2934 38.4017)">
<stop stop-color="#FF8BA4"/>
<stop offset="1" stop-color="#F24F7A"/>
</radialGradient>
<radialGradient id="paint1_radial_43075_57938" cx="0" cy="0" r="1" gradientUnits="userSpaceOnUse" gradientTransform="translate(30.7085 50.405) rotate(41.0589) scale(4.41261 6.31679)">
<stop stop-color="#FF8BA4"/>
<stop offset="1" stop-color="#F24F7A"/>
</radialGradient>
</defs>
</svg>
