<svg width="64" height="64" viewBox="0 0 64 64" fill="none" xmlns="http://www.w3.org/2000/svg">
<circle cx="32" cy="32" r="32" fill="white"/>
<path d="M42.6081 15.1113C46.3755 15.1113 49.4297 18.3468 49.4297 22.3379C49.4297 29.5644 41.3678 36.134 37.0268 37.6621C32.6858 36.134 24.6239 29.5644 24.6239 22.3379C24.6239 18.3468 27.6781 15.1113 31.4455 15.1113C33.7524 15.1113 35.7927 16.3247 37.0268 18.182C37.6558 17.2328 38.4915 16.4582 39.463 15.9236C40.4345 15.3891 41.5134 15.1105 42.6081 15.1113Z" fill="#FFE6E9"/>
<path fill-rule="evenodd" clip-rule="evenodd" d="M34.141 23.1055C32.7793 23.1046 31.4393 23.4418 30.2349 24.0862C29.5652 24.4445 28.9489 24.8917 28.4006 25.4135C26.9004 23.9866 24.8858 23.1055 22.6627 23.1055C17.963 23.1055 14.225 27.0187 14.225 31.7556C14.225 35.8999 16.5813 39.6865 19.3248 42.541C22.0781 45.4057 25.4521 47.5747 27.9405 48.4266C28.2393 48.5289 28.5638 48.5289 28.8626 48.4266C31.351 47.5747 34.725 45.4057 37.4783 42.541C40.2218 39.6865 42.5781 35.8999 42.5781 31.7556C42.5781 27.019 38.8402 23.106 34.141 23.1055ZM31.5781 26.5965C32.3716 26.172 33.25 25.9519 34.1394 25.9526C37.1872 25.9526 39.731 28.5104 39.731 31.7556C39.731 34.8378 37.9426 37.9493 35.4255 40.5681C33.1062 42.9812 30.3633 44.7707 28.4016 45.5607C26.4398 44.7707 23.6969 42.9812 21.3776 40.5681C18.8605 37.9493 17.0721 34.8378 17.0721 31.7556C17.0721 28.5104 19.6149 25.9526 22.6627 25.9526C24.5337 25.9526 26.2046 26.9076 27.2261 28.4027C27.4916 28.7913 28.4024 29.0232 28.4024 29.0232C28.4024 29.0232 29.313 28.7901 29.578 28.4013C30.0973 27.639 30.7844 27.0212 31.5781 26.5965Z" fill="url(#paint0_radial_43075_57952)"/>
<path d="M34.1394 25.9526C33.25 25.9519 32.3716 26.172 31.5781 26.5965C30.7844 27.0212 30.0973 27.639 29.578 28.4013C29.313 28.7901 28.4024 29.0232 28.4024 29.0232C28.4024 29.0232 27.4916 28.7913 27.2261 28.4027C26.2046 26.9076 24.5337 25.9526 22.6627 25.9526C19.6149 25.9526 17.0721 28.5104 17.0721 31.7556C17.0721 34.8378 18.8605 37.9493 21.3776 40.5681C23.6969 42.9812 26.4398 44.7707 28.4016 45.5607C30.3633 44.7707 33.1062 42.9812 35.4255 40.5681C37.9426 37.9493 39.731 34.8378 39.731 31.7556C39.731 28.5104 37.1872 25.9526 34.1394 25.9526Z" fill="url(#paint1_radial_43075_57952)"/>
<defs>
<radialGradient id="paint0_radial_43075_57952" cx="0" cy="0" r="1" gradientUnits="userSpaceOnUse" gradientTransform="translate(37.4657 27.2257) rotate(137.525) scale(31.5099 45.3608)">
<stop stop-color="#FF8BA4"/>
<stop offset="1" stop-color="#F24F7A"/>
</radialGradient>
<radialGradient id="paint1_radial_43075_57952" cx="0" cy="0" r="1" gradientUnits="userSpaceOnUse" gradientTransform="translate(37.4657 27.2257) rotate(137.525) scale(31.5099 45.3608)">
<stop stop-color="#FF8BA4"/>
<stop offset="1" stop-color="#F24F7A"/>
</radialGradient>
</defs>
</svg>
