<svg width="64" height="64" viewBox="0 0 64 64" fill="none" xmlns="http://www.w3.org/2000/svg">
<circle cx="32" cy="32" r="32" fill="white"/>
<rect x="25.6875" y="18.2754" width="12.8273" height="16.0341" fill="white"/>
<path d="M49 24.476L49 24.5993C49 26.0626 48.9999 26.7942 48.6477 27.3928C48.2955 27.9914 47.6559 28.3467 46.3768 29.0574L45.0282 29.8066C45.9575 26.6648 46.2676 23.2891 46.3822 20.4022C46.3871 20.2784 46.3926 20.1531 46.3982 20.0265L46.4021 19.9378C47.5093 20.3222 48.1309 20.6089 48.5187 21.147C49.0001 21.8148 49 22.7019 49 24.476Z" fill="url(#paint0_radial_43075_57971)"/>
<path d="M15 24.476L15 24.5993C15 26.0626 15.0001 26.7942 15.3523 27.3928C15.7045 27.9914 16.3441 28.3467 17.6232 29.0574L18.9726 29.807C18.0431 26.6651 17.7331 23.2892 17.6184 20.4022C17.6135 20.2784 17.608 20.1531 17.6024 20.0265L17.5985 19.9375C16.4909 20.3221 15.8691 20.6088 15.4813 21.147C14.9999 21.8148 15 22.7019 15 24.476Z" fill="url(#paint1_radial_43075_57971)"/>
<path fill-rule="evenodd" clip-rule="evenodd" d="M32.0003 14C35.0323 14 37.5303 14.2671 39.4412 14.5895C41.377 14.9161 42.345 15.0794 43.1537 16.0754C43.9624 17.0714 43.9197 18.148 43.8342 20.301C43.5407 27.6926 41.9456 36.925 33.2751 37.7417V43.7501H35.7064C36.5168 43.7501 37.2145 44.3221 37.3734 45.1167L37.6951 46.7251H42.2001C42.9042 46.7251 43.4751 47.2959 43.4751 48.0001C43.4751 48.7043 42.9042 49.2751 42.2001 49.2751H21.8C21.0959 49.2751 20.525 48.7043 20.525 48.0001C20.525 47.2959 21.0959 46.7251 21.8 46.7251H26.305L26.6267 45.1167C26.7856 44.3221 27.4833 43.7501 28.2937 43.7501H30.725V37.7417C22.0549 36.9247 20.4599 27.6925 20.1664 20.301C20.081 18.148 20.0382 17.0714 20.8469 16.0754C21.6557 15.0794 22.6236 14.9161 24.5594 14.5895C26.4703 14.2671 28.9683 14 32.0003 14ZM33.6191 21.1381L33.4519 20.8383C32.8059 19.6794 32.4829 19.1 32 19.1C31.5171 19.1 31.1941 19.6794 30.5482 20.8383L30.381 21.1381C30.1975 21.4674 30.1057 21.6321 29.9626 21.7407C29.8195 21.8493 29.6412 21.8897 29.2847 21.9703L28.9602 22.0438C27.7058 22.3276 27.0785 22.4695 26.9293 22.9494C26.7801 23.4292 27.2077 23.9293 28.0629 24.9293L28.2841 25.188C28.5272 25.4722 28.6487 25.6143 28.7033 25.7901C28.758 25.9659 28.7396 26.1554 28.7029 26.5346L28.6694 26.8798C28.5401 28.214 28.4755 28.8812 28.8662 29.1778C29.2568 29.4743 29.8441 29.2039 31.0186 28.6631L31.3225 28.5232C31.6563 28.3696 31.8232 28.2927 32 28.2927C32.1769 28.2927 32.3438 28.3696 32.6776 28.5232L32.9815 28.6631C34.156 29.2039 34.7433 29.4743 35.1339 29.1778C35.5246 28.8812 35.46 28.214 35.3307 26.8798L35.2972 26.5346C35.2605 26.1554 35.2421 25.9659 35.2968 25.7901C35.3514 25.6143 35.4729 25.4722 35.716 25.188L35.9372 24.9293C36.7924 23.9293 37.22 23.4292 37.0708 22.9494C36.9216 22.4695 36.2943 22.3276 35.0399 22.0438L34.7154 21.9703C34.3589 21.8897 34.1806 21.8493 34.0375 21.7407C33.8944 21.6321 33.8026 21.4674 33.6191 21.1381Z" fill="url(#paint2_radial_43075_57971)"/>
<defs>
<radialGradient id="paint0_radial_43075_57971" cx="0" cy="0" r="1" gradientUnits="userSpaceOnUse" gradientTransform="translate(21.1306 19.7225) rotate(46.679) scale(40.6209 58.6039)">
<stop stop-color="#FF8BA4"/>
<stop offset="1" stop-color="#F24F7A"/>
</radialGradient>
<radialGradient id="paint1_radial_43075_57971" cx="0" cy="0" r="1" gradientUnits="userSpaceOnUse" gradientTransform="translate(21.1306 19.7225) rotate(46.679) scale(40.6209 58.6039)">
<stop stop-color="#FF8BA4"/>
<stop offset="1" stop-color="#F24F7A"/>
</radialGradient>
<radialGradient id="paint2_radial_43075_57971" cx="0" cy="0" r="1" gradientUnits="userSpaceOnUse" gradientTransform="translate(21.1306 19.7225) rotate(46.679) scale(40.6209 58.6039)">
<stop stop-color="#FF8BA4"/>
<stop offset="1" stop-color="#F24F7A"/>
</radialGradient>
</defs>
</svg>
