<svg width="" height="" viewBox="0 0 36 36" fill="none" xmlns="http://www.w3.org/2000/svg">
<rect width="36" height="36" rx="8" fill="#FCE7F3"/>
<g clip-path="url(#clip0_32937_49541)">
<path d="M17.708 7.9375C15.7796 7.9375 13.8946 8.50933 12.2912 9.58067C10.6878 10.652 9.43814 12.1748 8.70019 13.9563C7.96223 15.7379 7.76915 17.6983 8.14536 19.5896C8.52156 21.4809 9.45016 23.2182 10.8137 24.5818C12.1773 25.9454 13.9146 26.874 15.8059 27.2502C17.6972 27.6264 19.6576 27.4333 21.4392 26.6953C23.2208 25.9574 24.7435 24.7077 25.8148 23.1043C26.8862 21.5009 27.458 19.6159 27.458 17.6875C27.4553 15.1025 26.4272 12.6241 24.5993 10.7962C22.7714 8.96834 20.293 7.94023 17.708 7.9375ZM17.333 12.4375C17.5555 12.4375 17.773 12.5035 17.958 12.6271C18.143 12.7507 18.2872 12.9264 18.3724 13.132C18.4575 13.3375 18.4798 13.5637 18.4364 13.782C18.393 14.0002 18.2858 14.2007 18.1285 14.358C17.9712 14.5153 17.7707 14.6225 17.5525 14.6659C17.3343 14.7093 17.1081 14.687 16.9025 14.6019C16.6969 14.5167 16.5212 14.3725 16.3976 14.1875C16.274 14.0025 16.208 13.785 16.208 13.5625C16.208 13.2641 16.3265 12.978 16.5375 12.767C16.7485 12.556 17.0346 12.4375 17.333 12.4375ZM18.458 22.9375C18.0602 22.9375 17.6787 22.7795 17.3974 22.4982C17.116 22.2169 16.958 21.8353 16.958 21.4375V17.6875C16.7591 17.6875 16.5683 17.6085 16.4277 17.4678C16.287 17.3272 16.208 17.1364 16.208 16.9375C16.208 16.7386 16.287 16.5478 16.4277 16.4072C16.5683 16.2665 16.7591 16.1875 16.958 16.1875C17.3558 16.1875 17.7374 16.3455 18.0187 16.6268C18.3 16.9081 18.458 17.2897 18.458 17.6875V21.4375C18.6569 21.4375 18.8477 21.5165 18.9883 21.6572C19.129 21.7978 19.208 21.9886 19.208 22.1875C19.208 22.3864 19.129 22.5772 18.9883 22.7178C18.8477 22.8585 18.6569 22.9375 18.458 22.9375Z" fill="#F472B6"/>
<path d="M17.333 12.4375C17.5555 12.4375 17.773 12.5035 17.958 12.6271C18.143 12.7507 18.2872 12.9264 18.3724 13.132C18.4575 13.3375 18.4798 13.5637 18.4364 13.782C18.393 14.0002 18.2858 14.2007 18.1285 14.358C17.9712 14.5153 17.7707 14.6225 17.5525 14.6659C17.3343 14.7093 17.1081 14.687 16.9025 14.6019C16.6969 14.5167 16.5212 14.3725 16.3976 14.1875C16.274 14.0025 16.208 13.785 16.208 13.5625C16.208 13.2641 16.3265 12.978 16.5375 12.767C16.7485 12.556 17.0346 12.4375 17.333 12.4375Z" fill="white"/>
<path d="M18.458 22.9375C18.0602 22.9375 17.6787 22.7795 17.3974 22.4982C17.116 22.2169 16.958 21.8353 16.958 21.4375V17.6875C16.7591 17.6875 16.5683 17.6085 16.4277 17.4678C16.287 17.3272 16.208 17.1364 16.208 16.9375C16.208 16.7386 16.287 16.5478 16.4277 16.4072C16.5683 16.2665 16.7591 16.1875 16.958 16.1875C17.3558 16.1875 17.7374 16.3455 18.0187 16.6268C18.3 16.9081 18.458 17.2897 18.458 17.6875V21.4375C18.6569 21.4375 18.8477 21.5165 18.9883 21.6572C19.129 21.7978 19.208 21.9886 19.208 22.1875C19.208 22.3864 19.129 22.5772 18.9883 22.7178C18.8477 22.8585 18.6569 22.9375 18.458 22.9375Z" fill="white"/>
</g>
<defs>
<clipPath id="clip0_32937_49541">
<rect width="24" height="24" fill="white" transform="translate(5.70801 5.6875)"/>
</clipPath>
</defs>
</svg>
