<svg width="" height="" viewBox="0 0 36 36" fill="none" xmlns="http://www.w3.org/2000/svg">
<rect width="36" height="36" rx="8" fill="#EDE9FE"/>
<ellipse cx="10.5039" cy="16.7626" rx="2.20607" ry="2.42668" fill="#A78BFA"/>
<path d="M10.5062 20.1016C8.36102 20.1016 6.55005 21.5323 5.9754 23.4915C5.76573 24.2064 6.38906 24.8226 7.13401 24.8226H13.8783C14.6232 24.8226 15.2466 24.2064 15.0369 23.4915C14.4623 21.5323 12.6513 20.1016 10.5062 20.1016Z" fill="#A78BFA"/>
<ellipse cx="25.4922" cy="16.7626" rx="2.20607" ry="2.42668" fill="#A78BFA"/>
<path d="M25.4944 20.1016C23.3493 20.1016 21.5383 21.5323 20.9637 23.4915C20.754 24.2064 21.3773 24.8226 22.1223 24.8226H28.8666C29.6115 24.8226 30.2349 24.2064 30.0252 23.4915C29.4505 21.5323 27.6396 20.1016 25.4944 20.1016Z" fill="#A78BFA"/>
<path d="M17.9999 17.9297C14.867 17.9297 12.2241 20.0193 11.3853 22.8792C11.1677 23.621 11.391 24.3211 11.8396 24.8113C12.2772 25.2896 12.926 25.5721 13.6124 25.5721H22.3873C23.0738 25.5721 23.7225 25.2896 24.1601 24.8113C24.6088 24.3211 24.8321 23.621 24.6145 22.8792C23.7757 20.0193 21.1328 17.9297 17.9999 17.9297Z" fill="#8B5CF6" stroke="#EDE9FE" stroke-width="1.5"/>
<ellipse cx="17.9973" cy="14.3351" rx="2.87031" ry="3.15734" fill="#8B5CF6"/>
</svg>
