<svg width="" height="" viewBox="0 0 36 36" fill="none" xmlns="http://www.w3.org/2000/svg">
<rect width="36" height="36" rx="8" fill="#E4ECFD"/>
<path fill-rule="evenodd" clip-rule="evenodd" d="M18 8.29883C12.4772 8.29883 8 12.776 8 18.2988C8 23.8217 12.4772 28.2988 18 28.2988C23.5228 28.2988 28 23.8217 28 18.2988C28 12.776 23.5228 8.29883 18 8.29883Z" fill="#5389DE"/>
<circle cx="18" cy="16.2559" r="3.5" fill="white"/>
<path fill-rule="evenodd" clip-rule="evenodd" d="M25.0539 25.3869L24.886 25.0949L24.8849 25.0929C23.5117 22.7191 20.9432 21.1191 18.0001 21.1191C15.2422 21.1191 12.8129 22.5243 11.3885 24.6541C11.2928 24.7972 11.2017 24.9435 11.1152 25.0929L11.1152 25.0929L11.1141 25.0949L10.9463 25.3869C12.7546 27.1864 15.2474 28.2986 18.0001 28.2986C20.7527 28.2986 23.2456 27.1864 25.0539 25.3869Z" fill="white"/>
</svg>
