<svg width="" height="" viewBox="0 0 36 36" fill="none" xmlns="http://www.w3.org/2000/svg">
<rect width="36" height="36" rx="8" fill="#FED7AA"/>
<g clip-path="url(#clip0_32937_49533)">
<path fill-rule="evenodd" clip-rule="evenodd" d="M27.5244 25.9216V18.4216C27.5293 17.1462 27.2825 15.8823 26.7981 14.7025C26.3137 13.5226 25.6013 12.45 24.7016 11.5459C23.339 10.1772 21.6009 9.24358 19.7074 8.86313C17.8139 8.48267 15.8501 8.67253 14.0645 9.40867C12.279 10.1448 10.752 11.3941 9.67676 12.9985C8.60156 14.6029 8.02652 16.4902 8.02441 18.4216V23.6716C8.02441 24.2683 8.26147 24.8406 8.68342 25.2626C9.10538 25.6845 9.67768 25.9216 10.2744 25.9216H11.7744C12.3712 25.9216 12.9434 25.6845 13.3654 25.2626C13.7874 24.8406 14.0244 24.2683 14.0244 23.6716V19.9216C14.0244 19.3248 13.7874 18.7525 13.3654 18.3306C12.9434 17.9086 12.3712 17.6716 11.7744 17.6716H9.55816C9.72872 15.7385 10.5807 13.929 11.9619 12.5659C13.0727 11.4627 14.4745 10.6983 16.0035 10.362C17.5325 10.0258 19.1257 10.1315 20.5969 10.6669C22.068 11.2023 23.3565 12.1452 24.3118 13.3855C25.2671 14.6259 25.8497 16.1124 25.9916 17.6716H23.7744C23.1777 17.6716 22.6054 17.9086 22.1834 18.3306C21.7615 18.7525 21.5244 19.3248 21.5244 19.9216V23.6716C21.5244 24.2683 21.7615 24.8406 22.1834 25.2626C22.6054 25.6845 23.1777 25.9216 23.7744 25.9216H26.0244H27.5244Z" fill="#F97316"/>
<path d="M26.4261 28.5732C27.1293 27.87 27.5244 26.9161 27.5244 25.9216H26.0244C26.0244 26.5183 25.7874 27.0906 25.3654 27.5126C24.9434 27.9345 24.3712 28.1716 23.7744 28.1716H18.5244C18.3255 28.1716 18.1347 28.2506 17.9941 28.3912C17.8534 28.5319 17.7744 28.7227 17.7744 28.9216C17.7744 29.1205 17.8534 29.3112 17.9941 29.4519C18.1347 29.5925 18.3255 29.6716 18.5244 29.6716H23.7744C24.769 29.6716 25.7228 29.2765 26.4261 28.5732Z" fill="white"/>
</g>
<defs>
<clipPath id="clip0_32937_49533">
<rect width="24" height="24" fill="white" transform="translate(5.77441 6.42188)"/>
</clipPath>
</defs>
</svg>
