<svg viewBox="0 0 48 48" fill="none" xmlns="http://www.w3.org/2000/svg">
<path fill-rule="evenodd" clip-rule="evenodd" d="M23.9985 20.25C21.9275 20.25 20.2485 21.9289 20.2485 24C20.2485 26.0711 21.9275 27.75 23.9985 27.75C26.0696 27.75 27.7485 26.0711 27.7485 24C27.7485 21.9289 26.0696 20.25 23.9985 20.25ZM21.7485 24C21.7485 22.7574 22.7559 21.75 23.9985 21.75C25.2412 21.75 26.2485 22.7574 26.2485 24C26.2485 25.2426 25.2412 26.25 23.9985 26.25C22.7559 26.25 21.7485 25.2426 21.7485 24Z" fill=""/>
<path fill-rule="evenodd" clip-rule="evenodd" d="M23.9733 13.25C23.5288 13.25 23.1578 13.25 22.8532 13.2708C22.5361 13.2924 22.2365 13.339 21.9461 13.4593C21.2723 13.7384 20.737 14.2738 20.4579 14.9476C20.3126 15.2984 20.2732 15.6681 20.2582 16.07C20.2461 16.393 20.0831 16.6625 19.8425 16.8014C19.6019 16.9403 19.287 16.9467 19.0012 16.7957C18.6457 16.6078 18.3058 16.457 17.9294 16.4074C17.2063 16.3122 16.475 16.5082 15.8963 16.9522C15.647 17.1435 15.4568 17.3796 15.2795 17.6434C15.1092 17.8968 14.9237 18.2181 14.7015 18.6031L14.6762 18.6468C14.454 19.0317 14.2685 19.353 14.1342 19.6272C13.9943 19.9127 13.885 20.1954 13.8439 20.507C13.7487 21.2301 13.9447 21.9614 14.3887 22.5401C14.6198 22.8412 14.9203 23.0602 15.2607 23.2741C15.5345 23.4461 15.6864 23.7221 15.6864 24C15.6864 24.2778 15.5345 24.5538 15.2607 24.7258C14.9202 24.9397 14.6197 25.1587 14.3886 25.4599C13.9446 26.0385 13.7487 26.7698 13.8438 27.4929C13.8849 27.8045 13.9942 28.0873 14.1341 28.3727C14.2684 28.6469 14.4539 28.9682 14.6761 29.3531L14.7014 29.3969C14.9236 29.7818 15.1091 30.1031 15.2794 30.3565C15.4567 30.6203 15.6469 30.8564 15.8962 31.0477C16.4749 31.4917 17.2062 31.6877 17.9293 31.5925C18.3057 31.5429 18.6455 31.3922 19.001 31.2043C19.2869 31.0532 19.6018 31.0596 19.8424 31.1986C20.0831 31.3375 20.2461 31.607 20.2582 31.9301C20.2732 32.3319 20.3126 32.7016 20.4579 33.0524C20.737 33.7262 21.2723 34.2616 21.9461 34.5407C22.2365 34.661 22.5361 34.7076 22.8532 34.7292C23.1578 34.75 23.5288 34.75 23.9733 34.75H24.0238C24.4682 34.75 24.8393 34.75 25.1439 34.7292C25.461 34.7076 25.7605 34.661 26.0509 34.5407C26.7247 34.2616 27.2601 33.7262 27.5392 33.0524C27.6845 32.7016 27.7239 32.3319 27.7389 31.93C27.751 31.607 27.914 31.3375 28.1546 31.1985C28.3952 31.0596 28.7101 31.0532 28.996 31.2042C29.3514 31.3921 29.6913 31.5429 30.0677 31.5924C30.7908 31.6876 31.5221 31.4917 32.1007 31.0477C32.3501 30.8563 32.5402 30.6203 32.7175 30.3565C32.8878 30.1031 33.0733 29.7818 33.2955 29.3969L33.3208 29.3531C33.543 28.9682 33.7286 28.6468 33.8629 28.3726C34.0027 28.0872 34.1121 27.8045 34.1531 27.4929C34.2483 26.7697 34.0524 26.0384 33.6084 25.4598C33.3772 25.1586 33.0768 24.9397 32.7363 24.7258C32.4625 24.5538 32.3106 24.2778 32.3107 23.9999C32.3107 23.7221 32.4626 23.4462 32.7363 23.2742C33.0768 23.0603 33.3773 22.8414 33.6085 22.5401C34.0524 21.9615 34.2484 21.2302 34.1532 20.5071C34.1122 20.1955 34.0028 19.9127 33.863 19.6273C33.7287 19.3531 33.5432 19.0318 33.321 18.647L33.2957 18.6032C33.0735 18.2183 32.8879 17.8969 32.7176 17.6435C32.5403 17.3797 32.3502 17.1436 32.1008 16.9523C31.5222 16.5083 30.7909 16.3123 30.0678 16.4075C29.6913 16.4571 29.3515 16.6078 28.996 16.7957C28.7102 16.9468 28.3952 16.9404 28.1546 16.8014C27.914 16.6625 27.751 16.393 27.7389 16.0699C27.7238 15.6681 27.6845 15.2984 27.5392 14.9476C27.2601 14.2738 26.7247 13.7384 26.0509 13.4593C25.7605 13.339 25.461 13.2924 25.1439 13.2708C24.8393 13.25 24.4682 13.25 24.0238 13.25H23.9733ZM22.5202 14.8452C22.5973 14.8132 22.7145 14.7837 22.9553 14.7673C23.2027 14.7504 23.5223 14.75 23.9985 14.75C24.4747 14.75 24.7943 14.7504 25.0418 14.7673C25.2825 14.7837 25.3997 14.8132 25.4769 14.8452C25.7832 14.972 26.0265 15.2154 26.1534 15.5216C26.1934 15.6183 26.2266 15.7689 26.2399 16.126C26.2696 16.9183 26.6785 17.6813 27.4046 18.1005C28.1307 18.5197 28.9959 18.4924 29.6969 18.1219C30.0129 17.9549 30.1599 17.9083 30.2636 17.8947C30.5923 17.8514 30.9247 17.9405 31.1877 18.1423C31.2539 18.1931 31.3381 18.2799 31.4727 18.4802C31.611 18.686 31.7712 18.9626 32.0093 19.375C32.2474 19.7874 32.4068 20.0644 32.5159 20.2871C32.6221 20.5038 32.6551 20.6201 32.666 20.7029C32.7093 21.0316 32.6202 21.364 32.4184 21.627C32.3548 21.71 32.2409 21.814 31.9383 22.0041C31.2669 22.426 30.8107 23.1616 30.8107 23.9999C30.8106 24.8383 31.2668 25.574 31.9383 25.9959C32.2408 26.186 32.3547 26.29 32.4183 26.373C32.6201 26.636 32.7092 26.9684 32.6659 27.2971C32.655 27.3799 32.622 27.4961 32.5158 27.7128C32.4067 27.9355 32.2473 28.2125 32.0092 28.6249C31.7711 29.0373 31.6109 29.3139 31.4726 29.5198C31.338 29.72 31.2538 29.8068 31.1876 29.8576C30.9246 30.0595 30.5922 30.1485 30.2635 30.1053C30.1598 30.0916 30.0128 30.045 29.6969 29.8781C28.9958 29.5075 28.1305 29.4803 27.4045 29.8995C26.6785 30.3187 26.2696 31.0816 26.2399 31.874C26.2266 32.2311 26.1934 32.3817 26.1534 32.4784C26.0265 32.7846 25.7832 33.028 25.4769 33.1549C25.3997 33.1868 25.2825 33.2163 25.0418 33.2327C24.7943 33.2496 24.4747 33.25 23.9985 33.25C23.5223 33.25 23.2027 33.2496 22.9553 33.2327C22.7145 33.2163 22.5973 33.1868 22.5202 33.1549C22.2139 33.028 21.9705 32.7846 21.8437 32.4784C21.8037 32.3817 21.7705 32.2311 21.7571 31.874C21.7275 31.0817 21.3185 30.3187 20.5924 29.8995C19.8664 29.4803 19.0012 29.5076 18.3001 29.8781C17.9842 30.0451 17.8372 30.0917 17.7335 30.1053C17.4048 30.1486 17.0724 30.0595 16.8094 29.8577C16.7431 29.8069 16.659 29.7201 16.5244 29.5198C16.386 29.314 16.2259 29.0374 15.9878 28.625C15.7497 28.2126 15.5902 27.9356 15.4811 27.7129C15.375 27.4962 15.3419 27.3799 15.331 27.2971C15.2877 26.9684 15.3768 26.636 15.5786 26.373C15.6423 26.2901 15.7561 26.186 16.0587 25.9959C16.7301 25.5741 17.1864 24.8384 17.1864 24.0001C17.1864 23.1616 16.7302 22.4259 16.0587 22.004C15.7562 21.8139 15.6424 21.7099 15.5787 21.6269C15.3769 21.3639 15.2878 21.0315 15.3311 20.7028C15.342 20.62 15.3751 20.5038 15.4812 20.2871C15.5903 20.0643 15.7498 19.7873 15.9879 19.3749C16.226 18.9625 16.3861 18.686 16.5245 18.4801C16.6591 18.2798 16.7432 18.1931 16.8095 18.1422C17.0725 17.9404 17.4049 17.8513 17.7336 17.8946C17.8373 17.9083 17.9843 17.9548 18.3003 18.1218C19.0013 18.4924 19.8664 18.5196 20.5925 18.1005C21.3185 17.6813 21.7275 16.9184 21.7571 16.126C21.7705 15.7689 21.8037 15.6183 21.8437 15.5216C21.9705 15.2154 22.2139 14.972 22.5202 14.8452Z" fill=""/>
</svg>
