<svg viewBox="0 0 48 48" fill="none" xmlns="http://www.w3.org/2000/svg">
<path fill-rule="evenodd" clip-rule="evenodd" d="M23.0174 14.8016C18.3707 15.2922 14.75 19.2233 14.75 24C14.75 29.1086 18.8914 33.25 24 33.25C28.7767 33.25 32.7078 29.6293 33.1984 24.9826C31.8717 26.6669 29.8126 27.75 27.5 27.75C23.4959 27.75 20.25 24.5041 20.25 20.5C20.25 18.1874 21.3332 16.1283 23.0174 14.8016ZM13.25 24C13.25 18.0629 18.0629 13.25 24 13.25C24.7166 13.25 25.0754 13.8213 25.1368 14.2763C25.196 14.714 25.0342 15.2707 24.531 15.5747C22.8627 16.5828 21.75 18.4118 21.75 20.5C21.75 23.6756 24.3244 26.25 27.5 26.25C29.5882 26.25 31.4172 25.1373 32.4253 23.469C32.7293 22.9658 33.286 22.804 33.7237 22.8632C34.1787 22.9246 34.75 23.2834 34.75 24C34.75 29.9371 29.9371 34.75 24 34.75C18.0629 34.75 13.25 29.9371 13.25 24Z" fill=""/>
</svg>
