<svg width="" height="" viewBox="0 0 24 24" fill="none" xmlns="http://www.w3.org/2000/svg">
<path d="M3.75 8.29395H20.25V5.75C20.25 4.64543 19.3546 3.75 18.25 3.75H5.75C4.64543 3.75 3.75 4.64543 3.75 5.75V8.29395Z" fill="#A0C6F0" stroke="#A0C6F0" stroke-width="1.5" stroke-linecap="round"/>
<path d="M3.75 8.75H20.25V18.25C20.25 19.3546 19.3546 20.25 18.25 20.25H5.75C4.64543 20.25 3.75 19.3546 3.75 18.25V8.75Z" fill="#1A3A6E" stroke="#1A3A6E" stroke-width="1.5" stroke-linecap="round"/>
<path d="M16.0555 17.1697C15.6011 17.1597 15.2355 16.7797 15.2355 16.3197C15.2257 15.8597 15.5912 15.4807 16.0456 15.4707H16.0555C16.5199 15.4707 16.8953 15.8507 16.8953 16.3197C16.8953 16.7897 16.5199 17.1697 16.0555 17.1697V17.1697Z" fill="white"/>
<path d="M12.0249 13.4901C11.5705 13.5111 11.1951 13.1501 11.1753 12.6911C11.1753 12.2311 11.5309 11.8511 11.9854 11.8301C12.43 11.8301 12.7955 12.1811 12.8054 12.6301C12.8251 13.0911 12.4695 13.4711 12.0249 13.4901V13.4901Z" fill="white"/>
<path d="M12.0249 17.12C11.5705 17.141 11.1951 16.78 11.1753 16.32C11.1753 15.86 11.5309 15.481 11.9854 15.46C12.43 15.46 12.7955 15.811 12.8054 16.261C12.8251 16.721 12.4695 17.101 12.0249 17.12V17.12Z" fill="white"/>
<path d="M7.96461 13.4901C7.51016 13.5111 7.13475 13.1501 7.11499 12.6911C7.11499 12.2311 7.47064 11.8511 7.92509 11.8301C8.36966 11.8301 8.73519 12.1811 8.74507 12.6301C8.76483 13.0911 8.40917 13.4711 7.96461 13.4901V13.4901Z" fill="white"/>
<path d="M7.9546 17.12C7.50015 17.141 7.12474 16.78 7.10498 16.32C7.10498 15.86 7.46063 15.481 7.91508 15.46C8.35965 15.46 8.72518 15.811 8.73506 16.261C8.75482 16.721 8.39916 17.101 7.9546 17.12V17.12Z" fill="white"/>
<path d="M15.2456 12.6808C15.2456 12.2208 15.6013 11.8508 16.0557 11.8408C16.5003 11.8408 16.8559 12.1998 16.8757 12.6408C16.8856 13.1008 16.5299 13.4808 16.0853 13.4898C15.6309 13.4998 15.2555 13.1498 15.2456 12.6908V12.6808Z" fill="white"/>
<path d="M16.5 2.25V5.25" stroke="#3B82F6" stroke-width="1.5" stroke-linecap="round" stroke-linejoin="round"/>
<path d="M7.5 2.25V5.25" stroke="#3B82F6" stroke-width="1.5" stroke-linecap="round" stroke-linejoin="round"/>
</svg>
