<svg width="" height="" viewBox="0 0 24 24" fill="none" xmlns="http://www.w3.org/2000/svg">
<path d="M17.3045 3.57764C19.2893 3.57764 20.8984 5.28227 20.8984 7.38493C20.8984 11.1922 16.651 14.6534 14.364 15.4585C12.0769 14.6534 7.82952 11.1922 7.82952 7.38493C7.82952 5.28227 9.43863 3.57764 11.4235 3.57764C12.6389 3.57764 13.7138 4.21692 14.364 5.19539C14.6954 4.69532 15.1356 4.28721 15.6475 4.00561C16.1594 3.72401 16.7277 3.57721 17.3045 3.57764Z" fill="#A0C6F0" stroke="#A0C6F0" stroke-width="1.5" stroke-linecap="round" stroke-linejoin="round"/>
<path d="M12.8441 8.5415C14.885 8.5415 16.5396 10.2461 16.5396 12.3488C16.5396 16.1561 12.1723 19.6173 9.82064 20.4223C7.46902 19.6173 3.10172 16.1561 3.10172 12.3488C3.10172 10.2461 4.75626 8.5415 6.79713 8.5415C8.04684 8.5415 9.1521 9.18078 9.82064 10.1593C10.1614 9.65919 10.6141 9.25108 11.1404 8.96947C11.6667 8.68787 12.2511 8.54107 12.8441 8.5415Z" fill="white"/>
<path d="M6.79736 7.0415C3.88516 7.0415 1.60205 9.4616 1.60205 12.3491C1.60217 14.8124 2.99269 16.9855 4.49756 18.5513C6.01278 20.1278 7.88839 21.3462 9.33447 21.8413C9.64931 21.9491 9.9913 21.949 10.3062 21.8413C11.7522 21.3463 13.6278 20.1277 15.1431 18.5513C16.6479 16.9855 18.0394 14.8124 18.0396 12.3491C18.0396 9.46198 15.7567 7.04321 12.8452 7.04248C12.0034 7.04191 11.1758 7.24965 10.4331 7.64697C10.2196 7.76121 10.0152 7.89061 9.8208 8.03271C8.97291 7.41206 7.92953 7.04156 6.79736 7.0415Z" fill="#1A3A6E" stroke="white" stroke-width="1.5" stroke-linecap="round" stroke-linejoin="round"/>
</svg>
