<svg width="24" height="24" viewBox="0 0 24 24" fill="none" xmlns="http://www.w3.org/2000/svg">
<path d="M17.3045 3.57764C19.2893 3.57764 20.8984 5.28227 20.8984 7.38493C20.8984 11.1922 16.651 14.6534 14.364 15.4585C12.0769 14.6534 7.82952 11.1922 7.82952 7.38493C7.82952 5.28227 9.43863 3.57764 11.4235 3.57764C12.6389 3.57764 13.7138 4.21692 14.364 5.19539C14.6954 4.69532 15.1356 4.28721 15.6475 4.00561C16.1594 3.72401 16.7277 3.57721 17.3045 3.57764Z" fill="#A0C6F0" stroke="#A0C6F0" stroke-width="1.5" stroke-linecap="round" stroke-linejoin="round"/>
<path d="M12.8439 8.5415C14.8848 8.5415 16.5393 10.2461 16.5393 12.3488C16.5393 16.1561 12.172 19.6173 9.82039 20.4223C7.46877 19.6173 3.10148 16.1561 3.10148 12.3488C3.10148 10.2461 4.75601 8.5415 6.79688 8.5415C8.0466 8.5415 9.15186 9.18078 9.82039 10.1593C10.1611 9.65919 10.6138 9.25108 11.1401 8.96947C11.6664 8.68787 12.2509 8.54107 12.8439 8.5415Z" fill="white"/>
<path d="M6.79712 7.0415C3.88492 7.0415 1.60181 9.4616 1.60181 12.3491C1.60193 14.8124 2.99245 16.9855 4.49732 18.5513C6.01253 20.1278 7.88814 21.3462 9.33423 21.8413C9.64907 21.9491 9.99105 21.949 10.3059 21.8413C11.7519 21.3463 13.6275 20.1277 15.1428 18.5513C16.6477 16.9855 18.0392 14.8124 18.0393 12.3491C18.0393 9.46198 15.7565 7.04321 12.845 7.04248C12.0032 7.04191 11.1755 7.24965 10.4329 7.64697C10.2194 7.76121 10.0149 7.89061 9.82056 8.03271C8.97267 7.41206 7.92929 7.04156 6.79712 7.0415Z" fill="#3B82F6" stroke="white" stroke-width="1.5" stroke-linecap="round" stroke-linejoin="round"/>
</svg>
