<svg width="24" height="24" viewBox="0 0 24 24" fill="none" xmlns="http://www.w3.org/2000/svg">
<path d="M16.055 14.5752C18.285 13.1452 20.895 10.3752 20.895 7.38519C20.895 5.28519 19.285 3.5752 17.295 3.5752C16.725 3.5752 16.155 3.7252 15.645 4.0052C15.125 4.2852 14.6849 4.69519 14.3549 5.19519C13.7049 4.21519 12.635 3.5752 11.415 3.5752C9.43496 3.5752 7.82495 5.28519 7.82495 7.38519C7.82495 7.84519 7.88495 8.3052 8.00495 8.7552" stroke="#7E7E7E" stroke-width="1.5" stroke-linecap="round" stroke-linejoin="round"/>
<path d="M12.845 8.54492C14.885 8.54492 16.545 10.2449 16.545 12.3549C16.545 16.1649 12.175 19.6249 9.82498 20.4249C7.47498 19.6149 3.10498 16.1549 3.10498 12.3549C3.10498 10.2549 4.75498 8.54492 6.80498 8.54492C8.05498 8.54492 9.15498 9.18492 9.82498 10.1649C10.165 9.66492 10.615 9.25492 11.145 8.97492C11.675 8.69492 12.255 8.54492 12.845 8.54492Z" stroke="#7E7E7E" stroke-width="1.5" stroke-linecap="round" stroke-linejoin="round"/>
</svg>
