<svg width="" height="" viewBox="0 0 24 24" fill="none" xmlns="http://www.w3.org/2000/svg">
<path d="M16.0542 14.5752C18.2842 13.1452 20.8942 10.3752 20.8942 7.38519C20.8942 5.28519 19.2842 3.5752 17.2942 3.5752C16.7242 3.5752 16.1542 3.7252 15.6442 4.0052C15.1242 4.2852 14.6842 4.69519 14.3542 5.19519C13.7042 4.21519 12.6342 3.5752 11.4142 3.5752C9.43422 3.5752 7.82422 5.28519 7.82422 7.38519C7.82422 7.84519 7.88422 8.3052 8.00422 8.7552" stroke="#7E7E7E" stroke-width="1.5" stroke-linecap="round" stroke-linejoin="round"/>
<path d="M12.8455 8.54492C14.8855 8.54492 16.5455 10.2449 16.5455 12.3549C16.5455 16.1649 12.1755 19.6249 9.82547 20.4249C7.47547 19.6149 3.10547 16.1549 3.10547 12.3549C3.10547 10.2549 4.75547 8.54492 6.80547 8.54492C8.05547 8.54492 9.15547 9.18492 9.82547 10.1649C10.1655 9.66492 10.6155 9.25492 11.1455 8.97492C11.6755 8.69492 12.2555 8.54492 12.8455 8.54492Z" stroke="#7E7E7E" stroke-width="1.5" stroke-linecap="round" stroke-linejoin="round"/>
</svg>
