<svg width="24" height="24" viewBox="0 0 24 24" fill="none" xmlns="http://www.w3.org/2000/svg">
<path d="M8.50009 17.2498C8.08588 17.2498 7.75009 17.5856 7.75009 17.9998C7.75009 18.414 8.08588 18.7498 8.50009 18.7498H14.5001C14.9143 18.7498 15.2501 18.414 15.2501 17.9998C15.2501 17.5856 14.9143 17.2498 14.5001 17.2498H8.50009Z" fill="#7E7E7E"/>
<path fill-rule="evenodd" clip-rule="evenodd" d="M11.5 1.25C10.7749 1.25 10.1134 1.44911 9.38928 1.7871C8.68832 2.11428 7.87772 2.59716 6.86183 3.20233L5.40622 4.06943C4.28711 4.73606 3.39535 5.26727 2.72015 5.77524C2.02314 6.29963 1.49999 6.8396 1.15907 7.55072C0.817986 8.26219 0.725541 9.0068 0.755194 9.87584C0.783896 10.717 0.931051 11.7397 1.11556 13.0219L1.40792 15.0537C1.64531 16.7036 1.83368 18.0128 2.11512 19.0322C2.40523 20.0829 2.81686 20.9169 3.55965 21.5565C4.30184 22.1956 5.18984 22.4814 6.27634 22.6177C7.33154 22.75 8.66281 22.75 10.3423 22.75H12.6577C14.3372 22.75 15.6685 22.75 16.7237 22.6177C17.8102 22.4814 18.6982 22.1956 19.4404 21.5565C20.1831 20.9169 20.5948 20.0829 20.8849 19.0322C21.1663 18.0129 21.3547 16.7036 21.5921 15.0537L21.8844 13.0219C22.069 11.7396 22.2161 10.717 22.2448 9.87584C22.2745 9.0068 22.182 8.26219 21.8409 7.55072C21.5 6.8396 20.9769 6.29963 20.2799 5.77524C19.6047 5.26727 18.7129 4.73606 17.5938 4.06943L16.1382 3.20233C15.1223 2.59716 14.3117 2.11428 13.6107 1.7871C12.8866 1.44911 12.2251 1.25 11.5 1.25ZM7.59558 4.51121C8.65309 3.88126 9.39923 3.43781 10.0237 3.14633C10.6328 2.86203 11.0708 2.75 11.5 2.75C11.9293 2.75 12.3672 2.86203 12.9763 3.14633C13.6008 3.43781 14.3469 3.88126 15.4044 4.51121L16.7893 5.33615C17.9536 6.02973 18.7752 6.52034 19.3781 6.9739C19.9665 7.41662 20.2888 7.78294 20.4883 8.19917C20.6877 8.61505 20.7706 9.09337 20.7457 9.82469C20.7201 10.5745 20.5856 11.5163 20.3936 12.8511L20.1148 14.7884C19.8683 16.5016 19.6921 17.7162 19.439 18.633C19.1916 19.5289 18.8939 20.0476 18.4616 20.4198C18.0287 20.7926 17.4676 21.0127 16.537 21.1294C15.586 21.2486 14.3488 21.25 12.6061 21.25H10.3939C8.65124 21.25 7.41405 21.2486 6.463 21.1294C5.53246 21.0127 4.97129 20.7926 4.53841 20.4198C4.10614 20.0476 3.80838 19.5289 3.56102 18.633C3.30791 17.7162 3.1317 16.5016 2.8852 14.7884L2.60643 12.851C2.41437 11.5163 2.27991 10.5745 2.25432 9.82469C2.22937 9.09337 2.31229 8.61505 2.51167 8.19917C2.71121 7.78294 3.03347 7.41662 3.62194 6.9739C4.22482 6.52034 5.04643 6.02973 6.21074 5.33615L7.59558 4.51121Z" fill="#7E7E7E"/>
</svg>
