<svg width="24" height="24" viewBox="0 0 24 24" fill="none" xmlns="http://www.w3.org/2000/svg">
<path fill-rule="evenodd" clip-rule="evenodd" d="M8.73899 5.05778C9.91895 2.65545 12.3904 1 15.25 1C19.2541 1 22.5 4.24594 22.5 8.25C22.5 9.32209 22.2668 10.3418 21.8477 11.2593C21.7383 11.4988 21.717 11.725 21.7656 11.9068L21.893 12.3828C22.3007 13.9066 20.9066 15.3007 19.3828 14.893L18.9068 14.7656C18.7715 14.7294 18.6116 14.732 18.4399 14.7807C17.9298 19.1275 14.2338 22.5 9.75 22.5C8.40003 22.5 7.11949 22.1938 5.9759 21.6463C5.74951 21.5379 5.5266 21.5159 5.34324 21.565L4.1172 21.893C2.59337 22.3007 1.19927 20.9066 1.607 19.3828L1.93504 18.1568C1.9841 17.9734 1.96211 17.7505 1.85373 17.5241C1.30623 16.3805 1 15.1 1 13.75C1 9.25945 4.38273 5.55897 8.73899 5.05778ZM10.485 5.03043C14.8098 5.39011 18.2414 8.89511 18.486 13.2516C18.7486 13.2266 19.0214 13.2435 19.2945 13.3166L19.7705 13.444C20.1793 13.5534 20.5534 13.1793 20.444 12.7705L20.3166 12.2945C20.1595 11.7071 20.2619 11.1208 20.4833 10.6361C20.8149 9.91022 21 9.10275 21 8.25C21 5.07436 18.4256 2.5 15.25 2.5C13.2681 2.5 11.5192 3.50284 10.485 5.03043ZM9.75 6.5C5.74594 6.5 2.5 9.74594 2.5 13.75C2.5 14.871 2.75392 15.9307 3.20667 16.8764C3.44207 17.3681 3.54079 17.9587 3.38407 18.5445L3.05602 19.7705C2.94664 20.1793 3.32066 20.5534 3.72949 20.444L4.95553 20.1159C5.54126 19.9592 6.13191 20.0579 6.62362 20.2933C7.56932 20.7461 8.62896 21 9.75 21C13.7541 21 17 17.7541 17 13.75C17 9.74594 13.7541 6.5 9.75 6.5Z" fill="#7E7E7E"/>
<path d="M7.25 13.75C7.25 14.3023 6.80228 14.75 6.25 14.75C5.69772 14.75 5.25 14.3023 5.25 13.75C5.25 13.1977 5.69772 12.75 6.25 12.75C6.80228 12.75 7.25 13.1977 7.25 13.75Z" fill="#7E7E7E"/>
<path d="M10.75 13.75C10.75 14.3023 10.3023 14.75 9.75 14.75C9.19772 14.75 8.75 14.3023 8.75 13.75C8.75 13.1977 9.19772 12.75 9.75 12.75C10.3023 12.75 10.75 13.1977 10.75 13.75Z" fill="#7E7E7E"/>
<path d="M14.25 13.75C14.25 14.3023 13.8023 14.75 13.25 14.75C12.6977 14.75 12.25 14.3023 12.25 13.75C12.25 13.1977 12.6977 12.75 13.25 12.75C13.8023 12.75 14.25 13.1977 14.25 13.75Z" fill="#7E7E7E"/>
</svg>
