<svg viewBox="0 0 28 28" fill="none" xmlns="http://www.w3.org/2000/svg">
<circle cx="11.5222" cy="6.08856" r="1.15888" fill="#FFFFFF"/>
<circle cx="6.94013" cy="6.08856" r="1.15888" fill="#FFFFFF"/>
<path d="M11.5894 6.46054C12.5106 5.66794 15.4209 5.98936 14.9866 8.9043C14.4438 12.548 11.515 17.0175 9.22656 17.0175" stroke="#FFFFFF" stroke-width="1.5"/>
<path d="M6.86373 6.46054C5.94256 5.66794 3.03222 5.98936 3.46651 8.9043C4.00937 12.548 6.9381 17.0175 9.22656 17.0175" stroke="#FFFFFF" stroke-width="1.5"/>
<path d="M9.22664 16.7699C9.2235 18.8702 9.9199 23.071 12.7307 23.071C15.5415 23.071 16.0021 19.5896 16.5767 17.01C16.987 15.1685 17.668 13.0469 19.7594 13.0469C20.7911 13.0469 22.3092 13.8131 22.3092 17.0103" stroke="#FFFFFF" stroke-width="1.5"/>
<circle cx="22.3101" cy="19.2867" r="2.26715" stroke="#FFFFFF" stroke-width="1.5"/>
</svg>
