<svg viewBox="0 0 28 28" fill="none" xmlns="http://www.w3.org/2000/svg">
<circle cx="11.5222" cy="6.08807" r="1.15888" fill="#202020"/>
<circle cx="6.94013" cy="6.08807" r="1.15888" fill="#202020"/>
<path d="M11.5894 6.46005C12.5106 5.66745 15.4209 5.98887 14.9866 8.90381C14.4438 12.5475 11.515 17.017 9.22656 17.017" stroke="#202020" stroke-width="1.5"/>
<path d="M6.86373 6.46005C5.94256 5.66745 3.03222 5.98887 3.46651 8.90381C4.00937 12.5475 6.9381 17.017 9.22656 17.017" stroke="#202020" stroke-width="1.5"/>
<path d="M9.22664 16.7694C9.2235 18.8697 9.9199 23.0705 12.7307 23.0705C15.5415 23.0705 16.0021 19.5891 16.5767 17.0095C16.987 15.168 17.668 13.0464 19.7594 13.0464C20.7911 13.0464 22.3092 13.8126 22.3092 17.0098" stroke="#202020" stroke-width="1.5"/>
<circle cx="22.3101" cy="19.2862" r="2.26715" stroke="#202020" stroke-width="1.5"/>
</svg>
