<svg viewBox="0 0 28 28" fill="none" xmlns="http://www.w3.org/2000/svg">
<path d="M18.8955 10.2314C20.1013 10.5047 21.2465 11.1104 22.1843 12.0485C24.2573 14.1211 24.7058 17.1925 23.5435 19.7042C23.3943 20.0751 24.0596 22.4756 23.5388 22.9965C23.018 23.5167 20.6177 22.8519 20.2469 23.0012C17.7349 24.163 14.6646 23.7151 12.5922 21.6418C11.9721 21.0216 11.497 20.3108 11.1671 19.5519" stroke="#202020" stroke-width="1.5" stroke-linecap="round" stroke-linejoin="round"/>
<path fill-rule="evenodd" clip-rule="evenodd" d="M16.7955 17.3404C14.4741 19.6629 11.0348 20.1647 8.22088 18.8633C7.80548 18.696 5.11681 19.4407 4.53341 18.8579C3.95001 18.2745 4.69529 15.5854 4.52806 15.17C3.22611 12.3565 3.72856 8.91593 6.0507 6.59424C9.01503 3.62874 13.8311 3.62874 16.7955 6.59424C19.7659 9.56432 19.7598 14.3757 16.7955 17.3404Z" stroke="#202020" stroke-width="1.5" stroke-linecap="round" stroke-linejoin="round"/>
</svg>
