<svg viewBox="0 0 28 28" fill="none" xmlns="http://www.w3.org/2000/svg">
<path d="M18.7306 17.0042C21.3322 15.3359 24.3772 12.1042 24.3772 8.6159C24.3772 6.1659 22.4989 4.1709 20.1772 4.1709C19.5122 4.1709 18.8472 4.3459 18.2522 4.67257C17.6456 4.99923 17.1322 5.47756 16.7472 6.0609C15.9889 4.91756 14.7406 4.1709 13.3172 4.1709C11.0072 4.1709 9.12891 6.1659 9.12891 8.6159C9.12891 9.15256 9.19891 9.68923 9.33891 10.2142" stroke="#FFFFFF" stroke-width="1.5" stroke-linecap="round" stroke-linejoin="round"/>
<path d="M14.9844 9.96973C17.3644 9.96973 19.3011 11.9531 19.3011 14.4147C19.3011 18.8597 14.2028 22.8964 11.4611 23.8297C8.71942 22.8847 3.62109 18.8481 3.62109 14.4147C3.62109 11.9647 5.54609 9.96973 7.93776 9.96973C9.39609 9.96973 10.6794 10.7164 11.4611 11.8597C11.8578 11.2764 12.3828 10.7981 13.0011 10.4714C13.6194 10.1447 14.2961 9.96973 14.9844 9.96973Z" stroke="#FFFFFF" stroke-width="1.5" stroke-linecap="round" stroke-linejoin="round"/>
</svg>
