<svg width="394" height="334" viewBox="0 0 394 334" fill="none" xmlns="http://www.w3.org/2000/svg">
<g clip-path="url(#clip0_56897_81764)">
<path opacity="0.2" d="M305.823 46.0664C326.463 44.7932 345.558 47.8462 359.897 56.6165L359.897 56.6162C386.712 72.97 394.389 97.8135 391.623 123.093C388.861 148.334 375.697 174.041 360.801 192.332C324.557 236.901 267.007 274.732 213.879 298.57C187.31 310.491 161.821 318.924 140.627 322.949C130.03 324.961 120.49 325.875 112.416 325.565C104.352 325.255 97.6975 323.723 92.9153 320.797L92.9083 320.792C81.3513 313.491 67.7033 296.878 54.7193 274.992C41.7212 253.082 29.3425 225.809 20.3535 197.104C11.3653 168.4 5.75819 138.238 6.32546 110.552C6.89272 82.8702 13.6346 57.6106 29.4026 38.7835C37.9068 28.6295 52.1455 15.6853 70.78 9.38529C89.4457 3.07473 112.469 3.45084 138.448 19.8628C157.385 31.8261 178.151 59.512 191.848 91.7617C205.765 79.8955 223.312 69.4929 242.216 61.5645L242.217 61.5638C262.923 52.9468 285.175 47.3401 305.823 46.0664Z" stroke="url(#paint0_linear_56897_81764)" stroke-width="1.21488"/>
<path opacity="0.12" d="M294.564 66.5364C313.739 65.3536 331.485 68.1901 344.814 76.3421L345.968 77.0606C369.957 92.2639 376.831 115.001 374.301 138.127C371.735 161.581 359.503 185.465 345.664 202.458C311.995 243.861 258.536 279.002 209.187 301.144C184.508 312.217 160.831 320.051 141.142 323.79C131.297 325.66 122.433 326.508 114.931 326.22C107.437 325.932 101.248 324.509 96.7969 321.786L96.789 321.781L96.7892 321.78C86.0462 314.993 73.3655 299.555 61.3056 279.226C49.2314 258.874 37.7324 233.541 29.3825 206.876C21.0333 180.214 15.8248 152.194 16.3518 126.474C16.8788 100.757 23.1423 77.2847 37.7962 59.788C45.6979 50.3535 58.9285 38.3249 76.2462 32.47C93.5952 26.6046 114.993 26.9552 139.133 42.2055C156.722 53.3168 176.001 79.016 188.725 108.951C201.647 97.9419 217.931 88.2919 235.472 80.9352L235.474 80.9347C254.709 72.9298 275.381 67.7198 294.564 66.5364Z" stroke="url(#paint1_linear_56897_81764)" stroke-width="1.21488"/>
</g>
<defs>
<linearGradient id="paint0_linear_56897_81764" x1="212.645" y1="106.493" x2="6.52064" y2="361.459" gradientUnits="userSpaceOnUse">
<stop stop-color="white"/>
<stop offset="1" stop-color="white" stop-opacity="0"/>
</linearGradient>
<linearGradient id="paint1_linear_56897_81764" x1="208.023" y1="122.704" x2="16.5761" y2="359.516" gradientUnits="userSpaceOnUse">
<stop stop-color="white"/>
<stop offset="1" stop-color="white" stop-opacity="0"/>
</linearGradient>
<clipPath id="clip0_56897_81764">
<rect width="393" height="334" fill="white" transform="translate(0.101562)"/>
</clipPath>
</defs>
</svg>
