<svg width="50" height="58" viewBox="0 0 50 58" fill="none" xmlns="http://www.w3.org/2000/svg">
<path d="M41.7613 30.3317C41.7916 28.1454 42.4173 26.0018 43.5801 24.1002C44.743 22.1986 46.4051 20.6009 48.412 19.4558C47.1371 17.7659 45.4552 16.3751 43.4999 15.394C41.5446 14.4129 39.3697 13.8685 37.1481 13.804C32.4089 13.3423 27.8144 16.436 25.3994 16.436C22.9377 16.436 19.2194 13.8498 15.2155 13.9263C12.6256 14.0039 10.1015 14.7029 7.88927 15.9552C5.677 17.2074 3.85193 18.9701 2.59191 21.0717C-2.86627 29.8425 1.20504 42.7328 6.43351 49.8225C9.04942 53.2941 12.1067 57.172 16.107 57.0345C20.0216 56.8838 21.4836 54.7177 26.2089 54.7177C30.8903 54.7177 32.262 57.0345 36.3435 56.947C40.544 56.8838 43.1905 53.46 45.7147 49.9555C47.5942 47.4818 49.0405 44.7479 50 41.8549C47.5596 40.897 45.477 39.2934 44.012 37.2443C42.5469 35.1951 41.7641 32.791 41.7613 30.3317Z" fill="#D0D0D0"/>
<path d="M34.0554 9.14335C36.3457 6.5915 37.474 3.31154 37.2008 0C33.7017 0.3411 30.4695 1.89325 28.1483 4.34719C27.0133 5.546 26.1441 6.94067 25.5903 8.45146C25.0364 9.96226 24.8088 11.5596 24.9205 13.152C26.6706 13.1688 28.4021 12.8167 29.9844 12.1223C31.5667 11.4279 32.9586 10.4094 34.0554 9.14335Z" fill="#D0D0D0"/>
</svg>
