<svg width="20" height="20" viewBox="0 0 20 20" fill="none" xmlns="http://www.w3.org/2000/svg">
<path d="M11.6641 3.33203H8.33073C5.18803 3.33203 3.61668 3.33203 2.64037 4.30834C1.93742 5.01129 1.7406 6.02272 1.68549 7.70703H18.3093C18.2542 6.02272 18.0574 5.01129 17.3544 4.30834C16.3781 3.33203 14.8068 3.33203 11.6641 3.33203Z" fill="#34B288"/>
<path d="M8.33073 16.6654H11.6641C14.8068 16.6654 16.3781 16.6654 17.3544 15.6891C18.3307 14.7127 18.3307 13.1414 18.3307 9.9987C18.3307 9.63042 18.3307 9.28372 18.3292 8.95703H1.66563C1.66406 9.28372 1.66406 9.63042 1.66406 9.9987C1.66406 13.1414 1.66406 14.7127 2.64037 15.6891C3.61668 16.6654 5.18803 16.6654 8.33073 16.6654Z" fill="#34B288"/>
<path fill-rule="evenodd" clip-rule="evenodd" d="M4.3724 13.332C4.3724 12.9869 4.65222 12.707 4.9974 12.707H8.33073C8.67591 12.707 8.95573 12.9869 8.95573 13.332C8.95573 13.6772 8.67591 13.957 8.33073 13.957H4.9974C4.65222 13.957 4.3724 13.6772 4.3724 13.332Z" fill="white"/>
<path fill-rule="evenodd" clip-rule="evenodd" d="M9.78906 13.332C9.78906 12.9869 10.0689 12.707 10.4141 12.707H11.6641C12.0092 12.707 12.2891 12.9869 12.2891 13.332C12.2891 13.6772 12.0092 13.957 11.6641 13.957H10.4141C10.0689 13.957 9.78906 13.6772 9.78906 13.332Z" fill="white"/>
</svg>
