<svg width="16" height="16" viewBox="0 0 16 16" fill="none" xmlns="http://www.w3.org/2000/svg">
<g clip-path="url(#clip0_51805_57250)">
<path d="M8.46244 1.80504L9.91432 5.26504C9.94946 5.34901 10.0069 5.42179 10.0803 5.47554C10.1538 5.52929 10.2405 5.56196 10.3312 5.57004L14.0474 5.89129C14.146 5.89921 14.2401 5.93621 14.3177 5.9976C14.3952 6.05898 14.4528 6.142 14.4832 6.23614C14.5136 6.33028 14.5154 6.43132 14.4883 6.52647C14.4612 6.62162 14.4066 6.7066 14.3312 6.77066L11.5118 9.23004C11.4433 9.29024 11.3923 9.36787 11.3644 9.45469C11.3364 9.54152 11.3325 9.63429 11.3531 9.72316L12.1981 13.3819C12.2204 13.4775 12.2141 13.5775 12.18 13.6695C12.1459 13.7615 12.0854 13.8415 12.0062 13.8994C11.927 13.9573 11.8325 13.9906 11.7344 13.9951C11.6364 13.9997 11.5392 13.9753 11.4549 13.925L8.26119 11.9875C8.18359 11.9404 8.09451 11.9154 8.00369 11.9154C7.91287 11.9154 7.82379 11.9404 7.74619 11.9875L4.55244 13.925C4.46817 13.9753 4.37097 13.9997 4.27294 13.9951C4.17491 13.9906 4.08039 13.9573 4.00116 13.8994C3.92194 13.8415 3.8615 13.7615 3.82738 13.6695C3.79327 13.5775 3.78698 13.4775 3.80932 13.3819L4.65432 9.72316C4.67486 9.63429 4.67094 9.54152 4.64299 9.45469C4.61504 9.36787 4.56409 9.29024 4.49557 9.23004L1.67619 6.77066C1.60082 6.7066 1.54614 6.62162 1.51907 6.52647C1.49201 6.43132 1.49378 6.33028 1.52416 6.23614C1.55454 6.142 1.61216 6.05898 1.68973 5.9976C1.7673 5.93621 1.86134 5.89921 1.95994 5.89129L5.67619 5.57004C5.76686 5.56196 5.8536 5.52929 5.92706 5.47554C6.00053 5.42179 6.05792 5.34901 6.09307 5.26504L7.54494 1.80504C7.58372 1.71558 7.64781 1.63942 7.72931 1.58591C7.81082 1.53241 7.90619 1.50391 8.00369 1.50391C8.10119 1.50391 8.19656 1.53241 8.27807 1.58591C8.35958 1.63942 8.42366 1.71558 8.46244 1.80504Z" stroke="#4F4F4F" stroke-width="1.33333" stroke-linecap="round" stroke-linejoin="round"/>
</g>
<defs>
<clipPath id="clip0_51805_57250">
<rect width="16" height="16" fill="white"/>
</clipPath>
</defs>
</svg>
