<svg width="16" height="16" viewBox="0 0 16 16" fill="none" xmlns="http://www.w3.org/2000/svg">
<g clip-path="url(#clip0_51805_57257)">
<path d="M14 8.5C13.7456 11.58 11.1456 14 8 14C6.4087 14 4.88258 13.3679 3.75736 12.2426C2.63214 11.1174 2 9.5913 2 8C2 4.85437 4.42 2.25438 7.5 2" stroke="#4F4F4F" stroke-width="1.33333" stroke-linecap="round" stroke-linejoin="round"/>
<path d="M8 4.5V8H11.5" stroke="#4F4F4F" stroke-width="1.33333" stroke-linecap="round" stroke-linejoin="round"/>
<path d="M10 2.875C10.3452 2.875 10.625 2.59518 10.625 2.25C10.625 1.90482 10.3452 1.625 10 1.625C9.65482 1.625 9.375 1.90482 9.375 2.25C9.375 2.59518 9.65482 2.875 10 2.875Z" fill="#4F4F4F"/>
<path d="M12.25 4.375C12.5952 4.375 12.875 4.09518 12.875 3.75C12.875 3.40482 12.5952 3.125 12.25 3.125C11.9048 3.125 11.625 3.40482 11.625 3.75C11.625 4.09518 11.9048 4.375 12.25 4.375Z" fill="#4F4F4F"/>
<path d="M13.75 6.625C14.0952 6.625 14.375 6.34518 14.375 6C14.375 5.65482 14.0952 5.375 13.75 5.375C13.4048 5.375 13.125 5.65482 13.125 6C13.125 6.34518 13.4048 6.625 13.75 6.625Z" fill="#4F4F4F"/>
</g>
<defs>
<clipPath id="clip0_51805_57257">
<rect width="16" height="16" fill="white"/>
</clipPath>
</defs>
</svg>
