<svg width="80" height="80" viewBox="0 0 80 80" fill="none" xmlns="http://www.w3.org/2000/svg">
<g clip-path="url(#clip0_3807_10646)">
<g filter="url(#filter0_d_3807_10646)">
<g clip-path="url(#clip1_3807_10646)">
<path d="M0 40C0 17.9086 17.9086 0 40 0C62.0914 0 80 17.9086 80 40C80 62.0914 62.0914 80 40 80C17.9086 80 0 62.0914 0 40Z" fill="#F24F7A"/>
<g filter="url(#filter1_f_3807_10646)">
<path d="M79.3676 16.1293C80.2022 8.29333 77.8089 1.54318 76.5079 -0.852395L82.391 -0.506674L77.5781 81.3945L62.5498 80.5114C62.5498 80.5114 66.2971 78.4125 67.7591 73.4253C69.2212 68.4381 73.8774 64.7982 75.2921 57.6341C76.7068 50.47 77.5596 46.8964 78.2876 43.4605C78.87 40.7118 79.5702 30.5874 79.8475 25.8689C79.6785 28.0814 78.7397 33.9787 76.3362 39.8672C73.9327 45.7557 72.7423 53.2808 72.4475 56.3074C72.2913 54.6555 72.3669 49.7221 73.9189 43.2038C75.859 35.0559 78.3245 25.9243 79.3676 16.1293Z" fill="white" fill-opacity="0.2"/>
</g>
<mask id="mask0_3807_10646" style="mask-type:alpha" maskUnits="userSpaceOnUse" x="4" y="1" width="72" height="73">
<path fill-rule="evenodd" clip-rule="evenodd" d="M74.355 46.4598C79.8116 26.0952 69.4908 8.21892 49.3873 2.83221C29.6754 -2.44957 11.1721 8.123 5.78534 28.2265C-0.0560988 50.027 11.2929 67.1994 30.7437 72.4112C51.4999 77.9728 68.9333 66.6938 74.355 46.4598ZM43.3135 23.7374C41.272 18.7605 37.5101 14.4382 33.2697 13.8053C25.3396 12.6113 20.9682 20.7451 20.0917 26.6241C17.9435 40.96 26.0551 59.616 31.6212 60.4457C38.5397 61.3772 63.0132 50.8989 64.6548 38.7057C65.0987 35.4088 64.5677 29.2233 56.7517 28.1709C53.8855 27.7851 49.2948 28.765 44.9039 30.7682C44.8202 28.4909 44.2535 26.0497 43.3135 23.7374Z" fill="black"/>
</mask>
<g mask="url(#mask0_3807_10646)">
<g filter="url(#filter2_f_3807_10646)">
<circle cx="39.3877" cy="25.8643" r="14.9542" fill="white" fill-opacity="0.19"/>
</g>
<g filter="url(#filter3_f_3807_10646)">
<ellipse cx="49.6892" cy="43.2204" rx="18.3103" ry="18.3103" fill="white" fill-opacity="0.19"/>
</g>
</g>
<g filter="url(#filter4_di_3807_10646)">
<path d="M29.0783 20.4367C28.1254 20.1184 26.7637 20.5884 25.6636 21.3699C25.1542 21.7339 24.7033 22.1628 24.3736 22.6097C23.7519 21.7482 22.9488 21.0705 22.3105 20.8469C20.5698 20.2374 19.6122 21.4192 19.2503 22.1254C17.9117 24.7371 21.4715 29.4013 23.0123 29.9409C24.263 30.3589 28.4807 27.4775 30.0099 24.384C30.6379 23.1158 30.8617 21.0299 29.0783 20.4367Z" fill="url(#paint0_radial_3807_10646)"/>
</g>
<g filter="url(#filter5_di_3807_10646)">
<path d="M62.7191 51.7999C62.9689 51.929 63.0461 52.0581 62.9849 52.3163C62.8475 53.0477 60.7661 55.6724 57.6606 55.6724C54.9433 55.6724 53.4647 53.9943 54.0665 50.9394L55.9201 41.0862C56.4517 38.4185 55.7847 37.4719 54.4415 37.5579C52.5377 37.644 50.0631 40.9571 49.2507 45.1737L47.4122 54.8119C47.354 55.027 47.1814 55.027 47.1353 55.07C46.1714 55.2852 45.087 55.3712 43.9656 55.3712C42.8441 55.3712 41.818 55.2421 40.8811 55.07C40.841 55.027 40.7146 54.984 40.7236 54.8549L43.3686 41.0862C43.9002 38.4185 43.19 37.4719 41.89 37.5579C39.9862 37.644 37.5206 40.828 36.7022 45.1307L34.8175 54.8119C34.7593 55.027 34.5868 55.027 34.5407 55.07C33.6198 55.2852 32.5355 55.3712 31.4141 55.3712C30.2926 55.3712 29.1802 55.2421 28.2002 55.07C28.1601 55.027 28.0337 54.984 28.0427 54.8549C28.4861 52.8326 30.2554 44.1841 30.9485 40.4407C31.4861 37.687 30.6565 37.2137 29.5682 36.7404C29.3616 36.6113 29.2843 36.4822 29.3024 36.2241C29.4398 35.4926 31.5211 32.8679 34.6267 32.8679C37.0852 32.8679 38.1846 34.4169 38.1144 36.6543C38.0783 37.1707 38.0021 37.644 37.9198 38.2033H38.0492C40.2429 34.589 42.9913 32.911 45.6254 32.8679C48.734 32.8249 50.678 34.6321 50.4744 38.1603H50.6038C52.6992 34.7181 55.4967 32.954 58.2201 32.8679C61.6737 32.8249 63.7601 35.0623 62.9296 39.5372C62.4652 41.8606 61.8784 44.7004 61.2154 48.0135C60.6688 50.8964 61.6308 51.3266 62.7191 51.7999Z" fill="url(#paint1_radial_3807_10646)"/>
</g>
<g filter="url(#filter6_di_3807_10646)">
<path d="M19.6541 55.6712C16.9367 55.6712 15.4582 53.9932 16.0169 50.9382L19.38 33.6843C19.386 33.5982 19.4352 33.5122 19.5676 33.4692C20.4854 33.2971 21.659 33.168 22.6942 33.168C23.8156 33.168 24.9742 33.254 25.8649 33.4692C25.905 33.5122 26.0314 33.5552 25.9793 33.6843L23.2089 48.0124C22.6623 50.8952 23.6242 51.3255 24.7126 51.7988C24.9623 51.9279 25.0396 52.0569 24.9784 52.3151C24.841 53.0466 22.7596 55.6712 19.6541 55.6712Z" fill="url(#paint2_radial_3807_10646)"/>
</g>
</g>
</g>
</g>
<defs>
<filter id="filter0_d_3807_10646" x="-20" y="-16.8295" width="120" height="120" filterUnits="userSpaceOnUse" color-interpolation-filters="sRGB">
<feFlood flood-opacity="0" result="BackgroundImageFix"/>
<feColorMatrix in="SourceAlpha" type="matrix" values="0 0 0 0 0 0 0 0 0 0 0 0 0 0 0 0 0 0 127 0" result="hardAlpha"/>
<feOffset dy="3.17046"/>
<feGaussianBlur stdDeviation="10"/>
<feComposite in2="hardAlpha" operator="out"/>
<feColorMatrix type="matrix" values="0 0 0 0 0.92549 0 0 0 0 0.25098 0 0 0 0 0.478431 0 0 0 0.22 0"/>
<feBlend mode="normal" in2="BackgroundImageFix" result="effect1_dropShadow_3807_10646"/>
<feBlend mode="normal" in="SourceGraphic" in2="effect1_dropShadow_3807_10646" result="shape"/>
</filter>
<filter id="filter1_f_3807_10646" x="58.4291" y="-4.97132" width="28.0813" height="90.4856" filterUnits="userSpaceOnUse" color-interpolation-filters="sRGB">
<feFlood flood-opacity="0" result="BackgroundImageFix"/>
<feBlend mode="normal" in="SourceGraphic" in2="BackgroundImageFix" result="shape"/>
<feGaussianBlur stdDeviation="2.05988" result="effect1_foregroundBlur_3807_10646"/>
</filter>
<filter id="filter2_f_3807_10646" x="7.69107" y="-5.83236" width="63.3932" height="63.3952" filterUnits="userSpaceOnUse" color-interpolation-filters="sRGB">
<feFlood flood-opacity="0" result="BackgroundImageFix"/>
<feBlend mode="normal" in="SourceGraphic" in2="BackgroundImageFix" result="shape"/>
<feGaussianBlur stdDeviation="8.37126" result="effect1_foregroundBlur_3807_10646"/>
</filter>
<filter id="filter3_f_3807_10646" x="14.6364" y="8.16764" width="70.1061" height="70.1061" filterUnits="userSpaceOnUse" color-interpolation-filters="sRGB">
<feFlood flood-opacity="0" result="BackgroundImageFix"/>
<feBlend mode="normal" in="SourceGraphic" in2="BackgroundImageFix" result="shape"/>
<feGaussianBlur stdDeviation="8.37126" result="effect1_foregroundBlur_3807_10646"/>
</filter>
<filter id="filter4_di_3807_10646" x="17.5405" y="19.4987" width="15.4977" height="13.6286" filterUnits="userSpaceOnUse" color-interpolation-filters="sRGB">
<feFlood flood-opacity="0" result="BackgroundImageFix"/>
<feColorMatrix in="SourceAlpha" type="matrix" values="0 0 0 0 0 0 0 0 0 0 0 0 0 0 0 0 0 0 127 0" result="hardAlpha"/>
<feOffset dx="0.577396" dy="1.15479"/>
<feGaussianBlur stdDeviation="0.996008"/>
<feComposite in2="hardAlpha" operator="out"/>
<feColorMatrix type="matrix" values="0 0 0 0 0.937489 0 0 0 0 0.362932 0 0 0 0 0.53654 0 0 0 0.6 0"/>
<feBlend mode="normal" in2="BackgroundImageFix" result="effect1_dropShadow_3807_10646"/>
<feBlend mode="normal" in="SourceGraphic" in2="effect1_dropShadow_3807_10646" result="shape"/>
<feColorMatrix in="SourceAlpha" type="matrix" values="0 0 0 0 0 0 0 0 0 0 0 0 0 0 0 0 0 0 127 0" result="hardAlpha"/>
<feOffset dx="0.288698" dy="-0.288698"/>
<feGaussianBlur stdDeviation="1.87654"/>
<feComposite in2="hardAlpha" operator="arithmetic" k2="-1" k3="1"/>
<feColorMatrix type="matrix" values="0 0 0 0 1 0 0 0 0 1 0 0 0 0 1 0 0 0 0.5 0"/>
<feBlend mode="normal" in2="shape" result="effect2_innerShadow_3807_10646"/>
</filter>
<filter id="filter5_di_3807_10646" x="26.6283" y="32.03" width="39.0524" height="26.7887" filterUnits="userSpaceOnUse" color-interpolation-filters="sRGB">
<feFlood flood-opacity="0" result="BackgroundImageFix"/>
<feColorMatrix in="SourceAlpha" type="matrix" values="0 0 0 0 0 0 0 0 0 0 0 0 0 0 0 0 0 0 127 0" result="hardAlpha"/>
<feOffset dx="0.577396" dy="1.15479"/>
<feGaussianBlur stdDeviation="0.996008"/>
<feComposite in2="hardAlpha" operator="out"/>
<feColorMatrix type="matrix" values="0 0 0 0 0.937489 0 0 0 0 0.362932 0 0 0 0 0.53654 0 0 0 0.6 0"/>
<feBlend mode="normal" in2="BackgroundImageFix" result="effect1_dropShadow_3807_10646"/>
<feBlend mode="normal" in="SourceGraphic" in2="effect1_dropShadow_3807_10646" result="shape"/>
<feColorMatrix in="SourceAlpha" type="matrix" values="0 0 0 0 0 0 0 0 0 0 0 0 0 0 0 0 0 0 127 0" result="hardAlpha"/>
<feOffset dx="0.288698" dy="-0.288698"/>
<feGaussianBlur stdDeviation="1.87654"/>
<feComposite in2="hardAlpha" operator="arithmetic" k2="-1" k3="1"/>
<feColorMatrix type="matrix" values="0 0 0 0 1 0 0 0 0 1 0 0 0 0 1 0 0 0 0.5 0"/>
<feBlend mode="normal" in2="shape" result="effect2_innerShadow_3807_10646"/>
</filter>
<filter id="filter6_di_3807_10646" x="14.4858" y="32.3307" width="14.0758" height="26.4879" filterUnits="userSpaceOnUse" color-interpolation-filters="sRGB">
<feFlood flood-opacity="0" result="BackgroundImageFix"/>
<feColorMatrix in="SourceAlpha" type="matrix" values="0 0 0 0 0 0 0 0 0 0 0 0 0 0 0 0 0 0 127 0" result="hardAlpha"/>
<feOffset dx="0.577396" dy="1.15479"/>
<feGaussianBlur stdDeviation="0.996008"/>
<feComposite in2="hardAlpha" operator="out"/>
<feColorMatrix type="matrix" values="0 0 0 0 0.937489 0 0 0 0 0.362932 0 0 0 0 0.53654 0 0 0 0.6 0"/>
<feBlend mode="normal" in2="BackgroundImageFix" result="effect1_dropShadow_3807_10646"/>
<feBlend mode="normal" in="SourceGraphic" in2="effect1_dropShadow_3807_10646" result="shape"/>
<feColorMatrix in="SourceAlpha" type="matrix" values="0 0 0 0 0 0 0 0 0 0 0 0 0 0 0 0 0 0 127 0" result="hardAlpha"/>
<feOffset dx="0.288698" dy="-0.288698"/>
<feGaussianBlur stdDeviation="1.87654"/>
<feComposite in2="hardAlpha" operator="arithmetic" k2="-1" k3="1"/>
<feColorMatrix type="matrix" values="0 0 0 0 1 0 0 0 0 1 0 0 0 0 1 0 0 0 0.5 0"/>
<feBlend mode="normal" in2="shape" result="effect2_innerShadow_3807_10646"/>
</filter>
<radialGradient id="paint0_radial_3807_10646" cx="0" cy="0" r="1" gradientUnits="userSpaceOnUse" gradientTransform="translate(24.2274 19.2906) rotate(90) scale(12.7841 19.8057)">
<stop stop-color="#FEFFFF"/>
<stop offset="0.385" stop-color="#FEFFFF"/>
<stop offset="0.585" stop-color="#F9D5DC"/>
<stop offset="0.685" stop-color="#F7C9D4"/>
<stop offset="0.745909" stop-color="#F5B8C4"/>
<stop offset="0.84" stop-color="#F7C4D0"/>
<stop offset="0.918488" stop-color="#F9D2DB"/>
</radialGradient>
<radialGradient id="paint1_radial_3807_10646" cx="0" cy="0" r="1" gradientTransform="matrix(-1.45068 20.7456 -55.248 -1.26419e-05 46.5648 38.3236)" gradientUnits="userSpaceOnUse">
<stop stop-color="#FEFFFF"/>
<stop offset="0.385" stop-color="#FEFFFF"/>
<stop offset="0.585" stop-color="#F9D5DC"/>
<stop offset="0.685" stop-color="#F7C9D4"/>
<stop offset="0.745909" stop-color="#F5B8C4"/>
<stop offset="0.84" stop-color="#F7C4D0"/>
<stop offset="0.918488" stop-color="#F9D2DB"/>
</radialGradient>
<radialGradient id="paint2_radial_3807_10646" cx="0" cy="0" r="1" gradientTransform="matrix(-2.08562 29.8257 -15.6797 -1.81752e-05 21.5574 30.7292)" gradientUnits="userSpaceOnUse">
<stop stop-color="#FEFFFF"/>
<stop offset="0.385" stop-color="#FEFFFF"/>
<stop offset="0.585" stop-color="#F9D5DC"/>
<stop offset="0.685" stop-color="#F7C9D4"/>
<stop offset="0.745909" stop-color="#F5B8C4"/>
<stop offset="0.84" stop-color="#F7C4D0"/>
<stop offset="0.918488" stop-color="#F9D2DB"/>
</radialGradient>
<clipPath id="clip0_3807_10646">
<rect width="80" height="80" rx="40" fill="white"/>
</clipPath>
<clipPath id="clip1_3807_10646">
<path d="M0 40C0 17.9086 17.9086 0 40 0C62.0914 0 80 17.9086 80 40C80 62.0914 62.0914 80 40 80C17.9086 80 0 62.0914 0 40Z" fill="white"/>
</clipPath>
</defs>
</svg>
