<svg width="20" height="20" viewBox="0 0 20 20" fill="none" xmlns="http://www.w3.org/2000/svg">
<g clip-path="url(#clip0_3807_10728)">
<ellipse cx="10.6895" cy="9.9995" rx="4.75586" ry="4.35888" fill="white"/>
<path d="M8.70117 1.21191C9.52218 0.819607 10.4769 0.819522 11.2979 1.21191C11.6747 1.39202 12.017 1.69267 12.4922 2.09766C12.7076 2.28123 12.7719 2.334 12.8359 2.37695C13.0019 2.48822 13.1887 2.56578 13.3848 2.60449C13.4604 2.61941 13.5432 2.62691 13.8252 2.64941C14.4475 2.69907 14.9021 2.72913 15.2959 2.86816C16.154 3.17125 16.8287 3.84699 17.1318 4.70508C17.2708 5.09876 17.3009 5.5527 17.3506 6.1748C17.3731 6.45741 17.3815 6.54046 17.3965 6.61621C17.4352 6.81222 17.5118 6.99907 17.623 7.16504C17.666 7.22913 17.7196 7.29316 17.9033 7.50879C18.3082 7.98393 18.608 8.32635 18.7881 8.70312C19.1805 9.52419 19.1805 10.4787 18.7881 11.2998C18.608 11.6765 18.3082 12.019 17.9033 12.4941C17.7194 12.7099 17.666 12.7738 17.623 12.8379C17.5118 13.0039 17.4352 13.1907 17.3965 13.3867C17.3816 13.4624 17.3731 13.5451 17.3506 13.8271C17.3009 14.4495 17.2709 14.904 17.1318 15.2979C16.8287 16.1559 16.154 16.8307 15.2959 17.1338C14.9021 17.2729 14.4476 17.3029 13.8252 17.3525C13.5431 17.3751 13.4604 17.3835 13.3848 17.3984C13.1887 17.4371 13.0019 17.5138 12.8359 17.625C12.7718 17.668 12.708 17.7214 12.4922 17.9053C12.0171 18.3102 11.6746 18.6099 11.2979 18.79C10.4768 19.1825 9.52224 19.1825 8.70117 18.79C8.32439 18.61 7.98198 18.3102 7.50684 17.9053C7.2912 17.7215 7.22718 17.668 7.16309 17.625C6.99712 17.5138 6.81027 17.4372 6.61426 17.3984C6.53851 17.3835 6.45546 17.3751 6.17285 17.3525C5.55074 17.3029 5.09681 17.2728 4.70312 17.1338C3.84503 16.8307 3.1693 16.1559 2.86621 15.2979C2.72718 14.9041 2.69712 14.4494 2.64746 13.8271C2.62496 13.5452 2.61746 13.4624 2.60254 13.3867C2.56383 13.1907 2.48627 13.0039 2.375 12.8379C2.33205 12.7738 2.27926 12.7095 2.0957 12.4941C1.69072 12.0189 1.39007 11.6766 1.20996 11.2998C0.817569 10.4788 0.817654 9.52413 1.20996 8.70312C1.39007 8.3263 1.69073 7.984 2.0957 7.50879C2.27918 7.29349 2.33206 7.22903 2.375 7.16504C2.48625 6.99906 2.56383 6.81224 2.60254 6.61621C2.61749 6.54047 2.62491 6.45741 2.64746 6.1748C2.6971 5.55278 2.72728 5.09873 2.86621 4.70508C3.1693 3.84699 3.84504 3.17125 4.70312 2.86816C5.09677 2.72924 5.55083 2.69905 6.17285 2.64941C6.45546 2.62686 6.53851 2.61945 6.61426 2.60449C6.81029 2.56578 6.9971 2.4882 7.16309 2.37695C7.22708 2.33402 7.29154 2.28113 7.50684 2.09766C7.98205 1.69268 8.32435 1.39202 8.70117 1.21191Z" fill="#0068BC" stroke="white" stroke-width="1.5"/>
<path fill-rule="evenodd" clip-rule="evenodd" d="M7.99302 2.6682C7.79008 2.84114 7.6886 2.92762 7.58023 3.00025C7.33181 3.16675 7.05283 3.28231 6.75943 3.34024C6.63144 3.36551 6.49854 3.37611 6.23275 3.39732C5.56493 3.45062 5.23102 3.47726 4.95244 3.57566C4.30811 3.80324 3.80129 4.31006 3.57371 4.95439C3.47531 5.23297 3.44866 5.56688 3.39537 6.2347C3.37416 6.5005 3.36355 6.63339 3.33828 6.76138C3.28036 7.05478 3.1648 7.33377 2.9983 7.58219C2.92566 7.69056 2.83919 7.79203 2.66624 7.99497C2.23171 8.50487 2.01444 8.75983 1.88703 9.02639C1.59234 9.64293 1.59234 10.3597 1.88703 10.9762C2.01444 11.2428 2.23171 11.4977 2.66624 12.0076C2.83917 12.2106 2.92567 12.3121 2.9983 12.4204C3.1648 12.6688 3.28036 12.9478 3.33828 13.2412C3.36355 13.3692 3.37416 13.5021 3.39537 13.7679C3.44866 14.4357 3.47531 14.7696 3.57371 15.0482C3.80129 15.6925 4.30811 16.1994 4.95244 16.4269C5.23102 16.5253 5.56493 16.552 6.23275 16.6053C6.49854 16.6265 6.63144 16.6371 6.75943 16.6624C7.05283 16.7203 7.33181 16.8358 7.58023 17.0024C7.6886 17.075 7.79008 17.1615 7.99302 17.3344C8.50292 17.7689 8.75787 17.9862 9.02444 18.1136C9.64098 18.4083 10.3577 18.4083 10.9743 18.1136C11.2408 17.9862 11.4958 17.7689 12.0057 17.3344C12.2086 17.1615 12.3101 17.075 12.4185 17.0024C12.6669 16.8358 12.9459 16.7203 13.2393 16.6624C13.3673 16.6371 13.5002 16.6265 13.7659 16.6053C14.4338 16.552 14.7677 16.5253 15.0463 16.4269C15.6906 16.1994 16.1974 15.6925 16.425 15.0482C16.5234 14.7696 16.55 14.4357 16.6033 13.7679C16.6245 13.5021 16.6351 13.3692 16.6604 13.2412C16.7183 12.9478 16.8339 12.6688 17.0004 12.4204C17.073 12.312 17.1595 12.2106 17.3325 12.0076C17.767 11.4977 17.9843 11.2428 18.1117 10.9762C18.4064 10.3597 18.4064 9.64293 18.1117 9.02639C17.9843 8.75983 17.767 8.50488 17.3325 7.99497C17.1595 7.79203 17.073 7.69056 17.0004 7.58219C16.8339 7.33377 16.7183 7.05478 16.6604 6.76139C16.6351 6.63339 16.6245 6.5005 16.6033 6.2347C16.55 5.56688 16.5234 5.23297 16.425 4.95439C16.1974 4.31006 15.6906 3.80324 15.0463 3.57566C14.7677 3.47726 14.4338 3.45062 13.7659 3.39732C13.5002 3.37611 13.3673 3.36551 13.2393 3.34024C12.9459 3.28231 12.6669 3.16675 12.4185 3.00025C12.3101 2.92762 12.2086 2.84114 12.0057 2.6682C11.4958 2.23366 11.2408 2.01639 10.9743 1.88898C10.3577 1.5943 9.64098 1.5943 9.02444 1.88898C8.75787 2.01639 8.50292 2.23366 7.99302 2.6682ZM13.6439 8.22058C13.9088 7.95572 13.9088 7.5263 13.6439 7.26144C13.3791 6.99658 12.9496 6.99658 12.6848 7.26144L8.6429 11.3033L7.3139 9.9743C7.04904 9.70944 6.61962 9.70944 6.35475 9.9743C6.0899 10.2392 6.0899 10.6686 6.35475 10.9334L8.16333 12.742C8.42819 13.0069 8.85762 13.0069 9.12248 12.742L13.6439 8.22058Z" fill="#0068BC"/>
</g>
<defs>
<clipPath id="clip0_3807_10728">
<rect width="20" height="20" fill="white"/>
</clipPath>
</defs>
</svg>
